<?xml version="1.0" encoding="utf-8"?>
<!-- Generator: Adobe Illustrator 25.4.1, SVG Export Plug-In . SVG Version: 6.00 Build 0)  -->
<svg version="1.1" id="Layer_1" xmlns="http://www.w3.org/2000/svg" xmlns:xlink="http://www.w3.org/1999/xlink" x="0px" y="0px"
	 viewBox="0 0 618.7 454.8" style="enable-background:new 0 0 618.7 454.8;" xml:space="preserve">
<style type="text/css">
	.st0{fill:#2B3A45;}
</style>
<g id="Layer_2_00000026866656120504339590000008224379792691473053_">
	<g id="Layer_1-2">
		<path class="st0" d="M611.5,13.2c-4.2-8.5-19.5-8.8-33.6-8.8c-12.6,0-57.5,1.1-119.4,37.8c-12.9,7.6-23.7,14.1-36.5,25.5
			c-25.1,22.1-37.4,44.6-47.8,62.8c-14.2,24.9-35,60-64.9,105.6c-29.9-45.6-50.7-80.7-64.9-105.6c-10.4-18.3-22.7-40.8-47.8-62.9
			c-12.9-11.3-23.6-17.8-36.5-25.4C98.2,5.5,53.4,4.4,40.8,4.4C26.6,4.4,11.4,4.7,7.2,13.2C2.3,23,13.3,40.7,34.6,58.7
			c4.6,8.7,10,16.9,16.1,24.4c14.5,17.9,29.8,28,26.9,36.2c-1.5,4.4-6.9,4.6-6.9,7.8c0.1,6.7,13.5,7.6,17.4,10.2
			c10.3,7,4.8,28.7,5.9,39.4c1.2,12.1,4,24,8.3,35.4c2.9,7.7,5.3,13.9,10.1,20.1c2.8,3.7,6.2,6.9,10.1,9.5
			c10.5,6.7,19.6,5.5,31.1,7.2c8,1.2,19.3,4.2,32.6,12.7c-10.4,2.4-20.4,6.6-29.4,12.4c-8.3,5.4-21.6,14-28.9,31.4
			c0,0-8.4,19.6-2.9,41.1c0.8,3,1.8,6,2.9,8.8c1.4,3.2,3,6.3,4.9,9.3c-0.9,1.2-8.1,11-4.9,23.5c1.9,7.1,6.8,12.1,12.4,16.6
			c-5.8,5.4-6.3,16-2.9,22.8c1.4,2.9,3.6,5.4,6.4,7.1c5.9,3.5,13.4,2.1,20.1,0.6c3.6,7.4,8.8,13.6,17.4,15c8,1.4,14.5-1.3,20.7-5.9
			c0.2-0.2,0.5-0.3,0.7-0.4c0.3,0,0.5,0.1,0.8,0.2c7.4,3.1,15.5,5,23.3,2c7.1-2.8,11.8-10.5,14.5-17.3c3.4-8.4,5.2-17.5,9-25.7
			c1.3-2.7,2.9-5.3,4.4-7.9c5.9-11.1,11.1-22.6,16-34.2c2.5-5.9,5-11.8,7.4-17.7c11.8-28.9,17.6-43.3,22.5-61.6
			c3.8-14.4,6.7-29.1,8.7-43.9c1.9,14.8,4.8,29.5,8.7,43.9c4.9,18.3,10.7,32.7,22.5,61.6c2.4,5.9,4.9,11.9,7.4,17.7
			c5,11.6,10.1,23.1,16,34.2c1.4,2.6,3.1,5.2,4.4,7.9c3.8,8.2,5.6,17.3,9,25.7c2.8,6.9,7.4,14.5,14.5,17.3c7.8,3.1,15.9,1.1,23.3-2
			c0.2-0.1,0.5-0.2,0.8-0.2c0.3,0.1,0.5,0.2,0.7,0.4c6.2,4.6,12.7,7.3,20.7,5.9c8.6-1.4,13.8-7.6,17.4-15c6.7,1.5,14.2,2.9,20.1-0.6
			c2.8-1.7,5-4.2,6.4-7.1c3.4-6.8,2.9-17.4-2.9-22.8c5.6-4.4,10.6-9.4,12.4-16.6c3.3-12.5-4-22.3-4.9-23.5c1.9-3,3.5-6.1,4.9-9.3
			c1.2-2.9,2.2-5.8,2.9-8.8c5.4-21.5-2.9-41.1-2.9-41.1c-7.4-17.3-20.6-25.9-28.9-31.4c-9-5.8-18.9-10-29.3-12.4
			c13.3-8.5,24.6-11.5,32.6-12.7c11.5-1.7,20.6-0.5,31.1-7.2c3.9-2.5,7.3-5.7,10.1-9.4c4.7-6.2,7.1-12.4,10.1-20.1
			c4.3-11.4,7.1-23.3,8.3-35.4c1.1-10.6-4.4-32.4,5.9-39.4c4-2.7,17.3-3.6,17.4-10.2c0.1-3.2-5.3-3.5-6.9-7.8
			c-2.9-8.2,12.4-18.3,26.9-36.2c6.2-7.6,11.6-15.8,16.1-24.5C605.4,40.6,616.4,22.9,611.5,13.2z"/>
	</g>
</g>
</svg>
