<svg xmlns="http://www.w3.org/2000/svg" viewBox="0 0 621.69 454.16"><g id="Layer_2" data-name="Layer 2"><g id="Layer_1-2" data-name="Layer 1"><path d="M593.76,32.59C589.3,9.12,546.54.29,520.24.61,461.13,1.31,419,49,405.74,64.05c-7.65,8.66-16.8,20.43-42.72,69.21-23,43.26-40.31,80.12-52.18,106.63-11.87-26.51-29.18-63.37-52.17-106.63C232.74,84.48,223.59,72.71,216,64.05,202.64,49,160.56,1.31,101.45.61c-26.3-.32-69.06,8.51-73.52,32C24.2,52.23,49.24,71.92,53.65,75.31a138.83,138.83,0,0,0,15.16,23C78.67,110.38,88,123,96.71,135.9c3.67,5.43,7.89,12.34,8.37,19.07.42,5.89-2.51,10.56-4,16.26-.7,2.77-5.42,22.5,2.88,42.78,2.7,6.6,4.88,11.89,10.26,16.66,6.67,5.92,12.91,6.25,14.09,11.21,1.41,5.87-6.18,10-4.69,13.14,2.3,4.82,21.21-3.57,41.85-1.15a68.51,68.51,0,0,1,30.57,11.89,85.34,85.34,0,0,0-27.56,11.64c-7.8,5.08-20.21,13.15-27.14,29.42a124.8,124.8,0,0,0-8.54,38.34c-.85,14.36-1.77,29.68,7.9,43.15a45.33,45.33,0,0,0,12.58,11.76c-4.51,8.13-4.32,17.34.46,23.27a17.54,17.54,0,0,0,8.84,5.67c-.2,5.22,8.5,7.54,9.65,7.81,1.48.35.87,3.27,3.22,4.82,2,1.35,4.83.68,5.28.58,2.4-.58,3.12-2,4-1.61,1.32.52,1.08,4,.92,6.77-.6,10,3.16,7.6,8.8,1.38,6.27-6.9,15-9.22,21.28-10.1a30.91,30.91,0,0,0,12.87-1.38c12-4,16.14-15,21.54-25.39q17.66-34.12,32.2-69.7c11-27.13,16.57-40.7,21.13-57.88a325.51,325.51,0,0,0,7.3-35.3,325.51,325.51,0,0,0,7.3,35.3c4.56,17.18,10.09,30.75,21.14,57.88q14.48,35.6,32.2,69.7c5.39,10.42,9.51,21.41,21.54,25.39a30.87,30.87,0,0,0,12.86,1.38c6.32.88,15,3.2,21.29,10.1,5.64,6.22,9.4,8.61,8.8-1.38-.17-2.74-.41-6.25.92-6.77.9-.35,1.61,1,4,1.61.45.1,3.24.77,5.28-.58,2.34-1.55,1.73-4.47,3.22-4.82,1.15-.27,9.84-2.59,9.64-7.81a17.54,17.54,0,0,0,8.84-5.67c4.79-5.93,5-15.14.46-23.27a45.19,45.19,0,0,0,12.58-11.76c9.67-13.47,8.76-28.79,7.9-43.15a125,125,0,0,0-8.53-38.34c-6.93-16.27-19.34-24.34-27.15-29.42a85.25,85.25,0,0,0-27.56-11.64,68.56,68.56,0,0,1,30.58-11.89c20.63-2.42,39.55,6,41.85,1.15,1.49-3.12-6.1-7.27-4.7-13.14,1.19-5,7.42-5.29,14.1-11.21,5.37-4.77,7.55-10.06,10.25-16.66,8.3-20.28,3.59-40,2.89-42.78-1.44-5.7-4.38-10.37-3.95-16.26.48-6.73,4.69-13.64,8.37-19.07,8.74-12.94,18-25.52,27.9-37.63a138,138,0,0,0,15.15-23C572.45,71.92,597.49,52.23,593.76,32.59Z" fill="#2b3a45"/><rect width="621.69" height="454.16" fill="none"/></g></g></svg>