<svg xmlns="http://www.w3.org/2000/svg" viewBox="0 0 621.69 454.16"><g id="Layer_2" data-name="Layer 2"><g id="Layer_1-2" data-name="Layer 1"><path d="M89.12,14.75A14.06,14.06,0,1,1,77.84,31.14,14.06,14.06,0,0,1,89.12,14.75Z" fill="#fff"/><path d="M49.16,37a8.15,8.15,0,1,1,9.49,6.53A8.14,8.14,0,0,1,49.16,37Z" fill="#fff"/><path d="M180.85,245.41c-9.34-2.46-22.48-3.2-34.26-5.82-10-2.23-19-5.81-23.92-13a48.08,48.08,0,0,1-8.2-30.34c.5-6.92,2.49-13.64,3.21-20.54,1.59-15.22-3.16-30.57-10.76-43.85a147.51,147.51,0,0,0-15-21.26c-4.11-4.91-8.47-9.6-12.94-14-8.54-8.44-15.94-17.08-17.79-29.55C57,38.94,101.15,51.55,112.94,60.6c-1.64-1.25-.79-11.59-.06-13.73,1.59-4.63,6.58-8.57,10.76-10.76,10.75-5.65,23-1.7,28.79.29,24.46,8.42,44.2,27.56,61,50.41,13.49,18.4,24.6,38.4,35.42,58.45,8.28,15.37,16.54,30.78,23.77,46.68,8.11,17.86,28,47.82-1.58,55.84C239.9,256.21,211.39,253.44,180.85,245.41Z" fill="#fff"/><path d="M173.52,427.92a8.65,8.65,0,1,1,8.66-8.65A8.65,8.65,0,0,1,173.52,427.92Z" fill="#fff"/><circle cx="190.26" cy="432.98" r="6.66" fill="#fff"/><path d="M189.65,403.42c-7.67,2.76-20.21-.1-23.83-8.29-3.74-8.47,5-17.84,9.9-23.69,2.28-2.7,4.66-5.3,7.08-7.86a44.93,44.93,0,0,0,27,17.41,112.2,112.2,0,0,1-7.8,12.61C198.81,397.85,194.68,401.61,189.65,403.42Z" fill="#fff"/><path d="M180.6,337.06A38.36,38.36,0,1,1,219,375.42,38.41,38.41,0,0,1,180.6,337.06Z" fill="#fff"/><path d="M291.26,288.32c-8.71,26.43-17.9,52.44-29.21,77.88-6.56,14.75-17.81,38.91-36.45,40.94-1.06.12-11.58,1.15-14.94-4.26-2.61-4.19-.23-8.56,1.56-12.52,1.17-2.61,2.25-5.26,3.38-7.88a5.7,5.7,0,0,1,.32-.67c1,.07,2,.11,3,.11a44.89,44.89,0,1,0-39.52-23.64c-2,2.27-4,4.51-6.1,6.7-5.2,5.46-22.67,18.76-27.88,6.23-3.53-8.49-.38-20.14,1.66-28.61a197.15,197.15,0,0,1,7.45-24.12c1.86-4.88,4-9.73,7.22-13.84,3.77-4.81,8.87-8.4,14.05-11.66,12.8-8,27.13-11.81,41-17.24,11.4-4.47,70.59-24.78,75.73-1C293.42,278.87,292.73,283.84,291.26,288.32Z" fill="#fff"/><path d="M516.19,26a14.06,14.06,0,1,1,11.27,16.38A14.06,14.06,0,0,1,516.19,26Z" fill="#fff"/><circle cx="431.43" cy="432.98" r="6.66" transform="translate(-65.07 789.49) rotate(-80.78)" fill="#fff"/><path d="M432,403.42c-5-1.81-9.16-5.57-12.4-9.82A110.68,110.68,0,0,1,411.84,381a44.88,44.88,0,0,0,27-17.41c2.42,2.56,4.81,5.16,7.09,7.86,4.92,5.85,13.63,15.22,9.89,23.69C452.24,403.32,439.71,406.18,432,403.42Z" fill="#fff"/><path d="M402.73,375.42a38.36,38.36,0,1,1,38.36-38.36A38.41,38.41,0,0,1,402.73,375.42Z" fill="#fff"/><path d="M448.16,427.92a8.65,8.65,0,1,1,8.66-8.65A8.65,8.65,0,0,1,448.16,427.92Z" fill="#fff"/><path d="M445.84,293c5.18,3.26,10.28,6.85,14.06,11.66,3.22,4.11,5.36,9,7.22,13.84a195.38,195.38,0,0,1,7.44,24.12c2,8.47,5.19,20.12,1.66,28.61-5.21,12.53-22.67-.77-27.88-6.23q-3.12-3.28-6.1-6.7a44.85,44.85,0,1,0-39.51,23.64c1,0,2,0,3-.11.12.24.23.46.32.67,1.13,2.62,2.21,5.27,3.38,7.88,1.78,4,4.17,8.33,1.56,12.52-3.37,5.41-13.88,4.38-14.95,4.26-18.64-2-29.89-26.19-36.45-40.94-11.31-25.44-20.5-51.45-29.2-77.88-1.48-4.48-2.16-9.45-1.27-13.57,5.13-23.79,64.32-3.48,75.72,1C418.71,281.17,433,285,445.84,293Z" fill="#fff"/><path d="M560.47,67.08c-1.85,12.47-9.26,21.11-17.79,29.55-4.47,4.42-8.84,9.11-12.94,14a146.73,146.73,0,0,0-15,21.26c-7.6,13.28-12.36,28.63-10.77,43.85.72,6.9,2.72,13.62,3.22,20.54a48.2,48.2,0,0,1-8.2,30.34c-4.88,7.14-13.91,10.72-23.92,13-11.78,2.62-24.92,3.36-34.26,5.82-30.54,8-59,10.8-90.15,2.37-29.56-8-9.7-38-1.58-55.84,7.23-15.9,15.48-31.31,23.77-46.68,10.81-20,21.92-40,35.42-58.45,16.75-22.85,36.5-42,61-50.41,5.79-2,18-5.94,28.79-.29,4.17,2.19,9.17,6.13,10.76,10.76.73,2.14,1.57,12.48-.06,13.73C520.53,51.55,564.65,38.94,560.47,67.08Z" fill="#fff"/><path d="M572.52,37A8.15,8.15,0,1,1,566,27.53,8.14,8.14,0,0,1,572.52,37Z" fill="#fff"/><rect width="621.69" height="454.16" fill="none"/></g></g></svg>