<?xml version="1.0" encoding="utf-8"?>
<!-- Generator: Adobe Illustrator 25.4.1, SVG Export Plug-In . SVG Version: 6.00 Build 0)  -->
<svg version="1.1" id="Layer_1" xmlns="http://www.w3.org/2000/svg" xmlns:xlink="http://www.w3.org/1999/xlink" x="0px" y="0px"
	 viewBox="0 0 403 241.4" style="enable-background:new 0 0 403 241.4;" xml:space="preserve">
<style type="text/css">
	.st0{fill:#FFFFFF;}
</style>
<g id="Layer_2_00000073718000450779490380000014975986733575049653_">
	<g id="Layer_1-2">
		<path class="st0" d="M168.8,55.6c-8.2-6.4-18.8-11.4-29.3-12.1c-7.5-0.6-18,2.1-15.4,11.9c1.3,4.9,5.9,9.4,12.1,12
			c4.6,1.9,9.5,2.7,14.8,3.6c1.6,0.3,3.2,0.5,4.8,0.9c8.2,1.6,16.1,3.9,23.8,7c5.1,2,9.9,4.5,14.4,7.5
			C189.2,74.2,177.7,62.4,168.8,55.6z M136.8,61.8c-4.1,0-7.5-3.3-7.5-7.5s3.3-7.5,7.5-7.5s7.5,3.3,7.5,7.5
			C144.3,58.5,141,61.8,136.8,61.8L136.8,61.8z M155.5,67.7c-2.9,0-5.2-2.3-5.2-5.2c0-2.9,2.3-5.2,5.2-5.2s5.2,2.3,5.2,5.2
			c0,0,0,0,0,0C160.7,65.3,158.4,67.6,155.5,67.7L155.5,67.7z"/>
		<path class="st0" d="M262.6,43.4c-10.5,0.8-21.1,5.7-29.3,12.1c-8.9,6.9-20.4,18.6-25.2,30.8c4.5-3,9.3-5.6,14.3-7.6
			c7.7-3.1,15.7-5.5,23.8-7c1.6-0.3,3.2-0.6,4.8-0.9c5.2-0.9,10.2-1.7,14.8-3.6c6.3-2.6,10.9-7,12.1-12
			C280.6,45.5,270.1,42.9,262.6,43.4z M246.6,67.6c-2.9,0-5.2-2.3-5.2-5.2c0-2.9,2.3-5.2,5.2-5.2c2.9,0,5.2,2.3,5.2,5.2c0,0,0,0,0,0
			C251.8,65.3,249.4,67.6,246.6,67.6L246.6,67.6z M265.3,61.8c-4.1,0-7.5-3.3-7.5-7.5s3.3-7.5,7.5-7.5s7.5,3.3,7.5,7.5
			C272.7,58.5,269.4,61.8,265.3,61.8C265.2,61.8,265.2,61.8,265.3,61.8L265.3,61.8z"/>
		<path class="st0" d="M25.7,17.1c-2,0-3.7-1.6-3.7-3.7s1.6-3.7,3.7-3.7c2,0,3.7,1.6,3.7,3.7c0,0,0,0,0,0
			C29.4,15.5,27.7,17.1,25.7,17.1z"/>
		<path class="st0" d="M117.4,206.3c-2.4,0-4.4-2-4.4-4.4c0-2.4,2-4.4,4.4-4.4c2.4,0,4.4,2,4.4,4.4c0,0,0,0,0,0
			C121.8,204.3,119.8,206.3,117.4,206.3z"/>
		<path class="st0" d="M131.2,220.4c-3.1,0-5.5-2.5-5.5-5.5s2.5-5.5,5.5-5.5c3.1,0,5.5,2.5,5.5,5.5
			C136.7,217.9,134.2,220.3,131.2,220.4z"/>
		<path class="st0" d="M154.6,224.3c-2.4,0-4.4-2-4.4-4.4s2-4.4,4.4-4.4c2.4,0,4.4,2,4.4,4.4S157.1,224.3,154.6,224.3L154.6,224.3z"
			/>
		<path class="st0" d="M191.2,152.9c-0.7,11-1.4,22.1-4,32.9c-2.6,10.8-17.4,33.8-30,19.3c-0.9-1-1.8-2.3-3.1-2.3
			c-0.6,0-1.2,0.2-1.7,0.5c-8.2,3.7-18,0.2-23.5-6.7c-1.1-1.3-1.9-2.7-2.6-4.3c-0.6-1.4-1.1-2.9-1.4-4.4c-0.3-1.2-0.1-2-1.6-2
			c-7.6,0.1-12.7-1.7-14.2-9.8c-1.2-6.3,1.2-12.8,5.1-17.5c8.1-9.5,22.1-14.1,33.4-18.5c1-0.4,2-0.7,3-1.1
			c12.7-4.7,25.9-8.3,38.4-13.5c0.4-0.2,0.8-0.3,1.2-0.2c0.7,0.2,0.8,1,0.9,1.7C191.9,135.6,191.9,144.3,191.2,152.9z"/>
		<path class="st0" d="M188.2,114.2c-3,2.5-6.4,4.6-10,6.3c-3.6,1.7-7.4,3.1-11.1,4.4c-23.4,8.5-69.4,26.3-93,10.1
			c-10.8-7.4-16.5-24.3-15.1-36.9c0.3-2.4,1-4.7,1.9-6.9c0.3-0.8,2.6-6.9,3.2-6.8c-10.3-0.4-16.8-10.1-14.5-20
			c0.7-2.7,2-5.3,3.7-7.5c0.2-0.2,0.1-0.5-0.1-0.6c-0.9-0.8-3-3.1-3.2-3.3c-1.5-1.5-2.8-3.3-3.7-5.2c-0.9-2.1-1.6-4.2-2.1-6.4
			c-1.5-6.3-0.4-13,2.9-18.6c2-3.4,4.9-6.1,8.4-7.8c5.7-2.5,13.5-1.8,19.6-1.6c13.3,0.4,27.1,5.6,37.8,13.5
			c4.5,3.2,8.2,7.5,10.7,12.5c-1.4,1.1-2.5,2.3-3.5,3.8c-2.6,4.1-3.5,9-2.3,13.7c1.9,7,7.7,13,16.1,16.4c5.3,2.1,10.8,3.1,16.1,4
			c1.6,0.3,3.1,0.5,4.7,0.8c7.7,1.5,15.3,3.7,22.6,6.7c8.7,3.6,14.8,7.5,19.1,12.1C196.5,103.2,194.2,109.1,188.2,114.2z"/>
		<path class="st0" d="M247.4,224.3c-2.4,0-4.4-2-4.4-4.4s2-4.4,4.4-4.4c2.4,0,4.4,2,4.4,4.4c0,0,0,0,0,0
			C251.8,222.3,249.9,224.3,247.4,224.3z"/>
		<path class="st0" d="M270.9,220.4c-3.1,0-5.5-2.5-5.5-5.5s2.5-5.5,5.5-5.5c3.1,0,5.5,2.5,5.5,5.5S274,220.4,270.9,220.4
			L270.9,220.4z"/>
		<path class="st0" d="M284.7,206.3c-2.4,0-4.4-2-4.4-4.4c0-2.4,2-4.4,4.4-4.4c2.4,0,4.4,2,4.4,4.4c0,0,0,0,0,0
			C289.1,204.3,287.2,206.3,284.7,206.3C284.7,206.3,284.7,206.3,284.7,206.3z"/>
		<path class="st0" d="M292.9,176.1c-1.5,8.1-6.7,9.9-14.2,9.8c-1.5,0-1.3,0.8-1.6,2c-0.3,1.5-0.8,3-1.4,4.4c-0.7,1.5-1.6,3-2.6,4.3
			c-5.5,6.9-15.3,10.3-23.5,6.7c-0.5-0.3-1.1-0.5-1.7-0.5c-1.3,0.1-2.2,1.3-3.1,2.3c-12.6,14.6-27.4-8.6-30-19.3
			c-2.6-10.6-3.3-21.9-4-32.9c-0.7-8.6-0.7-17.3,0-25.9c0.1-0.7,0.2-1.5,0.9-1.7c0.4-0.1,0.9,0,1.2,0.2c12.6,5.2,25.7,8.8,38.4,13.5
			c1,0.4,2,0.7,3,1.1c11.3,4.3,25.3,9,33.4,18.5C291.8,163.2,294.1,169.8,292.9,176.1z"/>
		<path class="st0" d="M357.9,41.5c-0.5,2.2-1.2,4.4-2.1,6.4c-1,1.9-2.2,3.7-3.7,5.2c-0.2,0.2-2.3,2.5-3.2,3.3
			c-0.2,0.2-0.2,0.4-0.1,0.6c1.8,2.2,3,4.7,3.7,7.5c2.3,9.9-4.2,19.5-14.6,20c0.7,0,2.9,6.1,3.2,6.8c0.9,2.2,1.5,4.5,1.9,6.9
			c1.4,12.6-4.3,29.5-15.1,36.9c-23.6,16.2-69.6-1.6-93-10.1c-3.7-1.4-7.5-2.7-11.1-4.4c-3.6-1.6-7-3.7-10-6.3
			c-6-5.1-8.3-11-8.2-17.2c4.3-4.7,10.4-8.6,19.1-12.1c7.3-3,14.9-5.2,22.6-6.7c1.6-0.3,3.1-0.6,4.7-0.8c5.3-0.9,10.9-1.9,16.1-4
			c8.4-3.4,14.2-9.3,16.1-16.4c1.2-4.7,0.3-9.7-2.3-13.7c-0.9-1.4-2.1-2.7-3.5-3.8c2.5-5,6.2-9.3,10.8-12.5
			c10.7-7.9,24.5-13.1,37.7-13.5c6.1-0.2,13.9-0.9,19.6,1.6c3.5,1.7,6.5,4.4,8.4,7.8C358.3,28.4,359.4,35.1,357.9,41.5z"/>
		<path class="st0" d="M376.4,17.1c-2,0-3.7-1.6-3.7-3.6s1.6-3.7,3.6-3.7c2,0,3.7,1.6,3.7,3.6c0,0,0,0,0,0
			C380,15.5,378.4,17.1,376.4,17.1z"/>
	</g>
</g>
</svg>
