<?xml version="1.0" encoding="utf-8"?>
<!-- Generator: Adobe Illustrator 25.4.1, SVG Export Plug-In . SVG Version: 6.00 Build 0)  -->
<svg version="1.1" id="Layer_1" xmlns="http://www.w3.org/2000/svg" xmlns:xlink="http://www.w3.org/1999/xlink" x="0px" y="0px"
	 viewBox="0 0 618.7 454.8" style="enable-background:new 0 0 618.7 454.8;" xml:space="preserve">
<style type="text/css">
	.st0{fill:#2B3A45;}
</style>
<g>
	<path class="st0" d="M176.7,419c-4.1,0-7.5,3.1-7.5,6.8c0,3.8,3.4,6.8,7.5,6.8c4.1,0,7.5-3.1,7.5-6.8
		C184.2,422.1,180.8,419,176.7,419z"/>
	<path class="st0" d="M442,419c-4.1,0-7.5,3.1-7.5,6.8c0,3.8,3.4,6.8,7.5,6.8c4.1,0,7.5-3.1,7.5-6.8C449.5,422.1,446.1,419,442,419z
		"/>
	<g>
		<path class="st0" d="M283,272.1c-8,9.7-15.5,19.8-23.1,29.8c-18.4,24.1-37.9,47.8-54,73.5c-3.1,5-8.4,11.9-2.9,16
			c9.7,7.4,23.2-2.5,29.6-9.6c0.8-0.8,1.5-1.7,2.2-2.6c9.2-10.8,16.1-23.3,23.1-35.6c7.1-12.5,12.9-24.7,18.2-38.1
			c3.8-9.6,9.4-20.5,10.4-30.8c0.2-2,0.5-4-0.6-4.3C285.2,270.3,284.1,270.7,283,272.1z"/>
		<ellipse class="st0" cx="210.8" cy="413.4" rx="14.6" ry="14"/>
		<path class="st0" d="M192.7,93.7C163.6,71.1,125.6,60.2,89,64.4c-36.3,4.2-12.8,31,2.4,45.3c9.2,8.6,19.6,16,30.8,21.7
			c1.6,0.8,2.7,2.3,2.9,4c0.6,5.7-6.1,9.4-8.1,13.8c-2.3,5.1-1.9,10.4,0.1,15.7c1.7,4.3,6.1,10.9,11.2,15.6c3.3,3.1-2,7.8-3,10.7
			c-1.6,4.6-1.9,10.2-0.2,14.9c3.5,9.6,12.4,17,21.4,21.1c14.5,6.6,30,10.4,45.8,12.5c23.2,3.1,47.4,2.3,70.7,1.2
			c6.6-0.3,18.9-2.1,19-11c0.1-5.6-3.4-10.9-6.1-15.5c-4.3-7.4-9.2-14.5-13.9-21.6C239.8,159.3,225,118.6,192.7,93.7z"/>
		<path class="st0" d="M276.6,248.5c-17.9,4.1-39.2,9.2-59.3,15.4c-27.2,8.4-67.1,13.2-80.7,42.3c-6.2,13.2-4,26.4-3.9,27.3
			c1.1,6.1,2.1,14.1,9,16.5c7.9,2.8,18,0.6,25.7-1.6c-14.5,14.1-19.3,22.5-16.9,29.3c2.6,7.4,13,12.1,21.8,11.6
			c14.5-0.8,19.6-15.6,49.8-54.4c14.7-18.9,30.5-37.2,45.8-55.6c5.9-7.1,11.6-13.7,16.5-21.5c0.5-0.8,1-1.6,1.2-2.4
			c0.1-0.3,0.1-0.5,0.2-0.8c0.2-2.1-1.2-4.1-3.1-5.1C280.9,248.7,278.6,248,276.6,248.5z"/>
		<path class="st0" d="M147.2,380.3c0-3-2.6-5.5-5.9-5.5c-3.3,0-5.9,2.5-5.9,5.5c0,3,2.6,5.5,5.9,5.5
			C144.6,385.7,147.2,383.3,147.2,380.3z"/>
		<path class="st0" d="M113.9,51.9c10.6,1.1,20.3,3.3,30.8,5.5c0.6,0.1,1.2,0.3,1.8,0.1c0.6-0.2,1.1-0.7,1-1.3
			c-0.1-0.5-0.5-0.8-0.8-1.1c-1.1-0.8-2.3-1.4-3.5-2c-10.1-4.9-20.2-10.3-30.8-13.8c-20.9-6.9-42.2-12.7-64.3-13.3
			c-4.4-0.1-9.4,0.2-12.3,3.5C32,34,34.1,41.1,38.1,45.3c11.2,11.8,27.4,8.4,41.5,6.8C91,50.9,102.5,50.8,113.9,51.9z"/>
		<path class="st0" d="M153.1,399.4c-5.2,0-9.5,4.4-9.5,9.8c0,5.4,4.2,9.8,9.5,9.8c5.2,0,9.5-4.4,9.5-9.8
			C162.5,403.8,158.3,399.4,153.1,399.4z"/>
		<path class="st0" d="M415.7,391.4c5.5-4.2,0.2-11-2.9-16c-16.1-25.7-35.6-49.4-54-73.5c-7.6-10-15.1-20-23.1-29.8
			c-1.1-1.4-2.2-1.8-3-1.6c-1,0.3-0.7,2.3-0.6,4.3c1,10.3,6.7,21.2,10.4,30.8c5.3,13.4,11.1,25.6,18.2,38.1
			c7,12.2,13.9,24.8,23.1,35.6c0.7,0.9,1.5,1.7,2.2,2.6C392.5,388.9,406,398.8,415.7,391.4z"/>
		<path class="st0" d="M465.6,399.4c-5.2,0-9.5,4.4-9.5,9.8c0,5.4,4.2,9.8,9.5,9.8c5.2,0,9.5-4.4,9.5-9.8
			C475.1,403.8,470.9,399.4,465.6,399.4z"/>
		<path class="st0" d="M570.6,26.1c-22.1,0.6-43.4,6.4-64.3,13.3c-10.6,3.5-20.8,8.9-30.8,13.8c-1.2,0.6-2.4,1.2-3.5,2
			c-0.4,0.3-0.8,0.6-0.8,1.1c-0.1,0.6,0.5,1.1,1,1.3c0.6,0.2,1.2,0,1.8-0.1c10.5-2.2,20.1-4.4,30.8-5.5c11.4-1.2,22.9-1.1,34.4,0.2
			c14.1,1.6,30.3,5,41.5-6.8c4-4.2,6.1-11.4,2.2-15.7C579.9,26.3,575,26,570.6,26.1z"/>
		<path class="st0" d="M529.7,64.4c-36.6-4.2-74.6,6.7-103.7,29.2c-32.3,25-47.1,65.6-69.3,99.1c-4.7,7.2-9.7,14.2-13.9,21.6
			c-2.7,4.7-6.2,9.9-6.1,15.5c0.2,8.9,12.4,10.6,19,11c23.3,1.1,47.6,1.9,70.7-1.2c15.7-2.1,31.2-5.9,45.8-12.5
			c9-4.1,17.9-11.4,21.4-21.1c1.7-4.7,1.5-10.3-0.2-14.9c-1-2.9-6.3-7.6-3-10.7c5.1-4.7,9.5-11.3,11.2-15.6
			c2.1-5.3,2.4-10.6,0.1-15.7c-2-4.4-8.7-8.1-8.1-13.8c0.2-1.7,1.4-3.2,2.9-4c11.2-5.8,21.6-13.1,30.8-21.7
			C542.5,95.4,566,68.6,529.7,64.4z"/>
		<path class="st0" d="M342.1,248.5c-2.1-0.5-4.3,0.2-6.2,1.2c-1.9,1-3.4,3-3.1,5.1c0,0.3,0.1,0.6,0.2,0.8c0.3,0.9,0.8,1.6,1.2,2.4
			c4.9,7.8,10.6,14.4,16.5,21.5c15.4,18.4,31.1,36.7,45.8,55.6c30.2,38.8,35.4,53.6,49.8,54.4c8.8,0.5,19.2-4.3,21.8-11.6
			c2.4-6.9-2.4-15.2-16.9-29.3c7.7,2.2,17.8,4.4,25.7,1.6c6.8-2.5,7.9-10.4,9-16.5c0.2-1,2.3-14.1-3.9-27.3
			c-13.6-29.1-53.5-33.9-80.7-42.3C381.4,257.7,360,252.6,342.1,248.5z"/>
		<ellipse class="st0" cx="407.9" cy="413.4" rx="14.6" ry="14"/>
		<path class="st0" d="M477.3,374.8c-3.3,0-5.9,2.5-5.9,5.5c0,3,2.6,5.5,5.9,5.5c3.3,0,5.9-2.5,5.9-5.5
			C483.2,377.2,480.6,374.8,477.3,374.8z"/>
		<path class="st0" d="M578.6,10.1c-12.3-0.1-56,1.1-116.3,36.9c-12.6,7.5-23.1,13.8-35.6,24.8c-24.5,21.5-36.5,43.4-46.6,61.2
			c-13.8,24.3-34.2,58.6-63.4,103.1c1.4,10.7,3.8,26,8.6,43.9c4.7,17.8,10.5,31.9,21.9,60.1c2.4,5.8,4.8,11.6,7.2,17.3
			c4.8,11.3,9.8,22.5,15.6,33.3c1.4,2.6,3.1,5.1,4.3,7.7c3.7,8,5.5,16.9,8.8,25c2.7,6.7,7.2,14.1,14.2,16.9c7.6,3,15.5,1.1,22.7-1.9
			c0.2-0.1,0.5-0.2,0.8-0.2c0.3,0,0.5,0.2,0.7,0.4c6.1,4.5,12.4,7.1,20.2,5.7c8.4-1.4,13.5-7.4,17-14.6c6.5,1.5,13.8,2.8,19.6-0.5
			c2.7-1.6,4.8-4.1,6.2-6.9c3.3-6.6,2.8-16.9-2.9-22.2c0.4,0.4,6.5-6,7.1-6.7c2.2-2.6,3.4-5.4,4.7-8.4c2.7-6.1,2.6-13.8,0.4-20.1
			c-0.6-1.8-1.7-3.6-2.8-5.1c0.3,0.4,5.4-1.5,5.8-1.8c1.9-1.3,3-3.6,3.1-5.8c0.2-2.9-1.3-5.1-2.3-7.7c-1.2-3.1,0.6-6.8,1-9.9
			c0.4-3.5,0.5-7.1,0.2-10.6c-0.5-7.1-2.5-14.1-5.3-20.6c-4.9-11.6-13.5-20.4-23.7-27.6c-4.2-2.9-8.5-6.5-13-9
			c-3.5-2-15.3-7.3-18.9-6.6c14-2.6,28.5,2.5,42.7,0.7c7.4-1,11.4-6.8,6-12.9c8.9-3.4,16.1-8.2,22-15.8c0-1.8,4.4-6.8,5.3-8.8
			c1.4-2.9,2.9-6.1,3.7-9.2c1.6-6.3,3-12.8,5-19.1c1.3-4.5,2.8-9.1,5.9-12.5c3.4-3.8,8.9-6.6,9.3-11.7c0.4-4.9-4.4-8.5-6.9-12.8
			c-11.8-20.7,18-13.9,18.3-28.2c0.1-3.2-5.2-3.4-6.7-7.6c-2.8-8,12-17.9,26.2-35.3c7.6-9.4,12.7-18,15.7-23.8
			c20.7-17.6,31.4-34.8,26.7-44.3C607.2,10.4,592.3,10.1,578.6,10.1z M386.1,381.8c-0.8-0.8-1.5-1.7-2.2-2.6
			c-9.2-10.8-16.1-23.3-23.1-35.6c-7.1-12.5-12.9-24.7-18.2-38.1c-3.8-9.6-9.4-20.5-10.4-30.8c-0.2-2-0.5-4,0.6-4.3
			c0.8-0.2,1.9,0.2,3,1.6c8,9.7,15.5,19.8,23.1,29.8c18.4,24.1,37.9,47.8,54,73.5c3.1,5,8.4,11.9,2.9,16
			C406,398.8,392.5,388.9,386.1,381.8z M407.9,427.3c-8.1,0-14.6-6.3-14.6-14c0-7.7,6.6-14,14.6-14s14.6,6.3,14.6,14
			C422.6,421.1,416,427.3,407.9,427.3z M442,432.6c-4.1,0-7.5-3.1-7.5-6.8c0-3.8,3.4-6.8,7.5-6.8c4.1,0,7.5,3.1,7.5,6.8
			C449.5,429.6,446.1,432.6,442,432.6z M465.6,419c-5.2,0-9.5-4.4-9.5-9.8c0-5.4,4.2-9.8,9.5-9.8c5.2,0,9.5,4.4,9.5,9.8
			C475.1,414.6,470.9,419,465.6,419z M477.3,385.7c-3.3,0-5.9-2.5-5.9-5.5c0-3,2.6-5.5,5.9-5.5c3.3,0,5.9,2.5,5.9,5.5
			C483.2,383.3,480.6,385.7,477.3,385.7z M482.2,306.2c6.2,13.2,4,26.4,3.9,27.3c-1.1,6.1-2.1,14.1-9,16.5c-7.9,2.8-18,0.6-25.7-1.6
			c14.5,14.1,19.3,22.5,16.9,29.3c-2.6,7.4-13,12.1-21.8,11.6c-14.5-0.8-19.6-15.6-49.8-54.4c-14.7-18.9-30.5-37.2-45.8-55.6
			c-5.9-7.1-11.6-13.7-16.5-21.5c-0.5-0.8-1-1.6-1.2-2.4c-0.1-0.3-0.1-0.5-0.2-0.8c-0.2-2.1,1.2-4.1,3.1-5.1c1.9-1,4.1-1.7,6.2-1.2
			c17.9,4.1,39.2,9.2,59.3,15.4C428.7,272.3,468.6,277,482.2,306.2z M527.3,109.7c-9.2,8.6-19.6,16-30.8,21.7
			c-1.6,0.8-2.7,2.3-2.9,4c-0.6,5.7,6.1,9.4,8.1,13.8c2.3,5.1,1.9,10.4-0.1,15.7c-1.7,4.3-6.1,10.9-11.2,15.6c-3.3,3.1,2,7.8,3,10.7
			c1.6,4.6,1.9,10.2,0.2,14.9c-3.5,9.6-12.4,17-21.4,21.1c-14.5,6.6-30,10.4-45.8,12.5c-23.2,3.1-47.4,2.3-70.7,1.2
			c-6.6-0.3-18.9-2.1-19-11c-0.1-5.6,3.4-10.9,6.1-15.5c4.3-7.4,9.2-14.5,13.9-21.6c22.2-33.5,37-74.1,69.3-99.1
			c29.1-22.5,67.1-33.4,103.7-29.2C566,68.6,542.5,95.4,527.3,109.7z M580.6,45.3c-11.2,11.8-27.4,8.4-41.5,6.8
			c-11.4-1.3-22.9-1.4-34.4-0.2c-10.6,1.1-20.3,3.3-30.8,5.5c-0.6,0.1-1.2,0.3-1.8,0.1c-0.6-0.2-1.1-0.7-1-1.3
			c0.1-0.5,0.5-0.8,0.8-1.1c1.1-0.8,2.3-1.4,3.5-2c10.1-4.9,20.2-10.3,30.8-13.8c20.9-6.9,42.2-12.7,64.3-13.3
			c4.4-0.1,9.4,0.2,12.3,3.5C586.7,34,584.6,41.1,580.6,45.3z"/>
		<path class="st0" d="M192.1,71.8c-12.5-11-23-17.3-35.6-24.8C96.1,11.2,52.4,10,40.1,10.1c-13.7,0.1-28.6,0.3-32.7,8.6
			c-4.7,9.5,6,26.7,26.7,44.3c3.1,5.8,8.1,14.5,15.7,23.8C64,104.3,78.9,114.1,76,122.1c-1.5,4.2-6.7,4.5-6.7,7.6
			c0.3,14.3,30.1,7.5,18.3,28.2c-2.5,4.3-7.2,7.9-6.9,12.8c0.4,5.1,5.9,7.9,9.3,11.7c3.1,3.5,4.5,8.1,5.9,12.5
			c1.9,6.4,3.3,12.8,5,19.1c0.8,3.2,2.3,6.3,3.7,9.2c1,1.9,5.3,6.9,5.3,8.8c5.8,7.6,13.1,12.4,22,15.8c-5.4,6.1-1.4,11.9,6,12.9
			c14.2,1.9,28.7-3.3,42.7-0.7c-3.6-0.7-15.5,4.6-18.9,6.6c-4.4,2.5-8.7,6-13,9c-10.2,7.1-18.7,16-23.7,27.6
			c-2.8,6.5-4.7,13.5-5.3,20.6c-0.3,3.5-0.2,7.1,0.2,10.6c0.4,3.1,2.3,6.9,1,9.9c-1,2.6-2.5,4.8-2.3,7.7c0.1,2.3,1.2,4.6,3.1,5.8
			c0.5,0.3,5.5,2.3,5.8,1.8c-1.1,1.5-2.1,3.3-2.8,5.1c-2.2,6.3-2.3,14,0.4,20.1c1.3,3.1,2.6,5.8,4.7,8.4c0.5,0.7,6.6,7.1,7.1,6.7
			c-5.7,5.3-6.2,15.6-2.9,22.2c1.4,2.8,3.5,5.3,6.2,6.9c5.8,3.4,13.1,2,19.6,0.5c3.5,7.3,8.6,13.2,17,14.6
			c7.8,1.4,14.1-1.3,20.2-5.7c0.2-0.2,0.4-0.3,0.7-0.4c0.3,0,0.5,0.1,0.8,0.2c7.2,3,15.1,4.9,22.7,1.9c7-2.8,11.5-10.2,14.2-16.9
			c3.3-8.2,5.1-17.1,8.8-25c1.2-2.6,2.9-5.1,4.3-7.7c5.8-10.8,10.8-22.1,15.6-33.3c2.5-5.7,4.9-11.5,7.2-17.3
			c11.5-28.2,17.2-42.3,21.9-60.1c4.8-17.9,7.2-33.2,8.6-43.9c-29.2-44.6-49.6-78.8-63.4-103.1C228.5,115.2,216.5,93.3,192.1,71.8z
			 M38.1,45.3c-4-4.2-6.1-11.4-2.2-15.7c2.9-3.3,7.9-3.6,12.3-3.5c22.1,0.6,43.4,6.4,64.3,13.3c10.6,3.5,20.8,8.9,30.8,13.8
			c1.2,0.6,2.4,1.2,3.5,2c0.4,0.3,0.8,0.6,0.8,1.1c0.1,0.6-0.5,1.1-1,1.3c-0.6,0.2-1.2,0-1.8-0.1c-10.5-2.2-20.1-4.4-30.8-5.5
			c-11.4-1.2-22.9-1.1-34.4,0.2C65.5,53.7,49.3,57.1,38.1,45.3z M135.5,380.3c0-3,2.6-5.5,5.9-5.5c3.3,0,5.9,2.5,5.9,5.5
			c0,3-2.6,5.5-5.9,5.5C138.1,385.7,135.5,383.3,135.5,380.3z M153.1,419c-5.2,0-9.5-4.4-9.5-9.8c0-5.4,4.2-9.8,9.5-9.8
			c5.2,0,9.5,4.4,9.5,9.8C162.5,414.6,158.3,419,153.1,419z M176.7,432.6c-4.1,0-7.5-3.1-7.5-6.8c0-3.8,3.4-6.8,7.5-6.8
			c4.1,0,7.5,3.1,7.5,6.8C184.2,429.6,180.8,432.6,176.7,432.6z M210.8,427.3c-8.1,0-14.6-6.3-14.6-14c0-7.7,6.6-14,14.6-14
			s14.6,6.3,14.6,14C225.4,421.1,218.9,427.3,210.8,427.3z M286.5,274.7c-1,10.3-6.7,21.2-10.4,30.8c-5.3,13.4-11.1,25.6-18.2,38.1
			c-7,12.2-13.9,24.8-23.1,35.6c-0.7,0.9-1.5,1.7-2.2,2.6c-6.4,7.1-19.9,17-29.6,9.6c-5.5-4.2-0.2-11,2.9-16
			c16.1-25.7,35.6-49.4,54-73.5c7.6-10,15.1-20,23.1-29.8c1.1-1.4,2.2-1.8,3-1.6C287,270.7,286.7,272.7,286.5,274.7z M285.9,254.7
			c0,0.3-0.1,0.6-0.2,0.8c-0.3,0.9-0.8,1.6-1.2,2.4c-4.9,7.8-10.6,14.4-16.5,21.5c-15.4,18.4-31.1,36.7-45.8,55.6
			c-30.2,38.8-35.4,53.6-49.8,54.4c-8.8,0.5-19.2-4.3-21.8-11.6c-2.4-6.9,2.4-15.2,16.9-29.3c-7.7,2.2-17.8,4.4-25.7,1.6
			c-6.8-2.5-7.9-10.4-9-16.5c-0.2-1-2.3-14.1,3.9-27.3c13.6-29.1,53.5-33.9,80.7-42.3c20.1-6.2,41.5-11.3,59.3-15.4
			c2.1-0.5,4.3,0.2,6.2,1.2C284.6,250.6,286.1,252.6,285.9,254.7z M275.9,214.4c2.7,4.7,6.2,9.9,6.1,15.5c-0.2,8.9-12.4,10.6-19,11
			c-23.3,1.1-47.6,1.9-70.7-1.2c-15.7-2.1-31.2-5.9-45.8-12.5c-9-4.1-17.9-11.4-21.4-21.1c-1.7-4.7-1.5-10.3,0.2-14.9
			c1-2.9,6.3-7.6,3-10.7c-5.1-4.7-9.5-11.3-11.2-15.6c-2.1-5.3-2.4-10.6-0.1-15.7c2-4.4,8.7-8.1,8.1-13.8c-0.2-1.7-1.4-3.2-2.9-4
			c-11.2-5.8-21.6-13.1-30.8-21.7C76.2,95.4,52.7,68.6,89,64.4c36.6-4.2,74.6,6.7,103.7,29.2c32.3,25,47.1,65.6,69.3,99.1
			C266.7,199.9,271.7,206.9,275.9,214.4z"/>
	</g>
</g>
</svg>
