<?xml version="1.0" encoding="utf-8"?>
<!-- Generator: Adobe Illustrator 25.4.1, SVG Export Plug-In . SVG Version: 6.00 Build 0)  -->
<svg version="1.1" id="Layer_1" xmlns="http://www.w3.org/2000/svg" xmlns:xlink="http://www.w3.org/1999/xlink" x="0px" y="0px"
	 viewBox="0 0 618.7 454.8" style="enable-background:new 0 0 618.7 454.8;" xml:space="preserve">
<style type="text/css">
	.st0{fill:#2B3A45;}
</style>
<g>
	<path class="st0" d="M283.7,271c-7.8,9.5-15.1,19.3-22.5,29.1c-18,23.6-37,46.7-52.7,71.8c-3.1,4.9-8.2,11.6-2.9,15.7
		c9.5,7.2,22.6-2.5,28.9-9.4c0.7-0.8,1.5-1.7,2.2-2.5c8.9-10.6,15.7-22.8,22.5-34.7c7-12.2,12.6-24.1,17.8-37.2
		c3.7-9.4,9.2-20,10.2-30.1c0.2-1.9,0.5-3.9-0.5-4.2C285.8,269.2,284.7,269.7,283.7,271z"/>
	<path class="st0" d="M277.4,248c-17.5,4.1-38.3,9-57.9,15c-26.6,8.2-65.5,12.9-78.8,41.3c-6,12.9-3.9,25.7-3.8,26.7
		c1.1,6,2.1,13.7,8.7,16.1c7.7,2.8,17.5,0.6,25.1-1.6c-14.1,13.8-18.8,22-16.5,28.7c2.5,7.2,12.7,11.8,21.3,11.4
		c14.1-0.8,19.1-15.2,48.7-53.1c14.4-18.5,29.7-36.4,44.7-54.3c5.8-6.9,11.4-13.3,16.1-20.9c0.5-0.7,0.9-1.5,1.2-2.3
		c0.1-0.3,0.1-0.5,0.2-0.8c0.2-2-1.2-4-3-5C281.6,248.2,279.4,247.5,277.4,248z"/>
	<path class="st0" d="M195.5,96.8c-28.4-22-65.5-32.6-101.3-28.5c-35.4,4.1-12.5,30.3,2.3,44.2c9,8.4,19.1,15.6,30,21.2
		c1.5,0.8,2.7,2.2,2.8,3.9c0.6,5.6-6,9.2-7.9,13.5c-2.2,4.9-1.9,10.2,0.1,15.3c1.7,4.2,6,10.7,10.9,15.2c3.2,3-1.9,7.7-2.9,10.4
		c-1.6,4.5-1.8,9.9-0.2,14.5c3.4,9.4,12.1,16.6,20.9,20.6c14.2,6.4,29.3,10.1,44.7,12.2c22.6,3,46.3,2.3,69,1.2
		c6.5-0.3,18.4-2,18.6-10.7c0.1-5.5-3.3-10.6-5.9-15.2c-4.2-7.3-9-14.1-13.6-21.1C241.5,160.9,227,121.2,195.5,96.8z"/>
	<path class="st0" d="M179.8,414.5c-4,0-7.3,3-7.3,6.7c0,3.7,3.3,6.7,7.3,6.7c4,0,7.3-3,7.3-6.7
		C187.1,417.4,183.9,414.5,179.8,414.5z"/>
	<ellipse class="st0" cx="213.1" cy="408.9" rx="14.3" ry="13.6"/>
	<path class="st0" d="M151.1,376.6c0-3-2.6-5.4-5.8-5.4c-3.2,0-5.8,2.4-5.8,5.4c0,3,2.6,5.4,5.8,5.4
		C148.5,382,151.1,379.6,151.1,376.6z"/>
	<path class="st0" d="M118.6,56.1c10.4,1.1,19.8,3.2,30.1,5.4c0.6,0.1,1.2,0.2,1.8,0.1c0.6-0.2,1.1-0.7,1-1.3
		c-0.1-0.5-0.4-0.8-0.8-1.1c-1-0.8-2.2-1.3-3.4-1.9c-9.8-4.8-19.7-10.1-30.1-13.5C96.7,37.1,76,31.5,54.3,30.9
		c-4.3-0.1-9.2,0.2-12,3.4c-3.8,4.3-1.7,11.2,2.2,15.4c10.9,11.5,26.8,8.2,40.5,6.7C96.2,55.1,107.4,55,118.6,56.1z"/>
	<path class="st0" d="M413.2,387.5c5.4-4.1,0.2-10.8-2.9-15.7c-15.7-25.1-34.8-48.2-52.7-71.8c-7.4-9.8-14.8-19.6-22.5-29.1
		c-1.1-1.3-2.1-1.8-2.9-1.6c-1,0.3-0.7,2.2-0.5,4.2c1,10.1,6.5,20.7,10.2,30.1c5.1,13.1,10.8,25,17.8,37.2
		c6.8,12,13.6,24.2,22.5,34.7c0.7,0.8,1.4,1.7,2.2,2.5C390.6,385,403.7,394.8,413.2,387.5z"/>
	<path class="st0" d="M156.8,395.3c-5.1,0-9.3,4.3-9.3,9.6c0,5.3,4.1,9.6,9.3,9.6c5.1,0,9.3-4.3,9.3-9.6
		C166,399.6,161.9,395.3,156.8,395.3z"/>
	<path class="st0" d="M564.4,30.9c-21.6,0.6-42.4,6.2-62.8,12.9c-10.3,3.4-20.3,8.7-30.1,13.5c-1.2,0.6-2.3,1.1-3.4,1.9
		c-0.4,0.3-0.8,0.6-0.8,1.1c-0.1,0.6,0.4,1.1,1,1.3c0.6,0.2,1.2,0,1.8-0.1c10.2-2.2,19.7-4.3,30.1-5.4c11.2-1.1,22.4-1,33.5,0.2
		c13.8,1.5,29.6,4.9,40.5-6.7c3.9-4.1,6-11.1,2.2-15.4C573.5,31.1,568.7,30.8,564.4,30.9z"/>
	<path class="st0" d="M473.4,371.3c-3.2,0-5.8,2.4-5.8,5.4c0,3,2.6,5.4,5.8,5.4c3.2,0,5.8-2.4,5.8-5.4
		C479.1,373.7,476.5,371.3,473.4,371.3z"/>
	<path class="st0" d="M341.3,248c-2-0.5-4.2,0.2-6,1.2c-1.8,1-3.3,2.9-3,5c0,0.3,0.1,0.5,0.2,0.8c0.3,0.8,0.7,1.6,1.2,2.3
		c4.8,7.6,10.4,14,16.1,20.9c15,17.9,30.4,35.8,44.7,54.3c29.5,37.9,34.6,52.3,48.7,53.1c8.6,0.5,18.8-4.2,21.3-11.4
		c2.3-6.7-2.3-14.9-16.5-28.7c7.6,2.2,17.4,4.3,25.1,1.6c6.7-2.4,7.7-10.1,8.7-16.1c0.2-1,2.3-13.8-3.8-26.7
		c-13.3-28.4-52.2-33.1-78.8-41.3C379.6,257,358.8,252,341.3,248z"/>
	<path class="st0" d="M524.5,68.3c-35.7-4.1-72.9,6.5-101.3,28.5c-31.5,24.4-46,64-67.6,96.7c-4.6,7-9.4,13.9-13.6,21.1
		c-2.6,4.6-6,9.7-5.9,15.2c0.2,8.7,12.1,10.4,18.6,10.7c22.7,1.1,46.4,1.9,69-1.2c15.4-2.1,30.5-5.8,44.7-12.2
		c8.8-4,17.5-11.2,20.9-20.6c1.7-4.6,1.4-10-0.2-14.5c-1-2.8-6.1-7.4-2.9-10.4c4.9-4.6,9.2-11,10.9-15.2c2-5.1,2.3-10.4,0.1-15.3
		c-1.9-4.3-8.5-7.9-7.9-13.5c0.2-1.7,1.3-3.1,2.8-3.9c10.9-5.6,21.1-12.8,30-21.2C537,98.6,559.9,72.4,524.5,68.3z"/>
	<path class="st0" d="M461.9,395.3c-5.1,0-9.3,4.3-9.3,9.6c0,5.3,4.1,9.6,9.3,9.6c5.1,0,9.3-4.3,9.3-9.6
		C471.2,399.6,467,395.3,461.9,395.3z"/>
	<ellipse class="st0" cx="405.6" cy="408.9" rx="14.3" ry="13.6"/>
	<path class="st0" d="M438.9,414.5c-4,0-7.3,3-7.3,6.7c0,3.7,3.3,6.7,7.3,6.7c4,0,7.3-3,7.3-6.7
		C446.2,417.4,442.9,414.5,438.9,414.5z"/>
	<path class="st0" d="M116,233.5C115.9,233.5,115.9,233.5,116,233.5C115.9,233.5,115.9,233.5,116,233.5z"/>
	<path class="st0" d="M80.5,126.5c-2,2.5-5.5,3.1-5.5,5.6c0,0,0,0,0,0C75,129.5,78.5,128.9,80.5,126.5z"/>
	<path class="st0" d="M134.3,389.3c-2-2.5-3.2-5.1-4.4-7.9C130.8,384.4,132.4,387,134.3,389.3z"/>
	<path class="st0" d="M129.5,301.5c0,0,0,0.1-0.1,0.3C129.5,301.7,129.5,301.6,129.5,301.5C129.5,301.5,129.5,301.5,129.5,301.5z"/>
	<path class="st0" d="M101.1,195.8c-0.7-2.4-1.5-4.8-2.5-7.1c1.4,8.3,3.6,16.4,6.6,24.3c0.5,1.2,0.9,2.3,1.3,3.5
		c-0.2-0.7-0.4-1.3-0.6-2C104.4,208.3,103,202,101.1,195.8z"/>
	<path class="st0" d="M137.6,392.8c-1.3-1.3-2.6-2.7-3.1-3.2C135.5,390.7,136.6,391.8,137.6,392.8z"/>
	<path class="st0" d="M152.5,274.7c-6.7,4.7-15,11.4-20.8,22.4C136.6,288,144,280.7,152.5,274.7z"/>
	<path class="st0" d="M130.7,299c0.2-0.4,0.4-0.9,0.7-1.3C131.1,298.2,130.9,298.6,130.7,299z"/>
	<path class="st0" d="M109.7,223.7c1.4,2.9,3,5.6,5.1,8.4c0,0,0,0,0,0c0,0,0,0,0,0C114.8,230.3,110.8,225.7,109.7,223.7z"/>
	<path class="st0" d="M572.2,15.2c-12-0.1-54.7,1.1-113.6,36c-12.3,7.3-22.5,13.4-34.8,24.2c-23.9,21-35.6,42.4-45.5,59.8
		c-13.5,23.7-33.4,57.2-61.9,100.7c1.3,10.4,3.7,25.3,8.4,42.8c4.6,17.4,10.2,31.2,21.4,58.7c2.3,5.6,4.6,11.3,7,16.9
		c4.7,11,9.6,22,15.3,32.5c1.3,2.5,3,5,4.2,7.5c3.6,7.8,5.3,16.5,8.6,24.5c2.6,6.5,7,13.8,13.8,16.5c7.4,3,15.1,1.1,22.2-1.8
		c0.2-0.1,0.5-0.2,0.7-0.2c0.3,0,0.5,0.2,0.7,0.3c5.9,4.4,12.1,6.9,19.7,5.6c8.2-1.4,13.1-7.2,16.6-14.3c6.4,1.5,13.5,2.8,19.1-0.5
		c2.6-1.5,4.7-4,6.1-6.7c3.2-6.5,2.7-16.5-2.8-21.7c0.4,0.4,6.4-5.9,6.9-6.5c2.1-2.5,3.3-5.2,4.6-8.2c2.6-5.9,2.6-13.4,0.4-19.6
		c-0.6-1.7-1.6-3.5-2.7-4.9c0.3,0.4,5.2-1.5,5.7-1.8c1.8-1.3,2.9-3.5,3-5.7c0.2-2.8-1.2-5-2.3-7.5c-1.2-3,0.6-6.6,1-9.7
		c0.4-3.4,0.5-6.9,0.2-10.3c-0.5-6.9-2.4-13.7-5.1-20.1c-4.8-11.3-13.2-20-23.1-26.9c-4.1-2.9-8.3-6.3-12.7-8.8
		c-3.4-1.9-14.9-7.1-18.5-6.4c13.7-2.6,27.9,2.5,41.7,0.7c7.3-1,11.1-6.6,5.9-12.6c8.6-3.3,15.8-8,21.4-15.4c0-1.8,4.3-6.7,5.2-8.6
		c1.4-2.9,2.8-5.9,3.6-9c1.6-6.2,3-12.5,4.9-18.7c1.3-4.4,2.7-8.9,5.7-12.2c3.3-3.7,8.7-6.4,9.1-11.4c0.4-4.8-4.3-8.3-6.7-12.5
		c-11.5-20.2,17.6-13.6,17.9-27.5c0.1-3.1-5-3.3-6.5-7.5c-2.8-7.8,11.8-17.4,25.6-34.4c7.5-9.2,12.4-17.6,15.4-23.3
		c20.2-17.2,30.7-34,26.1-43.3C600.1,15.5,585.6,15.3,572.2,15.2z M384.3,378.1c-0.7-0.8-1.5-1.7-2.2-2.5
		c-8.9-10.6-15.7-22.8-22.5-34.7c-7-12.2-12.6-24.1-17.8-37.2c-3.7-9.4-9.2-20-10.2-30.1c-0.2-1.9-0.5-3.9,0.5-4.2
		c0.8-0.2,1.8,0.2,2.9,1.6c7.8,9.5,15.1,19.3,22.5,29.1c18,23.6,37,46.7,52.7,71.8c3.1,4.9,8.2,11.6,2.9,15.7
		C403.7,394.8,390.6,385,384.3,378.1z M405.6,422.6c-7.9,0-14.3-6.1-14.3-13.6c0-7.5,6.4-13.6,14.3-13.6s14.3,6.1,14.3,13.6
		C419.9,416.5,413.5,422.6,405.6,422.6z M438.9,427.8c-4,0-7.3-3-7.3-6.7c0-3.7,3.3-6.7,7.3-6.7c4,0,7.3,3,7.3,6.7
		C446.2,424.8,442.9,427.8,438.9,427.8z M461.9,414.5c-5.1,0-9.3-4.3-9.3-9.6c0-5.3,4.1-9.6,9.3-9.6c5.1,0,9.3,4.3,9.3,9.6
		C471.2,410.2,467,414.5,461.9,414.5z M473.4,382c-3.2,0-5.8-2.4-5.8-5.4c0-3,2.6-5.4,5.8-5.4c3.2,0,5.8,2.4,5.8,5.4
		C479.1,379.6,476.5,382,473.4,382z M478.1,304.3c6,12.9,3.9,25.7,3.8,26.7c-1.1,6-2.1,13.7-8.7,16.1c-7.7,2.8-17.5,0.6-25.1-1.6
		c14.1,13.8,18.8,22,16.5,28.7c-2.5,7.2-12.7,11.8-21.3,11.4c-14.1-0.8-19.1-15.2-48.7-53.1c-14.4-18.5-29.7-36.4-44.7-54.3
		c-5.8-6.9-11.4-13.3-16.1-20.9c-0.5-0.7-0.9-1.5-1.2-2.3c-0.1-0.3-0.1-0.5-0.2-0.8c-0.2-2,1.2-4,3-5c1.8-1,4-1.6,6-1.2
		c17.5,4.1,38.3,9,57.9,15C425.8,271.2,464.8,275.9,478.1,304.3z M522.2,112.5c-9,8.4-19.1,15.6-30,21.2c-1.5,0.8-2.7,2.2-2.8,3.9
		c-0.6,5.6,6,9.2,7.9,13.5c2.2,4.9,1.9,10.2-0.1,15.3c-1.7,4.2-6,10.7-10.9,15.2c-3.2,3,1.9,7.7,2.9,10.4c1.6,4.5,1.8,9.9,0.2,14.5
		c-3.4,9.4-12.1,16.6-20.9,20.6c-14.2,6.4-29.3,10.1-44.7,12.2c-22.6,3-46.3,2.3-69,1.2c-6.5-0.3-18.4-2-18.6-10.7
		c-0.1-5.5,3.3-10.6,5.9-15.2c4.2-7.3,9-14.1,13.6-21.1c21.6-32.7,36.1-72.3,67.6-96.7c28.4-22,65.5-32.6,101.3-28.5
		C559.9,72.4,537,98.6,522.2,112.5z M574.2,49.6c-10.9,11.5-26.8,8.2-40.5,6.7c-11.1-1.2-22.4-1.3-33.5-0.2
		c-10.4,1.1-19.8,3.2-30.1,5.4c-0.6,0.1-1.2,0.2-1.8,0.1c-0.6-0.2-1.1-0.7-1-1.3c0.1-0.5,0.4-0.8,0.8-1.1c1-0.8,2.2-1.3,3.4-1.9
		c9.8-4.8,19.7-10.1,30.1-13.5c20.4-6.7,41.2-12.4,62.8-12.9c4.3-0.1,9.2,0.2,12,3.4C580.1,38.5,578.1,45.5,574.2,49.6z"/>
	<path class="st0" d="M134.4,389.4c0,0,0.1,0.1,0.2,0.2c-0.1-0.1-0.2-0.2-0.3-0.3C134.3,389.3,134.4,389.4,134.4,389.4z"/>
	<path class="st0" d="M129.5,301.5C129.5,301.5,129.5,301.5,129.5,301.5c0.4-0.9,0.8-1.7,1.1-2.5
		C130.3,299.9,129.9,300.7,129.5,301.5z"/>
	<path class="st0" d="M141.3,396c-1.3-1-2.5-2-3.7-3.1C139.3,394.5,141.1,396.2,141.3,396z"/>
	<path class="st0" d="M109.6,223.5c0,0.1,0.1,0.1,0.1,0.2c-1.1-2.3-2.1-4.7-3.1-7.3C107.4,218.8,108.5,221.2,109.6,223.5z"/>
	<path class="st0" d="M185,259.9c-12.6-8-23.4-10.9-31-12c-10.9-1.6-19.6-0.5-29.6-6.9c-3-1.9-5.8-4.3-8.4-7.5
		c5.5,6.6,12.2,10.8,20.3,14c-5.3,6-1.4,11.7,5.9,12.6c13.8,1.8,28-3.2,41.7-0.7c-3.6-0.7-15.1,4.5-18.5,6.4
		c-4.3,2.5-8.5,5.9-12.7,8.8c0,0-0.1,0.1-0.1,0.1c1.6-1.1,3.1-2.1,4.5-3C168,264.6,178.3,261.4,185,259.9z"/>
	<path class="st0" d="M91.7,141.8c-3.8-2.5-16.5-3.4-16.6-9.7c0,0,0,0,0,0c0.3,14,29.4,7.4,17.9,27.5c-2.4,4.2-7.1,7.7-6.7,12.5
		c0.4,5,5.8,7.7,9.1,11.4c1.4,1.5,2.4,3.3,3.2,5.2c-0.5-3.1-1-6.2-1.3-9.4C96.3,169.2,101.5,148.4,91.7,141.8z"/>
	<path class="st0" d="M134.2,357.9c-1.4-2.2-3.1-5.2-4.7-8.8c0,0-1.7-4-2.8-8.4c-4.8-18.9,1.7-36.3,2.7-38.8c-2.7,6.3-4.5,13-5,19.8
		c-0.3,3.4-0.2,6.9,0.2,10.3c0.4,3,2.2,6.7,1,9.7c-1,2.5-2.4,4.6-2.3,7.5c0.1,2.2,1.2,4.4,3,5.7c0.5,0.3,5.4,2.2,5.7,1.8
		c-1.1,1.5-2.1,3.2-2.7,4.9c-2.2,6.2-2.2,13.7,0.4,19.6c0,0,0,0.1,0.1,0.1c-0.1-0.4-0.2-0.8-0.3-1.1
		C126.4,368.3,133.3,359,134.2,357.9z"/>
	<path class="st0" d="M115.9,233.5c-0.4-0.4-0.7-0.9-1.1-1.4C115.2,232.5,115.5,233,115.9,233.5z"/>
	<path class="st0" d="M131.3,297.7c0.1-0.2,0.2-0.4,0.3-0.6C131.6,297.3,131.5,297.5,131.3,297.7z"/>
	<path class="st0" d="M80.5,126.5c0.4-0.5,0.8-1.1,1.1-1.8C81.3,125.4,81,126,80.5,126.5z"/>
	<path class="st0" d="M194.9,75.5c-12.2-10.8-22.5-16.9-34.8-24.2c-58.9-34.9-101.6-36-113.6-36c-13.4,0.1-27.9,0.3-32,8.4
		c-4.6,9.3,5.8,26.1,26.1,43.3c3,5.7,7.9,14.1,15.4,23.3c13.8,17,28.4,26.6,25.6,34.4c-0.3,0.7-0.6,1.3-1.1,1.8
		c-2,2.5-5.5,3.1-5.5,5.6c0.1,6.4,12.8,7.2,16.6,9.7c9.8,6.6,4.6,27.4,5.7,37.5c0.3,3.1,0.8,6.3,1.3,9.4c1,2.3,1.8,4.7,2.5,7.1
		c1.9,6.2,3.3,12.5,4.9,18.7c0.2,0.7,0.4,1.3,0.6,2c1,2.6,2,5,3.1,7.3c1.1,2,5.1,6.6,5.1,8.4c0,0,0,0,0,0c0.4,0.5,0.7,0.9,1.1,1.4
		c0,0,0,0,0.1,0.1c2.7,3.2,5.5,5.6,8.4,7.5c10,6.4,18.7,5.2,29.6,6.9c7.6,1.1,18.4,4,31,12c-6.6,1.5-17,4.7-27.9,11.8
		c-1.4,0.9-2.9,1.9-4.5,3c-8.5,6-15.9,13.3-20.8,22.4c-0.1,0.2-0.2,0.4-0.3,0.6c-0.2,0.4-0.4,0.9-0.7,1.3c-0.4,0.8-0.8,1.6-1.1,2.5
		c0,0.1-0.1,0.2-0.1,0.3c-1,2.5-7.4,19.9-2.7,38.8c1.1,4.3,2.8,8.4,2.8,8.4c1.5,3.7,3.2,6.6,4.7,8.8c-0.9,1.1-7.7,10.4-4.7,22.3
		c0.1,0.4,0.2,0.8,0.3,1.1c1.3,2.9,2.4,5.5,4.4,7.9c0.1,0.1,0.2,0.2,0.3,0.3c0.5,0.5,1.8,1.9,3.1,3.2c1.2,1.1,2.4,2.1,3.7,3.1
		c-5.6,5.1-6,15.2-2.8,21.7c1.4,2.7,3.4,5.2,6.1,6.7c5.6,3.3,12.7,2,19.1,0.5c3.4,7.1,8.4,12.9,16.6,14.3c7.6,1.3,13.8-1.2,19.7-5.6
		c0.2-0.2,0.4-0.3,0.7-0.3c0.3,0,0.5,0.1,0.7,0.2c7.1,2.9,14.8,4.8,22.2,1.8c6.8-2.7,11.2-10,13.8-16.5c3.2-8,4.9-16.7,8.6-24.5
		c1.2-2.6,2.8-5,4.2-7.5c5.7-10.6,10.5-21.5,15.3-32.5c2.4-5.6,4.7-11.2,7-16.9c11.2-27.5,16.8-41.2,21.4-58.7
		c4.6-17.5,7-32.4,8.4-42.8c-28.5-43.5-48.4-77-61.9-100.7C230.5,117.9,218.7,96.5,194.9,75.5z M44.5,49.6c-3.9-4.1-6-11.1-2.2-15.4
		c2.9-3.2,7.7-3.5,12-3.4c21.6,0.6,42.4,6.2,62.8,12.9c10.3,3.4,20.3,8.7,30.1,13.5c1.2,0.6,2.3,1.1,3.4,1.9
		c0.4,0.3,0.8,0.6,0.8,1.1c0.1,0.6-0.4,1.1-1,1.3c-0.6,0.2-1.2,0-1.8-0.1c-10.2-2.2-19.7-4.3-30.1-5.4c-11.2-1.1-22.4-1-33.5,0.2
		C71.3,57.8,55.5,61.2,44.5,49.6z M139.6,376.6c0-3,2.6-5.4,5.8-5.4c3.2,0,5.8,2.4,5.8,5.4c0,3-2.6,5.4-5.8,5.4
		C142.2,382,139.6,379.6,139.6,376.6z M156.8,414.5c-5.1,0-9.3-4.3-9.3-9.6c0-5.3,4.1-9.6,9.3-9.6c5.1,0,9.3,4.3,9.3,9.6
		C166,410.2,161.9,414.5,156.8,414.5z M179.8,427.8c-4,0-7.3-3-7.3-6.7c0-3.7,3.3-6.7,7.3-6.7c4,0,7.3,3,7.3,6.7
		C187.1,424.8,183.9,427.8,179.8,427.8z M213.1,422.6c-7.9,0-14.3-6.1-14.3-13.6c0-7.5,6.4-13.6,14.3-13.6c7.9,0,14.3,6.1,14.3,13.6
		C227.4,416.5,221,422.6,213.1,422.6z M287.1,273.6c-1,10.1-6.5,20.7-10.2,30.1c-5.1,13.1-10.8,25-17.8,37.2
		c-6.8,12-13.6,24.2-22.5,34.7c-0.7,0.8-1.4,1.7-2.2,2.5c-6.3,6.9-19.4,16.6-28.9,9.4c-5.4-4.1-0.2-10.8,2.9-15.7
		c15.7-25.1,34.8-48.2,52.7-71.8c7.4-9.8,14.8-19.6,22.5-29.1c1.1-1.3,2.1-1.8,2.9-1.6C287.6,269.7,287.3,271.7,287.1,273.6z
		 M286.4,254.1c0,0.3-0.1,0.5-0.2,0.8c-0.3,0.8-0.7,1.6-1.2,2.3c-4.8,7.6-10.4,14-16.1,20.9c-15,17.9-30.4,35.8-44.7,54.3
		c-29.5,37.9-34.6,52.3-48.7,53.1c-8.6,0.5-18.8-4.2-21.3-11.4c-2.3-6.7,2.3-14.9,16.5-28.7c-7.6,2.2-17.4,4.3-25.1,1.6
		c-6.7-2.4-7.7-10.1-8.7-16.1c-0.2-1-2.3-13.8,3.8-26.7c13.3-28.4,52.2-33.1,78.8-41.3c19.6-6,40.5-11,57.9-15c2-0.5,4.2,0.2,6,1.2
		C285.2,250.1,286.7,252,286.4,254.1z M276.7,214.7c2.6,4.6,6,9.7,5.9,15.2c-0.2,8.7-12.1,10.4-18.6,10.7c-22.7,1.1-46.4,1.9-69-1.2
		c-15.4-2.1-30.5-5.8-44.7-12.2c-8.8-4-17.5-11.2-20.9-20.6c-1.7-4.6-1.4-10,0.2-14.5c1-2.8,6.1-7.4,2.9-10.4
		c-4.9-4.6-9.2-11-10.9-15.2c-2-5.1-2.3-10.4-0.1-15.3c1.9-4.3,8.5-7.9,7.9-13.5c-0.2-1.7-1.3-3.1-2.8-3.9
		c-10.9-5.6-21.1-12.8-30-21.2c-14.8-13.9-37.7-40.1-2.3-44.2c35.7-4.1,72.9,6.5,101.3,28.5c31.5,24.4,46,64,67.6,96.7
		C267.8,200.5,272.6,207.4,276.7,214.7z"/>
</g>
</svg>
