<?xml version="1.0" encoding="utf-8"?>
<!-- Generator: Adobe Illustrator 25.4.1, SVG Export Plug-In . SVG Version: 6.00 Build 0)  -->
<svg version="1.1" id="Layer_1" xmlns="http://www.w3.org/2000/svg" xmlns:xlink="http://www.w3.org/1999/xlink" x="0px" y="0px"
	 viewBox="0 0 618.7 454.8" style="enable-background:new 0 0 618.7 454.8;" xml:space="preserve">
<style type="text/css">
	.st0{fill:#2B3A45;}
</style>
<g>
	<path class="st0" d="M183.8,419c-4.1,0-7.5,3.1-7.5,6.8c0,3.8,3.4,6.8,7.5,6.8s7.5-3.1,7.5-6.8S187.9,419,183.8,419z"/>
	<g>
		<g>
			<path class="st0" d="M435.1,419c-4.1,0-7.5,3.1-7.5,6.8c0,3.8,3.4,6.8,7.5,6.8s7.5-3.1,7.5-6.8S439.2,419,435.1,419z"/>
			<path class="st0" d="M604.2,18.9c-3.9-8.5-18.8-8.8-32.5-8.8c-12.3-0.1-56,1.1-116.3,36.9c-12.6,7.5-23.1,13.8-35.6,24.8
				c-24.5,21.5-36.5,43.4-46.6,61.2c-13.8,24.3-34.2,58.6-63.4,103.1c1.4,10.7,3.8,26,8.6,43.9c4.7,17.8,10.5,31.9,21.9,60.1
				c2.4,5.8,4.8,11.6,7.2,17.3c4.8,11.3,9.8,22.5,15.6,33.3c1.4,2.6,3.1,5.1,4.3,7.7c3.7,8,5.5,16.9,8.8,25
				c2.7,6.7,7.2,14.1,14.2,16.9c7.6,3,15.5,1.1,22.7-1.9c0.2-0.1,0.5-0.2,0.8-0.2s0.5,0.2,0.7,0.4c6.1,4.5,12.4,7.1,20.2,5.7
				c8.4-1.4,13.5-7.4,17-14.6c6.5,1.5,13.8,2.8,19.6-0.5c2.7-1.6,4.8-4.1,6.2-6.9c3.3-6.6,2.8-16.9-2.9-22.2c0.4,0.4,6.5-6,7.1-6.7
				c2.2-2.6,3.4-5.4,4.7-8.4c2.7-6.1,2.6-13.8,0.4-20.1c-0.6-1.8-1.7-3.6-2.8-5.1c0.3,0.4,5.4-1.5,5.8-1.8c1.9-1.3,3-3.6,3.1-5.8
				c0.2-2.9-1.3-5.1-2.3-7.7c-1.2-3.1,0.6-6.8,1-9.9c0.4-3.5,0.5-7.1,0.2-10.6c-0.5-7.1-2.5-14.1-5.3-20.6
				c-4.9-11.6-13.5-20.4-23.7-27.6c-4.2-2.9-8.5-6.5-13-9c-3.5-2-15.3-7.3-18.9-6.6c14-2.6,28.5,2.5,42.7,0.7c7.4-1,11.4-6.8,6-12.9
				c8.9-3.4,16.1-8.2,22-15.8c0-1.8,4.4-6.8,5.3-8.8c1.4-2.9,2.9-6.1,3.7-9.2c1.6-6.3,3-12.8,5-19.1c1.3-4.5,2.8-9.1,5.9-12.5
				c3.4-3.8,8.9-6.6,9.3-11.7c0.4-4.9-4.4-8.5-6.9-12.8c-11.8-20.7,18-13.9,18.3-28.2c0.1-3.2-5.2-3.4-6.7-7.6
				c-2.8-8,12-17.9,26.2-35.3c7.6-9.4,12.7-18,15.7-23.8C598.2,45.6,608.9,28.4,604.2,18.9z M465,55.1c1.1-0.8,2.3-1.4,3.5-2
				c10.1-4.9,20.2-10.3,30.8-13.8c20.9-6.9,42.2-12.7,64.3-13.3c4.4-0.1,9.4,0.2,12.3,3.5c0.3,0.3,0.5,0.7,0.7,1
				c-0.2-0.3-0.4-0.6-0.6-0.8c-3-3.4-7.9-3.7-12.3-3.6c-22.1,0.6-43.4,6.4-64.3,13.3c-10.6,3.5-20.8,8.9-30.8,13.8
				c-1.2,0.6-2.4,1.2-3.5,2c-0.4,0.3-0.8,0.6-0.8,1.1c-0.1,0.4,0.2,0.8,0.5,1c-0.4-0.3-0.7-0.7-0.6-1.1
				C464.3,55.7,464.7,55.4,465,55.1z M444.3,348.6c0.2,0.1,0.4,0.1,0.6,0.2c14.2,13.9,18.9,22.2,16.5,28.9c-0.8,2.4-2.5,4.5-4.6,6.2
				c2-1.7,3.6-3.7,4.4-6C463.6,371,458.8,362.7,444.3,348.6z M449.2,409.2c0-5.4,4.2-9.8,9.4-9.8
				C453.5,399.4,449.2,403.8,449.2,409.2z M325.9,270.4c0.8-0.2,1.9,0.2,3,1.6c8,9.7,15.5,19.8,23.1,29.8
				c18.4,24.1,37.9,47.8,54,73.5c3,4.9,8.1,11.5,3.3,15.6c4.6-4.2-0.5-10.7-3.4-15.5c-16.1-25.7-35.6-49.4-54-73.5
				c-7.6-10-15.1-20-23.1-29.8c-1.1-1.4-2.2-1.8-3-1.6c-0.2,0.1-0.4,0.2-0.5,0.5C325.4,270.7,325.6,270.5,325.9,270.4z M413.1,421.2
				c1.5-2.1,2.4-4.7,2.5-7.5C415.5,416.5,414.6,419.1,413.1,421.2z M415.6,413.4c0-7.7-6.5-14-14.6-14c-8,0-14.6,6.2-14.6,14
				c0,0,0,0,0-0.1c0-7.7,6.6-14,14.6-14S415.6,405.6,415.6,413.4C415.6,413.3,415.6,413.3,415.6,413.4z M435.1,432.6
				c-4.1,0-7.5-3.1-7.5-6.8c0-3.8,3.4-6.8,7.5-6.8c4.1,0,7.5,3.1,7.5,6.8C442.6,429.6,439.2,432.6,435.1,432.6z M449.2,409.2
				C449.2,409.2,449.2,409.2,449.2,409.2C449.2,409.2,449.2,409.2,449.2,409.2L449.2,409.2z M458.7,419
				C458.7,419,458.7,419,458.7,419C458.7,419,458.7,419,458.7,419c5.2,0,9.5-4.4,9.5-9.8v0C468.2,414.6,464,419,458.7,419z
				 M476.3,380.2c0-3.1-2.6-5.5-5.9-5.5c-3.3,0-5.9,2.5-5.9,5.5c0,0,0,0,0,0c0-3,2.6-5.5,5.9-5.5S476.3,377.2,476.3,380.2
				C476.3,380.2,476.3,380.2,476.3,380.2z M475.3,306.2c6.2,13.2,4,26.4,3.9,27.3c-1,5.3-1.9,12.2-6.7,15.4
				c4.6-3.3,5.6-9.9,6.5-15.2c0.2-1,2.3-14.1-3.9-27.3c-13.6-29.1-53.5-33.9-80.7-42.3c-19.9-6.4-41.3-11.5-59.2-15.6
				c-2.1-0.5-4.3,0.2-6.2,1.2c-0.4,0.2-0.9,0.5-1.2,0.9c0.4-0.4,0.9-0.8,1.4-1.1c1.9-1,4.1-1.7,6.2-1.2c17.9,4.1,39.2,9.2,59.3,15.4
				C421.8,272.3,461.7,277,475.3,306.2z M465.3,227.2c-14.5,6.6-30,10.4-45.8,12.5c-23.2,3.1-47.4,2.3-70.7,1.2
				c-6.6-0.3-18.9-2.1-19-11c0,0,0-0.1,0-0.1c0.2,8.9,12.4,10.6,19,11c23.3,1.1,47.6,1.9,70.7-1.2
				C435.2,237.5,450.7,233.7,465.3,227.2c9-4.2,17.9-11.5,21.4-21.2c0.4-1.2,0.7-2.4,0.9-3.6c-0.2,1.3-0.5,2.5-0.9,3.7
				C483.2,215.7,474.3,223.1,465.3,227.2z M483.5,180.5c-0.8,0.8-1.1,1.6-1.1,2.5C482.4,182.1,482.7,181.2,483.5,180.5
				c5.1-4.8,9.5-11.4,11.2-15.7c0.3-0.7,0.5-1.3,0.7-2c-0.2,0.7-0.4,1.4-0.7,2.1C493,169.2,488.6,175.8,483.5,180.5z M520.4,109.7
				c-9.2,8.6-19.6,16-30.8,21.7c-1.6,0.8-2.7,2.3-2.9,4c0,0.3,0,0.6,0,1c0-0.3,0-0.7,0-1.1c0.2-1.7,1.4-3.2,2.9-4
				C500.8,125.5,511.2,118.2,520.4,109.7c9.3-8.7,21.6-22.1,21.6-32.1C542,87.6,529.7,101,520.4,109.7z"/>
		</g>
		<path class="st0" d="M199.2,71.8c-12.5-11-23-17.3-35.6-24.8C103.2,11.2,59.5,10,47.2,10.1c-13.7,0.1-28.6,0.3-32.7,8.6
			c-4.7,9.5,6,26.7,26.7,44.3c3.1,5.8,8.1,14.5,15.7,23.8c14.2,17.5,29.1,27.3,26.2,35.3c-1.5,4.2-6.7,4.5-6.7,7.6
			c0.3,14.3,30.1,7.5,18.3,28.2c-2.5,4.3-7.2,7.9-6.9,12.8c0.4,5.1,5.9,7.9,9.3,11.7c3.1,3.5,4.5,8.1,5.9,12.5
			c1.9,6.4,3.3,12.8,5,19.1c0.8,3.2,2.3,6.3,3.7,9.2c1,1.9,5.3,6.9,5.3,8.8c5.8,7.6,13.1,12.4,22,15.8c-5.4,6.1-1.4,11.9,6,12.9
			c14.2,1.9,28.7-3.3,42.7-0.7c-3.6-0.7-15.5,4.6-18.9,6.6c-4.4,2.5-8.7,6-13,9c-10.2,7.1-18.7,16-23.7,27.6
			c-2.8,6.5-4.7,13.5-5.3,20.6c-0.3,3.5-0.2,7.1,0.2,10.6c0.4,3.1,2.3,6.9,1,9.9c-1,2.6-2.5,4.8-2.3,7.7c0.1,2.3,1.2,4.6,3.1,5.8
			c0.5,0.3,5.5,2.3,5.8,1.8c-1.1,1.5-2.1,3.3-2.8,5.1c-2.2,6.3-2.3,14,0.4,20.1c1.3,3.1,2.6,5.8,4.7,8.4c0.5,0.7,6.6,7.1,7.1,6.7
			c-5.7,5.3-6.2,15.6-2.9,22.2c1.4,2.8,3.5,5.3,6.2,6.9c5.8,3.4,13.1,2,19.6,0.5c3.5,7.3,8.6,13.2,17,14.6
			c7.8,1.4,14.1-1.3,20.2-5.7c0.2-0.2,0.4-0.3,0.7-0.4c0.3,0,0.5,0.1,0.8,0.2c7.2,3,15.1,4.9,22.7,1.9c7-2.8,11.5-10.2,14.2-16.9
			c3.3-8.2,5.1-17.1,8.8-25c1.2-2.6,2.9-5.1,4.3-7.7c5.8-10.8,10.8-22.1,15.6-33.3c2.5-5.7,4.9-11.5,7.2-17.3
			c11.5-28.2,17.2-42.3,21.9-60.1c4.8-17.9,7.2-33.2,8.6-43.9c-29.2-44.6-49.6-78.8-63.4-103.1C235.6,115.2,223.6,93.3,199.2,71.8z
			 M46.3,46.4c11.1,10.5,26.8,7.3,40.4,5.7c11.4-1.2,22.9-1.3,34.3-0.2c10.6,1.1,20.3,3.3,30.8,5.5c0.6,0.1,1.2,0.3,1.8,0.1
			c0.6-0.2,1.1-0.7,1-1.3c-0.1-0.4-0.4-0.7-0.7-1c0.4,0.3,0.8,0.6,0.8,1.1c0.1,0.6-0.5,1.1-1,1.3c-0.6,0.2-1.2,0-1.8-0.1
			c-10.5-2.2-20.1-4.4-30.8-5.5c-11.4-1.2-22.9-1.1-34.4,0.2C73,53.7,57.4,56.9,46.3,46.4z M136.2,184.5c-0.3,0.7-0.6,1.4-1.1,2.2
			C135.5,185.9,135.9,185.2,136.2,184.5z M129.3,131.4c1.6,0.8,2.7,2.3,2.9,4C132,133.7,130.8,132.2,129.3,131.4z M124.1,149.2
			c-2.3,5.1-1.9,10.4,0.1,15.7C122.1,159.6,121.8,154.3,124.1,149.2z M132.2,206.1c-1.7-4.7-1.5-10.3,0.2-14.9
			C130.8,195.8,130.5,201.4,132.2,206.1c3.5,9.6,12.4,17,21.4,21.1C144.6,223.1,135.7,215.8,132.2,206.1z M161.2,399.5
			c4.8,0.5,8.5,4.7,8.5,9.7C169.6,404.1,165.9,400,161.2,399.5z M150.7,409.2c0-5.4,4.2-9.8,9.4-9.8
			C155,399.4,150.7,403.8,150.7,409.2z M146.8,349c0.6,0.4,1.3,0.7,2,1c7.9,2.8,18,0.6,25.7-1.6c-0.1,0.1-0.1,0.1-0.2,0.2
			c-7.7,2.2-17.6,4.3-25.4,1.5C148.1,349.8,147.4,349.4,146.8,349z M199.4,239.7c11.6,1.5,23.4,2.1,35.3,2.2
			C222.8,241.8,211,241.3,199.4,239.7z M148.4,385.8c3.3-0.1,5.8-2.5,5.8-5.5s-2.6-5.5-5.8-5.5c0,0,0,0,0,0c3.3,0,5.9,2.5,5.9,5.5
			S151.8,385.8,148.4,385.8C148.5,385.8,148.5,385.8,148.4,385.8z M150.7,409.2C150.7,409.2,150.7,409.2,150.7,409.2
			C150.7,409.2,150.7,409.2,150.7,409.2L150.7,409.2z M160.1,419C160.2,419,160.2,419,160.1,419c0.4,0,0.7,0,1,0
			C160.8,419,160.5,419,160.1,419C160.2,419,160.2,419,160.1,419z M169.7,409.2C169.7,409.2,169.7,409.2,169.7,409.2L169.7,409.2
			C169.7,409.2,169.7,409.2,169.7,409.2z M183.8,432.6c-4.1,0-7.5-3.1-7.5-6.8c0-3.8,3.4-6.8,7.5-6.8c4.1,0,7.5,3.1,7.5,6.8
			C191.3,429.6,187.9,432.6,183.8,432.6z M232.5,413.4c0-7.7-6.6-14-14.6-14c-8,0-14.6,6.2-14.6,14c0,0,0,0,0-0.1
			c0-7.7,6.6-14,14.6-14S232.5,405.6,232.5,413.4C232.5,413.3,232.5,413.3,232.5,413.4z M213,375.4c1.3-2.2,2.7-4.3,4.1-6.4
			C215.7,371.1,214.3,373.2,213,375.4c-2.1,3.4-5.3,7.8-5.3,11.5C207.7,383.1,210.9,378.8,213,375.4z M218.9,394
			c0.7,0,1.4-0.1,2.1-0.3C220.3,393.8,219.6,393.9,218.9,394s-1.4,0-2,0c-1-0.1-2-0.3-3-0.6c-1.3-0.4-2.6-1.1-3.8-2c0,0,0,0,0,0
			c0,0,0,0,0,0c1.2,0.9,2.5,1.6,3.8,2c1,0.3,2,0.5,3,0.6C217.6,394,218.3,394,218.9,394z M235.7,342.6c-2.6,3.5-5.2,7-7.7,10.5
			C230.5,349.6,233.1,346.1,235.7,342.6c1.8-2.4,3.6-4.8,5.4-7.1C239.3,337.8,237.5,340.2,235.7,342.6z M237.4,384.2
			c-0.3,0.2-0.5,0.5-0.8,0.7C236.9,384.7,237.1,384.4,237.4,384.2z M235,386.3c-0.3,0.3-0.6,0.5-0.9,0.8
			C234.4,386.8,234.7,386.5,235,386.3z M233.4,387.6c-0.3,0.3-0.7,0.5-1,0.8C232.7,388.1,233,387.9,233.4,387.6z M231.6,388.9
			c-1.7,1.2-3.6,2.3-5.4,3.1C228,391.2,229.9,390.1,231.6,388.9z M220.5,363.9c1.3-1.9,2.5-3.7,3.8-5.6
			C223,360.2,221.7,362.1,220.5,363.9z M241.9,379.2C241.9,379.2,241.9,379.2,241.9,379.2C241.9,379.2,241.9,379.2,241.9,379.2
			C241.9,379.2,241.9,379.2,241.9,379.2C241.9,379.2,241.9,379.2,241.9,379.2z M245.3,330c2.6-3.4,5.2-6.7,7.8-10.1
			c1.8-2.3,3.6-4.7,5.5-7c-1.8,2.3-3.6,4.7-5.5,7C250.5,323.3,247.9,326.7,245.3,330z M277,320.1c-2.2,4.8-4.5,9.4-6.9,14.1
			c-1.6,3.1-3.3,6.2-5.1,9.3c1.8-3.1,3.5-6.2,5.1-9.3C272.5,329.6,274.8,324.9,277,320.1c2.2-4.8,4.2-9.6,6.2-14.6c0,0,0,0,0,0
			c0,0,0,0,0,0C281.2,310.5,279.2,315.4,277,320.1z M262.7,307.4c1.4-1.8,2.8-3.7,4.3-5.5c0,0,0,0,0,0c0,0,0,0,0,0
			C265.6,303.7,264.2,305.6,262.7,307.4z M293.6,274.7C293.6,274.7,293.6,274.7,293.6,274.7C293.6,274.7,293.6,274.7,293.6,274.7
			c0.2-1.7,0.4-3.4-0.2-4.1C294,271.2,293.8,272.9,293.6,274.7z M292.8,255.5c-0.3,0.9-0.8,1.6-1.2,2.4
			c-4.9,7.8-10.6,14.4-16.5,21.5c-15.4,18.4-31.1,36.7-45.8,55.6c-30.2,38.8-35.4,53.6-49.8,54.4c-5,0.3-10.4-1.1-14.7-3.7
			c4.3,2.5,9.7,3.9,14.6,3.6c14.5-0.8,19.6-15.6,49.8-54.4c14.7-18.9,30.5-37.2,45.8-55.6c5.9-7.1,11.6-13.7,16.5-21.5
			c0.5-0.8,1-1.6,1.2-2.4c0.1-0.3,0.1-0.5,0.2-0.8c0.1-1-0.2-2-0.7-2.9c0.6,0.9,0.9,1.9,0.8,3C293,255,292.9,255.3,292.8,255.5z
			 M283,214.4c-4.3-7.4-9.2-14.5-13.9-21.6c-22.2-33.5-37-74.2-69.3-99.1c-27.3-21.2-62.4-32.1-96.8-29.9
			c34.4-2.2,69.5,8.7,96.8,29.8c32.3,25,47.1,65.6,69.3,99.1C273.8,199.9,278.8,206.9,283,214.4z"/>
	</g>
</g>
</svg>
