<svg xmlns="http://www.w3.org/2000/svg" viewBox="0 0 621.69 454.75"><g id="Layer_2" data-name="Layer 2"><g id="Layer_1-2" data-name="Layer 1"><path d="M34.77,34.81c-4.19-4.43-6.38-11.9-2.34-16.46,3.06-3.45,8.27-3.76,12.88-3.64,23.16.61,45.41,6.7,67.29,13.88,11.08,3.63,21.72,9.29,32.24,14.43a22.87,22.87,0,0,1,3.61,2,1.89,1.89,0,0,1,.89,1.18,1.4,1.4,0,0,1-1.09,1.37,4,4,0,0,1-1.89-.09c-11-2.35-21.07-4.65-32.21-5.79a168.86,168.86,0,0,0-36,.21C63.45,43.58,46.51,47.18,34.77,34.81Z" fill="#fff"/><path d="M127.08,187.46c1.06-3,6.69-8,3.14-11.19-5.38-4.91-10.09-11.79-11.91-16.33-2.2-5.49-2.55-11.12-.14-16.42,2.1-4.62,9.26-8.5,8.65-14.45a5.45,5.45,0,0,0-3.1-4.19,145,145,0,0,1-32.79-22.73c-16.17-14.91-41.16-43-2.51-47.35,39-4.42,79.52,7,110.54,30.57,34.4,26.16,50.19,68.65,73.8,103.68,5.05,7.48,10.3,14.84,14.86,22.63,2.85,4.89,6.56,10.4,6.45,16.26-.18,9.32-13.21,11.14-20.28,11.48-24.82,1.19-50.69,2-75.36-1.26-16.77-2.21-33.26-6.17-48.76-13.07-9.59-4.27-19.08-12-22.77-22A23.48,23.48,0,0,1,127.08,187.46Z" fill="#fff"/><path d="M136.66,385.25a6.19,6.19,0,1,1,6.17,5.74A6,6,0,0,1,136.66,385.25Z" fill="#fff"/><path d="M155.09,425.8A10.28,10.28,0,1,1,165,415.53,10.1,10.1,0,0,1,155.09,425.8Z" fill="#fff"/><path d="M179.8,440.06c-4.32,0-7.83-3.19-7.83-7.13s3.51-7.13,7.83-7.13,7.83,3.19,7.83,7.13S184.12,440.06,179.8,440.06Z" fill="#fff"/><path d="M175.15,394.83c-9.17.5-20.14-4.48-22.8-12.19-2.49-7.18,2.49-15.95,17.66-30.71-8.11,2.31-18.61,4.65-26.9,1.68-7.14-2.57-8.23-10.87-9.37-17.28a51.83,51.83,0,0,1,4-28.6c14.25-30.47,56-35.47,84.47-44.26,21-6.48,43.38-11.77,62.08-16.12a9.71,9.71,0,0,1,6.45,1.26c2,1,3.52,3.11,3.26,5.31a4.94,4.94,0,0,1-.18.85,11,11,0,0,1-1.29,2.51c-5.13,8.16-11.11,15.05-17.3,22.45-16.1,19.23-32.53,38.4-48,58.19C195.67,378.49,190.28,394,175.15,394.83Z" fill="#fff"/><ellipse cx="215.47" cy="419.88" rx="15.31" ry="14.62" fill="#fff"/><path d="M294.75,274.84c-1,10.79-7,22.22-10.91,32.27A298.45,298.45,0,0,1,264.78,347c-7.33,12.82-14.56,25.91-24.14,37.22-.77.9-1.55,1.79-2.35,2.67-6.73,7.41-20.8,17.82-30.95,10.08-5.74-4.37-.22-11.53,3.07-16.78,16.87-26.92,37.25-51.68,56.5-76.94,8-10.48,15.82-21,24.16-31.16,1.17-1.42,2.26-1.9,3.1-1.68C295.26,270.66,295,272.75,294.75,274.84Z" fill="#fff"/><path d="M383.39,386.85q-1.18-1.32-2.34-2.67c-9.58-11.31-16.82-24.4-24.15-37.22a297.17,297.17,0,0,1-19-39.85c-4-10.05-9.89-21.48-10.92-32.27-.19-2.09-.51-4.18.58-4.47.84-.22,1.94.26,3.1,1.68,8.34,10.18,16.18,20.68,24.16,31.16,19.25,25.26,39.64,50,56.51,76.94,3.29,5.25,8.81,12.41,3.07,16.78C404.19,404.67,390.12,394.26,383.39,386.85Z" fill="#fff"/><ellipse cx="406.21" cy="419.88" rx="15.31" ry="14.62" fill="#fff"/><path d="M441.89,440.06c-4.33,0-7.84-3.19-7.84-7.13s3.51-7.13,7.84-7.13,7.83,3.19,7.83,7.13S446.21,440.06,441.89,440.06Z" fill="#fff"/><path d="M466.59,425.8a10.28,10.28,0,1,1,9.92-10.27A10.1,10.1,0,0,1,466.59,425.8Z" fill="#fff"/><path d="M478.85,391a5.75,5.75,0,1,1,6.17-5.74A6,6,0,0,1,478.85,391Z" fill="#fff"/><path d="M488,336.33c-1.14,6.41-2.24,14.71-9.38,17.28-8.28,3-18.79.63-26.89-1.68,15.16,14.76,20.14,23.53,17.66,30.71-2.67,7.71-13.63,12.69-22.81,12.19-15.12-.84-20.52-16.34-52.15-56.91-15.44-19.79-31.87-39-48-58.19-6.2-7.4-12.17-14.29-17.3-22.45a11,11,0,0,1-1.29-2.51,5,5,0,0,1-.19-.85c-.26-2.2,1.31-4.29,3.26-5.31a9.71,9.71,0,0,1,6.45-1.26c18.71,4.35,41.06,9.64,62.09,16.12,28.48,8.79,70.22,13.79,84.47,44.26A51.83,51.83,0,0,1,488,336.33Z" fill="#fff"/><path d="M531.17,102.15A142.19,142.19,0,0,1,499,124.88a5.42,5.42,0,0,0-3,4.19c-.61,6,6.43,9.83,8.49,14.45,2.37,5.3,2,10.93-.14,16.42-1.78,4.54-6.41,11.42-11.7,16.33-3.47,3.23,2.05,8.2,3.09,11.19a23.93,23.93,0,0,1,.18,15.59c-3.63,10.06-13,17.77-22.37,22-15.22,6.9-31.4,10.86-47.88,13.07-24.22,3.27-49.63,2.45-74,1.26-6.94-.34-19.74-2.16-19.91-11.48-.11-5.86,3.53-11.37,6.34-16.26,4.47-7.79,9.63-15.15,14.58-22.63,23.19-35,38.7-77.52,72.47-103.68,30.46-23.58,70.24-35,108.55-30.57C571.59,59.17,547.05,87.24,531.17,102.15Z" fill="#fff"/><path d="M586.91,34.81c-11.73,12.37-28.67,8.77-43.42,7.14a168.77,168.77,0,0,0-35.95-.21c-11.14,1.14-21.23,3.44-32.21,5.79a4,4,0,0,1-1.89.09,1.39,1.39,0,0,1-1.09-1.37,1.91,1.91,0,0,1,.88-1.18,23.8,23.8,0,0,1,3.61-2c10.52-5.14,21.17-10.8,32.24-14.43,21.88-7.18,44.13-13.27,67.3-13.88,4.61-.12,9.82.19,12.88,3.64C593.3,22.91,591.11,30.38,586.91,34.81Z" fill="#fff"/><rect width="621.69" height="454.75" fill="none"/></g></g></svg>