<?xml version="1.0" encoding="utf-8"?>
<!-- Generator: Adobe Illustrator 25.4.1, SVG Export Plug-In . SVG Version: 6.00 Build 0)  -->
<svg version="1.1" id="Layer_1" xmlns="http://www.w3.org/2000/svg" xmlns:xlink="http://www.w3.org/1999/xlink" x="0px" y="0px"
	 viewBox="0 0 621.7 454.8" style="enable-background:new 0 0 621.7 454.8;" xml:space="preserve">
<style type="text/css">
	.st0{fill:#FFFFFF;}
</style>
<g>
	<path class="st0" d="M178.2,419c-4.1,0-7.5,3.1-7.5,6.8c0,3.8,3.4,6.8,7.5,6.8c4.1,0,7.5-3.1,7.5-6.8
		C185.7,422,182.3,419,178.2,419z"/>
	<path class="st0" d="M443.5,419c-4.1,0-7.5,3.1-7.5,6.8c0,3.8,3.4,6.8,7.5,6.8c4.1,0,7.5-3.1,7.5-6.8C451,422,447.6,419,443.5,419z
		"/>
	<g>
		<path class="st0" d="M284.5,272c-8,9.7-15.5,19.8-23.1,29.8c-18.4,24.1-37.9,47.8-54,73.5c-3.1,5-8.4,11.9-2.9,16
			c9.7,7.4,23.2-2.5,29.6-9.6c0.8-0.8,1.5-1.7,2.2-2.6c9.2-10.8,16.1-23.3,23.1-35.6c7.1-12.5,12.9-24.7,18.2-38.1
			c3.8-9.6,9.4-20.5,10.4-30.8c0.2-2,0.5-4-0.6-4.3C286.7,270.2,285.6,270.7,284.5,272z"/>
		<ellipse class="st0" cx="212.3" cy="413.3" rx="14.6" ry="14"/>
		<path class="st0" d="M194.2,93.6c-29.1-22.5-67.1-33.4-103.7-29.2c-36.3,4.2-12.8,31,2.4,45.3c9.2,8.6,19.6,16,30.8,21.7
			c1.6,0.8,2.7,2.3,2.9,4c0.6,5.7-6.1,9.4-8.1,13.8c-2.3,5.1-1.9,10.4,0.1,15.7c1.7,4.3,6.1,10.9,11.2,15.6c3.3,3.1-2,7.8-3,10.7
			c-1.6,4.6-1.9,10.2-0.2,14.9c3.5,9.6,12.4,17,21.4,21.1c14.5,6.6,30,10.4,45.8,12.5c23.2,3.1,47.4,2.3,70.7,1.2
			c6.6-0.3,18.9-2.1,19-11c0.1-5.6-3.4-10.9-6.1-15.5c-4.3-7.4-9.2-14.5-13.9-21.6C241.3,159.2,226.5,118.6,194.2,93.6z"/>
		<path class="st0" d="M278.1,248.4c-17.9,4.1-39.2,9.2-59.3,15.4c-27.2,8.4-67.1,13.2-80.7,42.3c-6.2,13.2-4,26.4-3.9,27.3
			c1.1,6.1,2.1,14.1,9,16.5c7.9,2.8,18,0.6,25.7-1.6c-14.5,14.1-19.3,22.5-16.9,29.3c2.6,7.4,13,12.1,21.8,11.6
			c14.5-0.8,19.6-15.6,49.8-54.4c14.7-18.9,30.5-37.2,45.8-55.6c5.9-7.1,11.6-13.7,16.5-21.5c0.5-0.8,1-1.6,1.2-2.4
			c0.1-0.3,0.1-0.5,0.2-0.8c0.2-2.1-1.2-4.1-3.1-5.1C282.4,248.7,280.1,248,278.1,248.4z"/>
		<path class="st0" d="M148.7,380.2c0-3-2.6-5.5-5.9-5.5c-3.3,0-5.9,2.5-5.9,5.5c0,3,2.6,5.5,5.9,5.5
			C146.1,385.7,148.7,383.3,148.7,380.2z"/>
		<path class="st0" d="M115.4,51.9c10.6,1.1,20.3,3.3,30.8,5.5c0.6,0.1,1.2,0.3,1.8,0.1c0.6-0.2,1.1-0.7,1-1.3
			c-0.1-0.5-0.5-0.8-0.8-1.1c-1.1-0.8-2.3-1.4-3.5-2c-10.1-4.9-20.2-10.3-30.8-13.8C93,32.5,71.8,26.7,49.6,26.1
			c-4.4-0.1-9.4,0.2-12.3,3.5c-3.9,4.4-1.8,11.5,2.2,15.7c11.2,11.8,27.4,8.4,41.5,6.8C92.5,50.9,104,50.7,115.4,51.9z"/>
		<path class="st0" d="M154.6,399.4c-5.2,0-9.5,4.4-9.5,9.8c0,5.4,4.2,9.8,9.5,9.8c5.2,0,9.5-4.4,9.5-9.8
			C164,403.8,159.8,399.4,154.6,399.4z"/>
		<path class="st0" d="M417.2,391.4c5.5-4.2,0.2-11-2.9-16c-16.1-25.7-35.6-49.4-54-73.5c-7.6-10-15.1-20-23.1-29.8
			c-1.1-1.4-2.2-1.8-3-1.6c-1,0.3-0.7,2.3-0.6,4.3c1,10.3,6.7,21.2,10.4,30.8c5.3,13.4,11.1,25.6,18.2,38.1
			c7,12.2,13.9,24.8,23.1,35.6c0.7,0.9,1.5,1.7,2.2,2.6C394,388.9,407.5,398.8,417.2,391.4z"/>
		<path class="st0" d="M467.1,399.4c-5.2,0-9.5,4.4-9.5,9.8c0,5.4,4.2,9.8,9.5,9.8c5.2,0,9.5-4.4,9.5-9.8
			C476.6,403.8,472.4,399.4,467.1,399.4z"/>
		<path class="st0" d="M572.1,26.1c-22.1,0.6-43.4,6.4-64.3,13.3c-10.6,3.5-20.8,8.9-30.8,13.8c-1.2,0.6-2.4,1.2-3.5,2
			c-0.4,0.3-0.8,0.6-0.8,1.1c-0.1,0.6,0.5,1.1,1,1.3c0.6,0.2,1.2,0,1.8-0.1c10.5-2.2,20.1-4.4,30.8-5.5c11.4-1.2,22.9-1.1,34.4,0.2
			c14.1,1.6,30.3,5,41.5-6.8c4-4.2,6.1-11.4,2.2-15.7C581.4,26.3,576.5,26,572.1,26.1z"/>
		<path class="st0" d="M531.2,64.4c-36.6-4.2-74.6,6.7-103.7,29.2c-32.3,25-47.1,65.6-69.3,99.1c-4.7,7.2-9.7,14.2-13.9,21.6
			c-2.7,4.7-6.2,9.9-6.1,15.5c0.2,8.9,12.4,10.6,19,11c23.3,1.1,47.6,1.9,70.7-1.2c15.7-2.1,31.2-5.9,45.8-12.5
			c9-4.1,17.9-11.4,21.4-21.1c1.7-4.7,1.5-10.3-0.2-14.9c-1-2.9-6.3-7.6-3-10.7c5.1-4.7,9.5-11.3,11.2-15.6
			c2.1-5.3,2.4-10.6,0.1-15.7c-2-4.4-8.7-8.1-8.1-13.8c0.2-1.7,1.4-3.2,2.9-4c11.2-5.8,21.6-13.1,30.8-21.7
			C544,95.4,567.5,68.6,531.2,64.4z"/>
		<path class="st0" d="M343.6,248.4c-2.1-0.5-4.3,0.2-6.2,1.2c-1.9,1-3.4,3-3.1,5.1c0,0.3,0.1,0.6,0.2,0.8c0.3,0.9,0.8,1.6,1.2,2.4
			c4.9,7.8,10.6,14.4,16.5,21.5c15.4,18.4,31.1,36.7,45.8,55.6c30.2,38.8,35.4,53.6,49.8,54.4c8.8,0.5,19.2-4.3,21.8-11.6
			c2.4-6.9-2.4-15.2-16.9-29.3c7.7,2.2,17.8,4.4,25.7,1.6c6.8-2.5,7.9-10.4,9-16.5c0.2-1,2.3-14.1-3.9-27.3
			c-13.6-29.1-53.5-33.9-80.7-42.3C382.8,257.6,361.5,252.6,343.6,248.4z"/>
		<ellipse class="st0" cx="409.4" cy="413.3" rx="14.6" ry="14"/>
		<path class="st0" d="M478.8,374.7c-3.3,0-5.9,2.5-5.9,5.5c0,3,2.6,5.5,5.9,5.5c3.3,0,5.9-2.5,5.9-5.5
			C484.7,377.2,482.1,374.7,478.8,374.7z"/>
		<path class="st0" d="M387.6,381.8c-0.8-0.8-1.5-1.7-2.2-2.6c-9.2-10.8-16.1-23.3-23.1-35.6c-7.1-12.5-12.9-24.7-18.2-38.1
			c-3.8-9.6-9.4-20.5-10.4-30.8c-0.2-2-0.5-4,0.6-4.3c0.8-0.2,1.9,0.2,3,1.6c8,9.7,15.5,19.8,23.1,29.8c18.4,24.1,37.9,47.8,54,73.5
			c3.1,5,8.4,11.9,2.9,16C407.5,398.8,394,388.9,387.6,381.8z M409.4,427.3c-8.1,0-14.6-6.3-14.6-14c0-7.7,6.6-14,14.6-14
			s14.6,6.3,14.6,14C424.1,421,417.5,427.3,409.4,427.3z M443.5,432.6c-4.1,0-7.5-3.1-7.5-6.8c0-3.8,3.4-6.8,7.5-6.8
			c4.1,0,7.5,3.1,7.5,6.8C451,429.6,447.6,432.6,443.5,432.6z M467.1,419c-5.2,0-9.5-4.4-9.5-9.8c0-5.4,4.2-9.8,9.5-9.8
			c5.2,0,9.5,4.4,9.5,9.8C476.6,414.6,472.4,419,467.1,419z M478.8,385.7c-3.3,0-5.9-2.5-5.9-5.5c0-3,2.6-5.5,5.9-5.5
			c3.3,0,5.9,2.5,5.9,5.5C484.7,383.3,482.1,385.7,478.8,385.7z M483.7,306.1c6.2,13.2,4,26.4,3.9,27.3c-1.1,6.1-2.1,14.1-9,16.5
			c-7.9,2.8-18,0.6-25.7-1.6c14.5,14.1,19.3,22.5,16.9,29.3c-2.6,7.4-13,12.1-21.8,11.6c-14.5-0.8-19.6-15.6-49.8-54.4
			c-14.7-18.9-30.5-37.2-45.8-55.6c-5.9-7.1-11.6-13.7-16.5-21.5c-0.5-0.8-1-1.6-1.2-2.4c-0.1-0.3-0.1-0.5-0.2-0.8
			c-0.2-2.1,1.2-4.1,3.1-5.1c1.9-1,4.1-1.7,6.2-1.2c17.9,4.1,39.2,9.2,59.3,15.4C430.2,272.2,470.1,277,483.7,306.1z M528.8,109.7
			c-9.2,8.6-19.6,16-30.8,21.7c-1.6,0.8-2.7,2.3-2.9,4c-0.6,5.7,6.1,9.4,8.1,13.8c2.3,5.1,1.9,10.4-0.1,15.7
			c-1.7,4.3-6.1,10.9-11.2,15.6c-3.3,3.1,2,7.8,3,10.7c1.6,4.6,1.9,10.2,0.2,14.9c-3.5,9.6-12.4,17-21.4,21.1
			c-14.5,6.6-30,10.4-45.8,12.5c-23.2,3.1-47.4,2.3-70.7,1.2c-6.6-0.3-18.9-2.1-19-11c-0.1-5.6,3.4-10.9,6.1-15.5
			c4.3-7.4,9.2-14.5,13.9-21.6c22.2-33.5,37-74.1,69.3-99.1c29.1-22.5,67.1-33.4,103.7-29.2C567.5,68.6,544,95.4,528.8,109.7z
			 M582.1,45.3c-11.2,11.8-27.4,8.4-41.5,6.8c-11.4-1.3-22.9-1.4-34.4-0.2c-10.6,1.1-20.3,3.3-30.8,5.5c-0.6,0.1-1.2,0.3-1.8,0.1
			c-0.6-0.2-1.1-0.7-1-1.3c0.1-0.5,0.5-0.8,0.8-1.1c1.1-0.8,2.3-1.4,3.5-2c10.1-4.9,20.2-10.3,30.8-13.8
			c20.9-6.9,42.2-12.7,64.3-13.3c4.4-0.1,9.4,0.2,12.3,3.5C588.2,33.9,586.1,41.1,582.1,45.3z"/>
	</g>
</g>
</svg>
