<?xml version="1.0" encoding="utf-8"?>
<!-- Generator: Adobe Illustrator 25.4.1, SVG Export Plug-In . SVG Version: 6.00 Build 0)  -->
<svg version="1.1" id="Layer_1" xmlns="http://www.w3.org/2000/svg" xmlns:xlink="http://www.w3.org/1999/xlink" x="0px" y="0px"
	 viewBox="0 0 618.7 454.8" style="enable-background:new 0 0 618.7 454.8;" xml:space="preserve">
<style type="text/css">
	.st0{fill:#FFFFFF;}
</style>
<path class="st0" d="M283.7,271c-7.8,9.5-15.1,19.3-22.5,29.1c-18,23.6-37,46.7-52.7,71.8c-3.1,4.9-8.2,11.6-2.9,15.7
	c9.5,7.2,22.6-2.5,28.9-9.4c0.7-0.8,1.5-1.7,2.2-2.5c8.9-10.6,15.7-22.8,22.5-34.7c7-12.2,12.6-24.1,17.8-37.2
	c3.7-9.4,9.2-20,10.2-30.1c0.2-1.9,0.5-3.9-0.5-4.2C285.8,269.2,284.7,269.7,283.7,271z"/>
<path class="st0" d="M277.4,248c-17.5,4.1-38.3,9-57.9,15c-26.6,8.2-65.5,12.9-78.8,41.3c-6,12.9-3.9,25.7-3.8,26.7
	c1.1,6,2.1,13.7,8.7,16.1c7.7,2.8,17.5,0.6,25.1-1.6c-14.1,13.8-18.8,22-16.5,28.7c2.5,7.2,12.7,11.8,21.3,11.4
	c14.1-0.8,19.1-15.2,48.7-53.1c14.4-18.5,29.7-36.4,44.7-54.3c5.8-6.9,11.4-13.3,16.1-20.9c0.5-0.7,0.9-1.5,1.2-2.3
	c0.1-0.3,0.1-0.5,0.2-0.8c0.2-2-1.2-4-3-5C281.6,248.2,279.4,247.5,277.4,248z"/>
<path class="st0" d="M195.5,96.8c-28.4-22-65.5-32.6-101.3-28.5c-35.4,4.1-12.5,30.3,2.3,44.2c9,8.4,19.1,15.6,30,21.2
	c1.5,0.8,2.7,2.2,2.8,3.9c0.6,5.6-6,9.2-7.9,13.5c-2.2,4.9-1.9,10.2,0.1,15.3c1.7,4.2,6,10.7,10.9,15.2c3.2,3-1.9,7.7-2.9,10.4
	c-1.6,4.5-1.8,9.9-0.2,14.5c3.4,9.4,12.1,16.6,20.9,20.6c14.2,6.4,29.3,10.1,44.7,12.2c22.6,3,46.3,2.3,69,1.2
	c6.5-0.3,18.4-2,18.6-10.7c0.1-5.5-3.3-10.6-5.9-15.2c-4.2-7.3-9-14.1-13.6-21.1C241.5,160.9,227,121.2,195.5,96.8z"/>
<path class="st0" d="M179.8,414.5c-4,0-7.3,3-7.3,6.7c0,3.7,3.3,6.7,7.3,6.7c4,0,7.3-3,7.3-6.7C187.1,417.4,183.9,414.5,179.8,414.5
	z"/>
<ellipse class="st0" cx="213.1" cy="408.9" rx="14.3" ry="13.6"/>
<path class="st0" d="M151.1,376.6c0-3-2.6-5.4-5.8-5.4c-3.2,0-5.8,2.4-5.8,5.4c0,3,2.6,5.4,5.8,5.4
	C148.5,382,151.1,379.6,151.1,376.6z"/>
<path class="st0" d="M118.6,56.1c10.4,1.1,19.8,3.2,30.1,5.4c0.6,0.1,1.2,0.2,1.8,0.1c0.6-0.2,1.1-0.7,1-1.3
	c-0.1-0.5-0.4-0.8-0.8-1.1c-1-0.8-2.2-1.3-3.4-1.9c-9.8-4.8-19.7-10.1-30.1-13.5C96.7,37.1,76,31.5,54.3,30.9
	c-4.3-0.1-9.2,0.2-12,3.4c-3.8,4.3-1.7,11.2,2.2,15.4c10.9,11.5,26.8,8.2,40.5,6.7C96.2,55.1,107.4,55,118.6,56.1z"/>
<path class="st0" d="M413.2,387.5c5.4-4.1,0.2-10.8-2.9-15.7c-15.7-25.1-34.8-48.2-52.7-71.8c-7.4-9.8-14.8-19.6-22.5-29.1
	c-1.1-1.3-2.1-1.8-2.9-1.6c-1,0.3-0.7,2.2-0.5,4.2c1,10.1,6.5,20.7,10.2,30.1c5.1,13.1,10.8,25,17.8,37.2
	c6.8,12,13.6,24.2,22.5,34.7c0.7,0.8,1.4,1.7,2.2,2.5C390.6,385,403.7,394.8,413.2,387.5z"/>
<path class="st0" d="M156.8,395.3c-5.1,0-9.3,4.3-9.3,9.6c0,5.3,4.1,9.6,9.3,9.6c5.1,0,9.3-4.3,9.3-9.6
	C166,399.6,161.9,395.3,156.8,395.3z"/>
<path class="st0" d="M564.4,30.9c-21.6,0.6-42.4,6.2-62.8,12.9c-10.3,3.4-20.3,8.7-30.1,13.5c-1.2,0.6-2.3,1.1-3.4,1.9
	c-0.4,0.3-0.8,0.6-0.8,1.1c-0.1,0.6,0.4,1.1,1,1.3c0.6,0.2,1.2,0,1.8-0.1c10.2-2.2,19.7-4.3,30.1-5.4c11.2-1.1,22.4-1,33.5,0.2
	c13.8,1.5,29.6,4.9,40.5-6.7c3.9-4.1,6-11.1,2.2-15.4C573.5,31.1,568.7,30.8,564.4,30.9z"/>
<path class="st0" d="M473.4,371.3c-3.2,0-5.8,2.4-5.8,5.4c0,3,2.6,5.4,5.8,5.4c3.2,0,5.8-2.4,5.8-5.4
	C479.1,373.7,476.5,371.3,473.4,371.3z"/>
<path class="st0" d="M341.3,248c-2-0.5-4.2,0.2-6,1.2c-1.8,1-3.3,2.9-3,5c0,0.3,0.1,0.5,0.2,0.8c0.3,0.8,0.7,1.6,1.2,2.3
	c4.8,7.6,10.4,14,16.1,20.9c15,17.9,30.4,35.8,44.7,54.3c29.5,37.9,34.6,52.3,48.7,53.1c8.6,0.5,18.8-4.2,21.3-11.4
	c2.3-6.7-2.3-14.9-16.5-28.7c7.6,2.2,17.4,4.3,25.1,1.6c6.7-2.4,7.7-10.1,8.7-16.1c0.2-1,2.3-13.8-3.8-26.7
	c-13.3-28.4-52.2-33.1-78.8-41.3C379.6,257,358.8,252,341.3,248z"/>
<path class="st0" d="M524.5,68.3c-35.7-4.1-72.9,6.5-101.3,28.5c-31.5,24.4-46,64-67.6,96.7c-4.6,7-9.4,13.9-13.6,21.1
	c-2.6,4.6-6,9.7-5.9,15.2c0.2,8.7,12.1,10.4,18.6,10.7c22.7,1.1,46.4,1.9,69-1.2c15.4-2.1,30.5-5.8,44.7-12.2
	c8.8-4,17.5-11.2,20.9-20.6c1.7-4.6,1.4-10-0.2-14.5c-1-2.8-6.1-7.4-2.9-10.4c4.9-4.6,9.2-11,10.9-15.2c2-5.1,2.3-10.4,0.1-15.3
	c-1.9-4.3-8.5-7.9-7.9-13.5c0.2-1.7,1.3-3.1,2.8-3.9c10.9-5.6,21.1-12.8,30-21.2C537,98.6,559.9,72.4,524.5,68.3z"/>
<path class="st0" d="M461.9,395.3c-5.1,0-9.3,4.3-9.3,9.6c0,5.3,4.1,9.6,9.3,9.6c5.1,0,9.3-4.3,9.3-9.6
	C471.2,399.6,467,395.3,461.9,395.3z"/>
<ellipse class="st0" cx="405.6" cy="408.9" rx="14.3" ry="13.6"/>
<path class="st0" d="M438.9,414.5c-4,0-7.3,3-7.3,6.7c0,3.7,3.3,6.7,7.3,6.7c4,0,7.3-3,7.3-6.7C446.2,417.4,442.9,414.5,438.9,414.5
	z"/>
<path class="st0" d="M116,233.5C115.9,233.5,115.9,233.5,116,233.5C115.9,233.5,115.9,233.5,116,233.5z"/>
<path class="st0" d="M129.5,301.5c0,0,0,0.1-0.1,0.3C129.5,301.7,129.5,301.6,129.5,301.5C129.5,301.5,129.5,301.5,129.5,301.5z"/>
<path class="st0" d="M130.7,299c0.2-0.4,0.4-0.9,0.7-1.3C131.1,298.2,130.9,298.6,130.7,299z"/>
<path class="st0" d="M384.3,378.1c-0.7-0.8-1.5-1.7-2.2-2.5c-8.9-10.6-15.7-22.8-22.5-34.7c-7-12.2-12.6-24.1-17.8-37.2
	c-3.7-9.4-9.2-20-10.2-30.1c-0.2-1.9-0.5-3.9,0.5-4.2c0.8-0.2,1.8,0.2,2.9,1.6c7.8,9.5,15.1,19.3,22.5,29.1
	c18,23.6,37,46.7,52.7,71.8c3.1,4.9,8.2,11.6,2.9,15.7C403.7,394.8,390.6,385,384.3,378.1z M405.6,422.6c-7.9,0-14.3-6.1-14.3-13.6
	c0-7.5,6.4-13.6,14.3-13.6s14.3,6.1,14.3,13.6C419.9,416.5,413.5,422.6,405.6,422.6z M438.9,427.8c-4,0-7.3-3-7.3-6.7
	c0-3.7,3.3-6.7,7.3-6.7c4,0,7.3,3,7.3,6.7C446.2,424.8,442.9,427.8,438.9,427.8z M461.9,414.5c-5.1,0-9.3-4.3-9.3-9.6
	c0-5.3,4.1-9.6,9.3-9.6c5.1,0,9.3,4.3,9.3,9.6C471.2,410.2,467,414.5,461.9,414.5z M473.4,382c-3.2,0-5.8-2.4-5.8-5.4
	c0-3,2.6-5.4,5.8-5.4c3.2,0,5.8,2.4,5.8,5.4C479.1,379.6,476.5,382,473.4,382z M478.1,304.3c6,12.9,3.9,25.7,3.8,26.7
	c-1.1,6-2.1,13.7-8.7,16.1c-7.7,2.8-17.5,0.6-25.1-1.6c14.1,13.8,18.8,22,16.5,28.7c-2.5,7.2-12.7,11.8-21.3,11.4
	c-14.1-0.8-19.1-15.2-48.7-53.1c-14.4-18.5-29.7-36.4-44.7-54.3c-5.8-6.9-11.4-13.3-16.1-20.9c-0.5-0.7-0.9-1.5-1.2-2.3
	c-0.1-0.3-0.1-0.5-0.2-0.8c-0.2-2,1.2-4,3-5c1.8-1,4-1.6,6-1.2c17.5,4.1,38.3,9,57.9,15C425.8,271.2,464.8,275.9,478.1,304.3z
	 M522.2,112.5c-9,8.4-19.1,15.6-30,21.2c-1.5,0.8-2.7,2.2-2.8,3.9c-0.6,5.6,6,9.2,7.9,13.5c2.2,4.9,1.9,10.2-0.1,15.3
	c-1.7,4.2-6,10.7-10.9,15.2c-3.2,3,1.9,7.7,2.9,10.4c1.6,4.5,1.8,9.9,0.2,14.5c-3.4,9.4-12.1,16.6-20.9,20.6
	c-14.2,6.4-29.3,10.1-44.7,12.2c-22.6,3-46.3,2.3-69,1.2c-6.5-0.3-18.4-2-18.6-10.7c-0.1-5.5,3.3-10.6,5.9-15.2
	c4.2-7.3,9-14.1,13.6-21.1c21.6-32.7,36.1-72.3,67.6-96.7c28.4-22,65.5-32.6,101.3-28.5C559.9,72.4,537,98.6,522.2,112.5z
	 M574.2,49.6c-10.9,11.5-26.8,8.2-40.5,6.7c-11.1-1.2-22.4-1.3-33.5-0.2c-10.4,1.1-19.8,3.2-30.1,5.4c-0.6,0.1-1.2,0.2-1.8,0.1
	c-0.6-0.2-1.1-0.7-1-1.3c0.1-0.5,0.4-0.8,0.8-1.1c1-0.8,2.2-1.3,3.4-1.9c9.8-4.8,19.7-10.1,30.1-13.5c20.4-6.7,41.2-12.4,62.8-12.9
	c4.3-0.1,9.2,0.2,12,3.4C580.1,38.5,578.1,45.5,574.2,49.6z"/>
<path class="st0" d="M115.9,233.5c-0.4-0.4-0.7-0.9-1.1-1.4C115.2,232.5,115.5,233,115.9,233.5z"/>
<path class="st0" d="M80.5,126.5c0.4-0.5,0.8-1.1,1.1-1.8C81.3,125.4,81,126,80.5,126.5z"/>
<path class="st0" d="M44.5,49.6c-3.9-4.1-6-11.1-2.2-15.4c2.9-3.2,7.7-3.5,12-3.4c21.6,0.6,42.4,6.2,62.8,12.9
	c10.3,3.4,20.3,8.7,30.1,13.5c1.2,0.6,2.3,1.1,3.4,1.9c0.4,0.3,0.8,0.6,0.8,1.1c0.1,0.6-0.4,1.1-1,1.3c-0.6,0.2-1.2,0-1.8-0.1
	c-10.2-2.2-19.7-4.3-30.1-5.4c-11.2-1.1-22.4-1-33.5,0.2C71.3,57.8,55.5,61.2,44.5,49.6z M139.6,376.6c0-3,2.6-5.4,5.8-5.4
	c3.2,0,5.8,2.4,5.8,5.4c0,3-2.6,5.4-5.8,5.4C142.2,382,139.6,379.6,139.6,376.6z M156.8,414.5c-5.1,0-9.3-4.3-9.3-9.6
	c0-5.3,4.1-9.6,9.3-9.6c5.1,0,9.3,4.3,9.3,9.6C166,410.2,161.9,414.5,156.8,414.5z M179.8,427.8c-4,0-7.3-3-7.3-6.7
	c0-3.7,3.3-6.7,7.3-6.7c4,0,7.3,3,7.3,6.7C187.1,424.8,183.9,427.8,179.8,427.8z M213.1,422.6c-7.9,0-14.3-6.1-14.3-13.6
	c0-7.5,6.4-13.6,14.3-13.6c7.9,0,14.3,6.1,14.3,13.6C227.4,416.5,221,422.6,213.1,422.6z M287.1,273.6c-1,10.1-6.5,20.7-10.2,30.1
	c-5.1,13.1-10.8,25-17.8,37.2c-6.8,12-13.6,24.2-22.5,34.7c-0.7,0.8-1.4,1.7-2.2,2.5c-6.3,6.9-19.4,16.6-28.9,9.4
	c-5.4-4.1-0.2-10.8,2.9-15.7c15.7-25.1,34.8-48.2,52.7-71.8c7.4-9.8,14.8-19.6,22.5-29.1c1.1-1.3,2.1-1.8,2.9-1.6
	C287.6,269.7,287.3,271.7,287.1,273.6z M286.4,254.1c0,0.3-0.1,0.5-0.2,0.8c-0.3,0.8-0.7,1.6-1.2,2.3c-4.8,7.6-10.4,14-16.1,20.9
	c-15,17.9-30.4,35.8-44.7,54.3c-29.5,37.9-34.6,52.3-48.7,53.1c-8.6,0.5-18.8-4.2-21.3-11.4c-2.3-6.7,2.3-14.9,16.5-28.7
	c-7.6,2.2-17.4,4.3-25.1,1.6c-6.7-2.4-7.7-10.1-8.7-16.1c-0.2-1-2.3-13.8,3.8-26.7c13.3-28.4,52.2-33.1,78.8-41.3
	c19.6-6,40.5-11,57.9-15c2-0.5,4.2,0.2,6,1.2C285.2,250.1,286.7,252,286.4,254.1z M276.7,214.7c2.6,4.6,6,9.7,5.9,15.2
	c-0.2,8.7-12.1,10.4-18.6,10.7c-22.7,1.1-46.4,1.9-69-1.2c-15.4-2.1-30.5-5.8-44.7-12.2c-8.8-4-17.5-11.2-20.9-20.6
	c-1.7-4.6-1.4-10,0.2-14.5c1-2.8,6.1-7.4,2.9-10.4c-4.9-4.6-9.2-11-10.9-15.2c-2-5.1-2.3-10.4-0.1-15.3c1.9-4.3,8.5-7.9,7.9-13.5
	c-0.2-1.7-1.3-3.1-2.8-3.9c-10.9-5.6-21.1-12.8-30-21.2c-14.8-13.9-37.7-40.1-2.3-44.2c35.7-4.1,72.9,6.5,101.3,28.5
	c31.5,24.4,46,64,67.6,96.7C267.8,200.5,272.6,207.4,276.7,214.7z"/>
</svg>
