<?xml version="1.0" encoding="utf-8"?>
<!-- Generator: Adobe Illustrator 25.4.1, SVG Export Plug-In . SVG Version: 6.00 Build 0)  -->
<svg version="1.1" id="Layer_1" xmlns="http://www.w3.org/2000/svg" xmlns:xlink="http://www.w3.org/1999/xlink" x="0px" y="0px"
	 viewBox="0 0 621.7 454.2" style="enable-background:new 0 0 621.7 454.2;" xml:space="preserve">
<style type="text/css">
	.st0{fill:#2B3A45;}
</style>
<g>
	<path class="st0" d="M177.5,356c-2.4,2.6-4.8,5.1-7.1,7.8c-4.9,5.8-13.6,15.2-9.9,23.6c3.6,8.2,16.1,11,23.8,8.3
		c5-1.8,9.1-5.6,12.4-9.8c3-3.9,5.3-8.3,7.8-12.6C193.5,371.1,184,364.8,177.5,356z"/>
	<path class="st0" d="M213.6,367.8c21.1,0,38.3-17.2,38.3-38.3c0-21.1-17.2-38.3-38.3-38.3s-38.3,17.2-38.3,38.3
		C175.3,350.7,192.5,367.8,213.6,367.8z"/>
	<path class="st0" d="M265.8,256.2c-26.5,0.8-51.7,10.5-76.2,20.6c-12,4.9-23.9,10.6-32.7,20.4c-8.5,9.5-14.2,22.3-17.1,34.6
		c-2.3,9.9-5.6,24.5,2.8,32.4c6.1,5.6,16.7,5.4,22.5-0.6c8.7-9,4.3-23.7,4.6-36.3c0.6-23.4,23-44,46.4-42.7
		c23.4,1.3,43.4,23.9,42,47.3c-1.4,23.4-23.7,43.5-47.2,42.5c-4.5,6.4-8.9,15.2-4.1,21.3c2.1,2.6,5.5,3.9,8.8,4.2
		c14.9,1.4,25.9-13.2,32.9-26.4c15.6-29.4,27.9-60.6,36.5-92.8c0.2-0.9,0.5-1.8,0.7-2.7c1.1-4.3,2.1-8.9,0.5-13
		C283.3,257.7,273.7,256,265.8,256.2z"/>
	<path class="st0" d="M208.1,79.9c-16.7-22.8-36.4-41.9-60.8-50.3c-5.8-2-18-5.9-28.7-0.3c-4.2,2.2-9.1,6.1-10.7,10.7
		c-0.7,2.1-1.6,12.4,0.1,13.7c-11.8-9-55.8-21.6-51.6,6.5c1.8,12.4,9.2,21.1,17.7,29.5c4.5,4.4,8.8,9.1,12.9,14
		c5.6,6.7,10.7,13.8,14.9,21.2c7.6,13.2,12.3,28.6,10.7,43.8c-0.7,6.9-2.7,13.6-3.2,20.5c-0.8,10.6,2.2,21.5,8.2,30.3
		c4.9,7.1,13.9,10.7,23.9,12.9c11.8,2.6,24.9,3.4,34.2,5.8c30.5,8,58.9,10.8,89.9,2.4c29.5-8,9.7-37.9,1.6-55.7
		c-7.2-15.9-15.4-31.2-23.7-46.6C232.6,118.2,221.5,98.3,208.1,79.9z"/>
	<path class="st0" d="M60.2,27.3c-0.8-4.4-5.1-7.3-9.5-6.5c-4.4,0.8-7.3,5.1-6.5,9.5c0.8,4.4,5.1,7.3,9.5,6.5
		C58.1,35.9,61,31.7,60.2,27.3z"/>
	<circle class="st0" cx="185" cy="425.2" r="6.6"/>
	<path class="st0" d="M89.2,35.6c7.6-1.4,12.7-8.7,11.2-16.3C99,11.7,91.7,6.6,84.1,8c-7.6,1.4-12.7,8.7-11.2,16.3
		C74.2,32,81.6,37,89.2,35.6z"/>
	<path class="st0" d="M532.5,35.6c7.6,1.4,14.9-3.6,16.3-11.2c1.4-7.6-3.6-14.9-11.2-16.3c-7.6-1.4-14.9,3.6-16.3,11.2
		C519.9,26.9,524.9,34.2,532.5,35.6z"/>
	<path class="st0" d="M168.3,402.9c-4.8,0-8.6,3.9-8.6,8.6s3.9,8.6,8.6,8.6s8.6-3.9,8.6-8.6S173.1,402.9,168.3,402.9z"/>
	<path class="st0" d="M513.8,53.8c1.6-1.3,0.8-11.6,0.1-13.7c-1.6-4.6-6.6-8.5-10.7-10.7c-10.7-5.6-22.9-1.7-28.7,0.3
		C450,38,430.4,57.1,413.6,79.9c-13.5,18.4-24.5,38.3-35.3,58.3c-8.3,15.3-16.5,30.7-23.7,46.6c-8.1,17.8-27.9,47.7,1.6,55.7
		c31,8.4,59.5,5.6,89.9-2.4c9.3-2.4,22.4-3.2,34.2-5.8c10-2.2,19-5.8,23.9-12.9c6-8.8,8.9-19.6,8.2-30.3c-0.5-6.9-2.5-13.6-3.2-20.5
		c-1.6-15.2,3.2-30.5,10.7-43.8c4.3-7.4,9.4-14.5,14.9-21.2c4.1-4.9,8.5-9.6,12.9-14c8.5-8.4,15.9-17,17.7-29.5
		C569.6,32.2,525.6,44.7,513.8,53.8z"/>
	<path class="st0" d="M570.9,20.8c-4.4-0.8-8.7,2.1-9.5,6.5c-0.8,4.4,2.1,8.7,6.5,9.5c4.4,0.8,8.7-2.1,9.5-6.5
		C578.3,25.8,575.4,21.6,570.9,20.8z"/>
	<path class="st0" d="M335.4,265c-1.7,4.1-0.6,8.7,0.5,13c0.2,0.9,0.5,1.8,0.7,2.7c8.5,32.2,20.8,63.4,36.5,92.8
		c7,13.2,18,27.9,32.9,26.4c3.3-0.3,6.7-1.6,8.8-4.2c4.9-6.1,0.4-14.9-4.1-21.3c-23.4,0.9-45.8-19.1-47.2-42.5
		c-1.4-23.4,18.6-46,42-47.3c23.4-1.3,45.8,19.2,46.4,42.7c0.3,12.6-4.1,27.3,4.6,36.3c5.8,6,16.4,6.2,22.5,0.6
		c8.5-7.9,5.2-22.5,2.8-32.4c-2.9-12.4-8.6-25.1-17.1-34.6c-8.8-9.8-20.7-15.5-32.7-20.4c-24.5-10-49.8-19.8-76.2-20.6
		C348,256,338.4,257.7,335.4,265z"/>
	<path class="st0" d="M298,283.6c-4.5,17.1-10.1,30.7-21.1,57.7c-9.6,23.7-20.4,46.8-32.1,69.5c-5.4,10.4-9.5,21.4-21.5,25.3
		c-5.4,1.8-10.2,1.7-12.8,1.4c-6.3,0.9-15,3.2-21.2,10.1c-5.6,6.2-9.4,8.6-8.8-1.4c0.2-2.7,0.4-6.2-0.9-6.8c-1.6-0.6-4.7,2.4-7,1.8
		c-2.9-0.8-2.4-3-4.2-4.7c-2.7-2.5-5.6-0.1-8.6-1.9c-2.9-1.8-1.3-4.8-3.2-7.1c-1.8-2.1-5.8-2.8-7.9-5.3c-2.2-2.7-3.8-6.7-4-10.1
		c-0.2-3.3,1.3-6.4,1-9.8c-0.5-6.3-6.6-10.2-10-15c-2.9-4.1-5.1-8.7-6.4-13.5c-2.4-8.6-2-17.4-1.6-26.2c0.9-24.6,8.1-50.1,28.6-65.7
		c5.6-4.3,12.3-7.1,18.6-10.3c1.1-0.5,15.4-7.3,15.1-7.9c-0.3-0.5-0.9-0.6-1.5-0.6c-3.2-0.3-6.5,0-9.7,0.7c-1.7,0.4-3.5,0.9-5.2,1.4
		c-4.6,1.1-9.4,1.4-14.2,0.8c-1.6-0.2-3.3-0.5-4.6-1.5c-4.9-3.3-1.2-10.3-7.6-11.3c-5.1-0.8-10.3,0.8-15.2,1.6
		c-2.6,0.4-11.7,3-13.3-0.4c-1.5-3.1,6.1-7.3,4.7-13.1c-1.2-5-7.4-5.3-14.1-11.2c-5.4-4.8-7.5-10-10.2-16.6c-4.5-11-6.5-24.9-4-36.8
		c2.5-11.6,1.2-22.3-7.6-31.6c-3-3.2-6.8-6.5-6.4-10.8c0.2-2.3,1.7-4.4,2-6.7c0.8-6.1-6.1-9.9-11.5-12.9c-7-3.8-13.1-9.1-17.9-15.4
		c-2.1-2.7-4-5.8-4.2-9.2c-0.2-2.9,0.8-5.8,1.2-8.7c1-7.9-11.6-14.3-16.6-20.1C27.3,53.5,21,43.2,23,32.5
		C27.5,9.1,70.1,0.3,96.4,0.6c59,0.7,100.9,48.3,114.2,63.3c7.6,8.6,16.8,20.4,42.6,69c23.6,44.3,41.2,81.9,53,108.5
		C304.9,251.8,302.6,266.4,298,283.6z M587.7,61.3c-4.9,5.8-17.5,12.2-16.6,20.1c0.4,2.9,1.4,5.8,1.2,8.7c-0.2,3.4-2.1,6.5-4.2,9.2
		c-4.8,6.3-11,11.6-17.9,15.4c-5.4,3-12.4,6.8-11.5,12.9c0.3,2.3,1.8,4.4,2,6.7c0.4,4.3-3.4,7.7-6.4,10.8c-8.7,9.3-10.1,20-7.6,31.6
		c2.6,11.8,0.5,25.7-4,36.8c-2.7,6.6-4.9,11.9-10.2,16.6c-6.7,5.9-12.9,6.2-14.1,11.2c-1.4,5.8,6.2,10,4.7,13.1
		c-1.7,3.5-10.7,0.8-13.3,0.4c-5-0.8-10.2-2.4-15.2-1.6c-6.5,1-2.7,8-7.6,11.3c-1.4,0.9-3,1.2-4.6,1.5c-4.7,0.6-9.5,0.4-14.2-0.8
		c-1.7-0.4-3.5-1-5.2-1.4c-3.2-0.7-6.4-1-9.7-0.7c-0.6,0-1.2,0.2-1.5,0.6c-0.3,0.7,14,7.4,15.1,7.9c6.3,3.1,13,6,18.6,10.3
		c20.5,15.6,27.7,41.1,28.6,65.7c0.3,8.8,0.7,17.5-1.6,26.2c-1.3,4.8-3.5,9.4-6.4,13.5c-3.4,4.8-9.5,8.7-10,15
		c-0.3,3.4,1.3,6.5,1,9.8c-0.3,3.4-1.9,7.5-4,10.1c-2.1,2.6-6.1,3.2-7.9,5.3c-1.9,2.2-0.3,5.3-3.2,7.1c-2.9,1.8-5.9-0.6-8.6,1.9
		c-1.8,1.7-1.3,3.9-4.2,4.7c-2.4,0.6-5.4-2.4-7-1.8c-1.3,0.5-1.1,4-0.9,6.8c0.6,10-3.2,7.6-8.8,1.4c-6.3-6.9-14.9-9.2-21.2-10.1
		c-2.7,0.3-7.4,0.4-12.8-1.4c-12-4-16.1-14.9-21.5-25.3c-11.7-22.7-22.5-45.9-32.1-69.5c-11-27.1-16.5-40.6-21.1-57.7
		c-4.6-17.2-6.9-31.9-8.2-42.2c11.9-26.6,29.4-64.2,53-108.5c25.9-48.7,35-60.4,42.6-69c13.3-15,55.3-62.6,114.2-63.3
		c26.2-0.3,68.9,8.5,73.3,31.9C600.7,43.2,594.3,53.5,587.7,61.3z"/>
	<circle class="st0" cx="436.7" cy="425.2" r="6.6"/>
	<path class="st0" d="M461.1,387.5c3.7-8.4-5-17.8-9.9-23.6c-2.3-2.7-4.7-5.3-7.1-7.8c-6.4,8.8-16,15.1-27,17.4
		c2.5,4.3,4.8,8.7,7.8,12.6c3.2,4.2,7.4,8,12.4,9.8C445,398.5,457.5,395.7,461.1,387.5z"/>
	<path class="st0" d="M453.4,402.9c-4.8,0-8.6,3.9-8.6,8.6c0,4.8,3.9,8.6,8.6,8.6c4.8,0,8.6-3.9,8.6-8.6S458.2,402.9,453.4,402.9z"
		/>
	<path class="st0" d="M408.1,291.3c-21.1,0-38.3,17.2-38.3,38.3c0,21.1,17.2,38.3,38.3,38.3c21.1,0,38.3-17.2,38.3-38.3
		C446.3,308.5,429.2,291.3,408.1,291.3z"/>
	<path class="st0" d="M210.6,63.9c-13.3-15-55.3-62.6-114.2-63.3C70.1,0.3,27.5,9.1,23,32.5c-2,10.7,4.3,21,10.9,28.8
		c4.9,5.8,17.5,12.2,16.6,20.1c-0.4,2.9-1.4,5.8-1.2,8.7c0.2,3.4,2.1,6.5,4.2,9.2c4.8,6.3,11,11.6,17.9,15.4
		c5.4,3,12.4,6.8,11.5,12.9c-0.3,2.3-1.8,4.4-2,6.7c-0.4,4.3,3.4,7.7,6.4,10.8c8.7,9.3,10.1,20,7.6,31.6c-2.6,11.8-0.5,25.7,4,36.8
		c2.7,6.6,4.9,11.9,10.2,16.6c6.7,5.9,12.9,6.2,14.1,11.2c1.4,5.8-6.2,10-4.7,13.1c1.7,3.5,10.7,0.8,13.3,0.4
		c5-0.8,10.2-2.4,15.2-1.6c6.5,1,2.7,8,7.6,11.3c1.4,0.9,3,1.2,4.6,1.5c4.7,0.6,9.5,0.4,14.2-0.8c1.7-0.4,3.5-1,5.2-1.4
		c3.2-0.7,6.4-1,9.7-0.7c0.6,0,1.2,0.2,1.5,0.6c0.3,0.7-14,7.4-15.1,7.9c-6.3,3.1-13,6-18.6,10.3c-20.5,15.6-27.7,41.1-28.6,65.7
		c-0.3,8.8-0.7,17.5,1.6,26.2c1.3,4.8,3.5,9.4,6.4,13.5c3.4,4.8,9.5,8.7,10,15c0.3,3.4-1.3,6.5-1,9.8c0.3,3.4,1.9,7.5,4,10.1
		c2.1,2.6,6.1,3.2,7.9,5.3c1.9,2.2,0.3,5.3,3.2,7.1c2.9,1.8,5.9-0.6,8.6,1.9c1.8,1.7,1.3,3.9,4.2,4.7c2.4,0.6,5.4-2.4,7-1.8
		c1.3,0.5,1.1,4,0.9,6.8c-0.6,10,3.2,7.6,8.8,1.4c6.3-6.9,14.9-9.2,21.2-10.1c2.7,0.3,7.4,0.4,12.8-1.4c12-4,16.1-14.9,21.5-25.3
		c11.7-22.7,22.5-45.9,32.1-69.5c11-27.1,16.5-40.6,21.1-57.7c4.6-17.2,6.9-31.9,8.2-42.2c-11.9-26.6-29.4-64.2-53-108.5
		C227.4,84.3,218.2,72.5,210.6,63.9z M84.1,8c7.6-1.4,14.9,3.6,16.3,11.2c1.4,7.6-3.6,14.9-11.2,16.3C81.6,37,74.2,32,72.8,24.4
		C71.4,16.8,76.5,9.4,84.1,8z M44.2,30.2c-0.8-4.4,2.1-8.7,6.5-9.5c4.4-0.8,8.7,2.1,9.5,6.5c0.8,4.4-2.1,8.7-6.5,9.5
		C49.3,37.6,45,34.7,44.2,30.2z M168.3,420.2c-4.8,0-8.6-3.9-8.6-8.6s3.9-8.6,8.6-8.6s8.6,3.9,8.6,8.6S173.1,420.2,168.3,420.2z
		 M185,431.9c-3.7,0-6.6-3-6.6-6.6c0-3.7,3-6.6,6.6-6.6c3.7,0,6.6,3,6.6,6.6C191.6,428.9,188.6,431.9,185,431.9z M196.7,386
		c-3.2,4.2-7.4,8-12.4,9.8c-7.7,2.8-20.2-0.1-23.8-8.3c-3.7-8.4,5-17.8,9.9-23.6c2.3-2.7,4.7-5.3,7.1-7.8c6.4,8.8,16,15.1,27,17.4
		C202.1,377.7,199.7,382,196.7,386z M175.3,329.6c0-21.1,17.2-38.3,38.3-38.3s38.3,17.2,38.3,38.3c0,21.1-17.2,38.3-38.3,38.3
		S175.3,350.7,175.3,329.6z M286.3,265c1.7,4.1,0.6,8.7-0.5,13c-0.2,0.9-0.5,1.8-0.7,2.7c-8.5,32.2-20.8,63.4-36.5,92.8
		c-7,13.2-18,27.9-32.9,26.4c-3.3-0.3-6.7-1.6-8.8-4.2c-4.9-6.1-0.4-14.9,4.1-21.3c23.4,0.9,45.8-19.1,47.2-42.5
		c1.4-23.4-18.6-46-42-47.3c-23.4-1.3-45.8,19.2-46.4,42.7c-0.3,12.6,4.1,27.3-4.6,36.3c-5.8,6-16.4,6.2-22.5,0.6
		c-8.5-7.9-5.2-22.5-2.8-32.4c2.9-12.4,8.6-25.1,17.1-34.6c8.8-9.8,20.7-15.5,32.7-20.4c24.5-10,49.8-19.8,76.2-20.6
		C273.7,256,283.3,257.7,286.3,265z M265.5,240.5c-31,8.4-59.5,5.6-89.9-2.4c-9.3-2.4-22.4-3.2-34.2-5.8c-10-2.2-19-5.8-23.9-12.9
		c-6-8.8-8.9-19.6-8.2-30.3c0.5-6.9,2.5-13.6,3.2-20.5c1.6-15.2-3.2-30.5-10.7-43.8c-4.3-7.4-9.4-14.5-14.9-21.2
		c-4.1-4.9-8.5-9.6-12.9-14c-8.5-8.4-15.9-17-17.7-29.5c-4.2-28.1,39.8-15.5,51.6-6.5c-1.6-1.3-0.8-11.6-0.1-13.7
		c1.6-4.6,6.6-8.5,10.7-10.7c10.7-5.6,22.9-1.7,28.7,0.3c24.4,8.4,44.1,27.5,60.8,50.3c13.5,18.4,24.5,38.3,35.3,58.3
		c8.3,15.3,16.5,30.7,23.7,46.6C275.2,202.6,295,232.5,265.5,240.5z"/>
	<path class="st0" d="M525.3,0.6c-59,0.7-100.9,48.3-114.2,63.3c-7.6,8.6-16.8,20.4-42.6,69c-23.6,44.3-41.2,81.9-53,108.5
		c1.3,10.3,3.7,24.9,8.2,42.2c4.5,17.1,10.1,30.7,21.1,57.7c9.6,23.7,20.4,46.8,32.1,69.5c5.4,10.4,9.5,21.4,21.5,25.3
		c5.4,1.8,10.2,1.7,12.8,1.4c6.3,0.9,15,3.2,21.2,10.1c5.6,6.2,9.4,8.6,8.8-1.4c-0.2-2.7-0.4-6.2,0.9-6.8c1.6-0.6,4.7,2.4,7,1.8
		c2.9-0.8,2.4-3,4.2-4.7c2.7-2.5,5.6-0.1,8.6-1.9c2.9-1.8,1.3-4.8,3.2-7.1c1.8-2.1,5.8-2.8,7.9-5.3c2.2-2.7,3.8-6.7,4-10.1
		c0.2-3.3-1.3-6.4-1-9.8c0.5-6.3,6.6-10.2,10-15c2.9-4.1,5.1-8.7,6.4-13.5c2.4-8.6,2-17.4,1.6-26.2c-0.9-24.6-8.1-50.1-28.6-65.7
		c-5.6-4.3-12.3-7.1-18.6-10.3c-1.1-0.5-15.4-7.3-15.1-7.9c0.3-0.5,0.9-0.6,1.5-0.6c3.2-0.3,6.5,0,9.7,0.7c1.7,0.4,3.5,0.9,5.2,1.4
		c4.6,1.1,9.4,1.4,14.2,0.8c1.6-0.2,3.3-0.5,4.6-1.5c4.9-3.3,1.2-10.3,7.6-11.3c5.1-0.8,10.3,0.8,15.2,1.6c2.6,0.4,11.7,3,13.3-0.4
		c1.5-3.1-6.1-7.3-4.7-13.1c1.2-5,7.4-5.3,14.1-11.2c5.4-4.8,7.5-10,10.2-16.6c4.5-11,6.5-24.9,4-36.8c-2.5-11.6-1.2-22.3,7.6-31.6
		c3-3.2,6.8-6.5,6.4-10.8c-0.2-2.3-1.7-4.4-2-6.7c-0.8-6.1,6.1-9.9,11.5-12.9c7-3.8,13.1-9.1,17.9-15.4c2.1-2.7,4-5.8,4.2-9.2
		c0.2-2.9-0.8-5.8-1.2-8.7c-1-7.9,11.6-14.3,16.6-20.1c6.6-7.8,13-18.1,10.9-28.8C594.2,9.1,551.5,0.3,525.3,0.6z M521.3,19.3
		c1.4-7.6,8.7-12.7,16.3-11.2c7.6,1.4,12.7,8.7,11.2,16.3c-1.4,7.6-8.7,12.7-16.3,11.2C524.9,34.2,519.9,26.9,521.3,19.3z
		 M436.7,431.9c-3.7,0-6.6-3-6.6-6.6s3-6.6,6.6-6.6c3.7,0,6.6,3,6.6,6.6S440.4,431.9,436.7,431.9z M437.3,395.8
		c-5-1.8-9.1-5.6-12.4-9.8c-3-3.9-5.3-8.3-7.8-12.6c11-2.3,20.5-8.6,27-17.4c2.4,2.6,4.8,5.1,7.1,7.8c4.9,5.8,13.6,15.2,9.9,23.6
		C457.5,395.7,445,398.5,437.3,395.8z M408.1,367.8c-21.1,0-38.3-17.2-38.3-38.3c0-21.1,17.2-38.3,38.3-38.3
		c21.1,0,38.3,17.2,38.3,38.3C446.3,350.7,429.2,367.8,408.1,367.8z M453.4,420.2c-4.8,0-8.6-3.9-8.6-8.6c0-4.8,3.9-8.6,8.6-8.6
		c4.8,0,8.6,3.9,8.6,8.6S458.2,420.2,453.4,420.2z M432.1,276.8c12,4.9,23.9,10.6,32.7,20.4c8.5,9.5,14.2,22.3,17.1,34.6
		c2.3,9.9,5.6,24.5-2.8,32.4c-6.1,5.6-16.7,5.4-22.5-0.6c-8.7-9-4.3-23.7-4.6-36.3c-0.6-23.4-23-44-46.4-42.7
		c-23.4,1.3-43.4,23.9-42,47.3c1.4,23.4,23.7,43.5,47.2,42.5c4.5,6.4,8.9,15.2,4.1,21.3c-2.1,2.6-5.5,3.9-8.8,4.2
		c-14.9,1.4-25.9-13.2-32.9-26.4c-15.6-29.4-27.9-60.6-36.5-92.8c-0.2-0.9-0.5-1.8-0.7-2.7c-1.1-4.3-2.1-8.9-0.5-13
		c3-7.3,12.5-9,20.4-8.8C382.3,257,407.6,266.8,432.1,276.8z M565.4,60.2c-1.8,12.4-9.2,21.1-17.7,29.5c-4.5,4.4-8.8,9.1-12.9,14
		c-5.6,6.7-10.7,13.8-14.9,21.2c-7.6,13.2-12.3,28.6-10.7,43.8c0.7,6.9,2.7,13.6,3.2,20.5c0.8,10.6-2.2,21.5-8.2,30.3
		c-4.9,7.1-13.9,10.7-23.9,12.9c-11.8,2.6-24.9,3.4-34.2,5.8c-30.5,8-58.9,10.8-89.9,2.4c-29.5-8-9.7-37.9-1.6-55.7
		c7.2-15.9,15.4-31.2,23.7-46.6c10.8-20,21.9-40,35.3-58.3C430.4,57.1,450,38,474.4,29.6c5.8-2,18-5.9,28.7-0.3
		c4.2,2.2,9.1,6.1,10.7,10.7c0.7,2.1,1.6,12.4-0.1,13.7C525.6,44.7,569.6,32.2,565.4,60.2z M577.5,30.2c-0.8,4.4-5.1,7.3-9.5,6.5
		c-4.4-0.8-7.3-5.1-6.5-9.5c0.8-4.4,5.1-7.3,9.5-6.5C575.4,21.6,578.3,25.8,577.5,30.2z"/>
</g>
</svg>
