<?xml version="1.0" encoding="utf-8"?>
<!-- Generator: Adobe Illustrator 25.4.1, SVG Export Plug-In . SVG Version: 6.00 Build 0)  -->
<svg version="1.1" id="Layer_1" xmlns="http://www.w3.org/2000/svg" xmlns:xlink="http://www.w3.org/1999/xlink" x="0px" y="0px"
	 viewBox="0 0 409.1 245.1" style="enable-background:new 0 0 409.1 245.1;" xml:space="preserve">
<style type="text/css">
	.st0{fill:#2B3A45;}
</style>
<path class="st0" d="M17.9,16.9c-2.2,0-3.9-1.7-3.9-3.9s1.7-3.9,3.9-3.9s3.9,1.7,3.9,3.9S20.1,16.9,17.9,16.9z"/>
<path class="st0" d="M130.2,233.2c-3.2,0-5.9-2.6-5.9-5.9c0-3.2,2.6-5.9,5.9-5.9c3.2,0,5.9,2.6,5.9,5.9
	C136.1,230.6,133.4,233.2,130.2,233.2z"/>
<path class="st0" d="M155.2,237.4c-2.6,0-4.7-2.1-4.7-4.7c0-2.6,2.1-4.7,4.7-4.7c2.6,0,4.7,2.1,4.7,4.7
	C159.8,235.3,157.7,237.4,155.2,237.4z"/>
<g>
	<path class="st0" d="M202.7,76.1c-3.6-5.7-8.5-10.8-12.8-15.6c-7.9-8.9-16.6-17.2-26.4-24C151.4,28,126.2,10.7,91.7,3.4
		C45.5-6.4,1.3,5.4,0.9,15c-0.1,2.5,3.8,2.7,5.4,3.3c6.1,2.2,0.1,6.4,5.3,9.4c1.4,0.8,3.1,1.2,4.7,1.6c1.4,0.4,2.5,1.2,3.7,1.7
		c7.5,3.2,8.4,9.6,10.4,16.8c0.5,1.9,1,3.9,1.9,5.7c0.9,1.7,2.2,2.8,3.3,4.3c1.3,1.8,0.7,1.9,0.1,4.1c-1.2,4.2-1.5,9.1-1,13.5
		c0.4,3.5,1.5,7,3.4,9.9c1.8,2.6,4.6,4.6,6.7,7.2c0.8,1,1.6,2.1,1.9,3.4c0.2,1.2,0,2.4-0.3,3.6c-4.3,19.3,3,47.8,22.5,56.8
		c7.1,3.3,15.1,4.2,22.9,3.6c4.1-0.3,16.4-1.3,19.4-4.5c-3.3,3.6-6.5,7.2-9,11.4c-5.4,9-6.5,25.1,0.4,33.9c1.6,2,3.3,3.3,4.6,4.1
		c-3.4,9.2-1.9,18.1,3.5,22.2c1.1,0.9,3.3,2.1,6.8,2.4c0.4,6.7,4.7,12.4,10.7,14.2c2.8,0.9,5.7,0.8,8.5,0c1.1-0.3,2.2-0.8,3.2-1.3
		c0.8-0.4,1.8-1.3,2.7-1.3c1.1,0.1,2.4,1.6,3.4,2.1c1.2,0.7,2.4,1.2,3.7,1.5c2.5,0.7,5.2,0.9,7.8,0.5c4.2-0.7,7.4-3,10.1-6.2
		c2.9-3.4,4.2-6.6,9.4-6.1c2.6,0.3,5.4,1.1,7.9,0.2c6.9-2.4,5.8-12.2,8.8-17.5c2.3-4,5-7.5,6.3-12c1.2-4.3,1.5-8.8,2.4-13.1
		c0.1-0.6,0.3-1.3,0.4-1.9V76.1z"/>
	<path class="st0" d="M317.1,3.4c-34.5,7.4-59.7,24.6-71.9,33.1c-9.8,6.8-18.5,15.1-26.4,24c-4.2,4.9-9.1,10-12.8,15.6v112.4
		c0.1,0.6,0.2,1.3,0.4,1.9c0.9,4.3,1.2,8.8,2.4,13.1c1.3,4.5,4,8,6.3,12c3,5.3,1.9,15.1,8.8,17.5c2.5,0.9,5.3,0.1,7.9-0.2
		c5.2-0.5,6.5,2.7,9.4,6.1c2.7,3.2,5.9,5.5,10.1,6.2c2.6,0.4,5.3,0.2,7.8-0.5c1.3-0.3,2.5-0.8,3.7-1.5c1-0.5,2.3-2,3.4-2.1
		c0.9,0,1.9,0.9,2.7,1.3c1,0.5,2.1,1,3.2,1.3c2.8,0.8,5.7,0.9,8.5,0c6-1.8,10.3-7.5,10.7-14.2c3.5-0.3,5.7-1.5,6.8-2.4
		c5.4-4.1,6.9-13,3.5-22.2c1.3-0.8,3-2.1,4.6-4.1c6.9-8.8,5.8-24.9,0.4-33.9c-2.5-4.2-5.7-7.8-9-11.4c3,3.2,15.3,4.2,19.4,4.5
		c7.8,0.6,15.8-0.3,22.9-3.6c19.5-9,26.8-37.5,22.5-56.8c-0.3-1.2-0.5-2.4-0.3-3.6c0.3-1.3,1.1-2.4,1.9-3.4c2.1-2.6,4.9-4.6,6.7-7.2
		c1.9-2.9,3-6.4,3.4-9.9c0.5-4.4,0.2-9.3-1-13.5c-0.6-2.2-1.2-2.3,0.1-4.1c1.1-1.5,2.4-2.6,3.3-4.3c0.9-1.8,1.4-3.8,1.9-5.7
		c2-7.2,2.9-13.6,10.4-16.8c1.2-0.5,2.3-1.3,3.7-1.7c1.6-0.4,3.3-0.8,4.7-1.6c5.2-3-0.8-7.2,5.3-9.4c1.6-0.6,5.5-0.8,5.4-3.3
		C407.5,5.4,363.2-6.4,317.1,3.4z"/>
</g>
</svg>
