<?xml version="1.0" encoding="utf-8"?>
<!-- Generator: Adobe Illustrator 25.4.1, SVG Export Plug-In . SVG Version: 6.00 Build 0)  -->
<svg version="1.1" id="Layer_1" xmlns="http://www.w3.org/2000/svg" xmlns:xlink="http://www.w3.org/1999/xlink" x="0px" y="0px"
	 viewBox="0 0 409.1 245.1" style="enable-background:new 0 0 409.1 245.1;" xml:space="preserve">
<style type="text/css">
	.st0{fill:#2B3A45;}
</style>
<path class="st0" d="M17.9,16.9c-2.2,0-3.9-1.7-3.9-3.9s1.7-3.9,3.9-3.9s3.9,1.7,3.9,3.9S20.1,16.9,17.9,16.9z"/>
<path class="st0" d="M130.2,233.2c-3.2,0-5.9-2.6-5.9-5.9c0-3.2,2.6-5.9,5.9-5.9c3.2,0,5.9,2.6,5.9,5.9
	C136.1,230.6,133.4,233.2,130.2,233.2z"/>
<path class="st0" d="M155.2,237.4c-2.6,0-4.7-2.1-4.7-4.7c0-2.6,2.1-4.7,4.7-4.7c2.6,0,4.7,2.1,4.7,4.7
	C159.8,235.3,157.7,237.4,155.2,237.4z"/>
<path class="st0" d="M208.6,95.5c-0.1-2.8-0.2-5.6-0.8-8.4c-2.3-10.4-10.8-18.8-17.6-26.6c-7.9-8.9-16.6-17.2-26.4-24
	C151.6,28,126.4,10.7,91.9,3.4C45.7-6.4,1.5,5.4,1.1,15c-0.1,2.5,3.8,2.7,5.4,3.3c6.1,2.2,0.1,6.4,5.3,9.4c1.4,0.8,3.1,1.2,4.7,1.6
	c1.4,0.4,2.5,1.2,3.7,1.7c7.5,3.2,8.4,9.6,10.4,16.8c0.5,1.9,1,3.9,1.9,5.7c0.9,1.7,2.2,2.8,3.3,4.3c1.3,1.8,0.7,1.9,0.1,4.1
	c-1.2,4.2-1.5,9.1-1,13.5c0.4,3.5,1.5,7,3.4,9.9c1.8,2.6,4.6,4.6,6.7,7.2c0.8,1,1.6,2.1,1.9,3.4c0.2,1.2,0,2.4-0.3,3.6
	c-4.3,19.3,3,47.8,22.5,56.8c7.1,3.3,15.1,4.2,22.9,3.6c4.1-0.3,16.4-1.3,19.4-4.5c-3.3,3.6-6.5,7.2-9,11.4
	c-5.4,9-6.5,25.1,0.4,33.9c1.6,2,3.3,3.3,4.6,4.1c-3.4,9.2-1.9,18.1,3.5,22.2c1.1,0.9,3.3,2.1,6.8,2.4c0.4,6.7,4.7,12.4,10.7,14.2
	c2.8,0.9,5.7,0.8,8.5,0c1.1-0.3,2.2-0.8,3.2-1.3c0.8-0.4,1.8-1.3,2.7-1.3c1.1,0.1,2.4,1.6,3.4,2.1c1.2,0.7,2.4,1.2,3.7,1.5
	c2.5,0.7,5.2,0.9,7.8,0.5c4.2-0.7,7.4-3,10.1-6.2c2.9-3.4,4.2-6.6,9.4-6.1c2.6,0.3,5.4,1.1,7.9,0.2c6.9-2.4,5.8-12.2,8.8-17.5
	c2.3-4,5-7.5,6.3-12c1.2-4.3,1.5-8.8,2.4-13.1c1.3-6,1.4-12.2,1.6-18.4c0-1.8,0.1-3.6,0.2-5.4c0.4-8,2.1-15.8,3.3-23.8
	C209.4,127.3,209,111.4,208.6,95.5z"/>
<path class="st0" d="M200.6,95.5c0.1-2.8,0.2-5.6,0.8-8.4c2.3-10.4,10.8-18.8,17.6-26.6c7.9-8.9,16.6-17.2,26.4-24
	c12.2-8.5,37.4-25.7,71.9-33.1c46.1-9.8,90.4,2,90.8,11.6c0.1,2.5-3.8,2.7-5.4,3.3c-6.1,2.2-0.1,6.4-5.3,9.4
	c-1.4,0.8-3.1,1.2-4.7,1.6c-1.4,0.4-2.5,1.2-3.7,1.7c-7.5,3.2-8.4,9.6-10.4,16.8c-0.5,1.9-1,3.9-1.9,5.7c-0.9,1.7-2.2,2.8-3.3,4.3
	c-1.3,1.8-0.7,1.9-0.1,4.1c1.2,4.2,1.5,9.1,1,13.5c-0.4,3.5-1.5,7-3.4,9.9c-1.8,2.6-4.6,4.6-6.7,7.2c-0.8,1-1.6,2.1-1.9,3.4
	c-0.2,1.2,0,2.4,0.3,3.6c4.3,19.3-3,47.8-22.5,56.8c-7.1,3.3-15.1,4.2-22.9,3.6c-4.1-0.3-16.4-1.3-19.4-4.5c3.3,3.6,6.5,7.2,9,11.4
	c5.4,9,6.5,25.1-0.4,33.9c-1.6,2-3.3,3.3-4.6,4.1c3.4,9.2,1.9,18.1-3.5,22.2c-1.1,0.9-3.3,2.1-6.8,2.4c-0.4,6.7-4.7,12.4-10.7,14.2
	c-2.8,0.9-5.7,0.8-8.5,0c-1.1-0.3-2.2-0.8-3.2-1.3c-0.8-0.4-1.8-1.3-2.7-1.3c-1.1,0.1-2.4,1.6-3.4,2.1c-1.2,0.7-2.4,1.2-3.7,1.5
	c-2.5,0.7-5.2,0.9-7.8,0.5c-4.2-0.7-7.4-3-10.1-6.2c-2.9-3.4-4.2-6.6-9.4-6.1c-2.6,0.3-5.4,1.1-7.9,0.2c-6.9-2.4-5.8-12.2-8.8-17.5
	c-2.3-4-5-7.5-6.3-12c-1.2-4.3-1.5-8.8-2.4-13.1c-1.3-6-1.4-12.2-1.6-18.4c0-1.8-0.1-3.6-0.2-5.4c-0.4-8-2.1-15.8-3.3-23.8
	C199.8,127.3,200.2,111.4,200.6,95.5z"/>
</svg>
