<?xml version="1.0" encoding="utf-8"?>
<!-- Generator: Adobe Illustrator 25.4.1, SVG Export Plug-In . SVG Version: 6.00 Build 0)  -->
<svg version="1.1" id="Layer_1" xmlns="http://www.w3.org/2000/svg" xmlns:xlink="http://www.w3.org/1999/xlink" x="0px" y="0px"
	 viewBox="0 0 409.1 245.1" style="enable-background:new 0 0 409.1 245.1;" xml:space="preserve">
<style type="text/css">
	.st0{fill:#2B3A45;}
</style>
<path class="st0" d="M17.9,16.9c-2.2,0-3.9-1.7-3.9-3.9s1.7-3.9,3.9-3.9s3.9,1.7,3.9,3.9S20.1,16.9,17.9,16.9z"/>
<path class="st0" d="M130.2,233.2c-3.2,0-5.9-2.6-5.9-5.9c0-3.2,2.6-5.9,5.9-5.9c3.2,0,5.9,2.6,5.9,5.9
	C136.1,230.6,133.4,233.2,130.2,233.2z"/>
<path class="st0" d="M155.2,237.4c-2.6,0-4.7-2.1-4.7-4.7c0-2.6,2.1-4.7,4.7-4.7c2.6,0,4.7,2.1,4.7,4.7
	C159.8,235.3,157.7,237.4,155.2,237.4z"/>
<path class="st0" d="M387.3,13c0-2.2,1.7-3.9,3.9-3.9s3.9,1.7,3.9,3.9s-1.7,3.9-3.9,3.9S387.3,15.1,387.3,13z"/>
<path class="st0" d="M273,227.3c0-3.2,2.6-5.9,5.9-5.9c3.2,0,5.9,2.6,5.9,5.9c0,3.2-2.6,5.9-5.9,5.9
	C275.7,233.2,273,230.6,273,227.3z"/>
<path class="st0" d="M249.3,232.7c0-2.6,2.1-4.7,4.7-4.7s4.7,2.1,4.7,4.7c0,2.6-2.1,4.7-4.7,4.7S249.3,235.3,249.3,232.7z"/>
<g>
	<path class="st0" d="M162.5,37.1c-12.1-8.4-37.1-25.6-71.4-32.8C45.4-5.5,1.5,6.3,1.1,15.8c-0.1,2,7.1,3.6,8.5,4.2
		c7.4,3.2,10.5,9.5,14.2,16.1c4.1,7.5,6.4,19.5,14,24.2c-6.2,4.8-3,16.9-0.1,22.5c4.2,8.1,6.5,14.6,7.5,23.7
		c0.8,7.4,0.8,15.4,2.8,22.6c3,10.4,10.3,22.2,20.5,26.9c7,3.3,15,4.2,22.7,3.5c4-0.3,16.3-1.3,19.2-4.4c-3.3,3.5-6.5,7.2-9,11.3
		c-5.4,9-6.5,24.9,0.4,33.6c1.6,2,3.3,3.3,4.5,4.1c-3.4,9.1-1.8,18,3.5,22c1.1,0.9,3.3,2.1,6.7,2.4c0.4,6.6,4.7,12.3,10.6,14.1
		c2.8,0.9,5.7,0.8,8.5,0c1.1-0.3,2.1-0.7,3.2-1.3c0.8-0.4,1.8-1.3,2.7-1.2c1.1,0.1,2.4,1.6,3.4,2.1c1.2,0.7,2.4,1.2,3.7,1.5
		c2.5,0.7,5.2,0.9,7.7,0.4c4.7-0.8,8.6-4.9,13.1-6.4c5.9-2,12.1-3.5,17.2-7.2c14.4-10.6,14.6-31.2,15.8-61.3
		c0.1-2.6,0.2-5.5,0.3-8.6V76C193.3,64.6,179.6,49,162.5,37.1z"/>
	<path class="st0" d="M317.9,4.3c-34.2,7.3-59.3,24.4-71.4,32.8C229.5,49,215.8,64.6,206.5,76v84.8c0.1,3.1,0.2,6,0.3,8.6
		c1.1,30,1.4,50.7,15.8,61.3c5.1,3.7,11.3,5.3,17.2,7.2c4.6,1.5,8.4,5.6,13.1,6.4c2.6,0.4,5.2,0.3,7.7-0.4c1.3-0.4,2.5-0.9,3.7-1.5
		c1-0.5,2.3-2,3.4-2.1c0.9-0.1,1.9,0.8,2.7,1.2c1,0.5,2.1,0.9,3.2,1.3c2.8,0.8,5.7,0.8,8.5,0c6-1.9,10.2-7.5,10.6-14.1
		c3.5-0.3,5.6-1.5,6.7-2.4c5.3-4,6.9-12.9,3.5-22c1.3-0.8,3-2.1,4.5-4.1c6.8-8.6,5.7-24.6,0.4-33.6c-2.5-4.1-5.7-7.8-9-11.3
		c2.9,3.2,15.2,4.1,19.2,4.4c7.7,0.6,15.6-0.3,22.7-3.5c10.2-4.7,17.5-16.5,20.5-26.9c2.1-7.2,2-15.1,2.8-22.6
		c1-9.1,3.3-15.6,7.5-23.7c2.9-5.6,6.1-17.7-0.1-22.5c7.6-4.7,9.9-16.7,14-24.2c3.6-6.6,6.8-12.9,14.2-16.1c1.4-0.6,8.6-2.3,8.5-4.2
		C407.6,6.3,363.7-5.5,317.9,4.3z"/>
</g>
</svg>
