<?xml version="1.0" encoding="utf-8"?>
<!-- Generator: Adobe Illustrator 25.4.1, SVG Export Plug-In . SVG Version: 6.00 Build 0)  -->
<svg version="1.1" id="Layer_1" xmlns="http://www.w3.org/2000/svg" xmlns:xlink="http://www.w3.org/1999/xlink" x="0px" y="0px"
	 viewBox="0 0 409.1 245.1" style="enable-background:new 0 0 409.1 245.1;" xml:space="preserve">
<style type="text/css">
	.st0{fill:#FFFFFF;}
</style>
<path class="st0" d="M131.2,223c-3.3,0-5.9,2.6-5.9,5.9s2.6,5.9,5.9,5.9c3.3,0,5.9-2.6,5.9-5.9S134.4,223,131.2,223z"/>
<path class="st0" d="M116.4,210.4c-2.6,0-4.7,2.1-4.7,4.7c0,2.6,2.1,4.7,4.7,4.7s4.7-2.1,4.7-4.7C121,212.4,118.9,210.4,116.4,210.4
	z"/>
<path class="st0" d="M18.3,9.5c-2.2,0-3.9,1.8-3.9,3.9s1.8,3.9,3.9,3.9s3.9-1.8,3.9-3.9S20.5,9.5,18.3,9.5z"/>
<path class="st0" d="M180.5,89.8c-7.8-3.2-15.9-5.6-24.2-7.1c-1.7-0.3-3.3-0.6-5-0.9c-5.7-1-11.6-2-17.2-4.2
	c-8.9-3.6-15.2-10-17.2-17.5c-1.3-4.9-0.4-10.4,2.5-14.7c1-1.6,2.3-3,3.7-4.1c-2.5-5.3-6.7-9.9-11.5-13.4
	c-11.5-8.4-26.2-14-40.4-14.5c-6.5-0.2-14.9-1-20.9,1.7c-3.8,1.7-6.9,4.8-9,8.4c-3.7,6-4.6,13.1-3.1,19.9c0.5,2.4,1.2,4.7,2.2,6.9
	c1,2.1,2.4,3.8,4,5.6c0.2,0.2,2.5,2.7,3.4,3.5c0.2,0.2,0.2,0.5,0.1,0.7c-1.9,2.4-3.3,4.9-4,8C41.4,78.6,48.3,89,59.4,89.4
	c-0.7,0-3.2,6.5-3.5,7.3c-0.9,2.4-1.8,4.8-2,7.3c-1.5,13.5,4.6,31.6,16.1,39.5c25.3,17.3,74.5-1.7,99.5-10.9c4-1.5,8-2.9,11.9-4.7
	c3.8-1.8,7.5-3.9,10.7-6.7c6.4-5.5,8.9-11.8,8.8-18.4C196.3,97.8,189.8,93.6,180.5,89.8z"/>
<path class="st0" d="M156.3,229.6c-2.6,0-4.7,2.1-4.7,4.7c0,2.6,2.1,4.7,4.7,4.7s4.7-2.1,4.7-4.7C161,231.7,158.9,229.6,156.3,229.6
	z"/>
<path class="st0" d="M194.5,133.1c-0.4-0.1-0.9,0-1.3,0.2c-13.4,5.6-27.5,9.4-41.1,14.5c-1.1,0.4-2.1,0.8-3.2,1.2
	c-12.1,4.6-27.1,9.6-35.8,19.8c-4.2,5-6.7,12-5.5,18.7c1.6,8.7,7.1,10.6,15.2,10.5c1.6,0,1.4,0.9,1.7,2.1c0.4,1.6,0.8,3.2,1.5,4.8
	c0.7,1.6,1.7,3.2,2.8,4.6c5.9,7.3,16.3,11.1,25.1,7.1c0.6-0.3,1.2-0.5,1.9-0.5c1.4,0.1,2.4,1.4,3.3,2.5
	c13.5,15.6,29.4-9.2,32.1-20.6c2.8-11.5,3.6-23.4,4.3-35.2c0.5-9.4,0.8-18.3,0-27.7C195.3,134.2,195.2,133.3,194.5,133.1z"/>
<path class="st0" d="M171.4,58.4c-8.8-6.8-20.1-12.2-31.4-13c-8-0.6-19.2,2.2-16.5,12.8c1.4,5.3,6.3,10.1,13,12.8
	c4.9,2,10.2,2.9,15.8,3.8c1.7,0.3,3.4,0.6,5.1,0.9c8.7,1.7,17.3,4.2,25.5,7.5c6.1,2.5,11.1,5.1,15.3,8.1
	C193.2,78.4,180.9,65.8,171.4,58.4z M137.2,65.1c-4.4,0-8-3.6-8-8s3.6-8,8-8s8,3.6,8,8S141.6,65.1,137.2,65.1z M157.2,71.4
	c-3.1,0-5.6-2.5-5.6-5.6c0-3.1,2.5-5.6,5.6-5.6c3.1,0,5.6,2.5,5.6,5.6C162.8,68.9,160.3,71.4,157.2,71.4z"/>
<path class="st0" d="M278,223c3.3,0,5.9,2.6,5.9,5.9s-2.6,5.9-5.9,5.9c-3.3,0-5.9-2.6-5.9-5.9S274.8,223,278,223z"/>
<path class="st0" d="M269.1,45.5c-11.2,0.8-22.5,6.1-31.4,13c-9.5,7.3-21.8,19.9-27,33c4.2-3,9.3-5.6,15.3-8.1
	c8.2-3.3,16.8-5.9,25.5-7.5c1.7-0.3,3.4-0.6,5.1-0.9c5.6-1,10.9-1.8,15.8-3.8c6.8-2.7,11.7-7.5,13-12.8
	C288.4,47.7,277.2,44.9,269.1,45.5z M252,71.4c-3.1,0-5.6-2.5-5.6-5.6c0-3.1,2.5-5.6,5.6-5.6c3.1,0,5.6,2.5,5.6,5.6
	C257.6,68.9,255.1,71.4,252,71.4z M272,65.1c-4.4,0-8-3.6-8-8s3.6-8,8-8s8,3.6,8,8S276.4,65.1,272,65.1z"/>
<path class="st0" d="M292.8,210.4c2.6,0,4.7,2.1,4.7,4.7c0,2.6-2.1,4.7-4.7,4.7s-4.7-2.1-4.7-4.7
	C288.2,212.4,290.2,210.4,292.8,210.4z"/>
<path class="st0" d="M390.9,9.5c2.2,0,3.9,1.8,3.9,3.9s-1.8,3.9-3.9,3.9s-3.9-1.8-3.9-3.9S388.7,9.5,390.9,9.5z"/>
<path class="st0" d="M228.7,89.8c7.8-3.2,15.9-5.6,24.2-7.1c1.7-0.3,3.3-0.6,5-0.9c5.7-1,11.6-2,17.2-4.2c8.9-3.6,15.2-10,17.2-17.5
	c1.3-4.9,0.4-10.4-2.5-14.7c-1-1.6-2.3-3-3.7-4.1c2.5-5.3,6.7-9.9,11.5-13.4c11.5-8.4,26.2-14,40.4-14.5c6.5-0.2,14.9-1,20.9,1.7
	c3.8,1.7,6.9,4.8,9,8.4c3.7,6,4.6,13.1,3.1,19.9c-0.5,2.4-1.2,4.7-2.2,6.9c-1,2.1-2.4,3.8-4,5.6c-0.2,0.2-2.5,2.7-3.4,3.5
	c-0.2,0.2-0.2,0.5-0.1,0.7c1.9,2.4,3.3,4.9,4,8c2.4,10.6-4.5,20.9-15.6,21.4c0.7,0,3.2,6.5,3.5,7.3c0.9,2.4,1.8,4.8,2,7.3
	c1.5,13.5-4.6,31.6-16.1,39.5c-25.3,17.3-74.5-1.7-99.5-10.9c-4-1.5-8-2.9-11.9-4.7c-3.8-1.8-7.5-3.9-10.7-6.7
	c-6.4-5.5-8.9-11.8-8.8-18.4C212.9,97.8,219.4,93.6,228.7,89.8z"/>
<path class="st0" d="M252.9,229.6c2.6,0,4.7,2.1,4.7,4.7c0,2.6-2.1,4.7-4.7,4.7s-4.7-2.1-4.7-4.7
	C248.2,231.7,250.3,229.6,252.9,229.6z"/>
<path class="st0" d="M214.7,133.1c0.4-0.1,0.9,0,1.3,0.2c13.4,5.6,27.5,9.4,41.1,14.5c1.1,0.4,2.1,0.8,3.2,1.2
	c12.1,4.6,27.1,9.6,35.8,19.8c4.2,5,6.7,12,5.5,18.7c-1.6,8.7-7.1,10.6-15.2,10.5c-1.6,0-1.4,0.9-1.7,2.1c-0.4,1.6-0.8,3.2-1.5,4.8
	c-0.7,1.6-1.7,3.2-2.8,4.6c-5.9,7.3-16.3,11.1-25.1,7.1c-0.6-0.3-1.2-0.5-1.9-0.5c-1.4,0.1-2.4,1.4-3.3,2.5
	c-13.5,15.6-29.4-9.2-32.1-20.6c-2.8-11.5-3.6-23.4-4.3-35.2c-0.5-9.4-0.8-18.3,0-27.7C213.9,134.2,214,133.3,214.7,133.1z"/>
</svg>
