<svg xmlns="http://www.w3.org/2000/svg" viewBox="0 0 409.09 245.12"><g id="Layer_2" data-name="Layer 2"><g id="Layer_1-2" data-name="Layer 1"><path d="M318.53,3.68c-34.41,7.33-59.59,24.55-71.73,33-17.17,12-30.92,27.65-40.27,39.06h-4c-9.35-11.41-23.1-27.09-40.27-39.06C150.15,28.23,125,11,90.56,3.68,44.53-6.12.43,5.7,0,15.24c-.09,2,7.14,3.65,8.52,4.25C15.91,22.71,19.11,29,22.76,35.71,26.9,43.28,29.21,55.33,36.84,60c-6.22,4.83-3,17-.1,22.59,4.23,8.12,6.53,14.67,7.52,23.83.82,7.49.77,15.45,2.86,22.7,3,10.42,10.34,22.3,20.56,27a45.42,45.42,0,0,0,22.8,3.56c4.06-.33,16.39-1.26,19.32-4.44a70.86,70.86,0,0,0-9,11.37c-5.4,9-6.49,25.08.36,33.77a19.14,19.14,0,0,0,4.54,4.13c-3.4,9.13-1.85,18.06,3.48,22.11A12.56,12.56,0,0,0,116,229.1a15.67,15.67,0,0,0,10.66,14.2,14.73,14.73,0,0,0,8.5,0,18.18,18.18,0,0,0,3.18-1.27c.79-.41,1.76-1.32,2.68-1.26,1.09.07,2.43,1.57,3.38,2.1a17.35,17.35,0,0,0,3.73,1.54,17.89,17.89,0,0,0,7.77.45c4.73-.79,8.6-4.9,13.18-6.43,5.93-2,12.21-3.52,17.33-7.28,14.47-10.61,14.72-31.41,15.84-61.6.1-2.63.21-5.52.34-8.63v-14h4v14c.13,3.11.24,6,.34,8.63,1.12,30.19,1.37,51,15.84,61.6,5.12,3.76,11.4,5.29,17.33,7.28,4.58,1.53,8.45,5.64,13.18,6.43a17.89,17.89,0,0,0,7.77-.45,17.35,17.35,0,0,0,3.73-1.54c.95-.53,2.29-2,3.38-2.1.92-.06,1.89.85,2.68,1.26a18.18,18.18,0,0,0,3.18,1.27,14.73,14.73,0,0,0,8.5,0,15.67,15.67,0,0,0,10.66-14.2,12.56,12.56,0,0,0,6.79-2.41c5.33-4.05,6.88-13,3.48-22.11a19.14,19.14,0,0,0,4.54-4.13c6.85-8.69,5.76-24.75.36-33.77a70.86,70.86,0,0,0-9-11.37c2.93,3.18,15.26,4.11,19.32,4.44a45.42,45.42,0,0,0,22.8-3.56c10.22-4.73,17.56-16.61,20.56-27,2.09-7.25,2-15.21,2.86-22.7,1-9.16,3.29-15.71,7.52-23.83,2.93-5.63,6.12-17.76-.1-22.59,7.63-4.71,9.94-16.76,14.08-24.33,3.65-6.68,6.85-13,14.24-16.22,1.38-.6,8.61-2.28,8.52-4.25C408.66,5.7,364.56-6.12,318.53,3.68Z" fill="#2b3a45"/></g></g></svg>