<svg xmlns="http://www.w3.org/2000/svg" viewBox="0 0 383.04 229.52"><g id="Layer_2" data-name="Layer 2"><g id="Layer_1-2" data-name="Layer 1"><path d="M157,49c-8.82-6.83-20.13-12.15-31.36-13-8-.59-19.24,2.22-16.47,12.77,1.38,5.27,6.26,10.06,13,12.8,4.92,2,10.2,2.89,15.8,3.84,1.72.29,3.44.58,5.15.91a134.16,134.16,0,0,1,25.51,7.54A78.25,78.25,0,0,1,184,81.93C178.83,68.88,166.51,56.29,157,49Zm-34.19,6.68a8,8,0,1,1,8-8A8,8,0,0,1,122.85,55.63Zm20,6.25a5.59,5.59,0,1,1,5.58-5.58A5.58,5.58,0,0,1,142.81,61.88Z" fill="#2b3a45"/><path d="M257.35,36c-11.23.82-22.54,6.14-31.36,13-9.47,7.34-21.78,19.93-27,33a78,78,0,0,1,15.33-8.09,134,134,0,0,1,25.51-7.54c1.71-.33,3.43-.62,5.15-.91,5.59-1,10.88-1.85,15.8-3.84,6.78-2.74,11.65-7.53,13-12.8C276.59,38.2,265.38,35.39,257.35,36Zm-17.12,25.9a5.59,5.59,0,1,1,5.58-5.58A5.58,5.58,0,0,1,240.23,61.88Zm20-6.25a8,8,0,1,1,8-8A8,8,0,0,1,260.18,55.63Z" fill="#2b3a45"/><path d="M3.93,7.85A3.93,3.93,0,1,1,7.85,3.93,3.92,3.92,0,0,1,3.93,7.85Z" fill="#2b3a45"/><path d="M102,210.23a4.69,4.69,0,1,1,4.69-4.68A4.69,4.69,0,0,1,102,210.23Z" fill="#2b3a45"/><path d="M116.77,225.29a5.91,5.91,0,1,1,5.91-5.91A5.92,5.92,0,0,1,116.77,225.29Z" fill="#2b3a45"/><path d="M141.88,229.52a4.69,4.69,0,1,1,4.69-4.69A4.69,4.69,0,0,1,141.88,229.52Z" fill="#2b3a45"/><path d="M181,153.15c-.72,11.8-1.52,23.67-4.28,35.2s-18.63,36.19-32.1,20.6c-.93-1.08-1.88-2.43-3.3-2.49a4.16,4.16,0,0,0-1.87.51c-8.78,3.91-19.23.18-25.12-7.15a19.86,19.86,0,0,1-2.79-4.55,27.46,27.46,0,0,1-1.47-4.75c-.29-1.25-.1-2.17-1.66-2.14-8.1.12-13.6-1.82-15.24-10.48-1.27-6.69,1.24-13.73,5.47-18.7,8.66-10.15,23.66-15.12,35.77-19.77,1.05-.41,2.11-.8,3.17-1.19,13.64-5,27.69-8.91,41.14-14.47a1.92,1.92,0,0,1,1.32-.2c.7.23.88,1.12,1,1.86A184.53,184.53,0,0,1,181,153.15Z" fill="#2b3a45"/><path d="M177.74,111.75a47.46,47.46,0,0,1-10.73,6.7c-3.84,1.81-7.87,3.29-11.86,4.74-25.08,9.12-74.26,28.19-99.53,10.86C44.1,126.16,38,108,39.51,94.55a29.38,29.38,0,0,1,2-7.33c.32-.81,2.75-7.33,3.47-7.3C34,79.46,27,69.1,29.42,58.52a20.33,20.33,0,0,1,4-8,.5.5,0,0,0-.08-.69c-1-.82-3.24-3.32-3.44-3.54a22,22,0,0,1-4-5.56,35.16,35.16,0,0,1-2.21-6.88A26.93,26.93,0,0,1,26.8,14a20.86,20.86,0,0,1,9-8.36c6.07-2.71,14.42-1.88,20.93-1.67C70.94,4.38,85.68,10,97.13,18.39a36.62,36.62,0,0,1,11.5,13.37,16.09,16.09,0,0,0-3.72,4.05,18.7,18.7,0,0,0-2.47,14.71c2,7.52,8.24,13.9,17.18,17.52,5.63,2.27,11.54,3.28,17.25,4.25,1.68.29,3.36.57,5,.89a127.37,127.37,0,0,1,24.18,7.14c9.31,3.8,15.88,8,20.46,13C186.64,99.93,184.16,106.28,177.74,111.75Z" fill="#2b3a45"/><path d="M241.16,229.52a4.69,4.69,0,1,1,4.68-4.69A4.69,4.69,0,0,1,241.16,229.52Z" fill="#2b3a45"/><path d="M266.27,225.29a5.91,5.91,0,1,1,5.91-5.91A5.91,5.91,0,0,1,266.27,225.29Z" fill="#2b3a45"/><path d="M281.06,210.23a4.69,4.69,0,1,1,4.69-4.68A4.68,4.68,0,0,1,281.06,210.23Z" fill="#2b3a45"/><path d="M289.84,177.9c-1.64,8.66-7.15,10.6-15.24,10.48-1.57,0-1.38.89-1.66,2.14a27.46,27.46,0,0,1-1.47,4.75,20.22,20.22,0,0,1-2.79,4.55c-5.89,7.33-16.34,11.06-25.12,7.15a4.19,4.19,0,0,0-1.87-.51c-1.42.06-2.37,1.41-3.3,2.49-13.48,15.59-29.37-9.21-32.1-20.6s-3.56-23.4-4.28-35.2a183.21,183.21,0,0,1,0-27.72c.07-.74.25-1.63.95-1.86a1.93,1.93,0,0,1,1.32.2c13.45,5.56,27.49,9.45,41.14,14.47,1.06.39,2.11.78,3.17,1.19,12.11,4.65,27.11,9.62,35.77,19.77C288.6,164.17,291.11,171.21,289.84,177.9Z" fill="#2b3a45"/><path d="M359.36,33.88a34.53,34.53,0,0,1-2.22,6.88,22,22,0,0,1-4,5.56c-.2.22-2.48,2.72-3.45,3.54a.51.51,0,0,0-.07.69,20.17,20.17,0,0,1,3.95,8C356,69.1,349.08,79.46,338,79.92c.71,0,3.15,6.49,3.47,7.3a29.38,29.38,0,0,1,2,7.33c1.53,13.47-4.59,31.61-16.11,39.5-25.27,17.33-74.46-1.74-99.53-10.86-4-1.45-8-2.93-11.87-4.74a47.4,47.4,0,0,1-10.72-6.7c-6.42-5.47-8.91-11.82-8.8-18.41,4.59-5,11.15-9.22,20.47-13a127.16,127.16,0,0,1,24.18-7.14c1.66-.32,3.34-.6,5-.89,5.72-1,11.63-2,17.25-4.25,8.95-3.62,15.21-10,17.19-17.52a18.78,18.78,0,0,0-2.47-14.71,16.27,16.27,0,0,0-3.72-4.05A36.69,36.69,0,0,1,285.9,18.39c11.46-8.41,26.19-14,40.39-14.47,6.51-.21,14.86-1,20.92,1.67a20.83,20.83,0,0,1,9,8.36A26.93,26.93,0,0,1,359.36,33.88Z" fill="#2b3a45"/><path d="M379.11,7.85A3.93,3.93,0,1,1,383,3.93,3.92,3.92,0,0,1,379.11,7.85Z" fill="#2b3a45"/></g></g></svg>