<svg xmlns="http://www.w3.org/2000/svg" viewBox="0 0 1237.65 636"><g id="Layer_2" data-name="Layer 2"><g id="Layer_1-2" data-name="Layer 1"><path d="M1217.73,17.69c-10-6.67-21.13-10.41-32.8-12.65-28.46-5.47-57-3.94-85.52-.49-6.75.82-13.49,1.83-20.27,2.34-10.23.77-20.64.3-30.72,1.92-26,4.17-50.93,12.57-75.5,21.81-89,33.47-175.32,72.86-258.41,119.16a284.07,284.07,0,0,0-74.17,59.35,87.69,87.69,0,0,0-10.61,15c-5,8.87-3.76,19.09-4.93,28.74-2,16.52-3.35,33.11-5.11,49.66a5.62,5.62,0,0,1-.61,1.87c-.11-.07-.2-.15-.31-.21-.7-.43-.81-2.07-.92-3.18-1.66-16.39-3.15-32.8-5-49.17-1-8.88-.79-18.46-4.27-26.33-4-9-10.71-17.14-17.55-24.43-27.13-28.89-59.94-50.22-95.09-67.8-41.06-20.52-82.38-40.55-124.08-59.73-49.37-22.69-99.46-43.77-151.77-58.95C201.43,9.13,182.55,4.44,162.8,5c-5.24.14-10.5-.35-15.74-.72-3.32-.24-6.6-.84-9.9-1.23C128.44,2,119.72,1,111,0H76C67.53,1.34,58.86,2,50.63,4.21A151.87,151.87,0,0,0,23.7,14.1C10.92,20.32,3.57,31.37,0,45V62c2.2,8.85,6.84,16.42,11.87,23.92a204.33,204.33,0,0,1,11.74,20.69c6.75,13.18,18.24,22,28.74,31.69.82.76,2.11,1,3.07,1.62,1.21.79,2.65,1.53,3.38,2.67,3.55,5.56,8.63,9,14.45,11.86a14.75,14.75,0,0,1,5.8,5.48c4.16,6.94,9,13.11,15.8,17.72a23.62,23.62,0,0,1,6.25,6.58c4.1,6.28,7.66,12.87,14.66,16.65a7,7,0,0,1,3.14,4.52c3.64,26.23,15.43,47.2,38.89,60.62,2.84,1.63,4.06,3.78,5.32,6.61a208.37,208.37,0,0,0,10.06,19.83c2.25,3.9,5.63,7.13,8.18,10.89A118.85,118.85,0,0,1,188,314.5c7.33,13.85,18.95,23.84,30.69,33.59,7.83,6.51,17.67,8.15,27.39,7,20.27-2.41,40.43-5.73,60.64-8.66,1-.15,2-.19,3-.28.21.35.41.71.62,1.07-1.77,1.49-3.65,2.86-5.28,4.49-7.3,7.3-15.67,13.86-21.57,22.15-21.86,30.71-27.07,45.51-31.39,82.92a103.44,103.44,0,0,0-.87,15.91c.25,6.05,1.6,11.83,7.33,15.6a11.09,11.09,0,0,1,4.06,5c4.73,12.45,8.83,25.21,20.23,33.65a4,4,0,0,1,1.15,2.1c3,10.55,10.22,16.75,20.43,20a7.22,7.22,0,0,1,3.83,3.28,39.35,39.35,0,0,0,19,18.43c1.13.53,2.52,1.29,3,2.31,5.07,11.25,15,15.39,26,18a135,135,0,0,1,15.66,4.39c11.79,4.4,23.44,9.18,35.13,13.84,1.35.53,2.63,1.27,3.93,1.93,5.7,2.9,11.29,6.05,17.14,8.62,3.28,1.44,7,1.81,10.47,2.88,5.36,1.66,10.62,3.69,16,5.2,3.81,1.06,8.06.87,11.62,2.38a49.85,49.85,0,0,0,35.06,2.13,13,13,0,0,1,6.26-.23c11.87,2.58,20.69-1.86,24.3-13.24,1.25-4,3.27-5.29,7-6.12,12.27-2.74,23.86-7.23,34-14.83,8.38-6.28,14.53-14.05,16.41-24.73a7.5,7.5,0,0,1,3-4.07c9.29-6.61,15-15.5,16.84-26.69,1.18-7.35,1.65-14.82,2.38-22.25q2.31-23.36,4.55-46.72,1.39-14.33,2.77-28.65c2.74,31.11,6,62.17,8.93,93.27,1.26,13.5,6.74,24.51,17.86,32.57a7.56,7.56,0,0,1,3,4.14c1.69,9.33,6.67,16.57,13.76,22.5,11,9.2,24,14.07,37.77,17.2,3.28.75,4.63,2.05,5.62,5.07,3.77,11.61,11.52,16.48,23.31,14.09,5.11-1,9.31.41,13.7,2.19h17c8.57-2.31,17.2-4.42,25.7-7,11.06-3.33,22.95-5.38,32.74-11,10.2-5.85,21.13-9,31.69-13.45,1.38-.58,2.8-1.09,4.11-1.79a103.1,103.1,0,0,1,30.61-11.13c9.84-1.8,18.37-6.85,22.77-16.84a6.61,6.61,0,0,1,3.25-2.68,39.05,39.05,0,0,0,18.93-18.45,7.17,7.17,0,0,1,3.87-3.2c10.18-3.33,17.37-9.54,20.37-20.1a4.07,4.07,0,0,1,1.15-2.11c11.24-8.11,15.15-20.61,19.93-32.67a15.56,15.56,0,0,1,4.87-6.17c5.17-4,6.58-9.56,6.83-15.44a103.73,103.73,0,0,0-.81-14.92c-.92-8.88-1.26-17.94-3.36-26.56a141.1,141.1,0,0,0-9.42-25.61c-9.34-20.11-21.69-38.13-38.91-52.49-2.51-2.1-4.74-4.54-6.85-6.59,14.26,2.24,28.46,4.75,42.75,6.62,12.64,1.65,25.36,4.46,38.11.52,6.32-1.95,11.8-5,16.12-10.32,2.13-2.61,6-3.87,8-6.52q11.3-14.52,21.85-29.62c3.66-5.21,6.64-10.71,11-15.64,4.62-5.26,6.59-12.83,9.84-19.32.91-1.81,1.89-4.09,3.49-5,25.42-14.23,37.58-36.67,40.82-65.24,8.83-2.87,13-10.68,17.66-18.21a18.82,18.82,0,0,1,5.65-5.86c7.25-4.65,12.2-11.13,16.42-18.45a12.58,12.58,0,0,1,5.17-4.74c6-2.87,11.3-6.32,14.86-12.12a9,9,0,0,1,2.92-2.43c1.11-.71,2.6-.94,3.54-1.8,10.67-9.8,22.08-18.93,28.93-32.2,3.26-6.31,6.92-12.41,10.29-18.67,4.43-8.24,8.75-16.55,13.12-24.83V47C1234.63,34.77,1228.36,24.78,1217.73,17.69Z"/></g></g></svg>