<svg xmlns="http://www.w3.org/2000/svg" viewBox="0 0 75.32 257.07"><g id="Layer_2" data-name="Layer 2"><g id="Layer_1-2" data-name="Layer 1"><path d="M71.83,0a3.49,3.49,0,0,0-3.49,3.49,3.27,3.27,0,0,0,0,.44C63.05,5.87,57.38,13.57,56,21c-1.47,7.72-3.58,14.88-5.44,21.2C48.61,48.72,47,54.32,46.64,58.48a31.6,31.6,0,0,0-8.08-1.22,33.71,33.71,0,0,0-7.3,1c-.57-4.11-2.44-9.52-4.61-15.77S22,29.2,20.19,21.57C18.41,14.16,12.38,6.75,7,5.07c0-.15,0-.29,0-.44A3.51,3.51,0,1,0,6.76,6c5.09,1.62,10.76,8.69,12.46,15.76,1.85,7.68,4.31,14.76,6.48,21s4.07,11.71,4.59,15.73a10.07,10.07,0,0,0-6.08,4.63c-3.94,7.6-1.52,11.41,2.58,21.29,7.5,18.11,7.48,23.05,6.7,26-2.09,8-8.44,2.53-10.13,24.48-.88,11.52,3.76,14.66,5.07,27.86,1.8,18.17-8,24.76-10.13,40.53-1.51,11.25,6,35.27,20.73,53.75h.22c18.07-22.76,21.14-42.57,19.57-53.75C56.61,187.56,46.89,181,48.69,162.79c1.31-13.2,6-16.34,5.07-27.86-1.69-22-8-16.52-10.13-24.48-.78-2.94-.8-7.88,6.7-26,4.1-9.88,6.52-13.69,2.58-21.29a9.87,9.87,0,0,0-5.81-4.53l.52,0c.3-4.07,2-9.67,3.86-16.15s4-13.54,5.46-21.3C58.3,14.09,63.63,6.76,68.63,4.9A3.49,3.49,0,1,0,71.83,0Z"/></g></g></svg>