<svg xmlns="http://www.w3.org/2000/svg" viewBox="0 0 192.25 293.14"><g id="Layer_2" data-name="Layer 2"><g id="Layer_1-2" data-name="Layer 1"><rect width="192.25" height="293.14" fill="none"/><path d="M178.91,182.54c-.66,10.84-1.39,21.75-3.93,32.33s-17.11,33.24-29.48,18.92c-.85-1-1.73-2.23-3-2.29a4.06,4.06,0,0,0-1.72.47c-8.06,3.59-17.66.17-23.07-6.56a18.69,18.69,0,0,1-2.56-4.18,25.08,25.08,0,0,1-1.35-4.37c-.26-1.15-.09-2-1.53-2-7.43.12-12.48-1.67-14-9.61-1.17-6.15,1.14-12.61,5-17.18,7.94-9.32,21.72-13.89,32.84-18.16l2.91-1.09c12.53-4.61,25.43-8.18,37.79-13.28a1.73,1.73,0,0,1,1.21-.19c.64.21.81,1,.87,1.7A169,169,0,0,1,178.91,182.54Z" fill="#aa7fbc"/><path d="M121.54,161.38c-6.83,6.65-13.18,16.37-7.58,25.84s17.26,9.33,26.05,4.93l-9.42-9.42c-4,9-2.67,19.94,5.4,26.39s18.65,5.21,26.25-1l-11.51-6.7c-3,9.13,1,20,9.78,24.25,9.36,4.59,18.4.6,21.22-9.21a10.12,10.12,0,0,0,.22-6c-.14-.45-2.25-5.18-2.43-5a53.3,53.3,0,0,0-6.54,5.87c-1.29,1.44-2.63,2.64-4.71,2.34-3.85-.56-5.35-5.27-4.26-8.54,2.37-7.14-6.66-10.67-11.51-6.7-5.64,4.6-12.64-2.73-10-8.71,2.73-6.24-2.91-12.68-9.42-9.42-1.95,1-6.49,2.55-7.43-.54-.88-2.91,3.91-6.9,5.66-8.6C137.65,164.93,127.91,155.2,121.54,161.38Z" fill="#746b89"/><polygon points="83.85 44.1 35.6 39.82 28.88 59.98 37.93 88.9 41.7 119.22 125.99 169.92 166.04 150.68 163.56 121.67 80.19 75.86 83.85 44.1" fill="#fff"/><path d="M141.19,135c6.47,5,8.85,13.23,11.68,20.59a2.21,2.21,0,0,1,.21,1.23c-.18.78-1.08,1.12-1.85,1.33-6.31,1.71-12.28,2.79-18,6-6.05,3.37-13.23,5.09-20.09,5.95-8.44,1.07-17,1.22-25.33,3-4.32.93-8.76,2.32-13.08,1.36a24.64,24.64,0,0,1-6.36-2.73q-7.26-4-14.46-8c-2.4-1.34-4.87-2.75-6.56-4.91-2.83-3.6-3-8.6-2.55-13.16A221.74,221.74,0,0,0,46,118.7a4.08,4.08,0,0,0-1.79-3.92c-4.65-4-6.76-5.11-7.2-11.33a64.83,64.83,0,0,1,.39-9,46.64,46.64,0,0,1,.55-5.53c.52-2.76,1.47-2.82,4-1.55,2.81,1.38,5.14,3.39,8.14,4.3s6.22,1.1,9.32,1.76a15.36,15.36,0,0,1,3.41,1.14A8.28,8.28,0,0,1,66,97.16c2.53,3.57,2.59,8.82,4.77,12.76a39.1,39.1,0,0,0,35.25,20c3.81-.22,7.57-1,11.38-1.31C125.8,127.92,134.56,129.84,141.19,135Z" fill="#94d7d5"/><path d="M116.48,57.85l-7.39-3.76c-11.72-6-23.88-11.9-36.81-14.71a62.8,62.8,0,0,0-19.43-1.2c-8.38.78-9.59,4.54-16.15,7.41,11.08-4.84,22.62-1.67,30.14,7.65,8.49,10.53,8.46,23.82,10.47,36.55,1.09,6.89,2.71,14.06,7.33,19.28,5.94,6.71,15.58,8.76,24.53,8.92s18-1.17,26.84.42c17.36,3.15,24.3,17.15,29.76,32.38,3.14,8.78,17.14-7.06,19-11,4.35-9.29,2.87-20.29-1.12-29.75C170.38,79.26,144,71.76,116.48,57.85Z" fill="#94d7d5"/><path d="M128.08,74.94c10.32.76,20.7,5.64,28.8,11.91,8.7,6.74,20,18.3,24.79,30.29a71.3,71.3,0,0,0-14.07-7.43,124.33,124.33,0,0,0-23.43-6.93c-1.57-.29-3.15-.56-4.73-.83-5.14-.87-10-1.7-14.51-3.53-6.23-2.51-10.7-6.91-12-11.76C110.41,77,120.71,74.4,128.08,74.94Z" fill="#aa7fbc"/><path d="M44.37,60.87a13,13,0,0,0,7.44,20.59c8.16,1.87,15.88-3.64,14-12.41-1.28-5.93-5.93-12.66-12.63-12.7A10.83,10.83,0,0,0,44.37,60.87Z" fill="#746b89"/><path d="M16.27,49.11a3.61,3.61,0,1,1,3.6-3.61A3.61,3.61,0,0,1,16.27,49.11Z" fill="#94d7d5"/><path d="M106.31,235a4.31,4.31,0,1,1,4.3-4.31A4.31,4.31,0,0,1,106.31,235Z" fill="#94d7d5"/><path d="M119.9,248.79a5.43,5.43,0,1,1,5.42-5.43A5.43,5.43,0,0,1,119.9,248.79Z" fill="#aa7fbc"/><path d="M143,252.68a4.31,4.31,0,1,1,4.3-4.31A4.31,4.31,0,0,1,143,252.68Z" fill="#94d7d5"/><circle cx="125.55" cy="85.57" r="7.33" fill="#2b3a45"/><circle cx="143.87" cy="93.51" r="5.13" fill="#2b3a45"/><path d="M191.43,192.15h.06s0-42.72,0-70.93c-2.38-5.57-3.81-11.29-5.92-17a22.34,22.34,0,0,0-1.09-2.44l-.13.27C175.76,91.6,165.57,78.7,149.8,67.71c-11.15-7.78-34.28-23.58-65.87-30.31C41.65,28.39,1.16,39.25.76,48c-.1,2.26,3.47,2.46,4.94,3,5.61,2.06.09,5.82,4.81,8.6a18.83,18.83,0,0,0,4.27,1.5,32.29,32.29,0,0,1,3.43,1.58c6.9,3,7.74,8.83,9.49,15.4a27,27,0,0,0,1.77,5.2c.78,1.58,2,2.59,3,4,1.2,1.69.68,1.73.09,3.77a33.24,33.24,0,0,0-.92,12.32,20.45,20.45,0,0,0,3.13,9.09c1.64,2.42,4.22,4.24,6.1,6.56a7.22,7.22,0,0,1,1.71,3.09,8.15,8.15,0,0,1-.29,3.32c-3.95,17.64,2.91,43.84,20.61,52a41.75,41.75,0,0,0,20.94,3.28c3.73-.31,15.05-1.16,17.75-4.09a65,65,0,0,0-8.27,10.45c-5,8.28-6,23,.33,31a17.36,17.36,0,0,0,4.17,3.79c-3.12,8.39-1.7,16.59,3.2,20.3a11.47,11.47,0,0,0,6.23,2.22,14.4,14.4,0,0,0,9.79,13,13.49,13.49,0,0,0,7.81,0,15.91,15.91,0,0,0,2.91-1.16c.73-.38,1.62-1.21,2.47-1.15s2.23,1.44,3.11,1.93a16.21,16.21,0,0,0,3.42,1.41,16.56,16.56,0,0,0,7.14.41,15.52,15.52,0,0,0,9.28-5.65c2.67-3.1,3.82-6.06,8.57-5.57,2.43.25,4.94,1,7.25.21,6.34-2.19,5.33-11.14,8.05-16,2.07-3.7,4.6-6.84,5.74-11,1.08-3.94,1.34-8,2.23-12,1.4-6.24,1.21-12.75,1.44-19.13.09-2.42.19-5.07.31-7.92C188,188.19,189.6,192.15,191.43,192.15ZM16.33,49a3.61,3.61,0,1,1,3.61-3.6A3.61,3.61,0,0,1,16.33,49ZM128.14,74.85c10.32.76,20.7,5.64,28.81,11.92,8.69,6.74,20,18.3,24.78,30.29a71,71,0,0,0-14.07-7.44,123.35,123.35,0,0,0-23.43-6.92c-1.57-.3-3.15-.57-4.73-.84-5.14-.87-10-1.7-14.51-3.52-6.22-2.52-10.7-6.91-12-11.76C110.48,76.89,120.78,74.31,128.14,74.85Zm-21.77,160a4.31,4.31,0,1,1,4.31-4.3A4.31,4.31,0,0,1,106.37,234.88ZM120,248.71a5.43,5.43,0,1,1,5.43-5.43A5.43,5.43,0,0,1,120,248.71ZM143,252.59a4.31,4.31,0,1,1,4.3-4.3A4.29,4.29,0,0,1,143,252.59ZM179,182.45c-.66,10.84-1.39,21.75-3.93,32.34S157.94,248,145.56,233.7c-.85-1-1.72-2.23-3-2.28a3.87,3.87,0,0,0-1.71.46c-8.07,3.59-17.66.17-23.07-6.56a18.37,18.37,0,0,1-2.57-4.18,25.41,25.41,0,0,1-1.35-4.37c-.26-1.14-.08-2-1.52-2-7.43.11-12.49-1.67-14-9.62-1.16-6.14,1.14-12.61,5-17.17,8-9.33,21.72-13.89,32.84-18.16l2.92-1.1c12.53-4.61,25.43-8.18,37.78-13.28a1.78,1.78,0,0,1,1.21-.19c.64.21.81,1,.87,1.71A167.61,167.61,0,0,1,179,182.45Zm-3-38a43.42,43.42,0,0,1-9.85,6.15c-3.53,1.66-7.23,3-10.89,4.35-23,8.38-68.2,25.89-91.41,10C53.22,157.67,47.6,141,49,128.65a26.49,26.49,0,0,1,1.87-6.74c.29-.74,2.53-6.73,3.19-6.71-10.16-.41-16.55-9.93-14.32-19.64a18.61,18.61,0,0,1,3.62-7.33.45.45,0,0,0-.06-.63c-.89-.75-3-3-3.16-3.25a20.23,20.23,0,0,1-3.65-5.1,32.66,32.66,0,0,1-2-6.33,24.72,24.72,0,0,1,2.86-18.3,19.26,19.26,0,0,1,8.29-7.68c5.57-2.48,13.24-1.73,19.22-1.53,13,.42,26.56,5.57,37.09,13.29A33.67,33.67,0,0,1,112.48,71a15.1,15.1,0,0,0-3.41,3.73,17.18,17.18,0,0,0-2.27,13.51c1.81,6.9,7.56,12.77,15.78,16.09,5.17,2.09,10.59,3,15.84,3.9,1.54.26,3.08.52,4.61.81a116.22,116.22,0,0,1,22.2,6.57c8.56,3.49,14.59,7.32,18.8,12C184.13,133.59,181.84,139.42,176,144.44Z" fill="#2b3a45"/></g></g></svg>