<svg xmlns="http://www.w3.org/2000/svg" viewBox="0 0 192.39 293.14"><g id="Layer_2" data-name="Layer 2"><g id="Layer_1-2" data-name="Layer 1"><path d="M184,183.48a33.59,33.59,0,0,1-1.42,5,458.54,458.54,0,0,1-17.24,42.8,72.67,72.67,0,0,1-6.4,11.72c-3.19,4.48-7.26,8.23-11.31,12s-8.69,7.77-14.26,8.15c-6.25.42-11.75-3.78-17.68-5.82-3-1.05-6.21-1.53-9.27-2.47a34.35,34.35,0,0,1-20.56-18,37.23,37.23,0,0,1-1.49-27.41C91.61,187.66,115.08,182.44,134,175a110.73,110.73,0,0,1,27.79-7.24c4.55-.51,10.15-1,14.37,1.23,3.66,1.91,7.94,7.87,8,11.83A13.21,13.21,0,0,1,184,183.48Z" fill="#5f84a8"/><path d="M111.93,156.35c-5.74-1.51-13.82-2-21.06-3.58-6.15-1.37-11.71-3.57-14.71-8a29.63,29.63,0,0,1-5-18.66c.31-4.25,1.53-8.38,2-12.62,1-9.36-1.95-18.8-6.62-27a92,92,0,0,0-9.2-13.07c-2.53-3-5.21-5.9-8-8.62-5.25-5.18-9.8-10.5-10.94-18.16-2.57-17.3,24.55-9.55,31.8-4-1-.78-.49-7.13,0-8.45,1-2.85,4-5.27,6.62-6.61,6.61-3.48,14.14-1.05,17.7.18,15,5.17,27.18,16.94,37.48,31,8.3,11.31,15.13,23.61,21.78,35.94,5.09,9.44,10.17,18.92,14.61,28.7,5,11,17.21,29.4-1,34.32C148.24,163,130.71,161.28,111.93,156.35Z" fill="#c7d998"/><path d="M91.76,113a29,29,0,0,1,5.76-1A88.63,88.63,0,0,1,83.11,76c-1.6-10.32-2.74-22.8,2.33-32.39,10-18.81,30-6.95,41.24,3.29,10.83,9.89,17,26.44,24,39.28C159,101.56,167.34,117,176.37,132c5.22,8.68-1,20.62,7.86,26.3,17.07,11-16.4-14.56-4.94,2.56,6,9-8.53,17.43-14.51,8.48a94.6,94.6,0,0,0-23.11-23.9c-6.93-5-15-11.24-24.07-10.42-9.33.85-15.22,9.88-24.43,11-6.45.8-13-2.13-15-8.62C75.21,128.22,79.24,116.58,91.76,113Z" fill="#5f84a8"/><path d="M55.54,14.53A8.65,8.65,0,1,1,48.6,24.61,8.66,8.66,0,0,1,55.54,14.53Z" fill="#94d7d5"/><path d="M31,28.22a5,5,0,1,1,5.83,4A5,5,0,0,1,31,28.22Z" fill="#94d7d5"/><path d="M107.43,268.57a5.33,5.33,0,1,1,5.32-5.33A5.33,5.33,0,0,1,107.43,268.57Z" fill="#c7d998"/><circle cx="117.72" cy="271.68" r="4.09" fill="#c7d998"/><path d="M117.35,253.5c-4.72,1.7-12.43-.06-14.65-5.1-2.31-5.2,3.06-11,6.08-14.56,1.4-1.66,2.87-3.26,4.36-4.83a27.59,27.59,0,0,0,16.62,10.7,68.41,68.41,0,0,1-4.79,7.75A17.23,17.23,0,0,1,117.35,253.5Z" fill="#5f84a8"/><path d="M111.78,212.7a23.59,23.59,0,1,1,23.58,23.58A23.6,23.6,0,0,1,111.78,212.7Z" fill="#94d7d5"/><circle cx="103.33" cy="51.88" r="7.2" fill="#c7d998"/><circle cx="91.83" cy="131.48" r="6.23" fill="#c7d998"/><path d="M159.71,91.58c-15.94-30-21.56-37.23-26.26-42.56-8.18-9.26-34.06-38.57-70.4-39-16.17-.2-42.46,5.23-45.2,19.66C16.6,36.27,20.5,42.6,24.59,47.41c3,3.56,10.81,7.49,10.2,12.38-.23,1.81-.86,3.58-.73,5.39a10.93,10.93,0,0,0,2.6,5.68,35.12,35.12,0,0,0,11,9.46c3.34,1.82,7.63,4.17,7.12,7.94-.19,1.43-1.11,2.7-1.25,4.13-.26,2.67,2.12,4.73,3.94,6.68,5.38,5.75,6.22,12.32,4.66,19.5s-.33,15.85,2.46,22.65c1.66,4.06,3,7.32,6.3,10.25,4.11,3.64,7.94,3.84,8.67,6.89.86,3.61-3.8,6.16-2.89,8.08,1,2.14,6.6.51,8.21.27,3-.47,6.27-1.47,9.39-1,4,.61,1.68,4.94,4.7,7a6.4,6.4,0,0,0,2.85.89,23.93,23.93,0,0,0,8.72-.47c1.07-.26,2.13-.6,3.2-.84a19.91,19.91,0,0,1,6-.43,1.11,1.11,0,0,1,.93.4c.17.41-8.63,4.56-9.3,4.89-3.89,1.93-8,3.69-11.48,6.33-12.62,9.61-17,25.33-17.62,40.49-.2,5.42-.46,10.81,1,16.12a26,26,0,0,0,4,8.31c2.12,3,5.85,5.37,6.17,9.26.17,2.09-.79,4-.64,6a12.21,12.21,0,0,0,2.48,6.24c1.27,1.58,3.76,2,4.86,3.3s.18,3.23,2,4.35,3.66-.35,5.29,1.18c1.13,1.06.81,2.43,2.61,2.9,1.46.38,3.32-1.51,4.34-1.12.81.32.66,2.48.56,4.17-.37,6.14,1.94,4.67,5.41.85,3.86-4.25,9.21-5.67,13.09-6.22a18.77,18.77,0,0,0,7.91-.84c7.4-2.45,9.93-9.21,13.24-15.61q10.86-21,19.8-42.86c6.79-16.68,10.19-25,13-35.58a200,200,0,0,0,5.09-26C185.08,142.08,174.24,118.9,159.71,91.58Zm-104.24-77a8.65,8.65,0,1,1-6.93,10.08A8.66,8.66,0,0,1,55.47,14.59ZM30.9,28.28a5,5,0,1,1,5.84,4A5,5,0,0,1,30.9,28.28Zm81,128.13c-5.75-1.51-13.82-2-21.07-3.58-6.15-1.37-11.7-3.57-14.7-8a29.51,29.51,0,0,1-5-18.66c.3-4.25,1.53-8.38,2-12.62,1-9.36-1.94-18.8-6.62-27a91.22,91.22,0,0,0-9.2-13.07c-2.53-3-5.21-5.9-8-8.62-5.24-5.19-9.8-10.5-10.94-18.16-2.57-17.31,24.56-9.55,31.8-4-1-.77-.48-7.12,0-8.44,1-2.85,4-5.27,6.61-6.62,6.61-3.47,14.14-1,17.7.18,15,5.18,27.18,17,37.48,31,8.3,11.32,15.13,23.62,21.78,35.94,5.1,9.45,10.17,18.93,14.61,28.71,5,11,17.21,29.39-1,34.32C148.17,163.05,130.64,161.34,111.87,156.41Zm-4.51,112.21a5.32,5.32,0,1,1,5.32-5.32A5.32,5.32,0,0,1,107.36,268.62Zm10.29,7.21a4.1,4.1,0,1,1,4.09-4.1A4.1,4.1,0,0,1,117.65,275.83Zm-.37-22.27c-4.72,1.7-12.43-.06-14.65-5.1-2.3-5.2,3.06-11,6.08-14.56,1.4-1.67,2.87-3.26,4.36-4.83a27.66,27.66,0,0,0,16.63,10.7,68.49,68.49,0,0,1-4.8,7.75A17.3,17.3,0,0,1,117.28,253.56Zm-5.57-40.8a23.59,23.59,0,1,1,23.59,23.58A23.61,23.61,0,0,1,111.71,212.76Zm67.63-30.08a269.23,269.23,0,0,1-22.47,57.21c-4.33,8.14-11.1,17.17-20.28,16.3a7.83,7.83,0,0,1-5.41-2.58c-3-3.75-.24-9.19,2.51-13.12,14.44.57,28.2-11.78,29.06-26.21s-11.47-28.37-25.9-29.16S108.6,197,108.23,211.43c-.19,7.74,2.55,16.8-2.84,22.36a10.27,10.27,0,0,1-13.84.36c-5.23-4.86-3.19-13.89-1.75-20,1.8-7.62,5.28-15.47,10.54-21.34,5.43-6.07,12.77-9.53,20.17-12.57,15.09-6.19,30.67-12.2,47-12.68,4.87-.14,10.76.89,12.59,5.41,1,2.52.39,5.38-.29,8C179.63,181.55,179.49,182.11,179.34,182.68Z" fill="#2b3a45"/><rect width="192.25" height="293.14" fill="none"/></g></g></svg>