<svg xmlns="http://www.w3.org/2000/svg" viewBox="0 0 194.42 293.14"><g id="Layer_2" data-name="Layer 2"><g id="Layer_1-2" data-name="Layer 1"><path d="M99.8,149c-5.56-2.52-11-7.07-13.2-13a14.15,14.15,0,0,1,.11-9.2c.61-1.76,3.87-4.7,1.82-6.6a30.19,30.19,0,0,1-6.9-9.64,12.23,12.23,0,0,1-.09-9.69c1.22-2.73,5.37-5,5-8.53a3.25,3.25,0,0,0-1.8-2.48,83.51,83.51,0,0,1-19-13.41c-9.37-8.79-23.85-25.36-1.46-27.94a89.28,89.28,0,0,1,64.07,18c19.93,15.44,29.08,40.51,42.77,61.19,2.92,4.41,6,8.76,8.6,13.35,1.66,2.89,3.81,6.14,3.74,9.6-.1,5.5-7.65,6.57-11.75,6.77-14.38.71-29.37,1.19-43.67-.74A100.39,100.39,0,0,1,99.8,149Z" fill="#4e8b67"/><path d="M145.28,107.65c-9.7,15.93-28.63,20.54-45.9,17a36.43,36.43,0,0,1-16.16-7.19,27.39,27.39,0,0,1-7-8.81c1.33,2.67-1.8,11.2-2.08,14.45a18.84,18.84,0,0,0,4.1,13.59,59.4,59.4,0,0,0,20.26,16.85A106.68,106.68,0,0,0,158,163.45c7.18-.89,14.35-2.56,20.76-5.93,3.4-1.78,6.93-4.76,6.65-8.6-.14-2.07-1.41-4.24-.48-6.1q-14.51-24.85-29-49.7c-2.81-4.81-6.05-10.22-6.77-2.25C148.58,97.05,148.68,102.07,145.28,107.65Z" fill="#5f84a8"/><path d="M171.23,135.93c-7.76-4-16.66-5.09-25.37-5.13-19.41-.1-39.5,5.37-53.77,18.53,3,4.47,9,5.48,14.33,6.09l47.94,5.47c7.11.81,26.3,4.11,31.31-3.13C190.87,150.24,176.74,138.75,171.23,135.93Z" fill="#c7d998"/><path d="M185.47,176.21c-.61,6.37-4.11,13.12-6.44,19a177.33,177.33,0,0,1-11.24,23.52c-4.33,7.56-8.6,15.29-14.26,22-.45.53-.91,1.06-1.38,1.58-4,4.37-12.27,10.51-18.27,6-3.38-2.58-.13-6.81,1.81-9.91,10-15.89,22-30.5,33.35-45.41,4.71-6.18,9.34-12.37,14.26-18.38.69-.84,1.33-1.12,1.83-1S185.59,175,185.47,176.21Z" fill="#c7d998"/><path d="M115.31,247.19c-5.42.3-11.89-2.65-13.46-7.2-1.47-4.23,1.47-9.41,10.42-18.12-4.78,1.36-11,2.75-15.87,1-4.22-1.51-4.86-6.41-5.53-10.19a30.57,30.57,0,0,1,2.38-16.88c8.41-18,33-20.94,49.85-26.12,12.41-3.83,25.6-6.95,36.64-9.52a5.78,5.78,0,0,1,3.81.74,3.35,3.35,0,0,1,1.92,3.14,2.78,2.78,0,0,1-.11.5,6.1,6.1,0,0,1-.76,1.48,120.69,120.69,0,0,1-10.21,13.25c-9.5,11.35-19.19,22.67-28.3,34.34C127.42,237.55,124.23,246.69,115.31,247.19Z" fill="#5f84a8"/><path d="M139.87,222.21a6.26,6.26,0,0,1-6-3.64,7.15,7.15,0,0,1-.29-4.16,32.75,32.75,0,0,1,1-4.16l-1.15.6c-2.4,1.27-5.4,2.84-8.93,2.07a3.56,3.56,0,0,1-2.74-2.78c-.41-2,.29-4.48,1.11-7.32.17-.58.38-1.32.57-2-2.27,1.15-6.86,3.19-10.31-1.13-2.68-3.38-1.18-8.32,4.1-13.56.28-.27,1.12-1.21,1.93-2.12l.32-.36a16.54,16.54,0,0,0-3.16.69,5.14,5.14,0,0,1-5.14-.75,4.53,4.53,0,0,1-1.62-3.15,6.53,6.53,0,0,1,1.7-4.54c6.54-7.51,16.67-11,25.61-14.17,3-1,5.77-2,8.38-3.1l2.74,6.59c-2.8,1.17-5.83,2.22-8.77,3.25-6.25,2.18-12.66,4.42-17.72,7.88.86,0,1.69,0,2.52,0,1.31,0,2.66,0,4.09-.12h0a3.57,3.57,0,0,1,1.79,6.79c-1.07.9-4.09,4.29-5.42,5.78-1.15,1.29-1.82,2-2.23,2.44a17,17,0,0,0-2.86,3.66l1.14-.57c2-1,4.91-2.53,7.9-.93,4,2.12,2.58,7,1.32,11.4l.34-.18c2.18-1.15,4.89-2.57,8.07-2.28a5.21,5.21,0,0,1,2.92,1.13c1.09.88,2.68,3,1.09,6.82a27.61,27.61,0,0,0-1.44,4.69,20.56,20.56,0,0,0,5.38-3.18l9-6.58,4.21,5.76-9,6.58a25.25,25.25,0,0,1-7.78,4.34A9.4,9.4,0,0,1,139.87,222.21Zm-11.23-39Zm0,0Z" fill="#c7d998"/><path d="M32.94,38.13c-2.55-2.68-3.88-7.23-1.43-10,1.86-2.09,5-2.28,7.83-2.2,14.07.37,27.59,4.06,40.88,8.43C87,36.56,93.42,40,99.81,43.13A14.33,14.33,0,0,1,102,44.37a1.14,1.14,0,0,1,.54.72.85.85,0,0,1-.66.83,2.49,2.49,0,0,1-1.15-.06,179.59,179.59,0,0,0-19.57-3.52,103.53,103.53,0,0,0-21.84.13C50.36,43.46,40.07,45.65,32.94,38.13Z" fill="#c7d998"/><path d="M93.41,240.79a3.65,3.65,0,1,1,3.64,3.39A3.52,3.52,0,0,1,93.41,240.79Z" fill="#c7d998"/><path d="M104.15,264.37a6.06,6.06,0,1,1,5.85-6.06A6,6,0,0,1,104.15,264.37Z" fill="#5f84a8"/><path d="M118.44,272.59a4.23,4.23,0,1,1,4.62-4.21A4.43,4.43,0,0,1,118.44,272.59Z" fill="#4e8b67"/><ellipse cx="139.08" cy="260.83" rx="9.04" ry="8.63" fill="#c7d998"/><path d="M156,91.22c-6.13-10.77-13.4-24-28.21-37.06-7.59-6.69-13.94-10.5-21.55-15-36.52-21.66-63-22.36-70.43-22.33C27.53,16.86,18.53,17,16,22c-2.87,5.75,3.63,16.18,16.17,26.84A87.52,87.52,0,0,0,41.72,63.3C50.3,73.84,59.31,79.81,57.59,84.66c-.91,2.56-4.08,2.71-4,4.62.09,3.94,7.94,4.46,10.29,6,6.08,4.1,2.85,17,3.5,23.24a82.11,82.11,0,0,0,4.91,20.86c1.74,4.53,3.14,8.2,5.93,11.84a23,23,0,0,0,6,5.55c6.2,3.95,11.59,3.26,18.35,4.26a48.91,48.91,0,0,1,19.21,7.47,53.85,53.85,0,0,0-17.32,7.32c-4.9,3.19-12.7,8.27-17.06,18.49,0,0-4.93,11.57-1.73,24.25a41.6,41.6,0,0,0,1.73,5.19,37,37,0,0,0,2.89,5.49,16.77,16.77,0,0,0-2.89,13.85c1.09,4.2,4,7.17,7.32,9.77-3.45,3.18-3.74,9.43-1.75,13.44a9.85,9.85,0,0,0,3.75,4.18c3.5,2.05,7.9,1.24,11.85.33,2.12,4.39,5.19,8,10.27,8.87,4.71.83,8.53-.76,12.21-3.47a.82.82,0,0,1,.44-.21.9.9,0,0,1,.45.1c4.38,1.82,9.17,3,13.76,1.14,4.22-1.68,6.94-6.18,8.57-10.22,2-4.95,3.07-10.32,5.33-15.16.74-1.6,1.76-3.11,2.59-4.67,3.51-6.55,6.54-13.36,9.47-20.18q2.23-5.22,4.36-10.47c6.95-17.06,10.42-25.58,13.28-36.38a204.6,204.6,0,0,0,5.2-26.55C176.75,126.67,164.42,105.92,156,91.22ZM34.6,38.15c-2.42-2.55-3.69-6.88-1.35-9.52,1.77-2,4.78-2.17,7.45-2.1,13.4.35,26.27,3.87,38.93,8,6.41,2.1,12.57,5.37,18.66,8.35a13.85,13.85,0,0,1,2.09,1.18,1.17,1.17,0,0,1,.51.69.82.82,0,0,1-.63.79,2.28,2.28,0,0,1-1.1-.06,169.57,169.57,0,0,0-18.63-3.35,98.38,98.38,0,0,0-20.8.12C51.19,43.23,41.39,45.31,34.6,38.15Zm65.63,110.1c-5.45-2.47-10.84-6.93-12.94-12.75a13.87,13.87,0,0,1,.1-9c.61-1.73,3.8-4.61,1.79-6.48a29.78,29.78,0,0,1-6.77-9.44,12,12,0,0,1-.08-9.5c1.2-2.68,5.27-4.92,4.91-8.37a3.11,3.11,0,0,0-1.76-2.42A82.44,82.44,0,0,1,66.86,77.12c-9.19-8.63-23.39-24.87-1.43-27.4a87.53,87.53,0,0,1,62.8,17.69c19.55,15.13,28.52,39.72,41.94,60,2.86,4.33,5.85,8.59,8.44,13.09,1.62,2.83,3.72,6,3.66,9.41-.1,5.39-7.5,6.45-11.52,6.64-14.1.69-28.8,1.16-42.82-.73A98.54,98.54,0,0,1,100.23,148.25Zm-6.68,92.67a3.58,3.58,0,1,1,3.57,3.32A3.45,3.45,0,0,1,93.55,240.92Zm10.67,23.46a5.94,5.94,0,1,1,5.74-5.94A5.84,5.84,0,0,1,104.22,264.38Zm14.29,8.25A4.14,4.14,0,1,1,123,268.5,4.35,4.35,0,0,1,118.51,272.63Zm-2.69-26.17c-5.3.29-11.65-2.59-13.19-7.06-1.44-4.15,1.44-9.22,10.22-17.76-4.69,1.34-10.77,2.69-15.56,1-4.13-1.48-4.77-6.29-5.43-10a30,30,0,0,1,2.34-16.54c8.25-17.64,32.39-20.53,48.87-25.61,12.17-3.75,25.1-6.82,35.92-9.33a5.64,5.64,0,0,1,3.74.73,3.26,3.26,0,0,1,1.88,3.07,2,2,0,0,1-.11.49,6.27,6.27,0,0,1-.74,1.46,119.28,119.28,0,0,1-10,13C164.44,191,154.93,202.08,146,213.53,127.7,237,124.58,246,115.82,246.46Zm23.33,23A8.46,8.46,0,1,1,148,261,8.67,8.67,0,0,1,139.15,269.41ZM185,177c-.59,6.25-4,12.86-6.31,18.68a172.2,172.2,0,0,1-11,23c-4.24,7.42-8.43,15-14,21.54-.44.52-.89,1-1.35,1.54-3.9,4.29-12,10.31-17.91,5.84-3.32-2.53-.13-6.68,1.77-9.72,9.76-15.57,21.56-29.9,32.7-44.51,4.61-6.06,9.15-12.14,14-18,.68-.82,1.31-1.1,1.8-1S185.14,175.82,185,177Z" fill="#2b3a45"/><path d="M156,91.22c-6.13-10.77-13.4-24-28.21-37.06-7.59-6.69-13.94-10.5-21.55-15-36.52-21.66-63-22.36-70.43-22.33C27.53,16.86,18.53,17,16,22c-2.87,5.75,3.63,16.18,16.17,26.84A87.52,87.52,0,0,0,41.72,63.3C50.3,73.84,59.31,79.81,57.59,84.66c-.91,2.56-4.08,2.71-4,4.62.18,8.67,18.25,4.56,11.11,17.07-1.49,2.6-4.39,4.77-4.16,7.76s3.57,4.76,5.64,7.06c1.88,2.1,2.75,4.89,3.56,7.59,1.16,3.84,2,7.76,3,11.58a30,30,0,0,0,2.24,5.6c.58,1.18,3.23,4.2,3.23,5.32a29.29,29.29,0,0,0,13.29,9.56c-3.28,3.72-.88,7.23,3.63,7.82,8.58,1.13,17.36-2,25.86-.4-2.2-.42-9.37,2.8-11.46,4-2.68,1.53-5.29,3.66-7.84,5.44-6.17,4.3-11.35,9.67-14.34,16.68a39.69,39.69,0,0,0-3.18,12.49,32,32,0,0,0,.15,6.41c.25,1.89,1.37,4.16.62,6-.62,1.56-1.5,2.88-1.4,4.65a4.6,4.6,0,0,0,1.89,3.53c.29.2,3.33,1.38,3.53,1.11a12,12,0,0,0-1.68,3.06,17.07,17.07,0,0,0,.25,12.15,20.13,20.13,0,0,0,2.85,5.1c.33.4,4,4.28,4.29,4-3.45,3.18-3.74,9.43-1.75,13.44a9.85,9.85,0,0,0,3.75,4.18c3.5,2.05,7.9,1.24,11.85.33,2.12,4.39,5.19,8,10.27,8.87,4.71.83,8.53-.76,12.21-3.47a.82.82,0,0,1,.44-.21.9.9,0,0,1,.45.1c4.38,1.82,9.17,3,13.76,1.14,4.22-1.68,6.94-6.18,8.57-10.22,2-4.95,3.07-10.32,5.33-15.16.74-1.6,1.76-3.11,2.59-4.67,3.51-6.55,6.54-13.36,9.47-20.18q2.23-5.22,4.36-10.47c6.95-17.06,10.42-25.58,13.28-36.38a204.6,204.6,0,0,0,5.2-26.55C176.75,126.67,164.42,105.92,156,91.22ZM34.6,38.15c-2.42-2.55-3.69-6.88-1.35-9.52,1.77-2,4.78-2.17,7.45-2.1,13.4.35,26.27,3.87,38.93,8,6.41,2.1,12.57,5.37,18.66,8.35a13.85,13.85,0,0,1,2.09,1.18,1.17,1.17,0,0,1,.51.69.82.82,0,0,1-.63.79,2.28,2.28,0,0,1-1.1-.06,169.57,169.57,0,0,0-18.63-3.35,98.38,98.38,0,0,0-20.8.12C51.19,43.23,41.39,45.31,34.6,38.15Zm65.63,110.1c-5.45-2.47-10.84-6.93-12.94-12.75a13.87,13.87,0,0,1,.1-9c.61-1.73,3.8-4.61,1.79-6.48a29.78,29.78,0,0,1-6.77-9.44,12,12,0,0,1-.08-9.5c1.2-2.68,5.27-4.92,4.91-8.37a3.11,3.11,0,0,0-1.76-2.42A82.44,82.44,0,0,1,66.86,77.12c-9.19-8.63-23.39-24.87-1.43-27.4a87.53,87.53,0,0,1,62.8,17.69c19.55,15.13,28.52,39.72,41.94,60,2.86,4.33,5.85,8.59,8.44,13.09,1.62,2.83,3.72,6,3.66,9.41-.1,5.39-7.5,6.45-11.52,6.64-14.1.69-28.8,1.16-42.82-.73A98.54,98.54,0,0,1,100.23,148.25Zm-6.68,92.67a3.58,3.58,0,1,1,3.57,3.32A3.45,3.45,0,0,1,93.55,240.92Zm10.67,23.46a5.94,5.94,0,1,1,5.74-5.94A5.84,5.84,0,0,1,104.22,264.38Zm14.29,8.25A4.14,4.14,0,1,1,123,268.5,4.35,4.35,0,0,1,118.51,272.63Zm-2.69-26.17c-5.3.29-11.65-2.59-13.19-7.06-1.44-4.15,1.44-9.22,10.22-17.76-4.69,1.34-10.77,2.69-15.56,1-4.13-1.48-4.77-6.29-5.43-10a30,30,0,0,1,2.34-16.54c8.25-17.64,32.39-20.53,48.87-25.61,12.17-3.75,25.1-6.82,35.92-9.33a5.64,5.64,0,0,1,3.74.73,3.26,3.26,0,0,1,1.88,3.07,2,2,0,0,1-.11.49,6.27,6.27,0,0,1-.74,1.46,119.28,119.28,0,0,1-10,13C164.44,191,154.93,202.08,146,213.53,127.7,237,124.58,246,115.82,246.46Zm23.33,23A8.46,8.46,0,1,1,148,261,8.67,8.67,0,0,1,139.15,269.41ZM185,177c-.59,6.25-4,12.86-6.31,18.68a172.2,172.2,0,0,1-11,23c-4.24,7.42-8.43,15-14,21.54-.44.52-.89,1-1.35,1.54-3.9,4.29-12,10.31-17.91,5.84-3.32-2.53-.13-6.68,1.77-9.72,9.76-15.57,21.56-29.9,32.7-44.51,4.61-6.06,9.15-12.14,14-18,.68-.82,1.31-1.1,1.8-1S185.14,175.82,185,177Z" fill="#2b3a45"/><rect width="192.25" height="293.14" fill="none"/></g></g></svg>