<svg xmlns="http://www.w3.org/2000/svg" viewBox="0 0 192.25 293.14"><g id="Layer_2" data-name="Layer 2"><g id="Layer_1-2" data-name="Layer 1"><path d="M102.05,266.09a5.94,5.94,0,1,1,5.74-5.94A5.84,5.84,0,0,1,102.05,266.09Z" fill="#e98d5f"/><path d="M116.35,274.35a4.15,4.15,0,1,1,4.53-4.13A4.34,4.34,0,0,1,116.35,274.35Z" fill="#e98d5f"/><ellipse cx="136.98" cy="262.67" rx="8.86" ry="8.46" fill="#f0c265"/><path d="M98.06,150c-5.45-2.47-10.84-6.93-12.94-12.75a13.87,13.87,0,0,1,.1-9c.61-1.73,3.8-4.61,1.79-6.48a29.78,29.78,0,0,1-6.77-9.44,12,12,0,0,1-.08-9.51c1.2-2.67,5.27-4.91,4.92-8.36A3.15,3.15,0,0,0,83.32,92,82.28,82.28,0,0,1,64.69,78.84C55.5,70.21,41.3,54,63.26,51.44a87.56,87.56,0,0,1,62.81,17.69c19.54,15.13,28.51,39.72,41.93,60,2.86,4.33,5.85,8.58,8.44,13.09,1.62,2.83,3.73,6,3.66,9.41-.1,5.39-7.5,6.44-11.52,6.64-14.1.69-28.8,1.16-42.81-.73A98.6,98.6,0,0,1,98.06,150Z" fill="#e98d5f"/><path d="M142.88,109.85c-9.51,15.61-28.07,20.13-45,16.71a35.61,35.61,0,0,1-15.84-7,26.64,26.64,0,0,1-6.82-8.63c1.3,2.61-1.77,11-2,14.16a18.49,18.49,0,0,0,4,13.33,58.24,58.24,0,0,0,19.87,16.51,104.54,104.54,0,0,0,58.29,9.67c7-.87,14.07-2.51,20.35-5.81,3.34-1.75,6.79-4.67,6.53-8.43-.15-2-1.39-4.16-.47-6L153.29,95.6c-2.76-4.71-5.93-10-6.63-2.2C146.11,99.46,146.21,104.37,142.88,109.85Z" fill="#a93629"/><path d="M149.56,91.76l-.4-.62c-5.23-8-8.83-15.85-19.43-10.71-6.87,3.34-10.65,11.33-10.08,18.77.78,10.21,7.55,19.8,15.13,27.92a137.47,137.47,0,0,0,29.52,23.73c4.35,2.58,10.8,6.61,16.17,5.63,9.44-1.72,3.08-10.13-.88-14.38-3.1-3.33-5.2-7.44-7.31-11.47Q161.81,110.68,149.56,91.76Z" fill="#f0c265"/><path d="M182.85,178.75c-.59,6.25-4,12.86-6.31,18.67a172.9,172.9,0,0,1-11,23.06c-4.24,7.42-8.43,15-14,21.54-.44.52-.89,1-1.35,1.54-3.89,4.29-12,10.31-17.91,5.83-3.32-2.52-.13-6.67,1.78-9.71,9.75-15.57,21.55-29.9,32.69-44.51,4.62-6.07,9.15-12.14,14-18,.67-.82,1.31-1.1,1.79-1S183,177.54,182.85,178.75Z" fill="#f0c265"/><path d="M113.66,248.18c-5.31.29-11.65-2.59-13.2-7.06-1.44-4.15,1.45-9.22,10.22-17.76-4.69,1.33-10.77,2.69-15.56,1-4.13-1.49-4.76-6.29-5.42-10A29.89,29.89,0,0,1,92,197.78c8.25-17.63,32.39-20.52,48.88-25.6,12.16-3.76,25.09-6.82,35.92-9.33a5.62,5.62,0,0,1,3.73.73,3.26,3.26,0,0,1,1.88,3.07,2.66,2.66,0,0,1-.1.49,6.51,6.51,0,0,1-.75,1.46,118,118,0,0,1-10,13c-9.31,11.13-18.82,22.22-27.75,33.67C125.53,238.73,122.41,247.69,113.66,248.18Z" fill="#e98d5f"/><path d="M144.28,164.28c-10.58,4.39-24.28,7.1-32,16-.64.73-1.22,1.93-.47,2.56a1.86,1.86,0,0,0,1.74.07c4.73-1.49,8.16-.8,12.88-1.15-.94.07-7.26,7.54-8.47,8.74-1.52,1.5-5.69,6.17-3.75,8.62,3.14,3.93,7.59-2.57,10.62-.94,2.41,1.29-2,9.93-1.47,12.72,4.26.93,8-4,12.33-3.55a1.83,1.83,0,0,1,1,.33c.73.6.39,1.77,0,2.65a29,29,0,0,0-1.75,6.06,3.69,3.69,0,0,0,.06,2.11c.63,1.5,2.74,1.64,4.3,1.18a21.93,21.93,0,0,0,6.56-3.72l8.82-6.45" fill="none" stroke="#fac151" stroke-linejoin="round" stroke-width="7"/><path d="M153.87,92.94c-6.13-10.77-13.39-24-28.21-37.07-7.59-6.68-13.94-10.49-21.55-15-36.52-21.66-63-22.35-70.43-22.32-8.32,0-17.31.18-19.82,5.2C11,29.49,17.48,39.91,30,50.58A87.52,87.52,0,0,0,39.55,65c8.58,10.54,17.59,16.51,15.87,21.36-.91,2.56-4.08,2.71-4,4.62.09,3.94,7.94,4.46,10.29,6,6.09,4.1,2.85,17,3.5,23.24a82.11,82.11,0,0,0,4.91,20.86c1.74,4.53,3.15,8.2,5.93,11.84a23.13,23.13,0,0,0,6,5.55c6.2,3.95,11.59,3.25,18.35,4.26a48.91,48.91,0,0,1,19.21,7.47,53.71,53.71,0,0,0-17.32,7.32c-4.9,3.19-12.7,8.26-17,18.49,0,0-4.94,11.57-1.74,24.24a40.53,40.53,0,0,0,1.74,5.2A36.16,36.16,0,0,0,88,231a16.73,16.73,0,0,0-2.88,13.85c1.08,4.2,4,7.17,7.31,9.77-3.44,3.18-3.74,9.43-1.75,13.44a9.85,9.85,0,0,0,3.75,4.18c3.5,2.05,7.9,1.24,11.86.33,2.11,4.39,5.18,8,10.26,8.87,4.71.82,8.53-.76,12.22-3.47a.83.83,0,0,1,.43-.21.9.9,0,0,1,.45.1c4.39,1.82,9.17,3,13.76,1.14,4.22-1.68,6.94-6.18,8.58-10.22,2-4.95,3.06-10.33,5.32-15.16.75-1.6,1.76-3.11,2.6-4.67,3.5-6.56,6.53-13.36,9.46-20.19q2.24-5.2,4.36-10.47c6.95-17,10.42-25.57,13.28-36.37a204.6,204.6,0,0,0,5.2-26.55C174.59,128.39,162.25,107.64,153.87,92.94ZM32.43,39.87C30,37.32,28.74,33,31.08,30.35c1.77-2,4.78-2.17,7.45-2.1,13.4.35,26.28,3.87,38.94,8,6.4,2.1,12.56,5.37,18.65,8.35a13.85,13.85,0,0,1,2.09,1.18,1.15,1.15,0,0,1,.51.68.82.82,0,0,1-.63.8A2.24,2.24,0,0,1,97,47.23a169.75,169.75,0,0,0-18.64-3.35,98.38,98.38,0,0,0-20.8.12C49,45,39.22,47,32.43,39.87ZM98.06,150c-5.45-2.47-10.84-6.93-12.94-12.75a13.87,13.87,0,0,1,.1-9c.61-1.73,3.8-4.61,1.79-6.48a29.78,29.78,0,0,1-6.77-9.44,12,12,0,0,1-.08-9.51c1.2-2.67,5.27-4.91,4.92-8.36A3.15,3.15,0,0,0,83.32,92,82.28,82.28,0,0,1,64.69,78.84C55.5,70.21,41.3,54,63.26,51.44a87.56,87.56,0,0,1,62.81,17.69c19.54,15.13,28.51,39.72,41.93,60,2.86,4.33,5.85,8.58,8.44,13.09,1.62,2.83,3.73,6,3.66,9.41-.1,5.39-7.5,6.44-11.52,6.64-14.1.69-28.8,1.16-42.81-.73A98.6,98.6,0,0,1,98.06,150Zm-6.67,92.67A3.58,3.58,0,1,1,95,246,3.45,3.45,0,0,1,91.39,242.64Zm10.66,23.45a5.94,5.94,0,1,1,5.74-5.94A5.84,5.84,0,0,1,102.05,266.09Zm14.3,8.26a4.15,4.15,0,1,1,4.53-4.13A4.34,4.34,0,0,1,116.35,274.35Zm-2.69-26.17c-5.31.29-11.65-2.59-13.2-7.06-1.44-4.15,1.45-9.22,10.22-17.76-4.69,1.33-10.77,2.69-15.56,1-4.13-1.49-4.76-6.29-5.42-10A29.89,29.89,0,0,1,92,197.78c8.25-17.63,32.39-20.52,48.88-25.6,12.16-3.76,25.09-6.82,35.92-9.33a5.62,5.62,0,0,1,3.73.73,3.26,3.26,0,0,1,1.88,3.07,2.66,2.66,0,0,1-.1.49,6.51,6.51,0,0,1-.75,1.46,118,118,0,0,1-10,13c-9.31,11.13-18.82,22.22-27.75,33.67C125.53,238.73,122.41,247.69,113.66,248.18ZM137,271.13a8.47,8.47,0,1,1,8.86-8.46A8.67,8.67,0,0,1,137,271.13Zm45.87-92.38c-.59,6.25-4,12.86-6.31,18.67a172.9,172.9,0,0,1-11,23.06c-4.24,7.42-8.43,15-14,21.54-.44.52-.89,1-1.35,1.54-3.89,4.29-12,10.31-17.91,5.83-3.32-2.52-.13-6.67,1.78-9.71,9.75-15.57,21.55-29.9,32.69-44.51,4.62-6.07,9.15-12.14,14-18,.67-.82,1.31-1.1,1.79-1S183,177.54,182.85,178.75Z" fill="#2b3a45"/><path d="M153.87,92.94c-6.13-10.77-13.39-24-28.21-37.07-7.59-6.68-13.94-10.49-21.55-15-36.52-21.66-63-22.35-70.43-22.32-8.32,0-17.31.18-19.82,5.2C11,29.49,17.48,39.91,30,50.58A87.52,87.52,0,0,0,39.55,65c8.58,10.54,17.59,16.51,15.87,21.36-.91,2.56-4.08,2.71-4,4.62.09,3.94,7.94,4.46,10.29,6,6.09,4.1,2.85,17,3.5,23.24a82.11,82.11,0,0,0,4.91,20.86c1.74,4.53,3.15,8.2,5.93,11.84a23.13,23.13,0,0,0,6,5.55c6.2,3.95,11.59,3.25,18.35,4.26a48.91,48.91,0,0,1,19.21,7.47,53.71,53.71,0,0,0-17.32,7.32c-4.9,3.19-12.7,8.26-17,18.49,0,0-4.94,11.57-1.74,24.24a40.53,40.53,0,0,0,1.74,5.2A36.16,36.16,0,0,0,88,231a16.73,16.73,0,0,0-2.88,13.85c1.08,4.2,4,7.17,7.31,9.77-3.44,3.18-3.74,9.43-1.75,13.44a9.85,9.85,0,0,0,3.75,4.18c3.5,2.05,7.9,1.24,11.86.33,2.11,4.39,5.18,8,10.26,8.87,4.71.82,8.53-.76,12.22-3.47a.83.83,0,0,1,.43-.21.9.9,0,0,1,.45.1c4.39,1.82,9.17,3,13.76,1.14,4.22-1.68,6.94-6.18,8.58-10.22,2-4.95,3.06-10.33,5.32-15.16.75-1.6,1.76-3.11,2.6-4.67,3.5-6.56,6.53-13.36,9.46-20.19q2.24-5.2,4.36-10.47c6.95-17,10.42-25.57,13.28-36.37a204.6,204.6,0,0,0,5.2-26.55C174.59,128.39,162.25,107.64,153.87,92.94ZM32.43,39.87C30,37.32,28.74,33,31.08,30.35c1.77-2,4.78-2.17,7.45-2.1,13.4.35,26.28,3.87,38.94,8,6.4,2.1,12.56,5.37,18.65,8.35a13.85,13.85,0,0,1,2.09,1.18,1.15,1.15,0,0,1,.51.68.82.82,0,0,1-.63.8A2.24,2.24,0,0,1,97,47.23a169.75,169.75,0,0,0-18.64-3.35,98.38,98.38,0,0,0-20.8.12C49,45,39.22,47,32.43,39.87ZM98.06,150c-5.45-2.47-10.84-6.93-12.94-12.75a13.87,13.87,0,0,1,.1-9c.61-1.73,3.8-4.61,1.79-6.48a29.78,29.78,0,0,1-6.77-9.44,12,12,0,0,1-.08-9.51c1.2-2.67,5.27-4.91,4.92-8.36A3.15,3.15,0,0,0,83.32,92,82.28,82.28,0,0,1,64.69,78.84C55.5,70.21,41.3,54,63.26,51.44a87.56,87.56,0,0,1,62.81,17.69c19.54,15.13,28.51,39.72,41.93,60,2.86,4.33,5.85,8.58,8.44,13.09,1.62,2.83,3.73,6,3.66,9.41-.1,5.39-7.5,6.44-11.52,6.64-14.1.69-28.8,1.16-42.81-.73A98.6,98.6,0,0,1,98.06,150Zm-6.67,92.67A3.58,3.58,0,1,1,95,246,3.45,3.45,0,0,1,91.39,242.64Zm10.66,23.45a5.94,5.94,0,1,1,5.74-5.94A5.84,5.84,0,0,1,102.05,266.09Zm14.3,8.26a4.15,4.15,0,1,1,4.53-4.13A4.34,4.34,0,0,1,116.35,274.35Zm-2.69-26.17c-5.31.29-11.65-2.59-13.2-7.06-1.44-4.15,1.45-9.22,10.22-17.76-4.69,1.33-10.77,2.69-15.56,1-4.13-1.49-4.76-6.29-5.42-10A29.89,29.89,0,0,1,92,197.78c8.25-17.63,32.39-20.52,48.88-25.6,12.16-3.76,25.09-6.82,35.92-9.33a5.62,5.62,0,0,1,3.73.73,3.26,3.26,0,0,1,1.88,3.07,2.66,2.66,0,0,1-.1.49,6.51,6.51,0,0,1-.75,1.46,118,118,0,0,1-10,13c-9.31,11.13-18.82,22.22-27.75,33.67C125.53,238.73,122.41,247.69,113.66,248.18ZM137,271.13a8.47,8.47,0,1,1,8.86-8.46A8.67,8.67,0,0,1,137,271.13Zm45.87-92.38c-.59,6.25-4,12.86-6.31,18.67a172.9,172.9,0,0,1-11,23.06c-4.24,7.42-8.43,15-14,21.54-.44.52-.89,1-1.35,1.54-3.89,4.29-12,10.31-17.91,5.83-3.32-2.52-.13-6.67,1.78-9.71,9.75-15.57,21.55-29.9,32.69-44.51,4.62-6.07,9.15-12.14,14-18,.67-.82,1.31-1.1,1.79-1S183,177.54,182.85,178.75Z"/><path d="M32.43,39.87C30,37.32,28.74,33,31.08,30.35c1.77-2,4.78-2.17,7.45-2.1,13.4.35,26.28,3.87,38.94,8,6.4,2.1,12.56,5.37,18.65,8.35a13.85,13.85,0,0,1,2.09,1.18,1.15,1.15,0,0,1,.51.68.82.82,0,0,1-.63.8A2.24,2.24,0,0,1,97,47.23a169.75,169.75,0,0,0-18.64-3.35,98.38,98.38,0,0,0-20.8.12C49,45,39.22,47,32.43,39.87Z" fill="#a93629"/><path d="M91.39,242.64A3.58,3.58,0,1,1,95,246,3.45,3.45,0,0,1,91.39,242.64Z" fill="#f0c265"/><rect width="192.25" height="293.14" fill="none"/></g></g></svg>