<svg xmlns="http://www.w3.org/2000/svg" viewBox="0 0 193.07 293.14"><g id="Layer_2" data-name="Layer 2"><g id="Layer_1-2" data-name="Layer 1"><path d="M180.33,183c-.67,11-1.41,22-4,32.73S159,249.35,146.51,234.86c-.86-1-1.74-2.26-3.06-2.32a4,4,0,0,0-1.74.48c-8.16,3.63-17.88.17-23.35-6.65a18.37,18.37,0,0,1-2.6-4.23,26.29,26.29,0,0,1-1.37-4.42c-.26-1.16-.08-2-1.54-2-7.52.12-12.64-1.69-14.17-9.73-1.18-6.22,1.15-12.77,5.09-17.39,8-9.44,22-14.06,33.25-18.38l2.95-1.11c12.68-4.66,25.74-8.28,38.24-13.44a1.79,1.79,0,0,1,1.23-.19c.65.21.82,1,.88,1.73A170.39,170.39,0,0,1,180.33,183Z" fill="#c7d998"/><path d="M122.26,161.57c-6.91,6.73-13.34,16.56-7.68,26.15s17.48,9.44,26.37,5l-9.53-9.54c-4,9.16-2.7,20.19,5.47,26.72s18.87,5.28,26.57-1L151.8,202.1c-3.06,9.25,1,20.21,9.9,24.55,9.48,4.65,18.63.61,21.48-9.32a10.15,10.15,0,0,0,.23-6.09c-.14-.45-2.28-5.24-2.46-5.09a53.78,53.78,0,0,0-6.62,5.93c-1.3,1.46-2.66,2.68-4.77,2.37-3.9-.57-5.41-5.33-4.31-8.64,2.4-7.23-6.74-10.8-11.65-6.78-5.71,4.65-12.79-2.76-10.14-8.82,2.76-6.32-3-12.84-9.54-9.54-2,1-6.57,2.58-7.52-.54-.89-2.95,4-7,5.72-8.7C138.57,165.16,128.7,155.3,122.26,161.57Z" fill="#4e8b67"/><polygon points="84.11 42.84 35.27 38.52 28.46 58.92 37.63 88.2 41.45 118.89 126.77 170.21 167.3 150.73 80.4 74.99 84.11 42.84" fill="#fff"/><path d="M62.85,93.92a8.38,8.38,0,0,1,3.23,2.63,14.48,14.48,0,0,1,1.88,5c3.49,14,10.27,27.76,20.81,38C101,151.53,118.42,160,140.06,163.1c-6.84,5.22-17.72,6.14-26.26,7.22s-17.22,1.23-25.64,3.05c-4.38.95-8.87,2.35-13.24,1.38A25.1,25.1,0,0,1,68.48,172q-7.35-4-14.64-8.1c-2.43-1.36-4.92-2.78-6.64-5-2.87-3.65-3-8.7-2.58-13.32,1-9.63,1.85-19,1.25-28.71a3.43,3.43,0,0,0-.45-1.79,3.8,3.8,0,0,0-1.24-1c-3-1.83-6.64-4.45-7.44-8-.87-3.77.06-8.51.32-12.32a47.64,47.64,0,0,1,.57-5.6c.52-2.8,1.48-2.85,4.1-1.57C44.57,88,46.93,90.06,50,91s6.29,1.11,9.42,1.78A14.68,14.68,0,0,1,62.85,93.92Z" fill="#e98d5f"/><path d="M117.14,56.76,109.66,53c-11.87-6-24.18-12-37.26-14.89a63.21,63.21,0,0,0-19.68-1.21c-8.47.79-9.7,4.59-16.34,7.49,20.71-9,36.05,8.69,38.75,27.21,1.6,11,1.45,22.31,4.63,33,2.87,9.68,8.82,17.49,15.95,24.52a91.08,91.08,0,0,0,51.7,25.43c9.55,1.25,19.33,1.24,28-3.45a24.79,24.79,0,0,0,10.78-11.35c4.41-9.41,2.91-20.54-1.13-30.11C171.7,78.44,145,70.85,117.14,56.76Z" fill="#f0c265"/><path d="M158,86.13c-8.21-6.36-18.72-11.3-29.16-12.06-7.46-.55-17.88,2.06-15.31,11.86,1.29,4.91,5.82,9.36,12.12,11.91,4.57,1.85,9.49,2.68,14.69,3.56,1.6.28,3.19.55,4.78.85a125,125,0,0,1,23.72,7,72,72,0,0,1,14.25,7.53C178.29,104.65,166.84,93,158,86.13Z" fill="#c7d998"/><path d="M44.14,59.82a13.22,13.22,0,0,0,7.53,20.85C59.93,82.56,67.75,77,65.83,68.11c-1.3-6-6-12.82-12.79-12.86A11,11,0,0,0,44.14,59.82Z" fill="#4e8b67"/><path d="M15.7,47.92a3.65,3.65,0,1,1,3.65-3.65A3.64,3.64,0,0,1,15.7,47.92Z" fill="#4e8b67"/><path d="M106.84,236.05a4.36,4.36,0,1,1,4.36-4.36A4.36,4.36,0,0,1,106.84,236.05Z" fill="#e98d5f"/><path d="M120.6,250.05a5.5,5.5,0,1,1,5.49-5.5A5.5,5.5,0,0,1,120.6,250.05Z" fill="#f0c265"/><path d="M143.94,254a4.36,4.36,0,1,1,4.35-4.36A4.36,4.36,0,0,1,143.94,254Z" fill="#e98d5f"/><circle cx="126.32" cy="84.82" r="7.42" fill="#2b3a45"/><circle cx="144.86" cy="92.86" r="5.19" fill="#2b3a45"/><path d="M192.54,112.07c-1.64-2.74-3.11-5.5-4.46-8.29a5.5,5.5,0,0,1-.49-.47,8.57,8.57,0,0,1-.66-.69,6.73,6.73,0,0,1-1.08-1.12.08.08,0,0,0,0,0c-8.69-10.61-19-23.67-35-34.79-11.29-7.88-34.7-23.88-66.68-30.69C41.4,27,.4,37.94,0,46.81c-.1,2.28,3.51,2.48,5,3,5.68,2.08.1,5.89,4.88,8.7a18.75,18.75,0,0,0,4.31,1.53,31.07,31.07,0,0,1,3.47,1.59c7,3,7.84,8.94,9.61,15.59a27.41,27.41,0,0,0,1.79,5.26c.8,1.6,2,2.63,3.05,4,1.21,1.7.69,1.75.09,3.81a33.62,33.62,0,0,0-.93,12.47,20.54,20.54,0,0,0,3.17,9.2c1.66,2.46,4.27,4.29,6.18,6.64a7.38,7.38,0,0,1,1.72,3.13,8.15,8.15,0,0,1-.29,3.36c-1.28,5.71-2.12,10.81-.76,16.47,1.48,6.17,2.38,12.1,5.09,17.94,3.45,7.45,8.92,14.74,16.53,18.27a42.31,42.31,0,0,0,21.2,3.31c3.77-.31,15.24-1.17,18-4.13a66.49,66.49,0,0,0-8.37,10.57c-5,8.39-6,23.32.34,31.4a17.53,17.53,0,0,0,4.22,3.83c-3.16,8.5-1.72,16.79,3.24,20.55a11.5,11.5,0,0,0,6.3,2.24,14.6,14.6,0,0,0,9.91,13.21,13.66,13.66,0,0,0,7.91,0,15.66,15.66,0,0,0,2.95-1.18c.74-.38,1.64-1.22,2.5-1.16,1,.06,2.25,1.46,3.14,1.95a16.55,16.55,0,0,0,10.69,1.85,15.72,15.72,0,0,0,9.4-5.73c2.7-3.13,3.87-6.13,8.68-5.63,2.45.25,5,1,7.33.21,6.42-2.21,5.4-11.27,8.15-16.2,2.09-3.75,4.65-6.93,5.81-11.13,1.09-4,1.36-8.14,2.26-12.17,1.42-6.31,1.22-12.9,1.46-19.36.09-2.45.19-5.13.31-8,1.19,6.44,2.85,10.45,4.7,10.45h.07s0-52.21,0-79.78ZM15.76,47.83a3.65,3.65,0,1,1,3.65-3.65A3.65,3.65,0,0,1,15.76,47.83ZM129,74c10.44.76,21,5.7,29.15,12.06,8.8,6.82,20.25,18.52,25.09,30.66A72.21,72.21,0,0,0,169,109.17a125,125,0,0,0-23.72-7c-1.59-.3-3.19-.57-4.79-.85-5.2-.88-10.11-1.71-14.69-3.56-6.3-2.55-10.83-7-12.12-11.91C111.06,76,121.49,73.43,129,74Zm-22,162a4.36,4.36,0,1,1,4.35-4.36A4.36,4.36,0,0,1,106.91,236Zm13.75,14a5.5,5.5,0,1,1,5.5-5.5A5.49,5.49,0,0,1,120.66,250ZM144,253.89a4.36,4.36,0,1,1,4.36-4.36A4.36,4.36,0,0,1,144,253.89Zm36.4-71c-.67,11-1.41,22-4,32.73s-17.32,33.64-29.84,19.15c-.87-1-1.75-2.26-3.07-2.31a3.87,3.87,0,0,0-1.74.47c-8.16,3.63-17.87.17-23.35-6.65a18.37,18.37,0,0,1-2.6-4.23,25.37,25.37,0,0,1-1.36-4.42c-.27-1.16-.09-2-1.55-2-7.52.12-12.64-1.69-14.16-9.73-1.18-6.22,1.15-12.77,5.09-17.39,8-9.44,22-14.06,33.24-18.38L140,169c12.69-4.66,25.74-8.28,38.25-13.44a1.76,1.76,0,0,1,1.22-.19c.65.21.82,1,.89,1.73A171.71,171.71,0,0,1,180.4,182.89Zm-3.06-38.48a44.37,44.37,0,0,1-10,6.23c-3.58,1.68-7.32,3.06-11,4.41-23.31,8.48-69,26.2-92.52,10.1-10.71-7.35-16.41-24.21-15-36.72a27.62,27.62,0,0,1,1.89-6.83c.3-.74,2.56-6.81,3.23-6.78-10.28-.42-16.75-10-14.5-19.89a18.85,18.85,0,0,1,3.68-7.41.47.47,0,0,0-.07-.64c-.9-.76-3-3.08-3.2-3.29a20.67,20.67,0,0,1-3.69-5.17A31.86,31.86,0,0,1,34.12,72,25,25,0,0,1,37,53.5a19.39,19.39,0,0,1,8.39-7.78c5.64-2.51,13.4-1.75,19.46-1.55,13.19.43,26.89,5.63,37.54,13.46a34,34,0,0,1,10.68,12.42,15.11,15.11,0,0,0-3.46,3.77,17.41,17.41,0,0,0-2.29,13.67c1.83,7,7.66,12.93,16,16.29,5.23,2.11,10.73,3,16,4,1.56.26,3.12.53,4.66.82a118.2,118.2,0,0,1,22.48,6.65c8.66,3.53,14.76,7.41,19,12.1C185.62,133.43,183.3,139.33,177.34,144.41Z" fill="#2b3a45"/><rect x="0.41" width="192.25" height="293.14" fill="none"/></g></g></svg>