<?xml version="1.0" encoding="utf-8"?>
<!-- Generator: Adobe Illustrator 25.4.1, SVG Export Plug-In . SVG Version: 6.00 Build 0)  -->
<svg version="1.1" id="Layer_1" xmlns="http://www.w3.org/2000/svg" xmlns:xlink="http://www.w3.org/1999/xlink" x="0px" y="0px"
	 viewBox="0 0 90.3 255" style="enable-background:new 0 0 90.3 255;" xml:space="preserve">
<style type="text/css">
	.st0{fill:#2B3A45;}
	.st1{fill:none;stroke:#2B3A45;stroke-miterlimit:10;}
</style>
<path class="st0" d="M49.5,94.9c-1.1-0.6-2.4-1-3.6-1.2l0-0.1c-0.3,0-0.5,0-0.7,0.1c-0.2,0-0.5-0.1-0.7-0.1l0,0.1
	c-1.3,0.2-2.5,0.6-3.6,1.2l-1.5,0.9c-4.3,3-6.9,8.2-5.7,11.5c1,2.8,4.6,4,7.7,4.6c-5.1,5.9-8.7,20.8-8.7,38.3
	c0,10.2,1.2,19.5,3.3,26.7c-0.5,6.5-0.8,13.5-0.8,20.9c0,28.7,4,52.4,9.3,56.6l0,0.7c0.3,0,0.5-0.1,0.7-0.2c0.2,0.1,0.5,0.2,0.7,0.2
	l0-0.7c5.3-4.2,9.3-27.9,9.3-56.6c0-7.4-0.3-14.4-0.8-20.9c2-7.2,3.3-16.5,3.3-26.7c0-17.5-3.6-32.4-8.7-38.3
	c3.1-0.6,6.7-1.8,7.7-4.6c1.2-3.3-1.4-8.5-5.7-11.5L49.5,94.9z"/>
<path class="st1" d="M39.3,95.8c-8.4-7.1-8.1-15.4-7.9-21.7c1.1-28.8,0.2-47.1-9.2-58"/>
<path class="st1" d="M50,95.8c8.4-7.1,8.1-15.4,7.9-21.7c-1.1-28.8-0.2-47.1,9.2-58"/>
<ellipse transform="matrix(0.7934 -0.6087 0.6087 0.7934 -3.5991 14.3953)" class="st0" cx="19.4" cy="12.5" rx="2.2" ry="4.9"/>
<ellipse transform="matrix(0.652 -0.7582 0.7582 0.652 13.9746 57.4476)" class="st0" cx="69.6" cy="13.5" rx="4.9" ry="2.2"/>
</svg>
