<?xml version="1.0" encoding="utf-8"?>
<!-- Generator: Adobe Illustrator 25.4.1, SVG Export Plug-In . SVG Version: 6.00 Build 0)  -->
<svg version="1.1" id="Layer_1" xmlns="http://www.w3.org/2000/svg" xmlns:xlink="http://www.w3.org/1999/xlink" x="0px" y="0px"
	 viewBox="0 0 75.3 257.1" style="enable-background:new 0 0 75.3 257.1;" xml:space="preserve">
<style type="text/css">
	.st0{fill:#2B3A45;}
</style>
<g id="Layer_2_00000183938410517629188790000009836629570081860023_">
	<g id="Layer_1-2">
		<path class="st0" d="M71.8,0c-1.9,0-3.5,1.6-3.5,3.5c0,0.1,0,0.3,0,0.4C63,5.9,57.4,13.6,56,21c-1.5,7.7-3.6,14.9-5.4,21.2
			c-2,6.5-3.6,12.1-3.9,16.3c-2.6-0.8-5.3-1.2-8.1-1.2c-2.5,0.1-4.9,0.4-7.3,1c-0.6-4.1-2.4-9.5-4.6-15.8S22,29.2,20.2,21.6
			C18.4,14.2,12.4,6.8,7,5.1c0-0.2,0-0.3,0-0.4C6.9,2.7,5.3,1.2,3.4,1.2C1.5,1.3-0.1,2.9,0,4.8s1.7,3.5,3.6,3.4C5,8.2,6.2,7.3,6.8,6
			c5.1,1.6,10.8,8.7,12.5,15.8c1.9,7.7,4.3,14.8,6.5,21s4.1,11.7,4.6,15.7c-2.6,0.7-4.7,2.3-6.1,4.6c-3.9,7.6-1.5,11.4,2.6,21.3
			c7.5,18.1,7.5,23.1,6.7,26c-2.1,8-8.4,2.5-10.1,24.5c-0.9,11.5,3.8,14.7,5.1,27.9c1.8,18.2-8,24.8-10.1,40.5
			c-1.5,11.2,6,35.3,20.7,53.8h0.2c18.1-22.8,21.1-42.6,19.6-53.8c-2.2-15.7-11.9-22.3-10.1-40.5c1.3-13.2,6-16.3,5.1-27.9
			c-1.7-22-8-16.5-10.1-24.5c-0.8-2.9-0.8-7.9,6.7-26c4.1-9.9,6.5-13.7,2.6-21.3c-1.3-2.2-3.4-3.8-5.8-4.5h0.5
			c0.3-4.1,2-9.7,3.9-16.2s4-13.5,5.5-21.3c1.4-7.1,6.7-14.4,11.7-16.3c0.8,1.8,2.8,2.6,4.6,1.8C75,5.9,75.8,3.8,75,2.1
			C74.5,0.8,73.2,0,71.8,0z"/>
	</g>
</g>
</svg>
