<?xml version="1.0" encoding="utf-8"?>
<!-- Generator: Adobe Illustrator 25.4.1, SVG Export Plug-In . SVG Version: 6.00 Build 0)  -->
<svg version="1.1" id="Layer_1" xmlns="http://www.w3.org/2000/svg" xmlns:xlink="http://www.w3.org/1999/xlink" x="0px" y="0px"
	 viewBox="0 0 90.3 255" style="enable-background:new 0 0 90.3 255;" xml:space="preserve">
<style type="text/css">
	.st0{fill:#2B3A45;}
</style>
<path class="st0" d="M90,0.3c-0.8-0.8-3.1,0.2-5.1,2.2c-1.4,1.4-2.3,2.9-2.5,3.9C78,11,74.5,16,71.9,21.5
	c-3.8,7.7-4.9,14.5-6.3,22.3c-1.1,6.5-1.5,11.2-1.7,14.6c-0.1,1.1-0.1,2-0.2,2.9c-1,10.9-5.8,22.2-14.2,33.6c-1.1-0.6-2.4-1-3.6-1.2
	l0-0.1c-0.3,0-0.5,0-0.7,0.1c-0.2,0-0.5-0.1-0.7-0.1l0,0.1c-1.3,0.2-2.5,0.6-3.6,1.2c-8.4-11.4-13.1-22.8-14.2-33.6
	c-0.1-0.9-0.1-1.8-0.2-2.9c-0.2-3.4-0.6-8.1-1.7-14.6c-1.4-7.8-2.5-14.6-6.3-22.3C15.8,16,12.2,11,7.9,6.4C7.7,5.4,6.8,3.9,5.4,2.5
	c-2.1-2-4.4-3-5.1-2.2c-0.8,0.8,0.3,3.1,2.3,5.1c1.5,1.5,3.2,2.4,4.3,2.5c4.1,4.4,7.4,9.2,10,14.4c3.6,7.5,4.8,14.2,6.1,21.8
	c1.1,6.5,1.4,11.1,1.7,14.4c0.1,1.1,0.1,2.1,0.2,2.9c1,11.2,5.9,22.7,14.4,34.4c-4.3,3-6.9,8.2-5.7,11.5c1,2.8,4.6,4,7.7,4.6
	c-5.1,5.9-8.7,20.8-8.7,38.3c0,10.2,1.2,19.5,3.3,26.7c-0.5,6.5-0.8,13.5-0.8,20.9c0,28.7,4,52.4,9.3,56.6l0,0.7
	c0.3,0,0.5-0.1,0.7-0.2c0.2,0.1,0.5,0.2,0.7,0.2l0-0.7c5.3-4.2,9.3-27.9,9.3-56.6c0-7.4-0.3-14.4-0.8-20.9c2-7.2,3.3-16.5,3.3-26.7
	c0-17.5-3.6-32.4-8.7-38.3c3.1-0.6,6.7-1.8,7.7-4.6c1.2-3.3-1.4-8.5-5.7-11.5c8.5-11.7,13.4-23.2,14.4-34.4c0.1-0.9,0.1-1.9,0.2-2.9
	c0.2-3.4,0.5-8,1.7-14.4c1.3-7.7,2.5-14.3,6.1-21.8c2.5-5.2,5.9-10,10-14.4c1.1,0,2.7-1,4.3-2.5C89.7,3.3,90.8,1.1,90,0.3z"/>
</svg>
