<svg xmlns="http://www.w3.org/2000/svg" viewBox="0 0 34.18 140.98"><g id="Layer_2" data-name="Layer 2"><g id="Layer_1-2" data-name="Layer 1"><path d="M21.35,139.74A8.27,8.27,0,0,1,16.64,141a6.68,6.68,0,0,1-6.19-5.74c-.44-3.89-.65-7.81-.9-11.73-1-15.65-2-31.31-3-47A82.9,82.9,0,0,1,8.07,56.14c0-.09.07-.18,0,0l18.19-.28.23,1.06c1.81,8.6,1.66,17.26,1.06,26C26.37,99.9,25.32,117,24.13,134.05a20.21,20.21,0,0,1-1.2,4.11Z" fill="#f9f9f9"/><path d="M19.49.43a4.47,4.47,0,0,1,.16,1.29c-.7,4.17,1.12,7.39,3.74,10.37,2.39,2.71,4.83,5.39,7,8.28a19.68,19.68,0,0,1,3.75,11.17A30.79,30.79,0,0,1,31.7,46.1a16.93,16.93,0,0,1-5.05,6.62,1.93,1.93,0,0,1-1.09.37c-5.61,0-11.23,0-16.84-.09a2,2,0,0,1-1.16-.43,19.43,19.43,0,0,1-6.3-10.75,40.73,40.73,0,0,1,3-28.33C7.11,7.77,11.13,3.07,17,.26a6.9,6.9,0,0,1,2-.26ZM28.68,30.5C27.4,29.21,26.12,29,25,29.55s0,2.5.22,3.86a20.63,20.63,0,0,1,.35,2.91,12.14,12.14,0,0,1-2.27,6.59c-1,1.55-2.54,2.55-1.16,3.48a3,3,0,0,0,4.19-.85A17,17,0,0,0,29.37,32.7,13.57,13.57,0,0,0,28.68,30.5Z" fill="#f9f9f9"/></g></g></svg>