<?xml version="1.0" encoding="utf-8"?>
<!-- Generator: Adobe Illustrator 25.4.1, SVG Export Plug-In . SVG Version: 6.00 Build 0)  -->
<svg version="1.1" id="Layer_1" xmlns="http://www.w3.org/2000/svg" xmlns:xlink="http://www.w3.org/1999/xlink" x="0px" y="0px"
	 viewBox="0 0 61 98" style="enable-background:new 0 0 61 98;" xml:space="preserve">
<style type="text/css">
	.st0{clip-path:url(#SVGID_00000016066229974231083850000016668161684978294408_);}
	.st1{fill:#010101;}
	.st2{fill:#FFFFFF;}
</style>
<g>
	<defs>
		<rect id="SVGID_1_" x="5" y="7" width="56" height="86"/>
	</defs>
	<clipPath id="SVGID_00000136388039059826360470000015005646053534119827_">
		<use xlink:href="#SVGID_1_"  style="overflow:visible;"/>
	</clipPath>
	<g style="clip-path:url(#SVGID_00000136388039059826360470000015005646053534119827_);">
		<path class="st1" d="M60.9,49.7c5.5-8.4,9.4-14.9,12-19.5c1.9-3.4,4.2-7.5,8.8-11.6c2.4-2.1,4.4-3.3,6.7-4.7c11.4-6.8,19.7-7,22-7
			c2.6,0,5.4,0.1,6.2,1.6c0.9,1.8-1.1,5-5,8.4c-0.6,1.1-1.5,2.7-3,4.5c-2.7,3.3-5.5,5.2-5,6.7c0.3,0.8,1.3,0.8,1.3,1.4
			c0,1.3-4.7,2-4.6,2.8c0.1,0.7,3.6,1,3.6,1.3c0,0.3-2.5-0.1-3.3,1.1c-0.4,0.6,0.1,1.2,0.1,1.9c-0.1,4.2-1.2,7.3-1.7,8.6
			c-0.5,1.4-1,2.6-1.8,3.7c-0.6,0.8-1.2,1.3-1.9,1.7c-1.9,1.2-3.6,1-5.7,1.3c-1.5,0.2-3.5,0.8-6,2.3c1.3,0.3,3.3,0.9,5.4,2.3
			c1.5,1,4,2.6,5.3,5.8c0,0,1.5,3.6,0.5,7.6c-0.2,0.8-0.5,1.6-0.5,1.6c-0.3,0.7-0.6,1.3-0.9,1.7c0.2,0.2,1.5,2,0.9,4.3
			c-0.5,2-2,2.9-2.3,3.1c0.9,1.6,0.8,3.4-0.1,4.6c-0.6,0.7-1.3,1-1.7,1.1c0,1,0.2,1.8,0.3,2.4c0.1,0.4,0.2,0.8,0.1,0.9
			c-0.2,0.1-0.9-0.5-1.3-0.9c-0.6-0.6-0.8-0.9-1-0.9c-0.3,0.1-0.2,0.6-0.6,0.9c-0.4,0.3-0.9,0.1-1,0.1c-0.5-0.1-0.6-0.4-0.8-0.3
			c-0.3,0.1-0.2,0.8-0.2,1.3c0.1,2,0.2,2.9,0,3c-0.2,0.1-0.6-1.5-1.7-2.7c-1.2-1.4-2.9-1.8-4.2-2c-0.5,0.1-1.5,0.1-2.5-0.3
			c-0.3-0.1-1.3-0.4-2.3-1.3c-1.5-1.4-1.9-3.1-2.1-3.7c-0.8-3.1-1.4-1.7-6.2-13.6c-2.2-5.3-3.2-8-4.1-11.3
			C61.7,54.6,61.2,51.7,60.9,49.7z"/>
		<path class="st1" d="M60.9,49.7c-5.5-8.4-9.4-14.9-12-19.5c-1.9-3.4-4.2-7.5-8.8-11.6c-2.4-2.1-4.4-3.3-6.7-4.7
			C22,7.2,13.8,7,11.5,7C8.9,7,6.1,7.1,5.3,8.6c-0.9,1.8,1.1,5,5,8.4c0.6,1.1,1.5,2.7,3,4.5c2.7,3.3,5.5,5.2,5,6.7
			C18,29,17,29,17,29.6c0,1.3,4.7,2,4.6,2.8c-0.1,0.7-3.6,1-3.6,1.3c0,0.3,2.5-0.1,3.3,1.1c0.4,0.6-0.1,1.2-0.1,1.9
			c0.1,4.2,1.2,7.3,1.7,8.6c0.5,1.4,1,2.6,1.8,3.7c0.6,0.8,1.2,1.3,1.9,1.7c1.9,1.2,3.6,1,5.7,1.3c1.5,0.2,3.5,0.8,6,2.3
			c-1.3,0.3-3.3,0.9-5.4,2.3c-1.5,1-4,2.6-5.3,5.8c0,0-1.5,3.6-0.5,7.6c0.2,0.8,0.5,1.6,0.5,1.6c0.3,0.7,0.6,1.3,0.9,1.7
			c-0.2,0.2-1.5,2-0.9,4.3c0.5,2,2,2.9,2.3,3.1C29,82.2,29,84.1,30,85.2c0.6,0.7,1.3,1,1.7,1.1c0,1-0.2,1.8-0.3,2.4
			c-0.1,0.4-0.2,0.8-0.1,0.9c0.2,0.1,0.9-0.5,1.3-0.9c0.6-0.6,0.8-0.9,1-0.9c0.3,0.1,0.2,0.6,0.6,0.9c0.4,0.3,0.9,0.1,1,0.1
			c0.5-0.1,0.6-0.4,0.8-0.3c0.3,0.1,0.2,0.8,0.2,1.3c-0.1,2-0.2,2.9,0,3c0.2,0.1,0.6-1.5,1.7-2.7c1.2-1.4,2.9-1.8,4.2-2
			c0.5,0.1,1.5,0.1,2.5-0.3c0.3-0.1,1.3-0.4,2.3-1.3c1.5-1.4,1.9-3.1,2.1-3.7c0.8-3.1,1.4-1.7,6.2-13.6c2.2-5.3,3.2-8,4.1-11.3
			C60.2,54.6,60.7,51.7,60.9,49.7z"/>
		<path class="st2" d="M59,53.9c0.1,0,0.3,0.3-0.4,3c-1.9,6.9-5.1,12.3-5.1,12.3c-3.6,6.1-5.8,9.7-9,9.9c-0.2,0-2.3,0.1-2.9-1
			c-0.6-1.1,0.6-2.8,1.6-4.2c3-4.2,5.1-6.5,7.2-8.9c3.7-4.5,5.5-6.7,7-9.1C57.7,55.3,58.7,53.8,59,53.9z"/>
		<path class="st2" d="M58.6,53.1c0.2,0.3-0.9,1.3-6.9,8.6c-3.1,3.7-4.6,5.5-5.2,6.4c-5.7,7.3-6.7,10.1-9.4,10.3
			c-1.7,0.1-3.6-0.8-4.1-2.2c-0.7-2,1.7-4.6,8.9-10.6C43.5,64.2,57.8,52.2,58.6,53.1z"/>
		<path class="st2" d="M57.3,52.2c0.4,0.9-4,2.9-13.1,10c-7,5.4-11.5,9.8-13.5,8.5c-0.7-0.5-0.9-1.5-1.1-2.8c0-0.2-0.4-2.7,0.7-5.2
			c1.9-4.1,6.7-5.1,7.2-5.2C53.3,51.8,57,51.4,57.3,52.2z"/>
		<path class="st2" d="M34.6,82.4c0,1-0.8,1.8-1.8,1.8c-1,0-1.8-0.8-1.8-1.8c0-1,0.8-1.8,1.8-1.8C33.8,80.5,34.6,81.4,34.6,82.4z"/>
		<ellipse class="st2" cx="43.7" cy="83.2" rx="2.8" ry="2.6"/>
		<path class="st2" d="M38.7,85.5c0,0.7-0.6,1.3-1.4,1.3s-1.4-0.6-1.4-1.3s0.6-1.3,1.4-1.3C38,84.2,38.7,84.8,38.7,85.5z"/>
		<path class="st2" d="M31.7,76.9c0,0.6-0.5,1-1.1,1s-1.1-0.5-1.1-1s0.5-1,1.1-1S31.7,76.3,31.7,76.9z"/>
		<path class="st2" d="M55.5,49.6c0,0.1-0.2,0.4-3,0.5c-7.1,0.3-13.3-1.1-13.3-1.1c-6.9-1.6-11-2.5-12.2-5.6c-0.1-0.2-0.8-2.1,0.1-3
			c0.9-0.9,2.9-0.3,4.5,0.2c5,1.6,7.7,2.9,10.7,4.1c5.4,2.1,8.1,3.2,10.8,3.9C53.8,48.8,55.5,49.3,55.5,49.6z"/>
		<path class="st2" d="M56.1,49c-0.2,0.3-1.5-0.4-10.3-3.9c-4.5-1.8-6.7-2.7-7.7-3c-8.7-3.2-11.7-3.3-12.7-5.8
			c-0.6-1.5-0.3-3.7,0.8-4.6c1.7-1.2,4.9,0.2,12.8,5.2C41,38,56.7,47.9,56.1,49z"/>
		<path class="st2" d="M56.6,47.5c-0.7,0.7-4-2.9-13.5-9.4c-7.3-5-12.8-8-12.2-10.2c0.2-0.8,1.2-1.3,2.3-1.9
			c0.2-0.1,2.4-1.2,5.1-0.9c4.5,0.6,6.9,4.8,7.2,5.3C55.7,43.5,57.2,46.9,56.6,47.5z"/>
		<path class="st2" d="M42.4,23.7c0.7-1.2-9.1-9.1-21.4-12.9c-1.3-0.4-11-3.3-12.4-0.8c-0.4,0.8-0.1,1.9,0,2.3
			c0.5,1.7,2,2.8,3.6,3.6c4.5,2.2,9.9,2.1,11.2,2.1C34.8,18.1,41.8,24.7,42.4,23.7z"/>
		<path class="st2" d="M39,23.8c0.2-0.8-4.8-3.7-10.7-4.5c-4.3-0.6-5.5,0.5-10.6-0.6c-3.1-0.6-5.2-1.5-5.5-1
			c-0.4,0.8,2.9,3.4,3.4,3.7c0.9,0.7,1.8,1.6,2.9,1.9c2.9,0.8,5.3,0.3,7.7-0.1C33.5,21.9,38.7,24.6,39,23.8z"/>
		<path class="st2" d="M28.6,27.2c0,1.3-1,2.3-2.3,2.3s-2.3-1-2.3-2.3c0-1.3,1-2.3,2.3-2.3S28.6,25.9,28.6,27.2z"/>
		<path class="st2" d="M30.8,24.9c0,0.5-0.4,1-1,1c-0.5,0-1-0.4-1-1c0-0.5,0.4-1,1-1C30.4,23.9,30.8,24.4,30.8,24.9z"/>
		<circle class="st2" cx="32.9" cy="24.4" r="0.5"/>
		<path class="st2" d="M22.5,29.2c0,0.7-0.6,1.3-1.3,1.3c-0.7,0-1.3-0.6-1.3-1.3s0.6-1.3,1.3-1.3C21.9,27.9,22.5,28.5,22.5,29.2z"/>
		<path class="st2" d="M24.1,24.5c0.2,0.4-1.1,1.2-1.7,1.5c-1.1,0.7-1.9,1.2-2.6,0.9c-0.4-0.2-0.6-0.5-1-1.1
			c-0.4-0.6-0.7-1.1-0.5-1.4c0.2-0.4,1.1,0,2.9,0.1C23,24.6,24,24.2,24.1,24.5z"/>
		<path class="st2" d="M62.7,53.9c-0.1,0.1-0.3,0.3,0.4,3c1.9,6.9,5.1,12.3,5.1,12.3c3.6,6.1,5.8,9.7,9,9.9c0.2,0,2.3,0.1,2.9-1
			c0.6-1.1-0.6-2.8-1.6-4.2c-3-4.2-5.1-6.5-7.2-8.9c-3.7-4.5-5.5-6.7-7-9.1C64,55.3,63,53.8,62.7,53.9z"/>
		<path class="st2" d="M63.2,53.1c-0.2,0.3,0.9,1.3,6.9,8.6c3.1,3.7,4.6,5.5,5.2,6.4c5.7,7.3,6.7,10.1,9.4,10.3
			c1.7,0.1,3.6-0.8,4.1-2.2c0.7-2-1.7-4.6-8.9-10.6C78.2,64.2,64,52.2,63.2,53.1z"/>
		<path class="st2" d="M64.4,52.2c-0.4,0.9,4,2.9,13.1,10c7,5.4,11.5,9.8,13.5,8.5c0.7-0.5,0.9-1.5,1.1-2.8c0-0.2,0.4-2.7-0.7-5.2
			c-1.9-4.1-6.7-5.1-7.2-5.2C68.4,51.8,64.8,51.5,64.4,52.2z"/>
		<ellipse class="st2" cx="88.9" cy="82.4" rx="1.8" ry="1.8"/>
		<ellipse class="st2" cx="78" cy="83.2" rx="2.8" ry="2.6"/>
		<ellipse class="st2" cx="84.5" cy="85.6" rx="1.4" ry="1.3"/>
		<ellipse class="st2" cx="91.2" cy="76.9" rx="1.1" ry="1"/>
		<path class="st2" d="M66.2,49.7c0,0.1,0.2,0.4,3,0.5c7.1,0.3,13.3-1.1,13.3-1.1c6.9-1.6,11-2.5,12.2-5.6c0.1-0.2,0.8-2.1-0.1-3
			c-0.9-0.9-2.9-0.3-4.5,0.2c-5,1.6-7.7,2.9-10.7,4.1c-5.4,2.1-8.1,3.2-10.8,3.9C68,48.9,66.2,49.3,66.2,49.7z"/>
		<path class="st2" d="M65.6,49c0.2,0.3,1.5-0.4,10.3-3.9c4.5-1.8,6.7-2.7,7.7-3c8.7-3.2,11.7-3.3,12.7-5.8c0.6-1.5,0.3-3.7-0.8-4.6
			c-1.7-1.2-4.9,0.2-12.8,5.2C80.8,38,65,47.9,65.6,49z"/>
		<path class="st2" d="M65.1,47.5c0.7,0.7,4-2.9,13.5-9.4c7.3-5,12.8-8,12.2-10.2c-0.2-0.8-1.2-1.3-2.3-1.9
			c-0.2-0.1-2.4-1.2-5.1-0.9c-4.5,0.6-6.9,4.8-7.2,5.3C66,43.6,64.5,46.9,65.1,47.5z"/>
		<path class="st2" d="M79.3,23.7c-0.7-1.2,9.1-9.1,21.4-12.9c1.3-0.4,11-3.3,12.4-0.8c0.4,0.8,0.1,1.9,0,2.3
			c-0.5,1.7-2,2.8-3.6,3.6C105,18.1,99.6,18,98.3,18C86.9,18.1,79.9,24.8,79.3,23.7z"/>
		<path class="st2" d="M82.8,23.8c-0.2-0.8,4.8-3.7,10.7-4.5c4.3-0.6,5.5,0.5,10.6-0.6c3.1-0.6,5.2-1.5,5.5-1
			c0.4,0.8-2.9,3.4-3.4,3.7c-0.9,0.7-1.8,1.6-2.9,1.9c-2.9,0.8-5.3,0.3-7.7-0.1C88.2,21.9,83,24.6,82.8,23.8z"/>
		<circle class="st2" cx="95.5" cy="27.2" r="2.3"/>
		<path class="st2" d="M90.9,24.9c0,0.5,0.4,1,1,1c0.5,0,1-0.4,1-1c0-0.5-0.4-1-1-1C91.4,23.9,90.9,24.4,90.9,24.9z"/>
		<path class="st2" d="M88.3,24.4c0,0.3,0.2,0.5,0.5,0.5c0.3,0,0.5-0.2,0.5-0.5c0-0.3-0.2-0.5-0.5-0.5S88.3,24.2,88.3,24.4z"/>
		<circle class="st2" cx="100.6" cy="29.2" r="1.3"/>
		<path class="st2" d="M97.6,24.5c-0.2,0.4,1.1,1.2,1.7,1.5c1.1,0.7,1.9,1.2,2.6,0.9c0.4-0.2,0.6-0.5,1-1.1c0.4-0.6,0.7-1.1,0.5-1.4
			c-0.2-0.4-1.1,0-2.9,0.1C98.7,24.6,97.8,24.2,97.6,24.5z"/>
		<path class="st1" d="M61.8,39.3L61.5,39c2-2.6,3.2-5.1,3.4-7.6c0-0.2,0-0.4,0-0.6c0.1-0.7,0.1-1.6,0.3-3c0.3-1.6,0.5-3,1.3-4.6
			c0.7-1.4,1.6-2.6,2.8-3.7l0.2,0.3c-1.1,1.1-2,2.3-2.7,3.6c-0.7,1.5-1,2.9-1.3,4.5c-0.2,1.3-0.3,2.3-0.3,3c0,0.2,0,0.4-0.1,0.6
			C65,34,63.8,36.6,61.8,39.3z"/>
		<path class="st1" d="M69.8,20c-0.4,0.4-0.9,0.6-1.1,0.5c-0.2-0.2,0.1-0.6,0.5-1c0.4-0.4,0.9-0.6,1-0.5
			C70.5,19.2,70.2,19.6,69.8,20z"/>
		<path class="st1" d="M60.1,39.3l0.3-0.2c-2-2.6-3.2-5.1-3.4-7.6c0-0.2,0-0.4-0.1-0.6c-0.1-0.7-0.1-1.6-0.3-3
			c-0.3-1.6-0.5-3-1.3-4.6c-0.7-1.4-1.6-2.6-2.8-3.7l-0.2,0.3c1.1,1.1,2,2.3,2.7,3.6c0.7,1.5,1,2.9,1.3,4.5c0.2,1.3,0.3,2.3,0.3,3
			c0,0.2,0,0.4,0.1,0.6C56.8,34,58,36.6,60.1,39.3z"/>
		<path class="st1" d="M52,20c0.4,0.4,0.9,0.6,1,0.5c0.2-0.2-0.1-0.6-0.5-1c-0.4-0.4-0.9-0.6-1.1-0.5C51.4,19.2,51.6,19.6,52,20z"/>
		<ellipse class="st1" cx="60.9" cy="59.4" rx="2.2" ry="11.7"/>
		<path class="st1" d="M63.7,49.7c0,4.6-1.2,8.4-2.8,8.4s-2.8-3.8-2.8-8.4c0-4.6,1.2-8.4,2.8-8.4S63.7,45.1,63.7,49.7z"/>
		<path class="st1" d="M63.5,40.9c-0.4,1-2.3,1-2.5,1c-0.2,0-2.2,0-2.6-1c-0.4-1,1-2.8,2.6-2.8C62.6,38.1,63.8,40,63.5,40.9z"/>
	</g>
</g>
</svg>
