<?xml version="1.0" encoding="utf-8"?>
<!-- Generator: Adobe Illustrator 25.4.1, SVG Export Plug-In . SVG Version: 6.00 Build 0)  -->
<svg version="1.1" id="Layer_1" xmlns="http://www.w3.org/2000/svg" xmlns:xlink="http://www.w3.org/1999/xlink" x="0px" y="0px"
	 viewBox="0 0 61 98" style="enable-background:new 0 0 61 98;" xml:space="preserve">
<style type="text/css">
	.st0{clip-path:url(#SVGID_00000115506537755371503060000009134325030297307789_);}
	.st1{fill:#010101;}
	.st2{fill:#FFFFFF;}
</style>
<g>
	<g>
		<defs>
			<rect id="SVGID_1_" x="0" y="7" width="56" height="86"/>
		</defs>
		<clipPath id="SVGID_00000088847382708430008350000015817750412906977937_">
			<use xlink:href="#SVGID_1_"  style="overflow:visible;"/>
		</clipPath>
		<g style="clip-path:url(#SVGID_00000088847382708430008350000015817750412906977937_);">
			<path class="st1" d="M-1.6,57.9c-0.9,3.3-1.9,6-4.1,11.3c-4.8,11.9-5.4,10.5-6.2,13.6c-0.2,0.6-0.6,2.3-2.1,3.7
				c-1,0.9-2,1.2-2.3,1.3c-1,0.4-2,0.4-2.5,0.3c-1.3,0.2-3,0.6-4.2,2c-1.1,1.2-1.5,2.8-1.7,2.7s-0.1-1,0-3c0-0.5,0.1-1.2-0.2-1.3
				c-0.2-0.1-0.3,0.2-0.8,0.3c-0.1,0-0.6,0.2-1-0.1s-0.3-0.8-0.6-0.9c-0.2,0-0.4,0.3-1,0.9c-0.4,0.4-1.1,1-1.3,0.9
				c-0.1-0.1,0-0.5,0.1-0.9c0.1-0.6,0.3-1.4,0.3-2.4c-0.4-0.1-1.1-0.4-1.7-1.1c-0.9-1.2-1-3-0.1-4.6c-0.3-0.2-1.8-1.1-2.3-3.1
				c-0.6-2.3,0.7-4.1,0.9-4.3c-0.3-0.4-0.6-1-0.9-1.7c0,0-0.3-0.8-0.5-1.6c-1-4,0.5-7.6,0.5-7.6c1.3-3.2,3.8-4.8,5.3-5.8
				c2.1-1.4,4.1-2,5.4-2.3c-2.5-1.5-4.5-2.1-6-2.3c-2.1-0.3-3.8-0.1-5.7-1.3c-0.7-0.4-1.3-0.9-1.9-1.7c-0.8-1.1-1.3-2.3-1.8-3.7
				c-0.5-1.3-1.6-4.4-1.7-8.6c0-0.7,0.5-1.3,0.1-1.9c-0.8-1.2-3.3-0.8-3.3-1.1s3.5-0.6,3.6-1.3c0.1-0.8-4.6-1.5-4.6-2.8
				c0-0.6,1-0.6,1.3-1.4c0.5-1.5-2.3-3.4-5-6.7c-1.5-1.8-2.4-3.4-3-4.5c-3.9-3.4-5.9-6.6-5-8.4c0.8-1.5,3.6-1.6,6.2-1.6
				c2.3,0,10.6,0.2,22,7c2.3,1.4,4.3,2.6,6.7,4.7c4.6,4.1,6.9,8.2,8.8,11.6c2.6,4.6,6.5,11.1,12,19.5C-0.2,51.7-0.7,54.6-1.6,57.9z"
				/>
			<path class="st1" d="M1.7,57.9c0.9,3.3,1.9,6,4.1,11.3c4.8,11.9,5.4,10.5,6.2,13.6c0.2,0.6,0.6,2.3,2.1,3.7c1,0.9,2,1.2,2.3,1.3
				c1,0.4,2,0.4,2.5,0.3c1.3,0.2,3,0.6,4.2,2c1.1,1.2,1.5,2.8,1.7,2.7s0.1-1,0-3c0-0.5-0.1-1.2,0.2-1.3c0.2-0.1,0.3,0.2,0.8,0.3
				c0.1,0,0.6,0.2,1-0.1c0.4-0.3,0.3-0.8,0.6-0.9c0.2,0,0.4,0.3,1,0.9c0.4,0.4,1.1,1,1.3,0.9c0.1-0.1,0-0.5-0.1-0.9
				c-0.1-0.6-0.3-1.4-0.3-2.4c0.4-0.1,1.1-0.4,1.7-1.1c1-1.1,1-3,0.1-4.5c0.3-0.2,1.8-1.1,2.3-3.1c0.6-2.3-0.7-4.1-0.9-4.3
				c0.3-0.4,0.6-1,0.9-1.7c0,0,0.3-0.8,0.5-1.6c1-4-0.5-7.6-0.5-7.6c-1.3-3.2-3.8-4.8-5.3-5.8c-2.1-1.4-4.1-2-5.4-2.3
				c2.5-1.5,4.5-2.1,6-2.3c2.1-0.3,3.8-0.1,5.7-1.3c0.7-0.4,1.3-0.9,1.9-1.7c0.8-1.1,1.3-2.3,1.8-3.7c0.5-1.3,1.6-4.4,1.7-8.6
				c0-0.7-0.5-1.3-0.1-1.9c0.8-1.2,3.3-0.8,3.3-1.1s-3.5-0.6-3.6-1.3c-0.1-0.8,4.6-1.5,4.6-2.8c0-0.6-1-0.6-1.3-1.4
				c-0.5-1.5,2.3-3.4,5-6.7c1.5-1.8,2.4-3.4,3-4.5c3.9-3.4,5.9-6.6,5-8.4C54.9,7.1,52.1,7,49.5,7C47.2,7,39,7.2,27.6,13.9
				c-2.3,1.4-4.3,2.6-6.7,4.7c-4.6,4.1-6.9,8.2-8.8,11.6c-2.6,4.6-6.5,11.1-12,19.5C0.3,51.7,0.8,54.6,1.7,57.9z"/>
			<path class="st2" d="M3.6,55.9c1.5,2.4,3.3,4.6,7,9.1c2.1,2.4,4.2,4.7,7.2,8.9c1,1.4,2.2,3.1,1.6,4.2c-0.6,1.1-2.7,1-2.9,1
				c-3.2-0.2-5.4-3.8-9-9.9c0,0-3.2-5.4-5.1-12.3c-0.7-2.7-0.5-3-0.4-3C2.3,53.8,3.3,55.3,3.6,55.9z"/>
			<path class="st2" d="M19.1,65.6c7.2,6,9.6,8.6,8.9,10.6c-0.5,1.4-2.4,2.3-4.1,2.2c-2.7-0.2-3.7-3-9.4-10.3
				c-0.6-0.9-2.1-2.7-5.2-6.4c-6-7.3-7.1-8.3-6.9-8.6C3.2,52.2,17.5,64.2,19.1,65.6z"/>
			<path class="st2" d="M23.5,57.5c0.5,0.1,5.3,1.1,7.2,5.2c1.1,2.5,0.7,5,0.7,5.2c-0.2,1.3-0.4,2.3-1.1,2.8
				c-2,1.3-6.5-3.1-13.5-8.5c-9.1-7.1-13.5-9.1-13.1-10C4,51.4,7.7,51.8,23.5,57.5z"/>
			<path class="st2" d="M28.2,80.6c1,0,1.8,0.8,1.8,1.8s-0.8,1.8-1.8,1.8s-1.8-0.8-1.8-1.8S27.2,80.5,28.2,80.6z"/>
			<ellipse class="st2" cx="17.3" cy="83.2" rx="2.8" ry="2.6"/>
			<path class="st2" d="M23.7,84.2c0.8,0,1.4,0.6,1.4,1.3s-0.6,1.3-1.4,1.3s-1.4-0.6-1.4-1.3S23,84.2,23.7,84.2z"/>
			<path class="st2" d="M30.4,75.9c0.6,0,1.1,0.5,1.1,1s-0.5,1-1.1,1s-1.1-0.4-1.1-1S29.8,75.9,30.4,75.9z"/>
			<path class="st2" d="M7.9,48.6c2.7-0.7,5.4-1.8,10.8-3.9c3-1.2,5.7-2.5,10.7-4.1c1.6-0.5,3.6-1.1,4.5-0.2c0.9,0.9,0.2,2.8,0.1,3
				c-1.2,3.1-5.3,4-12.2,5.6c0,0-6.2,1.4-13.3,1.1c-2.8-0.1-3-0.4-3-0.5C5.5,49.3,7.2,48.8,7.9,48.6z"/>
			<path class="st2" d="M22,36.9c7.9-5,11.1-6.4,12.8-5.2c1.1,0.9,1.4,3.1,0.8,4.6c-1,2.5-4,2.6-12.7,5.8c-1,0.3-3.2,1.2-7.7,3
				C6.4,48.6,5.1,49.3,4.9,49C4.3,47.9,20,38,22,36.9z"/>
			<path class="st2" d="M15.5,30.4c0.3-0.5,2.7-4.7,7.2-5.3c2.7-0.3,4.9,0.8,5.1,0.9c1.1,0.6,2.1,1.1,2.3,1.9
				c0.6,2.2-4.9,5.2-12.2,10.2C8.4,44.6,5.1,48.2,4.4,47.5C3.8,46.9,5.3,43.5,15.5,30.4z"/>
			<path class="st2" d="M37.6,18c1.3,0,6.7,0.1,11.2-2.1c1.6-0.8,3.1-1.9,3.6-3.6c0.1-0.4,0.4-1.5,0-2.3C51,7.5,41.3,10.4,40,10.8
				c-12.3,3.8-22.1,11.7-21.4,12.9C19.2,24.7,26.2,18.1,37.6,18z"/>
			<path class="st2" d="M34.8,23.2c2.4,0.4,4.8,0.9,7.7,0.1c1.1-0.3,2-1.2,2.9-1.9c0.5-0.3,3.8-2.9,3.4-3.7c-0.3-0.5-2.4,0.4-5.5,1
				c-5.1,1.1-6.3,0-10.6,0.6C26.8,20.1,21.8,23,22,23.8C22.3,24.6,27.5,21.9,34.8,23.2z"/>
			<path class="st2" d="M34.7,24.9c1.3,0,2.3,1,2.3,2.3s-1,2.3-2.3,2.3s-2.3-1-2.3-2.3C32.4,25.9,33.4,24.9,34.7,24.9z"/>
			<path class="st2" d="M31.2,23.9c0.6,0,1,0.5,1,1c0,0.6-0.5,1-1,1c-0.6,0-1-0.5-1-1S30.6,23.9,31.2,23.9z"/>
			<circle class="st2" cx="28.1" cy="24.4" r="0.5"/>
			<path class="st2" d="M39.8,27.9c0.7,0,1.3,0.6,1.3,1.3s-0.6,1.3-1.3,1.3c-0.7,0-1.3-0.6-1.3-1.3S39.1,27.9,39.8,27.9z"/>
			<path class="st2" d="M39.8,24.5c1.8-0.1,2.7-0.5,2.9-0.1c0.2,0.3-0.1,0.8-0.5,1.4c-0.4,0.6-0.6,0.9-1,1.1
				c-0.7,0.3-1.5-0.2-2.6-0.9c-0.6-0.3-1.9-1.1-1.7-1.5C37,24.2,38,24.6,39.8,24.5z"/>
			<path class="st2" d="M-3.3,55.9c-1.5,2.4-3.3,4.6-7,9.1c-2.1,2.4-4.2,4.7-7.2,8.9c-1,1.4-2.2,3.1-1.6,4.2s2.7,1,2.9,1
				c3.2-0.2,5.4-3.8,9-9.9c0,0,3.2-5.4,5.1-12.3c0.7-2.7,0.5-2.9,0.4-3C-2,53.8-3,55.3-3.3,55.9z"/>
			<path class="st2" d="M-18.9,65.6c-7.2,6-9.6,8.6-8.9,10.6c0.5,1.4,2.4,2.3,4.1,2.2c2.7-0.2,3.7-3,9.4-10.3
				c0.6-0.9,2.1-2.7,5.2-6.4c6-7.3,7.1-8.3,6.9-8.6C-3,52.2-17.2,64.2-18.9,65.6z"/>
			<path class="st2" d="M-23.2,57.5c-0.5,0.1-5.3,1.1-7.2,5.2c-1.1,2.5-0.7,5-0.7,5.2c0.2,1.3,0.4,2.3,1.1,2.8
				c2,1.3,6.5-3.1,13.5-8.5c9.1-7.1,13.5-9.1,13.1-10C-3.8,51.5-7.4,51.8-23.2,57.5z"/>
			<ellipse class="st2" cx="-27.9" cy="82.4" rx="1.8" ry="1.8"/>
			<ellipse class="st2" cx="-17" cy="83.2" rx="2.8" ry="2.6"/>
			<ellipse class="st2" cx="-23.5" cy="85.6" rx="1.4" ry="1.3"/>
			<ellipse class="st2" cx="-30.2" cy="76.9" rx="1.1" ry="1"/>
			<path class="st2" d="M-7.6,48.7c-2.7-0.7-5.4-1.8-10.8-3.9c-3-1.2-5.7-2.5-10.7-4.1c-1.6-0.5-3.6-1.1-4.5-0.2s-0.2,2.8-0.1,3
				c1.2,3.1,5.3,4,12.2,5.6c0,0,6.2,1.4,13.3,1.1c2.8-0.1,3-0.4,3-0.5C-5.2,49.3-7,48.9-7.6,48.7z"/>
			<path class="st2" d="M-21.7,36.9c-7.9-5-11.1-6.4-12.8-5.2c-1.1,0.9-1.4,3.1-0.8,4.6c1,2.5,4,2.6,12.7,5.8c1,0.3,3.2,1.2,7.7,3
				c8.8,3.5,10.1,4.2,10.3,3.9C-4,47.9-19.8,38-21.7,36.9z"/>
			<path class="st2" d="M-15.2,30.4c-0.3-0.5-2.7-4.7-7.2-5.3c-2.7-0.3-4.9,0.8-5.1,0.9c-1.1,0.6-2.1,1.1-2.3,1.9
				c-0.6,2.2,4.9,5.2,12.2,10.2c9.5,6.5,12.8,10.1,13.5,9.4C-3.5,46.9-5,43.6-15.2,30.4z"/>
			<path class="st2" d="M-37.3,18c-1.3,0-6.7,0.1-11.2-2.1c-1.6-0.8-3.1-1.9-3.6-3.6c-0.1-0.4-0.4-1.5,0-2.3
				c1.4-2.5,11.1,0.4,12.4,0.8c12.3,3.8,22.1,11.7,21.4,12.9C-18.9,24.8-25.9,18.1-37.3,18z"/>
			<path class="st2" d="M-34.6,23.2c-2.4,0.4-4.8,0.9-7.7,0.1c-1.1-0.3-2-1.2-2.9-1.9c-0.5-0.3-3.8-2.9-3.4-3.7
				c0.3-0.5,2.4,0.4,5.5,1c5.1,1.1,6.3,0,10.6,0.6c5.9,0.8,10.9,3.7,10.7,4.5C-22,24.6-27.2,21.9-34.6,23.2z"/>
			<circle class="st2" cx="-34.5" cy="27.2" r="2.3"/>
			<path class="st2" d="M-30.9,23.9c-0.6,0-1,0.5-1,1c0,0.6,0.5,1,1,1c0.6,0,1-0.5,1-1S-30.4,23.9-30.9,23.9z"/>
			<path class="st2" d="M-27.8,23.9c-0.3,0-0.5,0.2-0.5,0.5s0.2,0.5,0.5,0.5s0.5-0.2,0.5-0.5C-27.3,24.2-27.5,23.9-27.8,23.9z"/>
			<circle class="st2" cx="-39.6" cy="29.2" r="1.3"/>
			<path class="st2" d="M-39.5,24.5c-1.8-0.1-2.7-0.5-2.9-0.1c-0.2,0.3,0.1,0.8,0.5,1.4s0.6,0.9,1,1.1c0.7,0.3,1.5-0.2,2.6-0.9
				c0.6-0.3,1.9-1.1,1.7-1.5C-36.8,24.2-37.7,24.6-39.5,24.5z"/>
			<path class="st1" d="M-4.1,31.5c-0.1-0.2-0.1-0.4-0.1-0.6c0-0.7-0.1-1.7-0.3-3c-0.3-1.6-0.6-3-1.3-4.5c-0.7-1.3-1.6-2.5-2.7-3.6
				l0.2-0.3c1.2,1.1,2.1,2.3,2.8,3.7c0.8,1.6,1,3,1.3,4.6c0.2,1.4,0.2,2.3,0.3,3c0,0.2,0,0.4,0,0.6c0.2,2.5,1.4,5,3.4,7.6l-0.3,0.3
				C-2.8,36.6-4,34-4.1,31.5z"/>
			<path class="st1" d="M-9.2,19c0.1-0.1,0.6,0.1,1,0.5s0.7,0.8,0.5,1c-0.2,0.1-0.7-0.1-1.1-0.5C-9.2,19.6-9.5,19.2-9.2,19z"/>
			<path class="st1" d="M4.3,31.6c0.1-0.2,0.1-0.4,0.1-0.6c0-0.7,0.1-1.7,0.3-3C5,26.4,5.3,25,6,23.5c0.7-1.3,1.6-2.5,2.7-3.6
				l-0.2-0.3c-1.2,1.1-2.1,2.3-2.8,3.7c-0.8,1.6-1,3-1.3,4.6c-0.2,1.4-0.2,2.3-0.3,3C4,31.1,4,31.3,4,31.5c-0.2,2.5-1.4,5-3.4,7.6
				l0.3,0.2C3,36.6,4.2,34,4.3,31.6z"/>
			<path class="st1" d="M9.6,19c-0.2-0.1-0.7,0.1-1.1,0.5s-0.7,0.8-0.5,1c0.1,0.1,0.6-0.1,1-0.5S9.6,19.2,9.6,19z"/>
			<ellipse class="st1" cx="0.1" cy="59.4" rx="2.2" ry="11.7"/>
			<path class="st1" d="M0.1,41.3c1.6,0,2.8,3.8,2.8,8.4s-1.2,8.4-2.8,8.4s-2.8-3.8-2.8-8.4S-1.5,41.3,0.1,41.3z"/>
			<path class="st1" d="M0,38.1c1.6,0,3,1.8,2.6,2.8c-0.4,1-2.4,1-2.6,1s-2.1,0-2.5-1C-2.8,40-1.6,38.1,0,38.1z"/>
		</g>
	</g>
</g>
</svg>
