<?xml version="1.0" encoding="utf-8"?>
<!-- Generator: Adobe Illustrator 25.4.1, SVG Export Plug-In . SVG Version: 6.00 Build 0)  -->
<svg version="1.1" id="Layer_1" xmlns="http://www.w3.org/2000/svg" xmlns:xlink="http://www.w3.org/1999/xlink" x="0px" y="0px"
	 viewBox="0 0 248.1 226.1" style="enable-background:new 0 0 248.1 226.1;" xml:space="preserve">
<style type="text/css">
	.st0{opacity:9.000000e-02;enable-background:new    ;}
	.st1{fill:#FDC451;}
	.st2{opacity:0.4;}
	.st3{fill:#2B3A45;}
</style>
<path class="st0" d="M21.9,0l-1.2,207.2c0,4.4-0.6,4.6,1.9,4.7l188.2,14.2c15.6,0.9,29-11,30-26.6c0-0.3,0-0.5,0-0.8L247.4,0H21.9z"
	/>
<path class="st1" d="M0,0v188.4c0,13.8,11.2,25,25,25h198.1c13.8,0,25-11.2,25-25V0H0z"/>
<g class="st2">
	<path class="st3" d="M201.9,25.5c-0.3-0.3-0.8-0.5-1.2-0.6c-12.4-3.5-25.4,1.4-36,7.7c-3.2,1.8-6.2,3.9-9,6.2
		c-6.2,5.4-9.2,10.9-11.7,15.4c-3.2,5.7-7.9,13.5-14.3,23.5c-0.3-1.5-0.8-3-1.7-4.2c0.8-0.2,1.8-0.5,2.1-1.2
		c0.5-1.3-1.2-3.7-3.3-3.8h-0.1c-2.1,0.1-3.7,2.4-3.3,3.8c0.3,0.8,1.2,1.1,2.1,1.2c-1,1.5-1.7,3.2-1.9,5
		C116.8,68.1,112,60,108.7,54.2c-2.6-4.5-5.6-10-11.8-15.4c-2.8-2.4-5.8-4.5-9-6.2c-10.6-6.3-23.5-11.2-36-7.7
		c-0.4,0.1-0.8,0.3-1.2,0.6c-3,2.7,1.4,9.8,2.5,12.5C57.9,48.4,64,58.3,70.1,67.9c5.2,8.2,6.3,14,16.4,15.5c2.9,0.5,5.6,1.5,8,3.1
		c-2.6,0.6-5,1.6-7.2,3c-7.3,4.7-8.9,10.4-9.3,18.9c-0.3,3.7-0.1,7.3,0.6,10.9c0.8,3.6,2.7,6.9,5.6,9.2c11.6,8.9,26.9-7.9,31.1-17.7
		c0.6-1.4,1.2-2.9,1.8-4.4c2.9-7.1,4.3-10.6,5.5-15.1c0.3-1.2,0.6-2.3,0.8-3.4c0.1,1.1,0.3,2.3,0.7,3.4c-0.1,1.8-0.2,3.7-0.2,5.7
		c0,8.4,1.3,15.3,2.9,15.6l0,0l0,0l0,0l0,0c1.6-0.3,2.9-7.2,2.9-15.6c0-2-0.1-3.9-0.2-5.7c0.2-0.5,0.3-1,0.4-1.6
		c0.1,0.5,0.3,1.1,0.4,1.6c1.2,4.5,2.6,8,5.5,15.1c0.6,1.5,1.2,2.9,1.8,4.4c4.2,9.7,19.5,26.6,31.1,17.7c2.8-2.4,4.8-5.6,5.6-9.2
		c0.7-3.6,0.9-7.3,0.6-10.9c-0.5-8.5-2.1-14.1-9.3-18.9c-2.2-1.4-4.6-2.4-7.2-3c2.4-1.6,5.1-2.7,8-3.1c10.1-1.5,11.1-7.3,16.4-15.5
		c6.1-9.5,12.2-19.5,16.7-29.8C200.6,35.3,204.9,28.2,201.9,25.5z"/>
</g>
<path class="st3" d="M151.1,132c-8.1,0-15.6-13.6-17.8-20.9c-0.4-1.4-0.9-2.9-1.3-4.4c-1-3.4-1.7-6-2.3-8.3c0,4.6-0.4,12.4-2,14.6
	v0.7l-1-0.1l-1,0.1V113c-1.8-2.4-2-11.8-2-16v-0.5c-0.7,2.8-1.6,5.8-2.8,10.2c-0.4,1.5-0.8,3-1.3,4.4c-2.2,7.3-9.7,20.9-17.8,20.9
	c-2.3-0.1-4.4-1.1-5.8-2.8c-2.6-2.8-3.7-6.8-4.2-9.7c-0.5-3.7-0.7-7.4-0.4-11.1c0.3-8.7,1.6-14.6,6.9-19.6c1.1-1.1,2.4-1.9,3.8-2.6
	c-1.2-0.9-2.5-1.5-3.9-1.8c-6.2-1.3-7.9-5.6-10.3-11.5c-0.6-1.4-1.2-2.9-1.9-4.5c-4.6-9.7-8.6-19.7-11.9-30
	c-0.1-0.4-0.3-0.9-0.5-1.5c-1.3-3.7-3.2-9.3-1.1-11.9c0.3-0.4,0.8-0.7,1.3-0.9c2.1-0.8,4.3-1.2,6.5-1.2c6,0,12.7,3.1,19.9,9.1
	c2.4,1.9,4.5,4,6.4,6.4c4.3,5.3,6.5,10.8,8.2,15.2l0.2,0.5c2.7,6.7,5.8,13.9,9.1,21.4c0.1-0.4,0.2-0.9,0.4-1.3
	c-0.6-0.3-0.9-0.9-1.1-1.5c-0.2-1.3,0.1-2.5,0.9-3.6c0.4-0.5,0.8-0.9,1.4-1.2v-0.2h2v0.2c0.6,0.3,1.1,0.7,1.4,1.3
	c0.8,1,1.1,2.3,0.9,3.5c0,0.1,0,0.2-0.1,0.3c2.9-6.6,5.6-12.9,8-18.9l0.2-0.5c1.8-4.4,3.9-9.8,8.2-15.2c1.9-2.4,4.1-4.5,6.4-6.4
	c7.1-6,13.8-9.1,19.9-9.1c2.2,0,4.4,0.4,6.5,1.2c0.5,0.2,0.9,0.5,1.2,0.9c2.1,2.7,0.2,8.2-1.1,11.9c-0.2,0.6-0.4,1.1-0.5,1.5
	c-3.3,10.2-7.2,20.2-11.8,29.9c-0.7,1.6-1.3,3.1-1.9,4.5c-2.4,5.9-4.1,10.2-10.3,11.5c-1.4,0.3-2.7,1-3.9,1.8
	c1.4,0.7,2.7,1.6,3.8,2.6c5.3,4.9,6.6,10.9,6.9,19.6c0.2,3.7,0.1,7.4-0.5,11.1c-0.5,2.9-1.6,6.9-4.2,9.7
	C155.4,130.9,153.3,131.9,151.1,132L151.1,132z M128.8,74c0.1,0.2,0.1,0.4,0.2,0.6l0.7-1.5C129.5,73.4,129.2,73.8,128.8,74z"/>
<path class="st1" d="M172.6,23.8c2.1,0,4.2,0.4,6.1,1.2c0.3,0.1,0.6,0.3,0.8,0.6c2.1,2.7-0.9,9.8-1.8,12.5
	c-3.3,10.2-7.2,20.1-11.8,29.8c-3.7,8.2-4.4,14-11.5,15.5c-2.1,0.5-4.1,1.6-5.6,3.1c1.9,0.6,3.6,1.6,5.1,3
	c5.1,4.7,6.2,10.4,6.6,18.9c0.2,3.6,0.1,7.3-0.4,10.9c-0.6,3.6-1.9,7-3.9,9.2c-1.2,1.5-3.1,2.4-5.1,2.5c-7.1,0-14.5-12.4-16.8-20.2
	c-0.4-1.4-0.9-2.9-1.3-4.4c-2-7.1-3.1-10.6-3.9-15.1c-0.1-0.5-0.2-1.1-0.3-1.6c-0.1,0.6-0.2,1.1-0.3,1.6c0.1,1.8,0.1,3.7,0.1,5.7
	c0,8.4-0.9,15.3-2,15.6l0,0l0,0l0,0l0,0c-1.1-0.3-2-7.2-2-15.6c0-2,0.1-3.9,0.1-5.7c-0.2-1.1-0.4-2.2-0.5-3.4
	c-0.2,1.1-0.4,2.2-0.6,3.4c-1,5.1-2.3,10.2-3.9,15.1c-0.4,1.5-0.8,2.9-1.3,4.4c-2.4,7.8-9.8,20.2-16.8,20.2c-2-0.1-3.8-1-5.1-2.5
	c-2-2.2-3.3-5.7-3.9-9.2c-0.5-3.6-0.7-7.3-0.4-10.9c0.3-8.5,1.5-14.1,6.6-18.9c1.5-1.4,3.2-2.4,5.1-3c-1.6-1.5-3.5-2.6-5.6-3.1
	c-7.1-1.5-7.8-7.3-11.5-15.5C82.3,58.2,78.3,48.2,75,38c-0.8-2.7-3.9-9.9-1.8-12.5c0.2-0.3,0.5-0.5,0.8-0.6c1.9-0.8,4-1.2,6.1-1.2
	c6.8,0,13.5,4,19.2,8.8c2.3,1.8,4.4,3.9,6.3,6.2c4.3,5.4,6.5,10.9,8.3,15.4c2.3,5.8,5.7,13.9,10.5,24.3c0.1-1.7,0.6-3.4,1.3-5
	c-0.7-0.1-1.3-0.6-1.5-1.2c-0.3-1.3,0.8-3.7,2.3-3.8h0.1c1.5,0.1,2.6,2.4,2.3,3.8c-0.2,0.7-0.8,1.1-1.5,1.2c0.6,1.3,1.1,2.7,1.2,4.2
	c4.6-10,7.8-17.8,10.1-23.4c1.8-4.5,3.9-10,8.3-15.4c1.9-2.3,4-4.4,6.3-6.2C159.1,27.8,165.8,23.8,172.6,23.8 M172.6,21.8
	c-6.3,0-13.2,3.1-20.5,9.3c-2.4,1.9-4.6,4.1-6.6,6.5c-4.4,5.5-6.6,11-8.4,15.4l-0.2,0.5c-2,5-4.2,10.2-6.6,15.7
	c-0.2-0.3-0.3-0.6-0.5-0.8c-0.3-0.5-0.8-0.9-1.2-1.2v-0.7h-1.9h-2v0.7c-0.5,0.3-0.9,0.7-1.2,1.2c-0.3,0.4-0.6,0.9-0.8,1.4
	c-2.5-5.6-4.8-11.1-6.8-16.2l-0.2-0.5c-1.8-4.4-4-10-8.4-15.4c-2-2.4-4.2-4.6-6.6-6.5c-7.3-6.2-14.2-9.3-20.5-9.3
	c-2.3,0-4.7,0.4-6.8,1.3c-0.7,0.2-1.2,0.6-1.7,1.2c-2.4,3.1-0.4,9,1,12.9c0.2,0.6,0.4,1.1,0.5,1.5c3.3,10.3,7.3,20.3,11.8,30.1
	c0.7,1.6,1.3,3.1,1.9,4.5c2.4,6,4.3,10.7,11,12.1c0.7,0.2,1.5,0.4,2.1,0.8c-0.9,0.5-1.8,1.2-2.6,1.9c-5.6,5.2-6.9,11.3-7.2,20.2
	c-0.2,3.8-0.1,7.6,0.5,11.3c0.5,3,1.7,7.3,4.4,10.2c1.6,2,4,3.1,6.6,3.2c8.6,0,16.5-14.1,18.7-21.6c0.4-1.5,0.9-2.9,1.3-4.4
	s0.7-2.6,1-3.7c0.1,1.7,0.2,3.3,0.4,4.7c0.3,2.7,0.8,4.3,1.4,5.3v1.4l2-0.2l2,0.2v-1.4c0.7-1.1,1.4-3.5,1.8-8.5
	c0.2,0.7,0.4,1.4,0.6,2.2c0.4,1.5,0.9,2.9,1.3,4.4c2.3,7.5,10.1,21.6,18.7,21.6c2.5-0.1,4.9-1.2,6.5-3.2c2.7-3,3.9-7.2,4.4-10.2
	c0.5-3.8,0.7-7.5,0.5-11.3c-0.3-8.9-1.6-15.1-7.2-20.2c-0.8-0.7-1.6-1.4-2.5-1.9c0.7-0.4,1.4-0.6,2.1-0.8c6.7-1.4,8.6-6.2,11-12.1
	c0.6-1.4,1.2-2.9,1.9-4.5c4.6-9.8,8.5-19.8,11.8-30.1c0.1-0.4,0.3-0.9,0.5-1.5c1.4-3.9,3.4-9.8,1-12.9c-0.4-0.5-1-0.9-1.7-1.2
	C177.2,22.2,174.9,21.7,172.6,21.8L172.6,21.8z"/>
</svg>
