<svg xmlns="http://www.w3.org/2000/svg" viewBox="0 0 248.08 270.1"><g id="Layer_2" data-name="Layer 2"><g id="Layer_1-2" data-name="Layer 1"><g id="Group_54" data-name="Group 54"><g id="Group_37" data-name="Group 37"><g id="Group_609" data-name="Group 609"><path id="Path_13849" data-name="Path 13849" d="M245.94,20.54c.05-4.45-2-8.12-4.6-8.2L26.83,0c-2.58-.08-4.72,3.47-4.76,7.92L20.68,251.18c-.05,4.45-.65,4.62,1.94,4.7l188.17,14.17a28.33,28.33,0,0,0,30-27.36l7.34-220.87" opacity="0.09" style="isolation:isolate"/></g></g></g><path d="M0,44V232.39a25.07,25.07,0,0,0,25,25H223.08a25.07,25.07,0,0,0,25-25V44Z" fill="#fdc451"/><g id="Group_54-2" data-name="Group 54"><g id="Group_37-2" data-name="Group 37"><g id="Test_" data-name="Test "><g style="isolation:isolate"><path d="M68.72,195.47H79v2.07H71.19v6.35h7.23v2H71.19v8.65H68.72Z" fill="#2b3a45"/><path d="M82,194.45h2.49v20.13H82Z" fill="#2b3a45"/><path d="M89.55,200.85l3,8.11c.31.91.65,2,.88,2.81h0c.26-.82.54-1.87.88-2.86l2.73-8.06h2.63L96,210.63c-1.79,4.71-3,7.12-4.71,8.59a6.69,6.69,0,0,1-3.06,1.62l-.62-2.1a6.57,6.57,0,0,0,2.18-1.22,7.54,7.54,0,0,0,2.1-2.77,2,2,0,0,0,.2-.6,2.28,2.28,0,0,0-.17-.65l-5.08-12.65Z" fill="#2b3a45"/><path d="M115.6,214.58l-.2-1.73h-.08a5.14,5.14,0,0,1-4.2,2,3.91,3.91,0,0,1-4.19-3.94c0-3.32,2.94-5.14,8.25-5.11v-.28a2.84,2.84,0,0,0-3.12-3.18,6.76,6.76,0,0,0-3.57,1l-.57-1.65a8.49,8.49,0,0,1,4.51-1.22c4.19,0,5.21,2.87,5.21,5.62v5.13a19.37,19.37,0,0,0,.23,3.29Zm-.37-7c-2.72,0-5.81.43-5.81,3.09a2.2,2.2,0,0,0,2.35,2.38,3.41,3.41,0,0,0,3.32-2.29,2.5,2.5,0,0,0,.14-.8Z" fill="#2b3a45"/><path d="M122.43,200.85l1.81,7c.4,1.53.77,2.95,1,4.36h.08c.31-1.39.77-2.86,1.22-4.33l2.24-7h2.1l2.12,6.86c.51,1.65.91,3.09,1.22,4.48h.09a40.69,40.69,0,0,1,1-4.45l2-6.89h2.47l-4.42,13.73h-2.27L131,208a46.66,46.66,0,0,1-1.22-4.51h-.06a38.81,38.81,0,0,1-1.24,4.53l-2.21,6.53H124l-4.14-13.73Z" fill="#2b3a45"/><path d="M149.78,214.58l-.19-1.73h-.09a5.12,5.12,0,0,1-4.19,2,3.91,3.91,0,0,1-4.2-3.94c0-3.32,2.95-5.14,8.25-5.11v-.28a2.83,2.83,0,0,0-3.12-3.18,6.76,6.76,0,0,0-3.57,1l-.57-1.65a8.51,8.51,0,0,1,4.51-1.22c4.2,0,5.22,2.87,5.22,5.62v5.13a19.43,19.43,0,0,0,.22,3.29Zm-.36-7c-2.73,0-5.82.43-5.82,3.09A2.21,2.21,0,0,0,146,213a3.4,3.4,0,0,0,3.31-2.29,2.51,2.51,0,0,0,.15-.8Z" fill="#2b3a45"/><path d="M156.53,200.85l3,8.11c.32.91.66,2,.88,2.81h.06c.25-.82.54-1.87.88-2.86l2.72-8.06h2.64L163,210.63c-1.78,4.71-3,7.12-4.7,8.59a6.73,6.73,0,0,1-3.06,1.62l-.63-2.1a6.51,6.51,0,0,0,2.19-1.22,7.42,7.42,0,0,0,2.09-2.77,1.72,1.72,0,0,0,.2-.6,2.28,2.28,0,0,0-.17-.65l-5.07-12.65Z" fill="#2b3a45"/><path d="M168.49,213.13a1.66,1.66,0,0,1,1.67-1.76,1.76,1.76,0,0,1,0,3.52A1.66,1.66,0,0,1,168.49,213.13Zm.71-4-.4-13.61h2.72l-.39,13.61Z" fill="#2b3a45"/></g></g></g></g><g opacity="0.4"><path d="M201.9,69.49a2.84,2.84,0,0,0-1.19-.56c-12.42-3.49-25.36,1.37-36,7.67a53.43,53.43,0,0,0-9,6.25c-6.16,5.43-9.19,10.94-11.74,15.42-3.21,5.65-7.86,13.46-14.33,23.45a10.15,10.15,0,0,0-1.73-4.21c.84-.15,1.82-.49,2.09-1.25.46-1.3-1.22-3.66-3.29-3.75h-.08c-2.07.09-3.74,2.45-3.28,3.75.27.76,1.25,1.1,2.09,1.25a11.43,11.43,0,0,0-1.9,5c-6.76-10.39-11.57-18.49-14.87-24.29-2.56-4.48-5.58-10-11.75-15.42a52.64,52.64,0,0,0-9-6.25c-10.62-6.3-23.55-11.16-36-7.67a2.88,2.88,0,0,0-1.2.56c-3,2.66,1.36,9.85,2.54,12.54C57.9,92.41,64,102.34,70.07,111.86c5.25,8.21,6.29,14,16.36,15.49a20.23,20.23,0,0,1,8,3.11,22.31,22.31,0,0,0-7.2,3c-7.26,4.72-8.87,10.38-9.33,18.86a38.06,38.06,0,0,0,.63,10.92,16.28,16.28,0,0,0,5.56,9.22c11.61,8.9,26.93-7.95,31.1-17.69q.93-2.17,1.82-4.36c2.89-7.1,4.34-10.65,5.53-15.14.31-1.19.59-2.33.83-3.42a22.32,22.32,0,0,0,.65,3.38c-.13,1.77-.2,3.69-.2,5.7,0,8.43,1.28,15.29,2.87,15.61v0l0,0,0,0v0c1.6-.32,2.88-7.18,2.88-15.61,0-2-.07-3.93-.21-5.7a15.56,15.56,0,0,0,.37-1.56c.13.52.27,1.06.41,1.6,1.19,4.49,2.64,8,5.53,15.14.59,1.46,1.2,2.91,1.81,4.36,4.18,9.74,19.5,26.59,31.1,17.69a16.29,16.29,0,0,0,5.57-9.22,38.06,38.06,0,0,0,.63-10.92c-.46-8.48-2.07-14.14-9.33-18.86a22.4,22.4,0,0,0-7.2-3,20.23,20.23,0,0,1,8-3.11c10.07-1.5,11.11-7.28,16.36-15.49,6.09-9.52,12.17-19.45,16.7-29.83C200.55,79.34,204.87,72.15,201.9,69.49Z" fill="#2b3a45"/></g><path d="M151.06,176c-8.11,0-15.58-13.62-17.78-20.91-.43-1.45-.86-2.91-1.28-4.37-1-3.44-1.73-6-2.34-8.34,0,4.63-.39,12.42-2,14.6l0,.7-1-.08-1,.1V157c-1.81-2.45-2-11.76-2-16v-.51c-.69,2.77-1.56,5.82-2.83,10.24-.42,1.49-.85,3-1.29,4.4-2.2,7.29-9.67,20.91-17.77,20.91a7.77,7.77,0,0,1-5.81-2.84c-2.56-2.79-3.68-6.83-4.17-9.72a55,55,0,0,1-.45-11.13c.33-8.66,1.56-14.63,6.88-19.55a15,15,0,0,1,3.81-2.61,10.25,10.25,0,0,0-3.89-1.83c-6.21-1.32-7.94-5.61-10.33-11.54-.57-1.44-1.17-2.92-1.89-4.52A257.56,257.56,0,0,1,74,82.33c-.12-.42-.3-.94-.51-1.53-1.28-3.69-3.2-9.26-1.1-11.93A2.86,2.86,0,0,1,73.67,68a17.43,17.43,0,0,1,6.47-1.24c6,0,12.73,3.06,19.87,9.07a41.82,41.82,0,0,1,6.45,6.39c4.28,5.35,6.46,10.81,8.22,15.19l.19.49c2.69,6.71,5.76,13.88,9.14,21.37.12-.44.25-.87.4-1.26a2.45,2.45,0,0,1-1.1-1.51,4.66,4.66,0,0,1,.9-3.55,3.75,3.75,0,0,1,1.38-1.19v-.25h2l0,.23A3.76,3.76,0,0,1,129,113a4.63,4.63,0,0,1,.9,3.54,2.76,2.76,0,0,1-.08.27c2.94-6.6,5.63-12.93,8-18.87l.19-.49c1.76-4.38,3.94-9.84,8.22-15.19a41.82,41.82,0,0,1,6.45-6.39c7.14-6,13.82-9.07,19.87-9.07A17.43,17.43,0,0,1,179.07,68a2.86,2.86,0,0,1,1.25.87c2.1,2.67.17,8.24-1.1,11.93-.21.59-.39,1.11-.52,1.53a259.4,259.4,0,0,1-11.79,29.94c-.72,1.6-1.32,3.08-1.9,4.52-2.38,5.93-4.11,10.22-10.32,11.54a10.18,10.18,0,0,0-3.89,1.83,15.21,15.21,0,0,1,3.81,2.61c5.32,4.92,6.55,10.89,6.88,19.55a55,55,0,0,1-.46,11.13c-.49,2.89-1.61,6.93-4.16,9.72a7.79,7.79,0,0,1-5.81,2.84Zm-22.23-58c.07.19.14.38.2.58l.69-1.54A2.55,2.55,0,0,1,128.83,118Z" fill="#2b3a45"/><path d="M172.6,67.76a16.22,16.22,0,0,1,6.09,1.17,1.84,1.84,0,0,1,.84.56c2.09,2.66-.95,9.85-1.78,12.54A258,258,0,0,1,166,111.86c-3.7,8.21-4.43,14-11.52,15.49a12.1,12.1,0,0,0-5.63,3.11,13.71,13.71,0,0,1,5.08,3c5.11,4.72,6.24,10.38,6.56,18.86a53.72,53.72,0,0,1-.44,10.92c-.6,3.56-1.88,7-3.92,9.22a6.8,6.8,0,0,1-5.07,2.51c-7.06,0-14.46-12.39-16.82-20.2-.43-1.45-.86-2.9-1.28-4.36-2-7.1-3.05-10.65-3.89-15.14-.1-.54-.19-1.08-.28-1.6-.08.55-.17,1.08-.26,1.56.09,1.77.14,3.69.14,5.7,0,8.43-.9,15.29-2,15.61v0l0,0,0,0v0c-1.12-.32-2-7.18-2-15.61,0-2,.05-3.93.14-5.7a31.15,31.15,0,0,1-.46-3.38c-.17,1.09-.36,2.23-.59,3.42a153.14,153.14,0,0,1-3.89,15.14c-.41,1.46-.84,2.91-1.27,4.36-2.36,7.81-9.77,20.2-16.82,20.2a6.79,6.79,0,0,1-5.07-2.51c-2-2.23-3.32-5.66-3.92-9.22a53.72,53.72,0,0,1-.45-10.92c.33-8.48,1.46-14.14,6.57-18.86a13.69,13.69,0,0,1,5.07-3,12,12,0,0,0-5.62-3.11c-7.09-1.5-7.82-7.28-11.52-15.49A258,258,0,0,1,75,82c-.83-2.69-3.88-9.88-1.79-12.54a1.89,1.89,0,0,1,.84-.56,16.24,16.24,0,0,1,6.1-1.17c6.77,0,13.48,4,19.23,8.84a40.67,40.67,0,0,1,6.31,6.25c4.34,5.43,6.47,10.94,8.26,15.42,2.33,5.8,5.72,13.9,10.47,24.29a14.64,14.64,0,0,1,1.34-5,1.85,1.85,0,0,1-1.47-1.25c-.33-1.3.85-3.66,2.31-3.75h.06c1.45.09,2.63,2.45,2.31,3.75a1.85,1.85,0,0,1-1.47,1.25,12.81,12.81,0,0,1,1.22,4.21c4.55-10,7.82-17.8,10.08-23.45,1.8-4.48,3.93-10,8.27-15.42a40.24,40.24,0,0,1,6.31-6.25c5.75-4.85,12.46-8.84,19.23-8.84m0-2c-6.29,0-13.19,3.13-20.52,9.31a42.7,42.7,0,0,0-6.58,6.53c-4.37,5.46-6.59,11-8.37,15.45l-.19.48c-2,5-4.21,10.22-6.6,15.65a7,7,0,0,0-.51-.82,4.9,4.9,0,0,0-1.24-1.21l0-.67-1.94,0-2,0v.72a5.26,5.26,0,0,0-1.19,1.17,6.43,6.43,0,0,0-.76,1.38c-2.48-5.64-4.78-11.07-6.84-16.21l-.19-.48c-1.78-4.45-4-10-8.37-15.45a42.28,42.28,0,0,0-6.59-6.53c-7.32-6.17-14.22-9.31-20.51-9.31a18.37,18.37,0,0,0-6.84,1.31,3.91,3.91,0,0,0-1.67,1.18c-2.44,3.1-.4,9,1,12.87.2.59.37,1.1.5,1.5a258.24,258.24,0,0,0,11.84,30.06c.71,1.58,1.3,3.06,1.88,4.48,2.41,6,4.31,10.72,11,12.14a8,8,0,0,1,2.13.8A17.4,17.4,0,0,0,97.45,132c-5.57,5.16-6.86,11.33-7.2,20.25a55.6,55.6,0,0,0,.47,11.33c.51,3,1.69,7.27,4.41,10.24a8.75,8.75,0,0,0,6.55,3.16c8.63,0,16.46-14.08,18.73-21.62.44-1.46.87-2.92,1.29-4.39s.73-2.55,1-3.66c.11,1.73.25,3.33.43,4.74.35,2.68.77,4.34,1.42,5.32v1.37l2-.16,2,.18,0-1.44c.71-1.14,1.43-3.51,1.8-8.51.2.68.4,1.4.62,2.16.42,1.47.85,2.93,1.29,4.39,2.27,7.54,10.1,21.62,18.73,21.62a8.72,8.72,0,0,0,6.54-3.16c2.73-3,3.91-7.21,4.42-10.24a56.32,56.32,0,0,0,.47-11.33c-.34-8.92-1.63-15.09-7.21-20.25a17.32,17.32,0,0,0-2.51-1.93,8,8,0,0,1,2.13-.8c6.73-1.42,8.63-6.15,11-12.14.58-1.42,1.17-2.9,1.88-4.48a260,260,0,0,0,11.84-30.06c.12-.4.3-.91.5-1.49,1.35-3.9,3.38-9.78,1-12.88a3.91,3.91,0,0,0-1.67-1.18,18.37,18.37,0,0,0-6.84-1.31Z" fill="#fdc451"/></g></g></svg>