<svg xmlns="http://www.w3.org/2000/svg" xmlns:xlink="http://www.w3.org/1999/xlink" viewBox="0 0 152.74 152.74"><defs><clipPath id="clip-path"><path d="M152.74,76.37A76.37,76.37,0,1,1,76.37,0a76.37,76.37,0,0,1,76.37,76.37" fill="none"/></clipPath></defs><g id="Layer_2" data-name="Layer 2"><g id="Layer_1-2" data-name="Layer 1"><path d="M94.16,78.87A4.91,4.91,0,0,0,92,79.4c-2.29,1.12,0,4.56.4,7.06a38.14,38.14,0,0,1,.64,5.3c0,4.46-1.78,8.34-4.15,12-1.81,2.83-4.64,4.66-2.11,6.36a5.46,5.46,0,0,0,3.07,1,5.59,5.59,0,0,0,4.57-2.53A30.9,30.9,0,0,0,100,85.16a24.33,24.33,0,0,0-1.26-4,6.56,6.56,0,0,0-4.58-2.27m-33,49,33.21-.52c.17.77.29,1.36.42,1.95a127.77,127.77,0,0,1,2.5,20.52,76.76,76.76,0,0,1-39,.74A186,186,0,0,1,61.1,128a.58.58,0,0,1,.08-.22,1.29,1.29,0,0,1,0,.14m31.92-5.5h0q-15.37,0-30.75-.16a3.61,3.61,0,0,1-2.12-.8c-6.17-5.16-9.67-12-11.49-19.61C44.42,84,46,66.6,54.15,50.08c5.2-10.45,12.55-19,23.34-24.15,1.06-.51,2.45-.34,3.68-.48l.79.78a8.74,8.74,0,0,1,.29,2.35c-1.28,7.61,2,13.49,6.84,18.94,4.36,4.95,8.81,9.85,12.76,15.12A36,36,0,0,1,108.69,83c.4,9.16-.53,18.14-4.43,26.59A31,31,0,0,1,95,121.71a3.61,3.61,0,0,1-2,.68M76.37,0a76.37,76.37,0,1,0,76.37,76.37A76.37,76.37,0,0,0,76.37,0" fill="#7392a6"/><g clip-path="url(#clip-path)"><path d="M94.34,127.37l-33.21.52a1.29,1.29,0,0,0,0-.14.58.58,0,0,0-.08.22,186,186,0,0,0-2.82,22.61,76.76,76.76,0,0,0,39-.74,127.77,127.77,0,0,0-2.5-20.52c-.13-.59-.25-1.18-.42-1.95" fill="#fff"/><path d="M89.82,111.12a5.46,5.46,0,0,1-3.07-1c-2.53-1.7.3-3.53,2.11-6.36,2.37-3.69,4.15-7.57,4.15-12a38.14,38.14,0,0,0-.64-5.3C92,84,89.68,80.52,92,79.4a4.91,4.91,0,0,1,2.19-.53,6.56,6.56,0,0,1,4.58,2.27,24.33,24.33,0,0,1,1.26,4,30.9,30.9,0,0,1-5.61,23.43,5.59,5.59,0,0,1-4.57,2.53M81.17,25.45c-1.23.14-2.62,0-3.68.48C66.7,31,59.35,39.63,54.15,50.08,46,66.6,44.42,84,48.68,101.82c1.82,7.62,5.32,14.45,11.49,19.61a3.61,3.61,0,0,0,2.12.8q15.38.15,30.75.16h0a3.61,3.61,0,0,0,2-.68,31,31,0,0,0,9.22-12.08c3.9-8.45,4.83-17.43,4.43-26.59a36,36,0,0,0-6.84-20.4c-3.95-5.27-8.4-10.17-12.76-15.12C84.3,42.07,81,36.19,82.25,28.58A8.74,8.74,0,0,0,82,26.23l-.79-.78" fill="#fff"/></g></g></g></svg>