<svg id="Layer_1" data-name="Layer 1" xmlns="http://www.w3.org/2000/svg" viewBox="0 0 1920 1080"><path d="M176.56,1074.71c-3.29-108.19,37.71-212.81,100.61-299.48C343,684.52,432.9,614.68,528.79,558.14c49-28.86,99.74-54.53,151.17-78.69,55.68-26.17,112-51,169.37-73.36,57-22.22,114.93-42,174-57.85,58.19-15.63,120.22-32.4,178.69-9.09,49.65,19.8,91.3,59.62,122.52,102.2a391.14,391.14,0,0,1,63.59,136.21c25,100,11.18,217.83-56.67,298.85-34.25,40.9-83.81,70.63-137.61,75-58.72,4.73-114.44-21.55-162.68-52.4-46.44-29.7-91.17-65.82-114.67-117-22.18-48.35-25.35-105.26-8-155.6,16.23-47.18,50.92-87.12,94.1-111.73,22-12.52,46.47-21.42,71.59-24.68,14.88-1.93,30.74-1.56,44.3,5.59,12.38,6.52,21.54,17.62,29.93,28.54a331.63,331.63,0,0,1,44.51,77.6c2.79,6.91,6,14.59,4,22.15s-8.63,13.63-14.49,18.64a116.62,116.62,0,0,1-32.34,19.43,128.75,128.75,0,0,1-71.89,7,116.36,116.36,0,0,1-34.24-12.29c-6.6-3.66-13.7-7.85-14.78-16-.9-6.93,2.18-14.58,4.4-21.09,6.65-19.52,19-45.21,43-44.91,1.93,0,1.93-3,0-3-21.94-.27-34.87,19.66-42.4,37.78-4.1,9.86-10.72,24-7.41,34.75s17.26,16.46,26.74,20.44c43.87,18.45,98.36,10,133.67-22.26,10.1-9.21,15.91-19.36,11.67-33.16s-11-27.1-17.76-39.72a334.71,334.71,0,0,0-24.44-39.21c-8.06-11.14-16.58-22.63-27.47-31.17-21.91-17.18-50.73-14.4-76.16-8a209.82,209.82,0,0,0-67.23,30.6c-42.15,29-73.66,72.62-85.62,122.53C887.73,696,895.47,752.57,921.85,799c28.49,50.13,78.08,85.84,127,114.34,49.59,28.89,106.65,49.6,164.61,38.38,54.12-10.48,101.14-44.93,132.68-89.43,31.86-45,49.29-99.55,54.76-154.07C1411.33,604.11,1377.15,496.26,1309,417c-35.48-41.25-82.21-79.26-136.89-89.82-31.13-6-63-2-93.71,4.52-31.44,6.67-62.55,15.12-93.34,24.29C862.26,392.55,743.44,443.8,628.86,500.8c-106.62,53-210.59,115.93-294.25,201.74C256.85,782.3,196.81,883.83,178.82,994.8a418.39,418.39,0,0,0-5.26,79.91c.06,1.93,3.06,1.93,3,0Z" transform="translate(-0.5 0.5)"/><rect width="1920" height="1080" fill="none"/></svg>