<?xml version="1.0" encoding="utf-8"?>
<!-- Generator: Adobe Illustrator 25.4.1, SVG Export Plug-In . SVG Version: 6.00 Build 0)  -->
<svg version="1.1" id="Layer_1" xmlns="http://www.w3.org/2000/svg" xmlns:xlink="http://www.w3.org/1999/xlink" x="0px" y="0px"
	 viewBox="0 0 506.8 527.1" style="enable-background:new 0 0 506.8 527.1;" xml:space="preserve">
<style type="text/css">
	.st0{fill:#D6D6D6;}
	.st1{fill:#FCFCFC;}
	.st2{fill:#2B3A45;}
</style>
<g id="Layer_1-2">
	<path class="st0" d="M12.8,7.5c0.4,2.6-0.3,5.4-2.3,7.2c-3.6,3.2-6.8,6.8-10.3,10.1l5.9,473.1c0.1,10.8,8.8,19.5,19.6,19.7
		l448.1,9.5c0.1,0,0.1,0,0.2,0c11,0.1,20.1-8.7,20.2-19.8l5.2-500.4L12.8,7.5z"/>
	<path class="st1" d="M20,0.5L486.2,0c11,0,20,8.9,20,20l0.5,471.9c0,11-8.9,20-20,20l-466.1,0.5c-11,0-20-8.9-20-20L0,20.5
		C0,9.5,9,0.5,20,0.5z"/>
</g>
<g>
	<g>
		<g>
			<g>
				<path class="st2" d="M244.9,254.9c0.6,1.8,3,2.6,5,3c-3.3,3.9-5.7,13.7-5.7,25.1c0,6.7,0.8,12.8,2.1,17.5
					c-0.3,4.2-0.5,8.9-0.5,13.7c0,20.6,3.2,37.3,7.1,37.6l3-61.8l-3-44.2C247.9,245.9,243.8,251.7,244.9,254.9z"/>
			</g>
			<g>
				<g>
					<path class="st2" d="M250.4,249.6l0.9-0.7c-6.5-8.2-10.2-16.4-10.9-24.2c-0.1-0.6-0.1-1.2-0.1-1.9c-0.2-2.2-0.4-5.3-1.1-9.6
						c-0.9-5.1-1.7-9.6-4.1-14.6c-2.1-4.4-5.1-8.4-8.8-11.8l-0.8,0.8c3.6,3.4,6.5,7.3,8.6,11.5c2.4,4.9,3.2,9.3,4,14.3
						c0.7,4.2,0.9,7.3,1.1,9.5c0,0.7,0.1,1.4,0.1,1.9C239.9,232.8,243.7,241.2,250.4,249.6z"/>
				</g>
				<path class="st2" d="M224.6,188c1.4,1.3,2.9,2,3.4,1.4c0.5-0.5-0.2-2-1.5-3.3c-1.4-1.3-2.9-2-3.4-1.4
					C222.5,185.2,223.2,186.7,224.6,188z"/>
			</g>
		</g>
		<path class="st2" d="M209.6,211.7c-6.1-10.8-13.4-24-28.2-37.1c-7.6-6.7-13.9-10.5-21.6-15c-36.5-21.7-63-22.4-70.4-22.3
			c-8.3,0-17.3,0.2-19.8,5.2c-2.9,5.8,3.6,16.2,16.2,26.8c1.9,3.5,4.9,8.8,9.5,14.4c8.6,10.5,17.6,16.5,15.9,21.4
			c-0.9,2.6-4.1,2.7-4,4.6c0.1,3.9,7.9,4.5,10.3,6c6.1,4.1,2.9,17,3.5,23.2c0.7,7.1,2.3,14.2,4.9,20.9c1.7,4.5,3.1,8.2,5.9,11.8
			c1.9,2.4,3.9,4.2,6,5.6c6.2,4,11.6,3.3,18.4,4.3c4.7,0.7,11.4,2.5,19.2,7.5c-4.1,0.9-10.5,2.9-17.3,7.3
			c-4.9,3.2-12.7,8.3-17.1,18.5c0,0-4.9,11.6-1.7,24.2c0.7,2.7,1.7,5.2,1.7,5.2c1,2.3,2,4.1,2.9,5.5c-0.5,0.7-4.8,6.5-2.9,13.9
			c1.1,4.2,4,7.2,7.3,9.8c-3.4,3.2-3.7,9.4-1.8,13.4c0.8,1.7,2.1,3.2,3.8,4.2c3.5,2,7.9,1.2,11.9,0.3c2.1,4.4,5.2,8,10.3,8.9
			c4.7,0.8,8.5-0.8,12.2-3.5c0.1-0.1,0.3-0.2,0.4-0.2c0.2,0,0.3,0,0.5,0.1c4.4,1.8,9.2,3,13.8,1.1c4.2-1.7,6.9-6.2,8.6-10.2
			c2-5,3.1-10.3,5.3-15.2c0.7-1.6,1.8-3.1,2.6-4.7c3.5-6.6,6.5-13.4,9.5-20.2c1.5-3.5,2.9-7,4.4-10.5c6.9-17.1,10.4-25.6,13.3-36.4
			c2.9-10.8,4.4-20.1,5.2-26.6C230.3,247.1,218,226.4,209.6,211.7z M88.2,158.6c-2.4-2.6-3.7-6.9-1.4-9.5c1.8-2,4.8-2.2,7.5-2.1
			c13.4,0.4,26.3,3.9,38.9,8c6.4,2.1,12.6,5.4,18.7,8.4c0.7,0.4,1.4,0.7,2.1,1.2c0.2,0.2,0.5,0.4,0.5,0.7c0,0.4-0.3,0.7-0.6,0.8
			c-0.4,0.1-0.7,0-1.1-0.1c-6.4-1.4-12.2-2.7-18.6-3.3c-6.9-0.7-13.9-0.6-20.8,0.1C104.8,163.7,95,165.8,88.2,158.6z M153.8,268.7
			c-5.5-2.5-10.8-6.9-12.9-12.8c-1-2.9-0.9-6.2,0.1-9c0.6-1.7,3.8-4.6,1.8-6.5c-3.1-2.8-5.7-6.8-6.8-9.4c-1.3-3.2-1.4-6.4-0.1-9.5
			c1.2-2.7,5.3-4.9,4.9-8.4c-0.1-1.1-0.8-1.9-1.8-2.4c-6.8-3.5-13.1-7.9-18.6-13.1c-9.2-8.6-23.4-24.9-1.4-27.4
			c22.2-2.6,45.2,4,62.8,17.7c19.5,15.1,28.5,39.7,41.9,60c2.9,4.3,5.9,8.6,8.4,13.1c1.6,2.8,3.7,6,3.7,9.4
			c-0.1,5.4-7.5,6.4-11.5,6.6c-14.1,0.7-28.8,1.2-42.8-0.7C172,275,162.6,272.7,153.8,268.7z M147.1,361.4c0-1.8,1.6-3.3,3.6-3.3
			c2,0,3.6,1.5,3.6,3.3c0,1.8-1.6,3.3-3.6,3.3C148.7,364.7,147.1,363.2,147.1,361.4z M157.8,384.8c-3.2,0-5.7-2.7-5.7-5.9
			c0-3.3,2.6-5.9,5.7-5.9c3.2,0,5.7,2.7,5.7,5.9C163.5,382.2,161,384.8,157.8,384.8z M172.1,393.1c-2.5,0-4.5-1.8-4.5-4.1
			c0-2.3,2-4.1,4.5-4.1c2.5,0,4.5,1.8,4.5,4.1C176.6,391.2,174.6,393.1,172.1,393.1z M169.4,366.9c-5.3,0.3-11.7-2.6-13.2-7.1
			c-1.4-4.2,1.4-9.2,10.2-17.8c-4.7,1.3-10.8,2.7-15.6,1c-4.1-1.5-4.8-6.3-5.4-10c-0.1-0.6-1.4-8.5,2.3-16.5
			c8.2-17.6,32.4-20.5,48.9-25.6c12.2-3.8,25.1-6.8,35.9-9.3c1.2-0.3,2.6,0.1,3.7,0.7s2,1.8,1.9,3.1c0,0.2-0.1,0.3-0.1,0.5
			c-0.2,0.5-0.5,1-0.7,1.5c-3,4.7-6.4,8.7-10,13c-9.3,11.1-18.8,22.2-27.7,33.7C181.3,357.5,178.1,366.4,169.4,366.9z M192.7,389.9
			c-4.9,0-8.9-3.8-8.9-8.5c0-4.7,4-8.5,8.9-8.5s8.9,3.8,8.9,8.5C201.6,386.1,197.6,389.9,192.7,389.9z M238.6,297.5
			c-0.6,6.2-4,12.9-6.3,18.7c-3.2,8.1-6.7,15.5-11,23.1c-4.2,7.4-8.4,15-14,21.5c-0.4,0.5-0.9,1-1.4,1.5c-3.9,4.3-12,10.3-17.9,5.8
			c-3.3-2.5-0.1-6.7,1.8-9.7c9.8-15.6,21.6-29.9,32.7-44.5c4.6-6.1,9.2-12.1,14-18c0.7-0.8,1.3-1.1,1.8-1
			C238.9,295.1,238.7,296.3,238.6,297.5z"/>
	</g>
	<g>
		<g>
			<g>
				<path class="st2" d="M260.1,254.9c-0.6,1.8-3,2.6-5,3c3.3,3.9,5.7,13.7,5.7,25.1c0,6.7-0.8,12.8-2.1,17.5
					c0.3,4.2,0.5,8.9,0.5,13.7c0,20.6-3.2,37.3-7.1,37.6l-3-61.8l3-44.2C257,245.9,261.2,251.7,260.1,254.9z"/>
			</g>
			<g>
				<g>
					<path class="st2" d="M254.6,249.6l-0.9-0.7c6.5-8.2,10.2-16.4,10.9-24.2c0.1-0.6,0.1-1.2,0.1-1.9c0.2-2.2,0.4-5.3,1.1-9.6
						c0.9-5.1,1.7-9.6,4.1-14.6c2.1-4.4,5.1-8.4,8.8-11.8l0.8,0.8c-3.6,3.4-6.5,7.3-8.6,11.5c-2.4,4.9-3.2,9.3-4,14.3
						c-0.7,4.2-0.9,7.3-1.1,9.5c0,0.7-0.1,1.4-0.1,1.9C265,232.8,261.3,241.2,254.6,249.6z"/>
				</g>
				<path class="st2" d="M280.4,188c-1.4,1.3-2.9,2-3.4,1.4c-0.5-0.5,0.2-2,1.5-3.3c1.4-1.3,2.9-2,3.4-1.4
					C282.4,185.2,281.7,186.7,280.4,188z"/>
			</g>
		</g>
		<path class="st2" d="M256.8,274.1c0.8,6.5,2.3,15.7,5.2,26.6c2.9,10.8,6.3,19.3,13.3,36.4c1.4,3.5,2.9,7,4.4,10.5
			c2.9,6.8,6,13.6,9.5,20.2c0.8,1.6,1.8,3.1,2.6,4.7c2.3,4.8,3.3,10.2,5.3,15.2c1.6,4,4.4,8.5,8.6,10.2c4.6,1.8,9.4,0.7,13.8-1.1
			c0.1-0.1,0.3-0.1,0.5-0.1c0.2,0,0.3,0.1,0.4,0.2c3.7,2.7,7.5,4.3,12.2,3.5c5.1-0.8,8.1-4.5,10.3-8.9c4,0.9,8.4,1.7,11.9-0.3
			c1.6-1,2.9-2.5,3.8-4.2c2-4,1.7-10.3-1.8-13.4c0.3,0.2,4-3.6,4.3-4c1.3-1.6,2-3.2,2.9-5.1c1.6-3.7,1.6-8.3,0.2-12.1
			c-0.4-1.1-1-2.1-1.7-3.1c0.2,0.3,3.2-0.9,3.5-1.1c1.1-0.8,1.8-2.2,1.9-3.5c0.1-1.8-0.8-3.1-1.4-4.6c-0.7-1.9,0.4-4.1,0.6-6
			c0.3-2.1,0.3-4.3,0.2-6.4c-0.3-4.3-1.5-8.5-3.2-12.5c-3-7-8.2-12.4-14.3-16.7c-2.6-1.8-5.2-3.9-7.8-5.4c-2.1-1.2-9.3-4.4-11.5-4
			c8.5-1.6,17.3,1.5,25.9,0.4c4.5-0.6,6.9-4.1,3.6-7.8c5.4-2.1,9.8-5,13.3-9.6c0-1.1,2.7-4.1,3.2-5.3c0.9-1.8,1.7-3.7,2.2-5.6
			c1-3.8,1.8-7.7,3-11.6c0.8-2.7,1.7-5.5,3.6-7.6c2.1-2.3,5.4-4,5.6-7.1c0.2-3-2.7-5.2-4.2-7.8c-7.1-12.5,10.9-8.4,11.1-17.1
			c0-1.9-3.1-2.1-4-4.6c-1.7-4.8,7.3-10.8,15.9-21.4c4.6-5.7,7.7-10.9,9.5-14.4c12.5-10.7,19-21.1,16.2-26.8
			c-2.5-5-11.5-5.2-19.8-5.2c-7.4,0-33.9,0.7-70.4,22.3c-7.6,4.5-14,8.3-21.6,15c-14.8,13-22.1,26.3-28.2,37.1
			C286.8,226.4,274.5,247.1,256.8,274.1z M391.5,162.7c-6.9-0.8-13.9-0.8-20.8-0.1c-6.4,0.7-12.3,2-18.6,3.3
			c-0.4,0.1-0.7,0.2-1.1,0.1c-0.4-0.1-0.7-0.4-0.6-0.8c0-0.3,0.3-0.5,0.5-0.7c0.6-0.5,1.4-0.8,2.1-1.2c6.1-3,12.2-6.2,18.7-8.4
			c12.7-4.2,25.5-7.7,38.9-8c2.7-0.1,5.7,0.1,7.5,2.1c2.3,2.6,1.1,7-1.4,9.5C409.8,165.8,400,163.7,391.5,162.7z M323.3,276.3
			c-14,1.9-28.7,1.4-42.8,0.7c-4-0.2-11.4-1.3-11.5-6.6c-0.1-3.4,2-6.6,3.7-9.4c2.6-4.5,5.6-8.8,8.4-13.1
			c13.4-20.3,22.4-44.9,41.9-60c17.6-13.6,40.6-20.2,62.8-17.7c22,2.5,7.8,18.8-1.4,27.4c-5.6,5.2-11.9,9.7-18.6,13.1
			c-0.9,0.5-1.7,1.4-1.8,2.4c-0.4,3.4,3.7,5.7,4.9,8.4c1.4,3.1,1.2,6.3-0.1,9.5c-1,2.6-3.7,6.6-6.8,9.4c-2,1.9,1.2,4.7,1.8,6.5
			c1,2.8,1.1,6.2,0.1,9c-2.1,5.8-7.5,10.3-12.9,12.8C342.2,272.7,332.8,275,323.3,276.3z M354.1,364.7c-2,0-3.6-1.5-3.6-3.3
			c0-1.8,1.6-3.3,3.6-3.3c2,0,3.6,1.5,3.6,3.3C357.7,363.2,356.1,364.7,354.1,364.7z M341.3,378.9c0-3.3,2.6-5.9,5.7-5.9
			c3.2,0,5.7,2.7,5.7,5.9c0,3.3-2.6,5.9-5.7,5.9C343.8,384.8,341.3,382.2,341.3,378.9z M328.2,388.9c0-2.3,2-4.1,4.5-4.1
			c2.5,0,4.5,1.8,4.5,4.1c0,2.3-2,4.1-4.5,4.1C330.2,393.1,328.2,391.2,328.2,388.9z M305.2,334c-8.9-11.4-18.4-22.5-27.7-33.7
			c-3.6-4.3-7-8.3-10-13c-0.3-0.5-0.6-0.9-0.7-1.5c-0.1-0.2-0.1-0.3-0.1-0.5c-0.1-1.3,0.8-2.5,1.9-3.1s2.5-1,3.7-0.7
			c10.8,2.5,23.8,5.6,35.9,9.3c16.5,5.1,40.6,8,48.9,25.6c3.7,8,2.4,16,2.3,16.5c-0.7,3.7-1.3,8.5-5.4,10c-4.8,1.7-10.9,0.4-15.6-1
			c8.8,8.5,11.7,13.6,10.2,17.8c-1.5,4.5-7.9,7.3-13.2,7.1C326.6,366.4,323.5,357.5,305.2,334z M303.2,381.4c0-4.7,4-8.5,8.9-8.5
			s8.9,3.8,8.9,8.5c0,4.7-4,8.5-8.9,8.5S303.2,386.1,303.2,381.4z M266.5,294.9c0.5-0.1,1.1,0.1,1.8,1c4.8,5.9,9.4,12,14,18
			c11.1,14.6,22.9,28.9,32.7,44.5c1.9,3,5.1,7.2,1.8,9.7c-5.9,4.5-14-1.5-17.9-5.8c-0.5-0.5-0.9-1-1.4-1.5
			c-5.5-6.5-9.7-14.1-14-21.5c-4.3-7.6-7.8-14.9-11-23.1c-2.3-5.8-5.7-12.4-6.3-18.7C266.1,296.3,265.9,295.1,266.5,294.9z"/>
	</g>
	<path class="st2" d="M209.6,211.7c-6.1-10.8-13.4-24-28.2-37.1c-7.6-6.7-13.9-10.5-21.6-15c-36.5-21.7-63-22.4-70.4-22.3
		c-8.3,0-17.3,0.2-19.8,5.2c-2.9,5.8,3.6,16.2,16.2,26.8c1.9,3.5,4.9,8.8,9.5,14.4c8.6,10.5,17.6,16.5,15.9,21.4
		c-0.9,2.6-4.1,2.7-4,4.6c0.2,8.7,18.2,4.6,11.1,17.1c-1.5,2.6-4.4,4.8-4.2,7.8c0.2,3.1,3.6,4.8,5.6,7.1c1.9,2.1,2.7,4.9,3.6,7.6
		c1.2,3.8,2,7.8,3,11.6c0.5,1.9,1.4,3.8,2.2,5.6c0.6,1.2,3.2,4.2,3.2,5.3c3.5,4.6,7.9,7.5,13.3,9.6c-3.3,3.7-0.9,7.2,3.6,7.8
		c8.6,1.1,17.4-2,25.9-0.4c-2.2-0.4-9.4,2.8-11.5,4c-2.7,1.5-5.3,3.7-7.8,5.4c-6.2,4.3-11.3,9.7-14.3,16.7c-1.7,4-2.9,8.2-3.2,12.5
		c-0.2,2.1-0.1,4.3,0.2,6.4c0.2,1.9,1.4,4.2,0.6,6c-0.6,1.6-1.5,2.9-1.4,4.6c0.1,1.4,0.7,2.8,1.9,3.5c0.3,0.2,3.3,1.4,3.5,1.1
		c-0.7,0.9-1.3,2-1.7,3.1c-1.3,3.8-1.4,8.5,0.2,12.1c0.8,1.8,1.5,3.5,2.9,5.1c0.3,0.4,4,4.3,4.3,4c-3.4,3.2-3.7,9.4-1.8,13.4
		c0.8,1.7,2.1,3.2,3.8,4.2c3.5,2,7.9,1.2,11.9,0.3c2.1,4.4,5.2,8,10.3,8.9c4.7,0.8,8.5-0.8,12.2-3.5c0.1-0.1,0.3-0.2,0.4-0.2
		c0.2,0,0.3,0,0.5,0.1c4.4,1.8,9.2,3,13.8,1.1c4.2-1.7,6.9-6.2,8.6-10.2c2-5,3.1-10.3,5.3-15.2c0.7-1.6,1.8-3.1,2.6-4.7
		c3.5-6.6,6.5-13.4,9.5-20.2c1.5-3.5,2.9-7,4.4-10.5c6.9-17.1,10.4-25.6,13.3-36.4c2.9-10.8,4.4-20.1,5.2-26.6
		C230.3,247.1,218,226.4,209.6,211.7z M88.2,158.6c-2.4-2.6-3.7-6.9-1.4-9.5c1.8-2,4.8-2.2,7.5-2.1c13.4,0.4,26.3,3.9,38.9,8
		c6.4,2.1,12.6,5.4,18.7,8.4c0.7,0.4,1.4,0.7,2.1,1.2c0.2,0.2,0.5,0.4,0.5,0.7c0,0.4-0.3,0.7-0.6,0.8c-0.4,0.1-0.7,0-1.1-0.1
		c-6.4-1.4-12.2-2.7-18.6-3.3c-6.9-0.7-13.9-0.6-20.8,0.1C104.8,163.7,95,165.8,88.2,158.6z M153.8,268.7
		c-5.5-2.5-10.8-6.9-12.9-12.8c-1-2.9-0.9-6.2,0.1-9c0.6-1.7,3.8-4.6,1.8-6.5c-3.1-2.8-5.7-6.8-6.8-9.4c-1.3-3.2-1.4-6.4-0.1-9.5
		c1.2-2.7,5.3-4.9,4.9-8.4c-0.1-1.1-0.8-1.9-1.8-2.4c-6.8-3.5-13.1-7.9-18.6-13.1c-9.2-8.6-23.4-24.9-1.4-27.4
		c22.2-2.6,45.2,4,62.8,17.7c19.5,15.1,28.5,39.7,41.9,60c2.9,4.3,5.9,8.6,8.4,13.1c1.6,2.8,3.7,6,3.7,9.4
		c-0.1,5.4-7.5,6.4-11.5,6.6c-14.1,0.7-28.8,1.2-42.8-0.7C172,275,162.6,272.7,153.8,268.7z M147.1,361.4c0-1.8,1.6-3.3,3.6-3.3
		c2,0,3.6,1.5,3.6,3.3c0,1.8-1.6,3.3-3.6,3.3C148.7,364.7,147.1,363.2,147.1,361.4z M157.8,384.8c-3.2,0-5.7-2.7-5.7-5.9
		c0-3.3,2.6-5.9,5.7-5.9c3.2,0,5.7,2.7,5.7,5.9C163.5,382.2,161,384.8,157.8,384.8z M172.1,393.1c-2.5,0-4.5-1.8-4.5-4.1
		c0-2.3,2-4.1,4.5-4.1c2.5,0,4.5,1.8,4.5,4.1C176.6,391.2,174.6,393.1,172.1,393.1z M169.4,366.9c-5.3,0.3-11.7-2.6-13.2-7.1
		c-1.4-4.2,1.4-9.2,10.2-17.8c-4.7,1.3-10.8,2.7-15.6,1c-4.1-1.5-4.8-6.3-5.4-10c-0.1-0.6-1.4-8.5,2.3-16.5
		c8.2-17.6,32.4-20.5,48.9-25.6c12.2-3.8,25.1-6.8,35.9-9.3c1.2-0.3,2.6,0.1,3.7,0.7s2,1.8,1.9,3.1c0,0.2-0.1,0.3-0.1,0.5
		c-0.2,0.5-0.5,1-0.7,1.5c-3,4.7-6.4,8.7-10,13c-9.3,11.1-18.8,22.2-27.7,33.7C181.3,357.5,178.1,366.4,169.4,366.9z M192.7,389.9
		c-4.9,0-8.9-3.8-8.9-8.5c0-4.7,4-8.5,8.9-8.5s8.9,3.8,8.9,8.5C201.6,386.1,197.6,389.9,192.7,389.9z M238.6,297.5
		c-0.6,6.2-4,12.9-6.3,18.7c-3.2,8.1-6.7,15.5-11,23.1c-4.2,7.4-8.4,15-14,21.5c-0.4,0.5-0.9,1-1.4,1.5c-3.9,4.3-12,10.3-17.9,5.8
		c-3.3-2.5-0.1-6.7,1.8-9.7c9.8-15.6,21.6-29.9,32.7-44.5c4.6-6.1,9.2-12.1,14-18c0.7-0.8,1.3-1.1,1.8-1
		C238.9,295.1,238.7,296.3,238.6,297.5z"/>
</g>
</svg>
