<?xml version="1.0" encoding="utf-8"?>
<!-- Generator: Adobe Illustrator 25.4.1, SVG Export Plug-In . SVG Version: 6.00 Build 0)  -->
<svg version="1.1" id="Layer_1" xmlns="http://www.w3.org/2000/svg" xmlns:xlink="http://www.w3.org/1999/xlink" x="0px" y="0px"
	 viewBox="0 0 506.8 527.1" style="enable-background:new 0 0 506.8 527.1;" xml:space="preserve">
<style type="text/css">
	.st0{fill:#D6D6D6;}
	.st1{fill:#FCFCFC;}
	.st2{fill:#2B3A45;}
</style>
<g id="Layer_2_00000046298401921342813910000012631100359573473419_">
	<g id="Layer_1-2">
		<path class="st0" d="M12.8,7.5c0.4,2.6-0.3,5.4-2.3,7.2c-3.6,3.2-6.8,6.8-10.3,10.1l5.9,473.1c0.1,10.8,8.8,19.5,19.6,19.7
			l448.1,9.5c0.1,0,0.1,0,0.2,0c11,0.1,20.1-8.7,20.2-19.8l5.2-500.4L12.8,7.5z"/>
		<path class="st1" d="M20,0.5L486.2,0c11,0,20,8.9,20,20l0.5,471.9c0,11-8.9,20-20,20l-466.1,0.5c-11,0-20-8.9-20-20L0,20.5
			C0,9.5,9,0.5,20,0.5z"/>
		<path class="st2" d="M244.9,255c0.6,1.8,3,2.6,5,3c-3.3,3.9-5.7,13.7-5.7,25.1c-0.1,5.9,0.6,11.8,2.1,17.5
			c-0.3,4.2-0.5,8.9-0.5,13.7c0,20.6,3.2,37.3,7.1,37.6l3-61.8l-3-44.2C247.9,246,243.8,251.8,244.9,255z"/>
		<path class="st2" d="M250.4,249.7l0.9-0.7c-6.5-8.2-10.2-16.4-10.9-24.2c-0.1-0.6-0.1-1.2-0.1-1.9c-0.2-3.2-0.6-6.4-1.1-9.6
			c-0.9-5.1-1.7-9.6-4.1-14.6c-2.2-4.5-5.2-8.5-8.8-11.8l-0.8,0.8c3.6,3.3,6.5,7.2,8.6,11.5c2.4,4.9,3.1,9.3,4,14.3
			c0.5,3.1,0.9,6.3,1.1,9.5c0.1,0.7,0.1,1.4,0.1,1.9C239.9,232.9,243.7,241.3,250.4,249.7z"/>
		<path class="st2" d="M224.6,188.1c1.4,1.3,2.9,2,3.4,1.4s-0.2-2-1.5-3.3s-2.9-2-3.4-1.4S223.2,186.7,224.6,188.1z"/>
		<path class="st2" d="M209.6,211.7c-6.1-10.8-13.4-24-28.2-37.1c-7.6-6.7-13.9-10.5-21.6-15c-36.5-21.7-63-22.4-70.4-22.3
			c-8.3,0-17.3,0.2-19.8,5.2c-2.9,5.8,3.6,16.2,16.2,26.9c2.7,5.1,5.9,9.9,9.5,14.4c8.6,10.6,17.6,16.5,15.9,21.4
			c-0.9,2.6-4.1,2.7-4,4.6c0.1,3.9,7.9,4.5,10.3,6c6.1,4.1,2.8,17,3.5,23.2c0.7,7.2,2.3,14.2,4.9,20.9c1.7,4.5,3.1,8.2,5.9,11.8
			c1.7,2.2,3.7,4.1,6,5.6c6.2,4,11.6,3.2,18.4,4.3c6.9,1.1,13.4,3.6,19.2,7.5c-6.2,1.4-12,3.8-17.3,7.3c-4.9,3.2-12.7,8.3-17.1,18.5
			c0,0-4.9,11.6-1.7,24.2c0.5,1.8,1,3.5,1.7,5.2c0.8,1.9,1.8,3.7,2.9,5.5c-3,4-4,9-2.9,13.9c1.1,4.2,4,7.2,7.3,9.8
			c-3.4,3.2-3.7,9.4-1.8,13.4c0.8,1.7,2.1,3.2,3.8,4.2c3.5,2,7.9,1.2,11.9,0.3c2.1,4.4,5.2,8,10.3,8.9c4.7,0.8,8.5-0.8,12.2-3.5
			c0.1-0.1,0.3-0.2,0.4-0.2c0.2,0,0.3,0,0.4,0.1c4.4,1.8,9.2,3,13.8,1.1c4.2-1.7,6.9-6.2,8.6-10.2c2-5,3.1-10.3,5.3-15.2
			c0.7-1.6,1.8-3.1,2.6-4.7c3.5-6.5,6.5-13.4,9.5-20.2c1.5-3.5,2.9-7,4.4-10.5c7-17,10.4-25.6,13.3-36.4c2.3-8.7,4.1-17.6,5.2-26.6
			C230.3,247.2,218,226.4,209.6,211.7z M88.2,158.7c-2.4-2.6-3.7-6.9-1.3-9.5c1.8-2,4.8-2.2,7.4-2.1c13.4,0.4,26.3,3.9,38.9,8
			c6.4,2.1,12.6,5.4,18.7,8.4c0.7,0.3,1.4,0.7,2.1,1.2c0.3,0.2,0.4,0.4,0.5,0.7c0,0.4-0.3,0.7-0.6,0.8c-0.4,0.1-0.7,0.1-1.1-0.1
			c-6.1-1.5-12.4-2.6-18.6-3.4c-6.9-0.7-13.9-0.7-20.8,0.1C104.8,163.8,95,165.8,88.2,158.7z M153.8,268.8
			c-5.4-2.5-10.8-6.9-12.9-12.8c-1-2.9-0.9-6.1,0.1-9c0.6-1.7,3.8-4.6,1.8-6.5c-2.9-2.7-5.2-5.9-6.8-9.4c-1.3-3-1.4-6.5-0.1-9.5
			c1.2-2.7,5.3-4.9,4.9-8.4c-0.1-1.1-0.8-2-1.8-2.4c-6.8-3.5-13.1-7.9-18.6-13.1c-9.2-8.7-23.4-24.9-1.4-27.4
			c22.4-2.4,44.9,3.9,62.8,17.7c19.6,15.1,28.5,39.7,41.9,60c2.9,4.3,5.9,8.6,8.4,13.1c1.6,2.8,3.7,6,3.7,9.4
			c-0.1,5.4-7.5,6.5-11.5,6.6c-14.1,0.7-28.8,1.2-42.8-0.7C171.9,275.2,162.6,272.6,153.8,268.8z M147.1,361.4
			c-0.1-2,1.3-3.7,3.3-3.8c2-0.1,3.7,1.3,3.8,3.3c0.1,2-1.3,3.7-3.3,3.8c-0.1,0-0.2,0-0.3,0C148.8,364.8,147.2,363.3,147.1,361.4z
			 M157.8,384.9c-3.3,0.1-6-2.5-6.1-5.7s2.5-6,5.7-6.1c3.3-0.1,6,2.5,6.1,5.7c0,0.1,0,0.1,0,0.2C163.6,382.2,161,384.8,157.8,384.9
			C157.8,384.9,157.8,384.9,157.8,384.9L157.8,384.9z M172.1,393.2c-2.3-0.2-4-2.2-3.8-4.5s2.2-4,4.5-3.8c2.1,0.2,3.8,2,3.8,4.1
			C176.5,391.4,174.5,393.3,172.1,393.2z M169.4,367c-5.3,0.3-11.6-2.6-13.2-7c-1.4-4.1,1.4-9.2,10.2-17.8c-4.7,1.3-10.8,2.7-15.6,1
			c-4.1-1.5-4.8-6.3-5.4-10c-0.8-5.6,0-11.4,2.3-16.5c8.2-17.6,32.4-20.6,48.9-25.6c12.2-3.8,25.1-6.8,35.9-9.3
			c1.3-0.2,2.6,0.1,3.7,0.7c1.2,0.6,1.9,1.8,1.9,3.1c0,0.2-0.1,0.3-0.1,0.5c-0.2,0.5-0.4,1-0.8,1.5c-3,4.6-6.4,8.9-10,13
			c-9.3,11.1-18.8,22.2-27.8,33.7C181.3,357.5,178.1,366.5,169.4,367z M192.7,390c-4.7-0.2-8.3-4.2-8.1-8.9c0.2-4.7,4.2-8.3,8.9-8.1
			c4.5,0.2,8.1,3.9,8.1,8.5C201.5,386.3,197.5,390,192.7,390L192.7,390z M238.6,297.6c-0.6,6.2-4,12.9-6.3,18.7
			c-3.1,7.9-6.8,15.7-11,23.1c-4.2,7.4-8.4,15-14,21.5c-0.4,0.5-0.9,1-1.4,1.5c-3.9,4.3-12,10.3-17.9,5.8c-3.3-2.5-0.1-6.7,1.8-9.7
			c9.8-15.6,21.6-29.9,32.7-44.5c4.6-6.1,9.1-12.1,14-18c0.7-0.8,1.3-1.1,1.8-1S238.7,296.4,238.6,297.6L238.6,297.6z"/>
		<path class="st2" d="M260.1,255c-0.6,1.8-3,2.6-5,3c3.3,3.9,5.7,13.7,5.7,25.1c0.1,5.9-0.6,11.8-2.1,17.5
			c0.3,4.2,0.5,8.9,0.5,13.7c0,20.6-3.2,37.3-7.1,37.6l-3-61.8l3-44.2C257,246,261.2,251.8,260.1,255z"/>
		<path class="st2" d="M254.6,249.7l-0.9-0.7c6.5-8.2,10.2-16.4,10.9-24.2c0.1-0.6,0.1-1.2,0.1-1.9c0.2-3.2,0.6-6.4,1.1-9.6
			c0.9-5.1,1.7-9.6,4.1-14.6c2.2-4.5,5.2-8.5,8.9-11.8l0.8,0.8c-3.6,3.3-6.5,7.2-8.6,11.5c-2.4,4.9-3.2,9.3-4,14.3
			c-0.5,3.1-0.9,6.3-1.1,9.5c0,0.7-0.1,1.4-0.1,1.9C265,232.9,261.3,241.3,254.6,249.7z"/>
		<path class="st2" d="M280.4,188.1c-1.4,1.3-2.9,2-3.4,1.4s0.2-2,1.5-3.3s2.9-2,3.4-1.4S281.8,186.7,280.4,188.1z"/>
		<path class="st2" d="M257,274.2c1.1,9,2.9,17.8,5.2,26.6c2.9,10.8,6.3,19.3,13.3,36.4c1.4,3.5,2.9,7,4.4,10.5
			c2.9,6.8,6,13.6,9.5,20.2c0.8,1.6,1.9,3.1,2.6,4.7c2.3,4.8,3.3,10.2,5.3,15.2c1.6,4,4.4,8.5,8.6,10.2c4.6,1.8,9.4,0.7,13.8-1.1
			c0.1-0.1,0.3-0.1,0.5-0.1c0.2,0,0.3,0.1,0.4,0.2c3.7,2.7,7.5,4.3,12.2,3.5c5.1-0.9,8.1-4.5,10.3-8.9c4,0.9,8.4,1.7,11.9-0.3
			c1.6-1,2.9-2.5,3.8-4.2c2-4,1.7-10.3-1.8-13.4c3.3-2.6,6.2-5.6,7.3-9.8c1.1-4.8,0.1-9.9-2.9-13.9c1.1-1.7,2.1-3.6,2.9-5.5
			c0.7-1.7,1.3-3.4,1.7-5.2c3.2-12.7-1.7-24.2-1.7-24.2c-4.4-10.2-12.1-15.3-17.1-18.5c-5.3-3.4-11.2-5.9-17.3-7.3
			c5.8-3.8,12.4-6.4,19.2-7.5c6.8-1,12.1-0.3,18.4-4.3c2.3-1.5,4.3-3.4,6-5.6c2.8-3.6,4.2-7.3,5.9-11.8c2.5-6.7,4.1-13.7,4.8-20.9
			c0.6-6.3-2.6-19.1,3.5-23.2c2.3-1.6,10.2-2.1,10.3-6c0-1.9-3.1-2.1-4-4.6c-1.7-4.9,7.3-10.8,15.9-21.4c3.6-4.5,6.8-9.3,9.5-14.4
			c12.5-10.7,19-21.1,16.2-26.9c-2.5-5-11.5-5.2-19.8-5.2c-7.5,0-33.9,0.7-70.4,22.3c-7.6,4.5-14,8.3-21.6,15
			c-14.8,13-22.1,26.3-28.2,37.1C287,226.4,274.6,247.2,257,274.2z M391.7,162.8c-6.9-0.8-13.9-0.8-20.8-0.1
			c-6.3,0.8-12.5,1.9-18.6,3.3c-0.4,0.1-0.7,0.1-1.1,0.1c-0.4-0.1-0.6-0.4-0.6-0.8c0.1-0.3,0.2-0.5,0.5-0.7c0.7-0.5,1.4-0.9,2.1-1.2
			c6.1-3,12.2-6.2,18.6-8.4c12.7-4.1,25.5-7.7,38.9-8c2.7-0.1,5.7,0.1,7.5,2.1c2.3,2.6,1.1,7-1.4,9.5
			C410,165.8,400.2,163.8,391.7,162.8z M323.5,276.3c-14,1.9-28.7,1.4-42.8,0.7c-4-0.2-11.4-1.3-11.5-6.6c-0.1-3.4,2-6.6,3.7-9.4
			c2.6-4.5,5.6-8.8,8.4-13.1c13.4-20.3,22.4-44.9,41.9-60c17.9-13.8,40.4-20.1,62.8-17.7c22,2.5,7.8,18.8-1.4,27.4
			c-5.6,5.2-11.8,9.7-18.6,13.1c-1,0.5-1.6,1.4-1.8,2.4c-0.4,3.4,3.7,5.7,4.9,8.4c1.3,3,1.3,6.5-0.1,9.5c-1.6,3.6-3.9,6.8-6.8,9.4
			c-2,1.9,1.2,4.7,1.8,6.5c1,2.9,1.1,6.1,0.1,9c-2.1,5.8-7.5,10.3-12.9,12.8C342.4,272.6,333,275.2,323.5,276.3z M354.3,364.8
			c-1.8-0.1-3.2-1.7-3.1-3.6c0.1-1.8,1.7-3.2,3.6-3.1c1.7,0.1,3.1,1.6,3.1,3.3C357.8,363.3,356.2,364.8,354.3,364.8z M341.4,379
			c0.1-3.2,2.8-5.6,5.9-5.5c3.2,0.1,5.6,2.8,5.5,5.9c-0.1,3.1-2.6,5.5-5.7,5.5C343.9,384.9,341.4,382.2,341.4,379
			C341.4,379,341.4,379,341.4,379z M328.3,389c-0.2-2.5,1.6-4.7,4.1-5c2.5-0.2,4.7,1.6,5,4.1c0.2,2.5-1.6,4.7-4.1,5
			c-0.1,0-0.3,0-0.4,0C330.5,393.2,328.5,391.4,328.3,389z M305.3,334c-8.9-11.5-18.4-22.5-27.8-33.7c-3.6-4.1-7-8.4-10-13
			c-0.3-0.4-0.6-0.9-0.8-1.5c-0.1-0.2-0.1-0.3-0.1-0.5c0-1.3,0.7-2.5,1.9-3.1c1.1-0.7,2.4-0.9,3.7-0.7c10.8,2.5,23.8,5.6,35.9,9.3
			c16.5,5.1,40.6,8,48.9,25.6c2.3,5.2,3.1,10.9,2.3,16.5c-0.7,3.7-1.3,8.5-5.4,10c-4.8,1.7-10.9,0.4-15.6-1
			c8.8,8.5,11.6,13.6,10.2,17.8c-1.5,4.5-7.9,7.3-13.2,7C326.8,366.5,323.7,357.5,305.3,334L305.3,334z M303.3,381.4
			c-0.2-4.9,3.5-9,8.4-9.3c4.9-0.2,9,3.5,9.3,8.4c0.2,4.9-3.5,9-8.4,9.3c-0.1,0-0.3,0-0.4,0C307.5,390,303.5,386.2,303.3,381.4
			L303.3,381.4z M266.7,295c0.5-0.1,1.1,0.1,1.8,1c4.8,5.9,9.4,12,14,18c11.1,14.6,22.9,28.9,32.7,44.5c1.9,3,5.1,7.2,1.8,9.7
			c-5.9,4.5-14-1.5-17.9-5.8c-0.5-0.5-0.9-1-1.4-1.5c-5.5-6.5-9.7-14.1-14-21.5c-4.2-7.4-7.9-15.1-11-23.1
			c-2.3-5.8-5.7-12.4-6.3-18.7C266.2,296.4,266.1,295.1,266.7,295z"/>
		<path class="st2" d="M209.6,211.7c-6.1-10.8-13.4-24-28.2-37.1c-7.6-6.7-13.9-10.5-21.6-15c-36.5-21.7-63-22.4-70.4-22.3
			c-8.3,0-17.3,0.2-19.8,5.2c-2.9,5.8,3.6,16.2,16.2,26.9c2.7,5.1,5.9,9.9,9.5,14.4c8.6,10.6,17.6,16.5,15.9,21.4
			c-0.9,2.6-4.1,2.7-4,4.6c0.1,3.9,7.9,4.5,10.3,6c6.1,4.1,2.8,17,3.5,23.2c0.7,7.2,2.3,14.2,4.9,20.9c1.7,4.5,3.1,8.2,5.9,11.8
			c1.7,2.2,3.7,4.1,6,5.6c6.2,4,11.6,3.2,18.4,4.3c6.9,1.1,13.4,3.6,19.2,7.5c-6.2,1.4-12,3.8-17.3,7.3c-4.9,3.2-12.7,8.3-17.1,18.5
			c0,0-4.9,11.6-1.7,24.2c0.5,1.8,1,3.5,1.7,5.2c0.8,1.9,1.8,3.7,2.9,5.5c-3,4-4,9-2.9,13.9c1.1,4.2,4,7.2,7.3,9.8
			c-3.4,3.2-3.7,9.4-1.8,13.4c0.8,1.7,2.1,3.2,3.8,4.2c3.5,2,7.9,1.2,11.9,0.3c2.1,4.4,5.2,8,10.3,8.9c4.7,0.8,8.5-0.8,12.2-3.5
			c0.1-0.1,0.3-0.2,0.4-0.2c0.2,0,0.3,0,0.4,0.1c4.4,1.8,9.2,3,13.8,1.1c4.2-1.7,6.9-6.2,8.6-10.2c2-5,3.1-10.3,5.3-15.2
			c0.7-1.6,1.8-3.1,2.6-4.7c3.5-6.5,6.5-13.4,9.5-20.2c1.5-3.5,2.9-7,4.4-10.5c7-17,10.4-25.6,13.3-36.4c2.3-8.7,4.1-17.6,5.2-26.6
			C230.3,247.2,218,226.4,209.6,211.7z M88.2,158.7c-2.4-2.6-3.7-6.9-1.3-9.5c1.8-2,4.8-2.2,7.4-2.1c13.4,0.4,26.3,3.9,38.9,8
			c6.4,2.1,12.6,5.4,18.7,8.4c0.7,0.3,1.4,0.7,2.1,1.2c0.3,0.2,0.4,0.4,0.5,0.7c0,0.4-0.3,0.7-0.6,0.8c-0.4,0.1-0.7,0.1-1.1-0.1
			c-6.1-1.5-12.4-2.6-18.6-3.4c-6.9-0.7-13.9-0.7-20.8,0.1C104.8,163.8,95,165.8,88.2,158.7z M153.8,268.8
			c-5.4-2.5-10.8-6.9-12.9-12.8c-1-2.9-0.9-6.1,0.1-9c0.6-1.7,3.8-4.6,1.8-6.5c-2.9-2.7-5.2-5.9-6.8-9.4c-1.3-3-1.4-6.5-0.1-9.5
			c1.2-2.7,5.3-4.9,4.9-8.4c-0.1-1.1-0.8-2-1.8-2.4c-6.8-3.5-13.1-7.9-18.6-13.1c-9.2-8.7-23.4-24.9-1.4-27.4
			c22.4-2.4,44.9,3.9,62.8,17.7c19.6,15.1,28.5,39.7,41.9,60c2.9,4.3,5.9,8.6,8.4,13.1c1.6,2.8,3.7,6,3.7,9.4
			c-0.1,5.4-7.5,6.5-11.5,6.6c-14.1,0.7-28.8,1.2-42.8-0.7C171.9,275.2,162.6,272.6,153.8,268.8z M147.1,361.4
			c-0.1-2,1.3-3.7,3.3-3.8c2-0.1,3.7,1.3,3.8,3.3c0.1,2-1.3,3.7-3.3,3.8c-0.1,0-0.2,0-0.3,0C148.8,364.8,147.2,363.3,147.1,361.4z
			 M157.8,384.9c-3.3,0.1-6-2.5-6.1-5.7s2.5-6,5.7-6.1c3.3-0.1,6,2.5,6.1,5.7c0,0.1,0,0.1,0,0.2C163.6,382.2,161,384.8,157.8,384.9
			C157.8,384.9,157.8,384.9,157.8,384.9L157.8,384.9z M172.1,393.2c-2.3-0.2-4-2.2-3.8-4.5s2.2-4,4.5-3.8c2.1,0.2,3.8,2,3.8,4.1
			C176.5,391.4,174.5,393.3,172.1,393.2z M169.4,367c-5.3,0.3-11.6-2.6-13.2-7c-1.4-4.1,1.4-9.2,10.2-17.8c-4.7,1.3-10.8,2.7-15.6,1
			c-4.1-1.5-4.8-6.3-5.4-10c-0.8-5.6,0-11.4,2.3-16.5c8.2-17.6,32.4-20.6,48.9-25.6c12.2-3.8,25.1-6.8,35.9-9.3
			c1.3-0.2,2.6,0.1,3.7,0.7c1.2,0.6,1.9,1.8,1.9,3.1c0,0.2-0.1,0.3-0.1,0.5c-0.2,0.5-0.4,1-0.8,1.5c-3,4.6-6.4,8.9-10,13
			c-9.3,11.1-18.8,22.2-27.8,33.7C181.3,357.5,178.1,366.5,169.4,367z M192.7,390c-4.7-0.2-8.3-4.2-8.1-8.9c0.2-4.7,4.2-8.3,8.9-8.1
			c4.5,0.2,8.1,3.9,8.1,8.5C201.5,386.3,197.5,390,192.7,390L192.7,390z M238.6,297.6c-0.6,6.2-4,12.9-6.3,18.7
			c-3.1,7.9-6.8,15.7-11,23.1c-4.2,7.4-8.4,15-14,21.5c-0.4,0.5-0.9,1-1.4,1.5c-3.9,4.3-12,10.3-17.9,5.8c-3.3-2.5-0.1-6.7,1.8-9.7
			c9.8-15.6,21.6-29.9,32.7-44.5c4.6-6.1,9.1-12.1,14-18c0.7-0.8,1.3-1.1,1.8-1S238.7,296.4,238.6,297.6L238.6,297.6z"/>
	</g>
</g>
</svg>
