<?xml version="1.0" encoding="utf-8"?>
<!-- Generator: Adobe Illustrator 25.4.1, SVG Export Plug-In . SVG Version: 6.00 Build 0)  -->
<svg version="1.1" id="Layer_1" xmlns="http://www.w3.org/2000/svg" xmlns:xlink="http://www.w3.org/1999/xlink" x="0px" y="0px"
	 viewBox="0 0 506.7 527.1" style="enable-background:new 0 0 506.7 527.1;" xml:space="preserve">
<style type="text/css">
	.st0{fill:#D6D6D6;}
	.st1{fill:#FCFCFC;}
	.st2{fill:#2B3A45;}
</style>
<g id="Layer_2_00000122706154170857894510000006785141995902912675_">
	<g id="Layer_1-2">
		<path class="st0" d="M473.8,527.1l-448.1-9.5c-10.8-0.2-19.4-9-19.6-19.7L0.2,27.7C0.1,16.7,8.9,7.6,20,7.5c0.1,0,0.2,0,0.3,0
			l459.1-0.5c11,0,20,9,20,20c0,0.1,0,0.1,0,0.2l-5,480.1c-0.1,11-9.2,19.9-20.2,19.8C474,527.1,473.9,527.1,473.8,527.1z"/>
		<path class="st1" d="M20,0.5L486.2,0c11,0,20,8.9,20,20l0.5,471.9c0,11-8.9,20-20,20l-466.1,0.5c-11,0-20-8.9-20-20L0,20.5
			C0,9.5,9,0.5,20,0.5z"/>
	</g>
	<path class="st2" d="M219.5,207.2c-15.9-30-21.6-37.2-26.3-42.6c-8.2-9.3-34.1-38.6-70.4-39c-16.2-0.2-42.5,5.2-45.2,19.7
		c-1.3,6.6,2.7,12.9,6.7,17.7c3,3.6,10.8,7.5,10.2,12.4c-0.2,1.8-0.9,3.6-0.7,5.4c0.2,2.1,1.3,4,2.6,5.7c3,3.9,6.8,7.1,11,9.5
		c3.3,1.8,7.6,4.2,7.1,7.9c-0.2,1.4-1.1,2.7-1.3,4.1c-0.3,2.7,2.1,4.7,3.9,6.7c5.4,5.7,6.2,12.3,4.7,19.5
		c-1.6,7.3-0.3,15.9,2.5,22.7c1.7,4.1,3,7.3,6.3,10.2c4.1,3.6,7.9,3.8,8.7,6.9c0.9,3.6-3.8,6.2-2.9,8.1c1,2.1,6.6,0.5,8.2,0.3
		c3.1-0.5,6.3-1.5,9.4-1c4,0.6,1.7,4.9,4.7,7c0.8,0.6,1.9,0.8,2.8,0.9c2.9,0.4,5.9,0.2,8.7-0.5c1.1-0.3,2.1-0.6,3.2-0.8
		c1.9-0.4,4-0.6,6-0.4c0.4,0,0.8,0.1,0.9,0.4c0.2,0.4-8.6,4.6-9.3,4.9c-3.9,1.9-8,3.7-11.5,6.3c-12.6,9.6-17,25.3-17.6,40.5
		c-0.2,5.4-0.5,10.8,1,16.1c0.8,3,2.1,5.8,3.9,8.3c2.1,3,5.9,5.4,6.2,9.3c0.2,2.1-0.8,4-0.6,6c0.2,2.1,1.2,4.6,2.5,6.2
		c1.3,1.6,3.8,2,4.9,3.3c1.2,1.4,0.2,3.2,2,4.4c1.8,1.1,3.7-0.3,5.3,1.2c1.1,1.1,0.8,2.4,2.6,2.9c1.5,0.4,3.3-1.5,4.3-1.1
		c0.8,0.3,0.7,2.5,0.6,4.2c-0.4,6.1,1.9,4.7,5.4,0.8c3.9-4.2,9.2-5.7,13.1-6.2c1.6,0.2,4.6,0.3,7.9-0.8c7.4-2.4,9.9-9.2,13.2-15.6
		c7.2-14,13.9-28.3,19.8-42.9c6.8-16.7,10.2-25,13-35.6c2.8-10.6,4.3-19.6,5.1-26C244.8,257.7,234,234.6,219.5,207.2z M115.2,130.3
		c4.7-0.9,9.2,2.2,10.1,6.9s-2.2,9.2-6.9,10.1c-4.7,0.9-9.2-2.2-10.1-6.9S110.5,131.1,115.2,130.3z M90.7,143.9
		c-0.5-2.7,1.3-5.3,4-5.8c2.7-0.5,5.3,1.3,5.8,4c0.5,2.7-1.3,5.3-4,5.8C93.8,148.5,91.2,146.7,90.7,143.9z M171.6,272.1
		c-5.7-1.5-13.8-2-21.1-3.6c-6.2-1.4-11.7-3.6-14.7-8c-3.7-5.4-5.5-12.1-5-18.7c0.3-4.3,1.5-8.4,2-12.6c1-9.4-1.9-18.8-6.6-27
		c-2.6-4.6-5.8-9-9.2-13.1c-2.5-3-5.2-5.9-8-8.6c-5.2-5.2-9.8-10.5-10.9-18.2c-2.6-17.3,24.6-9.6,31.8-4c-1-0.8-0.5-7.1,0-8.4
		c1-2.8,4-5.3,6.6-6.6c6.6-3.5,14.1-1,17.7,0.2c15,5.2,27.2,16.9,37.5,31c8.3,11.3,15.1,23.6,21.8,35.9c5.1,9.4,10.2,18.9,14.6,28.7
		c5,11,17.2,29.4-1,34.3C207.9,278.7,190.4,277,171.6,272.1z M167.1,384.3c-2.9,0-5.3-2.4-5.3-5.3s2.4-5.3,5.3-5.3s5.3,2.4,5.3,5.3
		S170.1,384.3,167.1,384.3z M177.4,391.5c-2.3,0-4.1-1.8-4.1-4.1s1.8-4.1,4.1-4.1c2.3,0,4.1,1.8,4.1,4.1S179.7,391.5,177.4,391.5z
		 M177.1,369.2c-4.7,1.7-12.4-0.1-14.7-5.1c-2.3-5.2,3.1-11,6.1-14.6c1.4-1.7,2.9-3.3,4.4-4.8c4,5.4,9.8,9.3,16.6,10.7
		c-1.5,2.6-2.9,5.3-4.8,7.8C182.7,365.8,180.1,368.1,177.1,369.2z M171.5,328.4c0-13,10.6-23.6,23.6-23.6s23.6,10.6,23.6,23.6
		S208.1,352,195.1,352S171.5,341.4,171.5,328.4z M239.1,298.3c-5.3,19.8-12.8,39.1-22.5,57.2c-4.3,8.1-11.1,17.2-20.3,16.3
		c-2-0.2-4.1-1-5.4-2.6c-3-3.7-0.2-9.2,2.5-13.1c14.4,0.6,28.2-11.8,29.1-26.2c0.9-14.4-11.5-28.4-25.9-29.2
		c-14.4-0.8-28.3,11.9-28.6,26.3c-0.2,7.7,2.5,16.8-2.8,22.4c-3.6,3.7-10.1,3.8-13.8,0.4c-5.2-4.9-3.2-13.9-1.8-20
		c1.8-7.6,5.3-15.5,10.5-21.3c5.4-6.1,12.8-9.5,20.2-12.6c15.1-6.2,30.7-12.2,47-12.7c4.9-0.1,10.8,0.9,12.6,5.4
		c1,2.5,0.4,5.4-0.3,8C239.4,297.2,239.3,297.8,239.1,298.3z"/>
	<path class="st2" d="M284,179.7c-0.5-0.5-2,0.1-3.3,1.4c-0.9,0.9-1.5,1.8-1.6,2.5c-2.8,2.9-5,6.2-6.7,9.7c-2.4,5-3.2,9.3-4,14.3
		c-0.7,4.2-0.9,7.2-1.1,9.4c0,0.7-0.1,1.3-0.1,1.9c-0.6,7-3.7,14.3-9.1,21.6c-1-0.5-2-0.8-3.1-0.9v0c0,0-0.1,0-0.1,0
		c0,0-0.1,0-0.1,0l0,0c-1.1,0-2.2,0.4-3.1,0.9c-5.4-7.4-8.4-14.6-9.1-21.6c-0.1-0.6-0.1-1.2-0.1-1.9c-0.2-2.2-0.4-5.2-1.1-9.4
		c-0.9-5-1.6-9.3-4-14.3c-1.7-3.5-4-6.7-6.7-9.7c-0.1-0.7-0.7-1.6-1.6-2.5c-1.3-1.3-2.8-1.9-3.3-1.4c-0.5,0.5,0.2,2,1.5,3.3
		c1,1,2.1,1.6,2.8,1.6c2.6,2.8,4.8,5.9,6.4,9.2c2.3,4.8,3.1,9.1,3.9,14c0.7,4.1,0.9,7.1,1.1,9.3c0,0.7,0.1,1.3,0.1,1.9
		c0.7,7.2,3.8,14.6,9.2,22.1c-2.7,1.9-4.4,5.3-3.7,7.4c0.6,1.8,2.9,2.6,4.9,2.9c-3.3,3.8-5.6,13.4-5.6,24.6c0,6.6,0.8,12.5,2.1,17.2
		c-0.3,4.2-0.5,8.7-0.5,13.4c0,19.8,3,36,6.8,36.7l0,0c0,0,0.1,0,0.1,0c0,0,0.1,0,0.1,0v0c3.8-0.7,6.8-16.9,6.8-36.7
		c0-4.7-0.2-9.2-0.5-13.4c1.3-4.6,2.1-10.6,2.1-17.2c0-11.2-2.3-20.8-5.6-24.6c2-0.4,4.3-1.1,4.9-2.9c0.8-2.1-0.9-5.5-3.7-7.4
		c5.5-7.5,8.6-14.9,9.2-22.1c0.1-0.6,0.1-1.2,0.1-1.9c0.1-2.2,0.4-5.1,1.1-9.3c0.9-4.9,1.6-9.2,3.9-14c1.6-3.3,3.8-6.4,6.4-9.2
		c0.7,0,1.8-0.6,2.8-1.6C283.9,181.7,284.5,180.2,284,179.7z"/>
	<path class="st2" d="M257.8,274.1c0.8,6.3,2.3,15.4,5.1,26c2.8,10.6,6.2,18.9,13,35.6c5.9,14.6,12.6,28.9,19.8,42.9
		c3.3,6.4,5.8,13.2,13.2,15.6c3.4,1.1,6.3,1,7.9,0.8c3.9,0.5,9.2,2,13.1,6.2c3.5,3.8,5.8,5.3,5.4-0.8c-0.1-1.7-0.3-3.8,0.6-4.2
		c1-0.4,2.9,1.5,4.3,1.1c1.8-0.5,1.5-1.8,2.6-2.9c1.6-1.5,3.5,0,5.3-1.2c1.8-1.1,0.8-3,2-4.4c1.1-1.3,3.6-1.7,4.9-3.3
		c1.3-1.6,2.3-4.1,2.5-6.2c0.2-2.1-0.8-3.9-0.6-6c0.3-3.9,4.1-6.3,6.2-9.3c1.8-2.5,3.1-5.3,3.9-8.3c1.5-5.3,1.2-10.7,1-16.1
		c-0.6-15.2-5-30.9-17.6-40.5c-3.5-2.6-7.6-4.4-11.5-6.3c-0.7-0.3-9.5-4.5-9.3-4.9c0.2-0.3,0.6-0.4,0.9-0.4c2-0.2,4,0,6,0.4
		c1.1,0.2,2.1,0.6,3.2,0.8c2.8,0.7,5.8,0.9,8.7,0.5c1-0.1,2-0.3,2.8-0.9c3-2,0.7-6.4,4.7-7c3.1-0.5,6.3,0.5,9.4,1
		c1.6,0.2,7.2,1.9,8.2-0.3c0.9-1.9-3.8-4.5-2.9-8.1c0.7-3.1,4.6-3.3,8.7-6.9c3.3-2.9,4.6-6.2,6.3-10.2c2.8-6.8,4-15.4,2.5-22.7
		c-1.6-7.2-0.7-13.7,4.7-19.5c1.8-2,4.2-4,3.9-6.7c-0.1-1.4-1.1-2.7-1.3-4.1c-0.5-3.8,3.8-6.1,7.1-7.9c4.3-2.3,8.1-5.6,11-9.5
		c1.3-1.7,2.4-3.6,2.6-5.7c0.1-1.8-0.5-3.6-0.7-5.4c-0.6-4.9,7.2-8.8,10.2-12.4c4.1-4.8,8-11.1,6.7-17.7
		c-2.7-14.4-29-19.9-45.2-19.7c-36.3,0.4-62.2,29.7-70.4,39c-4.7,5.3-10.3,12.6-26.3,42.6C276,234.6,265.2,257.7,257.8,274.1z
		 M401.7,140.3c-0.9,4.7-5.4,7.8-10.1,6.9c-4.7-0.9-7.8-5.4-6.9-10.1s5.4-7.8,10.1-6.9C399.5,131.1,402.6,135.6,401.7,140.3z
		 M413.5,148c-2.7-0.5-4.5-3.1-4-5.8c0.5-2.7,3.1-4.5,5.8-4c2.7,0.5,4.5,3.1,4,5.8S416.2,148.5,413.5,148z M282.9,273.5
		c-18.2-4.9-6-23.3-1-34.3c4.4-9.8,9.5-19.3,14.6-28.7c6.6-12.3,13.5-24.6,21.8-35.9c10.3-14,22.4-25.8,37.5-31
		c3.6-1.2,11.1-3.7,17.7-0.2c2.6,1.3,5.6,3.8,6.6,6.6c0.5,1.3,1,7.7,0,8.4c7.2-5.6,34.4-13.3,31.8,4c-1.1,7.7-5.7,13-10.9,18.2
		c-2.8,2.7-5.4,5.6-8,8.6c-3.4,4.1-6.6,8.5-9.2,13.1c-4.7,8.2-7.6,17.6-6.6,27c0.4,4.2,1.7,8.4,2,12.6c0.5,6.5-1.3,13.2-5,18.7
		c-3,4.4-8.6,6.6-14.7,8c-7.2,1.6-15.3,2.1-21.1,3.6C319.6,277,302.1,278.7,282.9,273.5z M337.5,379c0-2.9,2.4-5.3,5.3-5.3
		s5.3,2.4,5.3,5.3s-2.4,5.3-5.3,5.3S337.5,381.9,337.5,379z M328.5,387.4c0-2.3,1.8-4.1,4.1-4.1c2.3,0,4.1,1.8,4.1,4.1
		s-1.8,4.1-4.1,4.1C330.3,391.5,328.5,389.7,328.5,387.4z M325.3,363.2c-1.8-2.4-3.3-5.1-4.8-7.8c6.8-1.4,12.7-5.3,16.6-10.7
		c1.5,1.6,3,3.2,4.4,4.8c3,3.6,8.4,9.4,6.1,14.6c-2.2,5-9.9,6.8-14.7,5.1C329.9,368.1,327.3,365.8,325.3,363.2z M314.9,352
		c-13,0-23.6-10.6-23.6-23.6s10.6-23.6,23.6-23.6s23.6,10.6,23.6,23.6S327.9,352,314.9,352z M270.4,296.7c-0.7-2.6-1.3-5.5-0.3-8
		c1.8-4.5,7.7-5.5,12.6-5.4c16.3,0.5,31.9,6.5,47,12.7c7.4,3,14.7,6.5,20.2,12.6c5.3,5.9,8.7,13.7,10.5,21.3
		c1.4,6.1,3.5,15.1-1.8,20c-3.7,3.5-10.3,3.3-13.8-0.4c-5.4-5.6-2.6-14.6-2.8-22.4c-0.4-14.4-14.2-27.1-28.6-26.3
		c-14.4,0.8-26.8,14.7-25.9,29.2s14.6,26.8,29.1,26.2c2.8,3.9,5.5,9.4,2.5,13.1c-1.3,1.6-3.4,2.4-5.4,2.6c-9.2,0.9-16-8.2-20.3-16.3
		c-9.6-18.1-17.2-37.4-22.5-57.2C270.7,297.8,270.6,297.2,270.4,296.7z"/>
</g>
</svg>
