<svg xmlns="http://www.w3.org/2000/svg" viewBox="0 0 506.76 527.07"><g id="Layer_2" data-name="Layer 2"><g id="Layer_1-2" data-name="Layer 1"><path d="M473.86,527.06,25.71,517.55A20,20,0,0,1,6.13,497.81L0,7.47l499.52-.56-5.24,500.37A20,20,0,0,1,473.86,527.06Z" fill="#d6d6d6"/><rect x="0.31" y="0.26" width="506.15" height="511.88" rx="20" transform="translate(-0.29 0.28) rotate(-0.06)" fill="#fcfcfc"/><path d="M244.88,255c.65,1.82,3,2.63,5,3-3.32,3.86-5.69,13.66-5.69,25.14a66.51,66.51,0,0,0,2.14,17.54c-.32,4.24-.49,8.86-.49,13.69,0,20.6,3.17,37.32,7.1,37.57l3-61.78-3-44.18C247.9,246,243.76,251.8,244.88,255Z" fill="#2b3a45"/><path d="M250.35,249.69l.89-.7c-6.53-8.25-10.2-16.41-10.93-24.24-.05-.57-.09-1.2-.14-1.91a88.24,88.24,0,0,0-1.11-9.56c-.89-5.14-1.66-9.56-4.13-14.64a39.92,39.92,0,0,0-8.84-11.84l-.77.82a38.8,38.8,0,0,1,8.6,11.51c2.39,4.94,3.15,9.29,4,14.33a83,83,0,0,1,1.09,9.46c.05.71.1,1.35.15,1.93C239.94,232.91,243.69,241.26,250.35,249.69Z" fill="#2b3a45"/><path d="M224.56,188.06c1.35,1.32,2.86,2,3.37,1.45s-.18-2-1.53-3.33-2.86-2-3.37-1.45S223.21,186.74,224.56,188.06Z" fill="#2b3a45"/><path d="M209.61,211.74c-6.13-10.76-13.4-24-28.21-37.06-7.59-6.69-13.94-10.5-21.55-15-36.52-21.66-63-22.36-70.43-22.32-8.32,0-17.32.17-19.83,5.19-2.87,5.75,3.63,16.18,16.17,26.85a87.52,87.52,0,0,0,9.53,14.43c8.58,10.55,17.59,16.51,15.87,21.36-.91,2.57-4.08,2.71-4,4.62.09,3.94,7.94,4.46,10.29,6,6.08,4.1,2.85,17,3.5,23.25A82.31,82.31,0,0,0,125.82,260c1.74,4.52,3.14,8.2,5.93,11.83a23,23,0,0,0,6,5.56c6.2,4,11.59,3.25,18.35,4.26a48.76,48.76,0,0,1,19.21,7.47A53.56,53.56,0,0,0,158,296.38c-4.9,3.19-12.7,8.27-17.06,18.49,0,0-4.93,11.58-1.73,24.25a41.41,41.41,0,0,0,1.73,5.2,36.84,36.84,0,0,0,2.89,5.48,16.79,16.79,0,0,0-2.89,13.86c1.09,4.19,4,7.16,7.32,9.76-3.45,3.18-3.74,9.43-1.75,13.44a9.88,9.88,0,0,0,3.75,4.19c3.5,2,7.9,1.23,11.86.32,2.11,4.39,5.18,8,10.26,8.87,4.71.83,8.53-.76,12.21-3.47a1,1,0,0,1,.44-.21.81.81,0,0,1,.45.11c4.38,1.81,9.17,3,13.76,1.13,4.22-1.68,6.94-6.17,8.57-10.21,2-5,3.07-10.33,5.33-15.16.74-1.6,1.76-3.12,2.59-4.68,3.51-6.55,6.54-13.35,9.47-20.18q2.23-5.22,4.36-10.47c7-17.05,10.42-25.58,13.28-36.37a205,205,0,0,0,5.2-26.56C230.32,247.2,218,226.44,209.61,211.74ZM88.17,158.68c-2.42-2.56-3.69-6.89-1.35-9.52,1.77-2,4.78-2.18,7.45-2.11,13.4.35,26.27,3.88,38.93,8,6.41,2.1,12.57,5.37,18.66,8.35a13.91,13.91,0,0,1,2.09,1.19,1.12,1.12,0,0,1,.51.68.81.81,0,0,1-.63.79,2.41,2.41,0,0,1-1.1-.05,169.57,169.57,0,0,0-18.63-3.35,97.72,97.72,0,0,0-20.8.12C104.76,163.75,95,165.84,88.17,158.68ZM153.8,268.77c-5.45-2.47-10.84-6.93-12.94-12.75a13.87,13.87,0,0,1,.1-9c.61-1.73,3.8-4.6,1.79-6.47a29.7,29.7,0,0,1-6.77-9.45,12,12,0,0,1-.08-9.5c1.2-2.68,5.27-4.92,4.91-8.36a3.14,3.14,0,0,0-1.76-2.43,82.44,82.44,0,0,1-18.62-13.15C111.24,189,97,172.78,119,170.25a87.43,87.43,0,0,1,62.8,17.69c19.55,15.13,28.52,39.71,41.94,60,2.86,4.33,5.85,8.59,8.44,13.1,1.62,2.82,3.72,6,3.66,9.4-.1,5.39-7.5,6.45-11.52,6.65-14.1.69-28.8,1.16-42.82-.73A98.22,98.22,0,0,1,153.8,268.77Zm-6.67,92.67a3.57,3.57,0,1,1,3.56,3.32A3.45,3.45,0,0,1,147.13,361.44Zm10.66,23.46a5.94,5.94,0,1,1,5.74-5.94A5.84,5.84,0,0,1,157.79,384.9Zm14.29,8.26a4.15,4.15,0,1,1,4.53-4.13A4.35,4.35,0,0,1,172.08,393.16ZM169.39,367c-5.3.29-11.65-2.59-13.19-7.05-1.44-4.15,1.44-9.23,10.22-17.77-4.69,1.34-10.77,2.69-15.56,1-4.13-1.48-4.77-6.28-5.43-10a30,30,0,0,1,2.34-16.55C156,299,180.16,296.06,196.64,291c12.17-3.75,25.1-6.81,35.92-9.32a5.63,5.63,0,0,1,3.74.72,3.26,3.26,0,0,1,1.88,3.07,2.77,2.77,0,0,1-.1.5,6.88,6.88,0,0,1-.75,1.45,119.39,119.39,0,0,1-10,13c-9.31,11.13-18.82,22.22-27.75,33.67C181.27,357.53,178.15,366.5,169.39,367Zm23.33,22.95a8.46,8.46,0,1,1,8.86-8.45A8.66,8.66,0,0,1,192.72,389.93Zm45.87-92.37c-.59,6.24-4,12.86-6.31,18.67a172.32,172.32,0,0,1-11,23.06c-4.24,7.41-8.42,15-14,21.53-.44.52-.89,1-1.35,1.55-3.9,4.29-12,10.31-17.91,5.83-3.32-2.53-.13-6.67,1.77-9.71,9.76-15.58,21.56-29.9,32.7-44.52,4.61-6.06,9.15-12.13,14-18,.68-.82,1.31-1.09,1.8-1S238.71,296.35,238.59,297.56Z" fill="#2b3a45"/><path d="M260.07,255c-.65,1.82-3,2.63-5,3,3.33,3.86,5.69,13.66,5.69,25.14a66.51,66.51,0,0,1-2.14,17.54c.32,4.24.5,8.86.5,13.69,0,20.6-3.17,37.32-7.1,37.57l-3-61.78,3-44.18C257.05,246,261.19,251.8,260.07,255Z" fill="#2b3a45"/><path d="M254.6,249.69l-.88-.7c6.52-8.25,10.2-16.41,10.92-24.24.06-.57.1-1.2.15-1.91a83.38,83.38,0,0,1,1.11-9.56c.89-5.14,1.66-9.56,4.12-14.64a40,40,0,0,1,8.85-11.84l.76.82A38.77,38.77,0,0,0,271,199.13c-2.4,4.94-3.16,9.29-4,14.33a83.49,83.49,0,0,0-1.1,9.46c-.05.71-.09,1.35-.15,1.93C265,232.91,261.26,241.26,254.6,249.69Z" fill="#2b3a45"/><path d="M280.39,188.06c-1.35,1.32-2.85,2-3.36,1.45s.18-2,1.53-3.33,2.86-2,3.36-1.45S281.75,186.74,280.39,188.06Z" fill="#2b3a45"/><path d="M257,274.17a204.69,204.69,0,0,0,5.19,26.56c2.87,10.79,6.34,19.32,13.28,36.37q2.15,5.25,4.37,10.47c2.92,6.83,6,13.63,9.46,20.18.84,1.56,1.85,3.08,2.6,4.68,2.26,4.83,3.32,10.2,5.32,15.16,1.63,4,4.36,8.53,8.57,10.21,4.6,1.83,9.38.68,13.76-1.13a.85.85,0,0,1,.46-.11,1,1,0,0,1,.43.21c3.69,2.71,7.51,4.3,12.22,3.47,5.08-.85,8.15-4.48,10.26-8.87,3.95.91,8.36,1.72,11.86-.32a9.88,9.88,0,0,0,3.75-4.19c2-4,1.69-10.26-1.75-13.44,3.3-2.6,6.22-5.57,7.31-9.76a16.75,16.75,0,0,0-2.89-13.86,35.06,35.06,0,0,0,2.89-5.48,41.41,41.41,0,0,0,1.73-5.2c3.2-12.67-1.73-24.25-1.73-24.25-4.35-10.22-12.15-15.3-17.06-18.49a53.47,53.47,0,0,0-17.32-7.31,48.79,48.79,0,0,1,19.22-7.47c6.75-1,12.15-.31,18.35-4.26a23.15,23.15,0,0,0,5.95-5.56c2.79-3.63,4.2-7.31,5.93-11.83A81.89,81.89,0,0,0,384,239.09c.65-6.29-2.58-19.15,3.51-23.25,2.34-1.58,10.2-2.1,10.28-6,0-1.91-3.13-2.05-4-4.62-1.72-4.85,7.29-10.81,15.88-21.36a86.69,86.69,0,0,0,9.52-14.43c12.54-10.67,19-21.1,16.17-26.85-2.51-5-11.5-5.16-19.82-5.19-7.45,0-33.91.66-70.43,22.32-7.61,4.51-14,8.32-21.56,15-14.81,13-22.07,26.3-28.21,37.06C287,226.44,274.63,247.2,257,274.17ZM391.66,162.81a97.72,97.72,0,0,0-20.8-.12A169.75,169.75,0,0,0,352.22,166a2.37,2.37,0,0,1-1.09.05.79.79,0,0,1-.63-.79,1,1,0,0,1,.51-.68,13.43,13.43,0,0,1,2.09-1.19c6.08-3,12.24-6.25,18.65-8.35,12.66-4.15,25.53-7.68,38.94-8,2.67-.07,5.68.11,7.45,2.11,2.34,2.63,1.07,7-1.36,9.52C410,165.84,400.19,163.75,391.66,162.81ZM323.45,276.34c-14,1.89-28.71,1.42-42.81.73-4-.2-11.43-1.26-11.53-6.65-.06-3.39,2.05-6.58,3.67-9.4,2.59-4.51,5.57-8.77,8.44-13.1,13.41-20.27,22.39-44.85,41.93-60A87.46,87.46,0,0,1,386,170.25c22,2.53,7.76,18.77-1.43,27.39a82.28,82.28,0,0,1-18.63,13.15,3.19,3.19,0,0,0-1.76,2.43c-.35,3.44,3.72,5.68,4.91,8.36a11.94,11.94,0,0,1-.08,9.5,29.39,29.39,0,0,1-6.77,9.45c-2,1.87,1.19,4.74,1.79,6.47a13.8,13.8,0,0,1,.1,9c-2.1,5.82-7.49,10.28-12.94,12.75A98.13,98.13,0,0,1,323.45,276.34Zm30.81,88.42a3.33,3.33,0,1,1,3.57-3.32A3.45,3.45,0,0,1,354.26,364.76ZM341.43,379a5.74,5.74,0,1,1,5.74,5.94A5.84,5.84,0,0,1,341.43,379ZM328.34,389a4.55,4.55,0,1,1,4.53,4.13A4.35,4.35,0,0,1,328.34,389Zm-23-55c-8.93-11.45-18.43-22.54-27.75-33.67a118.06,118.06,0,0,1-10-13,6.44,6.44,0,0,1-.75-1.45,2.78,2.78,0,0,1-.11-.5,3.27,3.27,0,0,1,1.89-3.07,5.6,5.6,0,0,1,3.73-.72c10.82,2.51,23.76,5.57,35.92,9.32,16.48,5.08,40.63,8,48.88,25.61a30,30,0,0,1,2.33,16.55c-.66,3.71-1.29,8.51-5.42,10-4.8,1.72-10.87.37-15.56-1,8.77,8.54,11.65,13.62,10.22,17.77-1.55,4.46-7.89,7.34-13.2,7.05C326.81,366.5,323.69,357.53,305.38,334.06Zm-2,47.42a8.87,8.87,0,1,1,8.86,8.45A8.67,8.67,0,0,1,303.37,381.48ZM266.7,295c.48-.13,1.12.14,1.79,1,4.83,5.9,9.36,12,14,18,11.14,14.62,22.93,28.94,32.69,44.52,1.91,3,5.1,7.18,1.78,9.71-5.88,4.48-14-1.54-17.91-5.83-.46-.51-.91-1-1.36-1.55-5.54-6.54-9.73-14.12-14-21.53a172.26,172.26,0,0,1-11-23.06c-2.29-5.81-5.72-12.43-6.32-18.67C266.25,296.35,266.07,295.14,266.7,295Z" fill="#2b3a45"/><path d="M209.61,211.74c-6.13-10.76-13.4-24-28.21-37.06-7.59-6.69-13.94-10.5-21.55-15-36.52-21.66-63-22.36-70.43-22.32-8.32,0-17.32.17-19.83,5.19-2.87,5.75,3.63,16.18,16.17,26.85a87.52,87.52,0,0,0,9.53,14.43c8.58,10.55,17.59,16.51,15.87,21.36-.91,2.57-4.08,2.71-4,4.62.09,3.94,7.94,4.46,10.29,6,6.08,4.1,2.85,17,3.5,23.25A82.31,82.31,0,0,0,125.82,260c1.74,4.52,3.14,8.2,5.93,11.83a23,23,0,0,0,6,5.56c6.2,4,11.59,3.25,18.35,4.26a48.76,48.76,0,0,1,19.21,7.47A53.56,53.56,0,0,0,158,296.38c-4.9,3.19-12.7,8.27-17.06,18.49,0,0-4.93,11.58-1.73,24.25a41.41,41.41,0,0,0,1.73,5.2,36.84,36.84,0,0,0,2.89,5.48,16.79,16.79,0,0,0-2.89,13.86c1.09,4.19,4,7.16,7.32,9.76-3.45,3.18-3.74,9.43-1.75,13.44a9.88,9.88,0,0,0,3.75,4.19c3.5,2,7.9,1.23,11.86.32,2.11,4.39,5.18,8,10.26,8.87,4.71.83,8.53-.76,12.21-3.47a1,1,0,0,1,.44-.21.81.81,0,0,1,.45.11c4.38,1.81,9.17,3,13.76,1.13,4.22-1.68,6.94-6.17,8.57-10.21,2-5,3.07-10.33,5.33-15.16.74-1.6,1.76-3.12,2.59-4.68,3.51-6.55,6.54-13.35,9.47-20.18q2.23-5.22,4.36-10.47c7-17.05,10.42-25.58,13.28-36.37a205,205,0,0,0,5.2-26.56C230.32,247.2,218,226.44,209.61,211.74ZM88.17,158.68c-2.42-2.56-3.69-6.89-1.35-9.52,1.77-2,4.78-2.18,7.45-2.11,13.4.35,26.27,3.88,38.93,8,6.41,2.1,12.57,5.37,18.66,8.35a13.91,13.91,0,0,1,2.09,1.19,1.12,1.12,0,0,1,.51.68.81.81,0,0,1-.63.79,2.41,2.41,0,0,1-1.1-.05,169.57,169.57,0,0,0-18.63-3.35,97.72,97.72,0,0,0-20.8.12C104.76,163.75,95,165.84,88.17,158.68ZM153.8,268.77c-5.45-2.47-10.84-6.93-12.94-12.75a13.87,13.87,0,0,1,.1-9c.61-1.73,3.8-4.6,1.79-6.47a29.7,29.7,0,0,1-6.77-9.45,12,12,0,0,1-.08-9.5c1.2-2.68,5.27-4.92,4.91-8.36a3.14,3.14,0,0,0-1.76-2.43,82.44,82.44,0,0,1-18.62-13.15C111.24,189,97,172.78,119,170.25a87.43,87.43,0,0,1,62.8,17.69c19.55,15.13,28.52,39.71,41.94,60,2.86,4.33,5.85,8.59,8.44,13.1,1.62,2.82,3.72,6,3.66,9.4-.1,5.39-7.5,6.45-11.52,6.65-14.1.69-28.8,1.16-42.82-.73A98.22,98.22,0,0,1,153.8,268.77Zm-6.67,92.67a3.57,3.57,0,1,1,3.56,3.32A3.45,3.45,0,0,1,147.13,361.44Zm10.66,23.46a5.94,5.94,0,1,1,5.74-5.94A5.84,5.84,0,0,1,157.79,384.9Zm14.29,8.26a4.15,4.15,0,1,1,4.53-4.13A4.35,4.35,0,0,1,172.08,393.16ZM169.39,367c-5.3.29-11.65-2.59-13.19-7.05-1.44-4.15,1.44-9.23,10.22-17.77-4.69,1.34-10.77,2.69-15.56,1-4.13-1.48-4.77-6.28-5.43-10a30,30,0,0,1,2.34-16.55C156,299,180.16,296.06,196.64,291c12.17-3.75,25.1-6.81,35.92-9.32a5.63,5.63,0,0,1,3.74.72,3.26,3.26,0,0,1,1.88,3.07,2.77,2.77,0,0,1-.1.5,6.88,6.88,0,0,1-.75,1.45,119.39,119.39,0,0,1-10,13c-9.31,11.13-18.82,22.22-27.75,33.67C181.27,357.53,178.15,366.5,169.39,367Zm23.33,22.95a8.46,8.46,0,1,1,8.86-8.45A8.66,8.66,0,0,1,192.72,389.93Zm45.87-92.37c-.59,6.24-4,12.86-6.31,18.67a172.32,172.32,0,0,1-11,23.06c-4.24,7.41-8.42,15-14,21.53-.44.52-.89,1-1.35,1.55-3.9,4.29-12,10.31-17.91,5.83-3.32-2.53-.13-6.67,1.77-9.71,9.76-15.58,21.56-29.9,32.7-44.52,4.61-6.06,9.15-12.13,14-18,.68-.82,1.31-1.09,1.8-1S238.71,296.35,238.59,297.56Z" fill="#2b3a45"/></g></g></svg>