<svg xmlns="http://www.w3.org/2000/svg" viewBox="0 0 506.74 527.07"><g id="Layer_2" data-name="Layer 2"><g id="Layer_1-2" data-name="Layer 1"><path d="M473.84,527.06,25.69,517.55A20,20,0,0,1,6.12,497.81L.24,27.7a20,20,0,0,1,20-20.25l459.06-.52a20,20,0,0,1,20,20.21l-5,480.14A20,20,0,0,1,473.84,527.06Z" fill="#d6d6d6"/><rect x="0.3" y="0.26" width="506.15" height="511.88" rx="20" transform="translate(-0.29 0.28) rotate(-0.06)" fill="#fcfcfc"/><circle cx="186.53" cy="202.32" r="7.98" fill="#2b3a45"/><circle cx="206.49" cy="210.96" r="5.58" fill="#2b3a45"/><path d="M258.31,214.67a7.39,7.39,0,0,0-3.43.89c-5.37-7.35-8.43-14.6-9.08-21.6-.05-.56-.1-1.17-.14-1.86a83.37,83.37,0,0,0-1.09-9.36c-.87-5-1.63-9.35-4-14.32a38.42,38.42,0,0,0-6.73-9.66,5.45,5.45,0,0,0-1.63-2.53c-1.32-1.29-2.79-1.93-3.29-1.42s.17,2,1.5,3.26a5,5,0,0,0,2.76,1.59,37.1,37.1,0,0,1,6.39,9.24c2.35,4.83,3.09,9.09,4,14a83.23,83.23,0,0,1,1.07,9.26c.05.7.09,1.33.14,1.9.67,7.16,3.78,14.58,9.24,22.06a9.74,9.74,0,0,0-3.39,4.17c-9.34-11.41-20.44-25.46-37.6-37.43-12.15-8.47-37.33-25.68-71.74-33-46-9.8-90.12,2-90.56,11.56-.08,2,7.15,3.65,8.52,4.25,7.39,3.22,10.6,9.54,14.25,16.22,4.13,7.56,6.44,19.62,14.07,24.33-6.22,4.83-3,17-.09,22.59,4.23,8.12,6.52,14.67,7.52,23.83.81,7.49.76,15.45,2.85,22.69,3,10.43,10.34,22.3,20.56,27,7.08,3.28,15.08,4.19,22.8,3.56,4.06-.33,16.39-1.26,19.32-4.45a71.38,71.38,0,0,0-9,11.38c-5.4,9-6.49,25.08.36,33.77a18.68,18.68,0,0,0,4.55,4.12c-3.41,9.14-1.86,18.07,3.48,22.12a12.56,12.56,0,0,0,6.78,2.41,15.7,15.7,0,0,0,10.66,14.2,14.65,14.65,0,0,0,8.5,0,17.44,17.44,0,0,0,3.18-1.27c.79-.4,1.76-1.31,2.69-1.25s2.42,1.57,3.38,2.1a17.28,17.28,0,0,0,3.72,1.54,17.94,17.94,0,0,0,7.78.45c4.72-.79,8.59-4.91,13.17-6.44,5.93-2,12.21-3.52,17.34-7.28,14.46-10.6,14.71-31.4,15.83-61.59q.15-4,.34-8.63c1.28,6.93,3.07,11.24,5.06,11.24h.07S258.34,214.68,258.31,214.67ZM67.61,162.52a3.93,3.93,0,1,1,3.92-3.92A3.92,3.92,0,0,1,67.61,162.52Zm121.75,28.13c11.23.82,22.54,6.14,31.36,13,9.47,7.34,21.79,19.93,27,33a77.71,77.71,0,0,0-15.33-8.09A133.44,133.44,0,0,0,206.88,221c-1.71-.33-3.43-.62-5.15-.91-5.6-.95-10.88-1.85-15.8-3.84-6.78-2.74-11.65-7.53-13-12.8C170.12,192.87,181.34,190.06,189.36,190.65ZM165.65,364.9a4.69,4.69,0,1,1,4.69-4.69A4.69,4.69,0,0,1,165.65,364.9ZM180.45,380a5.91,5.91,0,1,1,5.91-5.91A5.92,5.92,0,0,1,180.45,380Zm25.11,4.23a4.69,4.69,0,1,1,4.69-4.69A4.69,4.69,0,0,1,205.56,384.19Zm39.15-76.38c-.72,11.8-1.52,23.68-4.28,35.21s-18.63,36.19-32.1,20.6c-.93-1.08-1.88-2.43-3.3-2.49a4.19,4.19,0,0,0-1.87.51c-8.78,3.91-19.23.18-25.12-7.15a19.86,19.86,0,0,1-2.79-4.55,27.3,27.3,0,0,1-1.47-4.76c-.29-1.24-.1-2.16-1.66-2.13-8.1.12-13.6-1.82-15.24-10.48-1.27-6.69,1.24-13.73,5.47-18.7C171,303.72,186,298.75,198.12,294.1c1-.41,2.11-.8,3.17-1.19,13.64-5,27.69-8.91,41.14-14.47a1.92,1.92,0,0,1,1.32-.2c.7.23.88,1.12.95,1.86A184.4,184.4,0,0,1,244.71,307.81Zm-3.29-41.39a47.24,47.24,0,0,1-10.73,6.7c-3.84,1.81-7.87,3.29-11.86,4.74-25.08,9.12-74.26,28.19-99.53,10.86-11.52-7.89-17.64-26-16.11-39.5a29.58,29.58,0,0,1,2-7.34c.32-.8,2.75-7.32,3.47-7.29-11.07-.46-18-10.82-15.6-21.4a20.33,20.33,0,0,1,4-8,.5.5,0,0,0-.08-.69c-1-.82-3.24-3.32-3.44-3.54a22,22,0,0,1-4-5.56,35.16,35.16,0,0,1-2.21-6.88,26.93,26.93,0,0,1,3.12-19.93,20.86,20.86,0,0,1,9-8.36c6.07-2.71,14.42-1.89,20.93-1.67,14.19.46,28.93,6.06,40.38,14.47a36.67,36.67,0,0,1,11.5,13.36,16.13,16.13,0,0,0-3.72,4.06,18.7,18.7,0,0,0-2.47,14.71c2,7.52,8.24,13.9,17.18,17.52,5.63,2.27,11.54,3.28,17.25,4.25,1.68.28,3.36.57,5,.89A127.37,127.37,0,0,1,229.75,235c9.31,3.8,15.88,8,20.46,13C250.32,254.6,247.84,261,241.42,266.42Z" fill="#2b3a45"/><circle cx="328.96" cy="202.32" r="7.98" fill="#2b3a45"/><circle cx="309.01" cy="210.96" r="5.58" fill="#2b3a45"/><path d="M257.16,318.36h.07c2,0,3.78-4.31,5.06-11.24q.19,4.67.33,8.63c1.12,30.19,1.38,51,15.84,61.59,5.13,3.76,11.4,5.3,17.34,7.28,4.57,1.53,8.45,5.65,13.17,6.44a17.94,17.94,0,0,0,7.78-.45,17.28,17.28,0,0,0,3.72-1.54c1-.53,2.3-2,3.38-2.1.93-.06,1.9.85,2.69,1.25a17.44,17.44,0,0,0,3.18,1.27,14.65,14.65,0,0,0,8.5,0,15.7,15.7,0,0,0,10.66-14.2,12.56,12.56,0,0,0,6.78-2.41c5.34-4.05,6.89-13,3.48-22.12a18.68,18.68,0,0,0,4.55-4.12c6.85-8.69,5.76-24.75.36-33.77a70.88,70.88,0,0,0-9-11.38c2.94,3.19,15.27,4.12,19.33,4.45,7.72.63,15.72-.28,22.8-3.56,10.22-4.74,17.56-16.61,20.56-27,2.09-7.24,2-15.2,2.85-22.69,1-9.16,3.29-15.71,7.52-23.83,2.93-5.63,6.13-17.76-.09-22.59,7.63-4.71,9.94-16.77,14.07-24.33,3.65-6.68,6.85-13,14.25-16.22,1.37-.6,8.6-2.28,8.52-4.25-.44-9.54-44.53-21.36-90.56-11.56-34.41,7.33-59.59,24.54-71.74,33-17.16,12-28.26,26-37.6,37.43a9.74,9.74,0,0,0-3.39-4.17c5.46-7.48,8.57-14.9,9.24-22.06.05-.57.09-1.2.14-1.9a83.23,83.23,0,0,1,1.07-9.26c.86-4.92,1.6-9.18,3.94-14a37.41,37.41,0,0,1,6.4-9.24,5,5,0,0,0,2.76-1.59c1.33-1.29,2-2.75,1.5-3.26s-2,.13-3.3,1.42a5.42,5.42,0,0,0-1.62,2.53,38.42,38.42,0,0,0-6.73,9.66c-2.41,5-3.16,9.3-4,14.32a83.37,83.37,0,0,0-1.09,9.36c0,.69-.09,1.3-.14,1.86-.65,7-3.71,14.25-9.08,21.6a7.42,7.42,0,0,0-3.43-.89S257.16,318.36,257.16,318.36ZM444,158.6a3.93,3.93,0,1,1,3.93,3.92A3.93,3.93,0,0,1,444,158.6ZM342.61,203.42c-1.39,5.27-6.26,10.06-13,12.8-4.92,2-10.2,2.89-15.8,3.84-1.72.29-3.44.58-5.15.91a133.44,133.44,0,0,0-25.51,7.54,77.71,77.71,0,0,0-15.33,8.09c5.21-13,17.53-25.64,27-33,8.83-6.83,20.14-12.15,31.37-13C334.16,190.06,345.38,192.87,342.61,203.42Zm2.55,156.79a4.69,4.69,0,1,1,4.68,4.69A4.69,4.69,0,0,1,345.16,360.21Zm-16,13.84a5.91,5.91,0,1,1,5.91,5.91A5.9,5.9,0,0,1,329.14,374.05Zm-23.89,5.45a4.69,4.69,0,1,1,4.69,4.69A4.68,4.68,0,0,1,305.25,379.5ZM270.8,280.1c.07-.74.25-1.63.95-1.86a1.93,1.93,0,0,1,1.32.2c13.45,5.56,27.5,9.45,41.14,14.47,1.06.39,2.12.78,3.17,1.19,12.11,4.65,27.11,9.62,35.77,19.77,4.23,5,6.74,12,5.47,18.7-1.64,8.66-7.14,10.6-15.24,10.48-1.56,0-1.37.89-1.66,2.13a27.3,27.3,0,0,1-1.47,4.76,19.86,19.86,0,0,1-2.79,4.55c-5.89,7.33-16.34,11.06-25.12,7.15a4.19,4.19,0,0,0-1.87-.51c-1.42.06-2.37,1.41-3.3,2.49-13.47,15.59-29.37-9.21-32.1-20.6s-3.56-23.41-4.28-35.21A184.4,184.4,0,0,1,270.8,280.1ZM265.29,248c4.58-5,11.14-9.22,20.46-13a127.37,127.37,0,0,1,24.18-7.14c1.66-.32,3.34-.61,5-.89,5.72-1,11.63-2,17.25-4.25,8.95-3.62,15.22-10,17.19-17.52a18.74,18.74,0,0,0-2.47-14.71,16.13,16.13,0,0,0-3.72-4.06,36.67,36.67,0,0,1,11.5-13.36c11.45-8.41,26.19-14,40.38-14.47,6.51-.22,14.86-1,20.93,1.67a20.86,20.86,0,0,1,9,8.36,26.93,26.93,0,0,1,3.12,19.93,35.16,35.16,0,0,1-2.21,6.88,22,22,0,0,1-4,5.56c-.2.22-2.47,2.72-3.44,3.54a.5.5,0,0,0-.08.69,20.33,20.33,0,0,1,4,8c2.42,10.58-4.54,20.94-15.6,21.4.72,0,3.15,6.49,3.47,7.29a29.58,29.58,0,0,1,2,7.34c1.53,13.47-4.59,31.61-16.11,39.5-25.27,17.33-74.45-1.74-99.53-10.86-4-1.45-8-2.93-11.86-4.74a47.24,47.24,0,0,1-10.73-6.7C267.66,261,265.17,254.6,265.29,248Z" fill="#2b3a45"/></g></g></svg>