<svg xmlns="http://www.w3.org/2000/svg" viewBox="0 0 506.74 527.07"><g id="Layer_2" data-name="Layer 2"><g id="Layer_1-2" data-name="Layer 1"><path d="M473.84,527.06,25.69,517.55A20,20,0,0,1,6.12,497.81L.24,27.7a20,20,0,0,1,20-20.25l459.06-.52a20,20,0,0,1,20,20.21l-5,480.14A20,20,0,0,1,473.84,527.06Z" fill="#d6d6d6"/><rect x="0.3" y="0.26" width="506.15" height="511.88" rx="20" transform="translate(-0.29 0.28) rotate(-0.06)" fill="#fcfcfc"/><path d="M247.75,249c.63,1.79,2.93,2.58,4.92,2.93-3.25,3.78-5.56,13.37-5.56,24.61a64.73,64.73,0,0,0,2.09,17.15c-.31,4.15-.49,8.67-.49,13.39,0,20.16,3.11,36.52,6.95,36.77V240.18C250.71,240.25,246.65,245.92,247.75,249Z" fill="#2b3a45"/><path d="M253.1,243.86l.87-.68c-6.39-8.08-10-16.06-10.69-23.72-.05-.56-.1-1.18-.14-1.87a83.51,83.51,0,0,0-1.09-9.35c-.87-5-1.63-9.35-4-14.32a39,39,0,0,0-8.65-11.59l-.75.81A37.76,37.76,0,0,1,237,194.4c2.35,4.83,3.09,9.08,3.94,14a81.39,81.39,0,0,1,1.08,9.26c.05.7.09,1.32.14,1.89C242.91,227.44,246.59,235.62,253.1,243.86Z" fill="#2b3a45"/><path d="M227.87,183.57c1.32,1.29,2.79,1.92,3.29,1.41s-.17-2-1.5-3.26-2.79-1.92-3.29-1.41S226.54,182.27,227.87,183.57Z" fill="#2b3a45"/><path d="M220.22,207.84c-15.94-30-21.56-37.23-26.27-42.56-8.18-9.26-34-38.57-70.39-39-16.17-.2-42.47,5.23-45.21,19.66-2.29,12.07,13.1,24.18,15.82,26.27a85.85,85.85,0,0,0,9.32,14.12q9.09,11.16,17.15,23.13c2.26,3.34,4.85,7.59,5.15,11.72.26,3.63-1.54,6.5-2.43,10-.43,1.7-3.33,13.83,1.77,26.3,1.66,4.06,3,7.32,6.31,10.25,4.1,3.64,7.93,3.84,8.67,6.89.86,3.61-3.81,6.16-2.89,8.08,1.41,3,13-2.2,25.73-.71a42.21,42.21,0,0,1,18.8,7.31,52.33,52.33,0,0,0-16.95,7.16c-4.8,3.12-12.43,8.09-16.69,18.09a77,77,0,0,0-5.25,23.57c-.52,8.83-1.08,18.25,4.86,26.53a27.67,27.67,0,0,0,7.74,7.23c-2.78,5-2.66,10.66.28,14.31a10.78,10.78,0,0,0,5.44,3.48c-.13,3.21,5.22,4.64,5.93,4.8.91.22.53,2,2,3a4.4,4.4,0,0,0,3.25.35c1.48-.35,1.92-1.2,2.47-1,.82.32.67,2.48.57,4.17-.37,6.14,1.94,4.67,5.41.85,3.86-4.25,9.2-5.67,13.09-6.22a18.74,18.74,0,0,0,7.9-.84c7.4-2.45,9.93-9.21,13.25-15.61q10.86-21,19.8-42.86c6.79-16.68,10.19-25,13-35.58a201.4,201.4,0,0,0,5.08-26C245.58,258.34,234.74,235.16,220.22,207.84ZM116,130.85A8.65,8.65,0,1,1,109,140.93,8.66,8.66,0,0,1,116,130.85ZM91.41,144.54a5,5,0,1,1,5.83,4A5,5,0,0,1,91.41,144.54Zm81,128.13c-5.74-1.51-13.82-2-21.06-3.58-6.16-1.37-11.71-3.58-14.71-8a29.63,29.63,0,0,1-5-18.66c.31-4.25,1.53-8.38,2-12.62,1-9.36-1.95-18.8-6.62-27a92,92,0,0,0-9.2-13.07c-2.53-3-5.21-5.9-8-8.62C104.51,176,100,170.69,98.82,163c-2.57-17.31,24.55-9.55,31.8-4-1-.77-.49-7.12,0-8.44,1-2.85,4-5.27,6.62-6.62,6.61-3.47,14.14-1,17.7.18,15,5.18,27.18,17,37.48,31,8.3,11.32,15.13,23.62,21.78,35.94,5.09,9.45,10.17,18.93,14.61,28.71,5,11,17.21,29.39-1,34.32C208.68,279.31,191.15,277.6,172.37,272.67Zm-4.5,112.21a5.32,5.32,0,1,1,5.32-5.32A5.32,5.32,0,0,1,167.87,384.88Zm10.29,7.21a4.1,4.1,0,1,1,4.09-4.1A4.1,4.1,0,0,1,178.16,392.09Zm-.37-22.27c-4.72,1.7-12.43-.06-14.65-5.1-2.31-5.2,3.06-11,6.08-14.56,1.4-1.67,2.87-3.26,4.36-4.83A27.64,27.64,0,0,0,190.2,356a69.88,69.88,0,0,1-4.79,7.75A17.3,17.3,0,0,1,177.79,369.82ZM172.22,329A23.59,23.59,0,1,1,195.8,352.6,23.61,23.61,0,0,1,172.22,329Zm68-30a509.39,509.39,0,0,1-18,47.88c-4,9.07-11,23.93-22.41,25.18-.65.07-7.12.7-9.19-2.62-1.6-2.58-.14-5.27,1-7.7.72-1.6,1.39-3.23,2.08-4.85,0-.12.12-.26.19-.41.62,0,1.24.07,1.87.07a27.6,27.6,0,1,0-24.29-14.53c-1.22,1.39-2.47,2.77-3.75,4.11-3.2,3.36-13.94,11.54-17.14,3.84-2.17-5.22-.24-12.39,1-17.6a122.11,122.11,0,0,1,4.57-14.83,32.18,32.18,0,0,1,4.44-8.5,32.56,32.56,0,0,1,8.65-7.17c7.86-4.94,16.68-7.27,25.18-10.6,7-2.75,43.4-15.24,46.56-.61A16.81,16.81,0,0,1,240.26,299.05Z" fill="#2b3a45"/><path d="M263.39,249c-.64,1.79-2.94,2.58-4.92,2.93,3.25,3.78,5.56,13.37,5.56,24.61a65.14,65.14,0,0,1-2.09,17.15c.31,4.15.48,8.67.48,13.39,0,20.16-3.1,36.52-6.94,36.77l-3.59-62.51,3.59-41.17C260.43,240.25,264.48,245.92,263.39,249Z" fill="#2b3a45"/><path d="M258,243.86l-.86-.68c6.38-8.08,10-16.06,10.69-23.72.05-.56.09-1.18.14-1.87a83.51,83.51,0,0,1,1.09-9.35c.87-5,1.62-9.35,4-14.32a39.21,39.21,0,0,1,8.66-11.59l.74.81a38.1,38.1,0,0,0-8.41,11.26c-2.34,4.83-3.08,9.08-3.94,14a83.23,83.23,0,0,0-1.07,9.26c-.05.7-.09,1.32-.14,1.89C268.23,227.44,264.55,235.62,258,243.86Z" fill="#2b3a45"/><path d="M283.27,183.57c-1.32,1.29-2.8,1.92-3.29,1.41s.17-2,1.49-3.26,2.8-1.92,3.3-1.41S284.59,182.27,283.27,183.57Z" fill="#2b3a45"/><path d="M258.24,274.73a200,200,0,0,0,5.09,26c2.8,10.56,6.2,18.9,13,35.58q8.9,21.88,19.8,42.86c3.32,6.4,5.84,13.16,13.24,15.61a18.77,18.77,0,0,0,7.91.84c3.89.55,9.23,2,13.09,6.22,3.47,3.82,5.78,5.29,5.41-.85-.1-1.69-.25-3.85.57-4.17.55-.21,1,.64,2.47,1a4.38,4.38,0,0,0,3.24-.35c1.44-.95,1.07-2.75,2-3,.71-.16,6.05-1.59,5.93-4.8a10.78,10.78,0,0,0,5.44-3.48c2.94-3.65,3.06-9.31.28-14.31a27.66,27.66,0,0,0,7.73-7.23c5.95-8.28,5.39-17.7,4.86-26.53A76.44,76.44,0,0,0,363,314.55c-4.26-10-11.89-15-16.68-18.09a52.42,52.42,0,0,0-16.95-7.16,42.21,42.21,0,0,1,18.8-7.31c12.68-1.49,24.32,3.67,25.73.71.92-1.92-3.75-4.47-2.89-8.08.73-3.05,4.56-3.25,8.67-6.89,3.31-2.93,4.64-6.19,6.3-10.25,5.11-12.47,2.21-24.6,1.78-26.3-.89-3.5-2.69-6.37-2.43-10,.3-4.13,2.89-8.38,5.15-11.72q8.06-11.94,17.15-23.13A85.85,85.85,0,0,0,417,172.21c2.71-2.09,18.11-14.2,15.81-26.27-2.74-14.43-29-19.86-45.2-19.66-36.34.43-62.22,29.74-70.4,39-4.7,5.33-10.32,12.56-26.26,42.56C276.39,235.16,265.55,258.34,258.24,274.73Zm143.85-133.8a8.64,8.64,0,1,1-6.93-10.08A8.65,8.65,0,0,1,402.09,140.93Zm11.8,7.63a5,5,0,1,1,5.84-4A5,5,0,0,1,413.89,148.56ZM283.34,274.12c-18.18-4.93-6-23.35-1-34.32,4.44-9.78,9.51-19.26,14.61-28.71,6.65-12.32,13.48-24.62,21.78-35.94,10.3-14,22.44-25.81,37.48-31,3.56-1.22,11.09-3.65,17.7-.18,2.57,1.35,5.64,3.77,6.61,6.62.45,1.32,1,7.67,0,8.44,7.24-5.56,34.37-13.32,31.8,4-1.14,7.66-5.69,13-10.94,18.16-2.75,2.72-5.43,5.6-8,8.62a91.22,91.22,0,0,0-9.2,13.07c-4.67,8.17-7.6,17.61-6.62,27,.44,4.24,1.67,8.37,2,12.62a29.58,29.58,0,0,1-5.05,18.66c-3,4.38-8.55,6.59-14.7,8-7.24,1.61-15.32,2.07-21.07,3.58C320,277.6,302.46,279.31,283.34,274.12ZM338,379.56a5.32,5.32,0,1,1,5.32,5.32A5.32,5.32,0,0,1,338,379.56ZM328.89,388a4.09,4.09,0,1,1,4.09,4.1A4.09,4.09,0,0,1,328.89,388Zm-3.16-24.21a68.49,68.49,0,0,1-4.8-7.75,27.66,27.66,0,0,0,16.63-10.7c1.49,1.57,3,3.16,4.36,4.83,3,3.59,8.38,9.36,6.08,14.56-2.22,5-9.93,6.8-14.65,5.1A17.3,17.3,0,0,1,325.73,363.78Zm-10.4-11.18A23.59,23.59,0,1,1,338.92,329,23.61,23.61,0,0,1,315.33,352.6ZM270.1,290.71c3.16-14.63,39.55-2.14,46.56.61,8.5,3.33,17.31,5.66,25.18,10.6a32.52,32.52,0,0,1,8.64,7.17,31.6,31.6,0,0,1,4.44,8.5,120.42,120.42,0,0,1,4.58,14.83c1.25,5.21,3.19,12.38,1,17.6-3.2,7.7-13.94-.48-17.14-3.84-1.28-1.34-2.53-2.72-3.75-4.11a27.58,27.58,0,1,0-24.3,14.53c.63,0,1.25,0,1.87-.07.08.15.14.29.2.41.69,1.62,1.36,3.25,2.08,4.85,1.09,2.43,2.56,5.12,1,7.7-2.07,3.32-8.54,2.69-9.19,2.62-11.46-1.25-18.38-16.11-22.41-25.18a506.62,506.62,0,0,1-18-47.88A16.58,16.58,0,0,1,270.1,290.71Z" fill="#2b3a45"/></g></g></svg>