<?xml version="1.0" encoding="utf-8"?>
<!-- Generator: Adobe Illustrator 25.4.1, SVG Export Plug-In . SVG Version: 6.00 Build 0)  -->
<svg version="1.1" id="Layer_1" xmlns="http://www.w3.org/2000/svg" xmlns:xlink="http://www.w3.org/1999/xlink" x="0px" y="0px"
	 viewBox="0 0 506.7 527.1" style="enable-background:new 0 0 506.7 527.1;" xml:space="preserve">
<style type="text/css">
	.st0{fill:#D6D6D6;}
	.st1{fill:#FCFCFC;}
	.st2{fill:#2B3A45;}
</style>
<g id="Layer_2_00000116223622000817512670000015733043914362359178_">
	<g id="Layer_1-2">
		<path class="st0" d="M473.8,527.1l-448.1-9.5c-10.8-0.2-19.4-9-19.6-19.7L0.2,27.7C0.1,16.7,8.9,7.6,20,7.5c0.1,0,0.2,0,0.3,0
			l459.1-0.5c11,0,20,9,20,20c0,0.1,0,0.1,0,0.2l-5,480.1c-0.1,11-9.2,19.9-20.2,19.8C474,527.1,473.9,527.1,473.8,527.1z"/>
		<path class="st1" d="M20,0.5L486.2,0c11,0,20,8.9,20,20l0.5,471.9c0,11-8.9,20-20,20l-466.1,0.5c-11,0-20-8.9-20-20L0,20.5
			C0,9.5,9,0.5,20,0.5z"/>
	</g>
</g>
<g>
	<circle class="st2" cx="328.1" cy="202.5" r="8"/>
	<circle class="st2" cx="308.1" cy="211.2" r="5.6"/>
	<path class="st2" d="M261.8,318.5c0.1,6.1,0.2,12.3,1.5,18.3c1,4.3,1.3,8.8,2.4,13.1c1.2,4.5,4,7.9,6.2,12c3,5.3,1.9,15,8.8,17.4
		c2.5,0.9,5.2,0,7.9-0.2c5.2-0.5,6.4,2.7,9.3,6.1c2.7,3.2,5.9,5.5,10.1,6.2c2.6,0.4,5.3,0.3,7.8-0.5c1.3-0.4,2.5-0.9,3.7-1.5
		c1-0.5,2.3-2,3.4-2.1c0.9-0.1,1.9,0.8,2.7,1.3c1,0.5,2.1,1,3.2,1.3c2.8,0.8,5.7,0.8,8.5,0c6-1.9,10.3-7.6,10.7-14.2
		c3.5-0.3,5.6-1.5,6.8-2.4c5.3-4,6.9-13,3.5-22.1c1.3-0.8,3-2.1,4.5-4.1c6.8-8.7,5.8-24.7,0.4-33.8c-2.5-4.2-5.7-7.8-9-11.4
		c2.9,3.2,15.3,4.1,19.3,4.4c7.7,0.6,15.7-0.3,22.8-3.6c19.4-9,26.8-37.4,22.4-56.7c-0.3-1.2-0.5-2.4-0.3-3.6c0.2-1.3,1-2.4,1.9-3.4
		c2.1-2.5,4.9-4.5,6.6-7.1c2-2.9,3-6.4,3.4-9.9c0.5-4.3,0.2-9.2-1-13.4c-0.6-2.2-1.2-2.3,0.1-4.1c1.1-1.5,2.4-2.6,3.3-4.3
		c0.9-1.8,1.4-3.7,1.9-5.7c1.9-7.2,2.8-13.6,10.3-16.8c1.3-0.6,2.4-1.3,3.7-1.7c1.6-0.5,3.2-0.8,4.6-1.6c5.1-3-0.9-7.1,5.2-9.4
		c1.6-0.6,5.5-0.8,5.4-3.3c-0.4-9.5-44.5-21.4-90.6-11.6c-34.4,7.3-59.6,24.5-71.7,33c-9.8,6.8-18.4,15-26.3,23.9
		c-6.8,7.7-15.3,16.1-17.6,26.5c-0.6,2.7-0.7,5.6-0.8,8.4c-0.4,15.8-0.9,31.8,1.3,47.5c1.1,7.9,2.9,15.7,3.2,23.7
		C261.7,314.9,261.7,316.7,261.8,318.5z M443.1,158.8c0-2.2,1.8-3.9,3.9-3.9s3.9,1.8,3.9,3.9s-1.8,3.9-3.9,3.9
		S443.1,161,443.1,158.8z M341.7,203.6c-1.4,5.3-6.3,10.1-13,12.8c-4.9,2-10.2,2.9-15.8,3.8c-1.7,0.3-3.4,0.6-5.1,0.9
		c-8.7,1.7-17.3,4.2-25.5,7.5c-6.1,2.5-11.1,5.1-15.3,8.1c5.2-13.1,17.5-25.6,27-33c8.8-6.8,20.1-12.2,31.4-13
		C333.3,190.3,344.5,193.1,341.7,203.6z M344.3,360.4c0-2.6,2.1-4.7,4.7-4.7s4.7,2.1,4.7,4.7c0,2.6-2.1,4.7-4.7,4.7
		S344.3,363,344.3,360.4z M328.3,374.3c0-3.3,2.6-5.9,5.9-5.9c3.3,0,5.9,2.6,5.9,5.9s-2.6,5.9-5.9,5.9
		C330.9,380.2,328.3,377.5,328.3,374.3z M304.4,379.7c0-2.6,2.1-4.7,4.7-4.7s4.7,2.1,4.7,4.7c0,2.6-2.1,4.7-4.7,4.7
		S304.4,382.3,304.4,379.7z M269.9,280.3c0.1-0.7,0.2-1.6,1-1.9c0.4-0.1,0.9,0,1.3,0.2c13.4,5.6,27.5,9.4,41.1,14.5
		c1.1,0.4,2.1,0.8,3.2,1.2c12.1,4.6,27.1,9.6,35.8,19.8c4.2,5,6.7,12,5.5,18.7c-1.6,8.7-7.1,10.6-15.2,10.5c-1.6,0-1.4,0.9-1.7,2.1
		c-0.4,1.6-0.8,3.2-1.5,4.8c-0.7,1.6-1.7,3.2-2.8,4.6c-5.9,7.3-16.3,11.1-25.1,7.1c-0.6-0.3-1.2-0.5-1.9-0.5
		c-1.4,0.1-2.4,1.4-3.3,2.5c-13.5,15.6-29.4-9.2-32.1-20.6c-2.8-11.5-3.6-23.4-4.3-35.2C269.4,298.6,269.1,289.7,269.9,280.3z
		 M264.4,248.2c4.6-5,11.1-9.2,20.5-13c7.8-3.2,15.9-5.6,24.2-7.1c1.7-0.3,3.3-0.6,5-0.9c5.7-1,11.6-2,17.2-4.2
		c8.9-3.6,15.2-10,17.2-17.5c1.3-4.9,0.4-10.4-2.5-14.7c-1-1.6-2.3-3-3.7-4.1c2.5-5.3,6.7-9.9,11.5-13.4c11.5-8.4,26.2-14,40.4-14.5
		c6.5-0.2,14.9-1,20.9,1.7c3.8,1.7,6.9,4.8,9,8.4c3.7,6,4.6,13.1,3.1,19.9c-0.5,2.4-1.2,4.7-2.2,6.9c-1,2.1-2.4,3.8-4,5.6
		c-0.2,0.2-2.5,2.7-3.4,3.5c-0.2,0.2-0.2,0.5-0.1,0.7c1.9,2.4,3.3,4.9,4,8c2.4,10.6-4.5,20.9-15.6,21.4c0.7,0,3.2,6.5,3.5,7.3
		c0.9,2.4,1.8,4.8,2,7.3c1.5,13.5-4.6,31.6-16.1,39.5c-25.3,17.3-74.5-1.7-99.5-10.9c-4-1.5-8-2.9-11.9-4.7s-7.5-3.9-10.7-6.7
		C266.8,261.2,264.3,254.8,264.4,248.2z"/>
</g>
<g>
	<circle class="st2" cx="185.9" cy="202.5" r="8"/>
	<circle class="st2" cx="205.9" cy="211.2" r="5.6"/>
	<path class="st2" d="M252.4,313.1c0.4-8,2.1-15.8,3.2-23.7c2.2-15.7,1.8-31.6,1.3-47.5c-0.1-2.8-0.2-5.6-0.8-8.4
		c-2.3-10.4-10.7-18.8-17.6-26.5c-7.9-8.9-16.5-17.1-26.3-23.9c-12.1-8.5-37.3-25.7-71.7-33c-46-9.8-90.1,2-90.6,11.6
		c-0.1,2.5,3.8,2.7,5.4,3.3c6.1,2.2,0.1,6.3,5.2,9.4c1.4,0.8,3.1,1.2,4.6,1.6c1.4,0.4,2.4,1.2,3.7,1.7c7.5,3.2,8.4,9.6,10.3,16.8
		c0.5,1.9,1,3.9,1.9,5.7c0.9,1.7,2.2,2.8,3.3,4.3c1.3,1.8,0.7,1.9,0.1,4.1c-1.2,4.2-1.5,9.1-1,13.4c0.4,3.5,1.5,7,3.4,9.9
		c1.8,2.6,4.6,4.6,6.6,7.1c0.8,1,1.6,2.1,1.9,3.4c0.2,1.2,0,2.4-0.3,3.6c-4.3,19.3,3,47.7,22.4,56.7c7.1,3.3,15.1,4.2,22.8,3.6
		c4.1-0.3,16.4-1.3,19.3-4.4c-3.3,3.6-6.5,7.2-9,11.4c-5.4,9-6.5,25.1,0.4,33.8c1.6,2,3.3,3.3,4.5,4.1c-3.4,9.1-1.9,18.1,3.5,22.1
		c1.1,0.9,3.3,2.1,6.8,2.4c0.4,6.7,4.7,12.3,10.7,14.2c2.8,0.9,5.7,0.8,8.5,0c1.1-0.3,2.2-0.7,3.2-1.3c0.8-0.4,1.8-1.3,2.7-1.3
		c1.1,0.1,2.4,1.6,3.4,2.1c1.2,0.7,2.4,1.2,3.7,1.5c2.5,0.7,5.2,0.9,7.8,0.5c4.2-0.7,7.4-3,10.1-6.2c2.9-3.4,4.2-6.6,9.3-6.1
		c2.6,0.3,5.4,1.1,7.9,0.2c6.9-2.4,5.8-12.1,8.8-17.4c2.3-4,5-7.5,6.2-12c1.2-4.3,1.5-8.8,2.4-13.1c1.3-6,1.4-12.2,1.5-18.3
		C252.3,316.7,252.3,314.9,252.4,313.1z M67,162.7c-2.2,0-3.9-1.8-3.9-3.9s1.8-3.9,3.9-3.9s3.9,1.8,3.9,3.9S69.1,162.7,67,162.7z
		 M188.7,190.9c11.2,0.8,22.5,6.1,31.4,13c9.5,7.3,21.8,19.9,27,33c-4.2-3-9.3-5.6-15.3-8.1c-8.2-3.3-16.8-5.9-25.5-7.5
		c-1.7-0.3-3.4-0.6-5.1-0.9c-5.6-1-10.9-1.8-15.8-3.8c-6.8-2.7-11.7-7.5-13-12.8C169.5,193.1,180.7,190.3,188.7,190.9z M165,365.1
		c-2.6,0-4.7-2.1-4.7-4.7c0-2.6,2.1-4.7,4.7-4.7s4.7,2.1,4.7,4.7C169.7,363,167.6,365.1,165,365.1z M179.8,380.2
		c-3.3,0-5.9-2.6-5.9-5.9s2.6-5.9,5.9-5.9c3.3,0,5.9,2.6,5.9,5.9S183.1,380.2,179.8,380.2z M204.9,384.4c-2.6,0-4.7-2.1-4.7-4.7
		c0-2.6,2.1-4.7,4.7-4.7s4.7,2.1,4.7,4.7C209.6,382.3,207.5,384.4,204.9,384.4z M244.1,308c-0.7,11.8-1.5,23.7-4.3,35.2
		c-2.7,11.4-18.6,36.2-32.1,20.6c-0.9-1.1-1.9-2.4-3.3-2.5c-0.7,0-1.3,0.2-1.9,0.5c-8.8,3.9-19.2,0.2-25.1-7.1
		c-1.1-1.4-2.1-2.9-2.8-4.6c-0.7-1.5-1.1-3.1-1.5-4.8c-0.3-1.2-0.1-2.2-1.7-2.1c-8.1,0.1-13.6-1.8-15.2-10.5
		c-1.3-6.7,1.2-13.7,5.5-18.7c8.7-10.2,23.7-15.1,35.8-19.8c1.1-0.4,2.1-0.8,3.2-1.2c13.6-5,27.7-8.9,41.1-14.5
		c0.4-0.2,0.9-0.3,1.3-0.2c0.7,0.2,0.9,1.1,1,1.9C244.9,289.7,244.6,298.6,244.1,308z M240.8,266.6c-3.2,2.8-6.9,4.9-10.7,6.7
		s-7.9,3.3-11.9,4.7c-25.1,9.1-74.3,28.2-99.5,10.9c-11.5-7.9-17.6-26-16.1-39.5c0.3-2.5,1.1-5,2-7.3c0.3-0.8,2.8-7.3,3.5-7.3
		C97,234.4,90,224,92.5,213.4c0.7-3,2.1-5.6,4-8c0.2-0.2,0.1-0.5-0.1-0.7c-1-0.8-3.2-3.3-3.4-3.5c-1.5-1.7-3-3.4-4-5.6
		c-1-2.2-1.7-4.5-2.2-6.9c-1.5-6.9-0.6-13.9,3.1-19.9c2.2-3.6,5.2-6.7,9-8.4c6.1-2.7,14.4-1.9,20.9-1.7c14.2,0.5,28.9,6.1,40.4,14.5
		c4.8,3.5,9,8.1,11.5,13.4c-1.4,1.1-2.7,2.4-3.7,4.1c-2.8,4.4-3.7,9.9-2.5,14.7c2,7.5,8.2,13.9,17.2,17.5c5.6,2.3,11.5,3.3,17.2,4.2
		c1.7,0.3,3.4,0.6,5,0.9c8.3,1.6,16.4,4,24.2,7.1c9.3,3.8,15.9,8,20.5,13C249.7,254.8,247.2,261.2,240.8,266.6z"/>
</g>
<path class="st2" d="M286.1,154.6c-0.5-0.5-2,0.1-3.3,1.4c-0.9,0.9-1.5,1.8-1.6,2.5c-2.8,2.9-5,6.2-6.7,9.7c-2.4,5-3.2,9.3-4,14.3
	c-0.7,4.2-0.9,7.2-1.1,9.4c0,0.7-0.1,1.3-0.1,1.9c-0.6,7-3.7,14.3-9.1,21.6c-1-0.5-2-0.8-3.1-0.9v0c0,0-0.1,0-0.1,0c0,0-0.1,0-0.1,0
	l0,0c-1.1,0-2.2,0.4-3.1,0.9c-5.4-7.4-8.4-14.6-9.1-21.6c-0.1-0.6-0.1-1.2-0.1-1.9c-0.2-2.2-0.4-5.2-1.1-9.4c-0.9-5-1.6-9.3-4-14.3
	c-1.7-3.5-4-6.7-6.7-9.7c-0.1-0.7-0.7-1.6-1.6-2.5c-1.3-1.3-2.8-1.9-3.3-1.4c-0.5,0.5,0.2,2,1.5,3.3c1,1,2.1,1.6,2.8,1.6
	c2.6,2.8,4.8,5.9,6.4,9.2c2.3,4.8,3.1,9.1,3.9,14c0.7,4.1,0.9,7.1,1.1,9.3c0,0.7,0.1,1.3,0.1,1.9c0.7,7.2,3.8,14.6,9.2,22.1
	c-2.7,1.9-4.4,5.3-3.7,7.4c0.6,1.8,2.9,2.6,4.9,2.9c-3.3,3.8-5.6,13.4-5.6,24.6c0,6.6,0.8,12.5,2.1,17.2c-0.3,4.2-0.5,8.7-0.5,13.4
	c0,19.8,3,36,6.8,36.7l0,0c0,0,0.1,0,0.1,0c0,0,0.1,0,0.1,0v0c3.8-0.7,6.8-16.9,6.8-36.7c0-4.7-0.2-9.2-0.5-13.4
	c1.3-4.6,2.1-10.6,2.1-17.2c0-11.2-2.3-20.8-5.6-24.6c2-0.4,4.3-1.1,4.9-2.9c0.8-2.1-0.9-5.5-3.7-7.4c5.5-7.5,8.6-14.9,9.2-22.1
	c0.1-0.6,0.1-1.2,0.1-1.9c0.1-2.2,0.4-5.1,1.1-9.3c0.9-4.9,1.6-9.2,3.9-14c1.6-3.3,3.8-6.4,6.4-9.2c0.7,0,1.8-0.6,2.8-1.6
	C286,156.6,286.6,155.1,286.1,154.6z"/>
</svg>
