<svg xmlns="http://www.w3.org/2000/svg" xmlns:xlink="http://www.w3.org/1999/xlink" viewBox="0 0 152.74 190.38"><defs><clipPath id="clip-path"><circle cx="76.37" cy="76.37" r="76.37" fill="none"/></clipPath></defs><g id="Layer_2" data-name="Layer 2"><g id="Layer_1-2" data-name="Layer 1"><circle cx="76.37" cy="76.37" r="76.37" fill="#7392a6"/><g clip-path="url(#clip-path)"><path d="M81.92,189.14a8.29,8.29,0,0,1-4.71,1.21A6.67,6.67,0,0,1,71,184.62c-.45-3.9-.65-7.82-.9-11.73-1-15.66-2-31.32-3-47a83.8,83.8,0,0,1,1.52-20.37c0-.1.08-.19,0,0l18.19-.29c.09.43.16.75.23,1.07,1.8,8.59,1.66,17.25,1.05,26-1.18,17.07-2.24,34.14-3.42,51.21a20.21,20.21,0,0,1-1.2,4.11Z" fill="#f9f9f9"/><path d="M80.05,49.83a4.47,4.47,0,0,1,.16,1.29c-.69,4.17,1.13,7.39,3.75,10.37,2.39,2.71,4.83,5.4,7,8.28A19.79,19.79,0,0,1,94.7,81a31.08,31.08,0,0,1-2.43,14.56,16.92,16.92,0,0,1-5,6.61,2,2,0,0,1-1.09.37q-8.43,0-16.84-.08a2.08,2.08,0,0,1-1.17-.44,19.41,19.41,0,0,1-6.29-10.74,40.72,40.72,0,0,1,3-28.33c2.84-5.73,6.87-10.43,12.78-13.23a6.56,6.56,0,0,1,2-.27Zm9.2,30.08c-1.29-1.29-2.57-1.52-3.71-1s0,2.5.22,3.87a21.86,21.86,0,0,1,.35,2.9,12.19,12.19,0,0,1-2.27,6.59c-1,1.55-2.55,2.55-1.16,3.48a3,3,0,0,0,4.18-.85,16.93,16.93,0,0,0,3.08-12.83A13.57,13.57,0,0,0,89.25,79.91Z" fill="#f9f9f9"/></g></g></g></svg>