<svg xmlns="http://www.w3.org/2000/svg" viewBox="0 0 618.69 454.75"><g id="Layer_2" data-name="Layer 2"><g id="Layer_1-2" data-name="Layer 1"><path d="M589.58,55.38a151.25,151.25,0,0,1-16.46,24.95c-14.84,18.22-30.41,28.54-27.44,36.91,1.57,4.44,7.05,4.69,7,8-.14,6.81-13.72,7.71-17.78,10.44-10.52,7.09-4.93,29.32-6,40.17a142,142,0,0,1-8.49,36.06c-3,7.82-5.43,14.17-10.25,20.45A39.85,39.85,0,0,1,499.8,242c-10.71,6.82-20,5.62-31.72,7.36-8.11,1.21-19.66,4.29-33.2,12.91a92.75,92.75,0,0,1,29.93,12.64c8.48,5.52,22,14.29,29.48,32,0,0,8.53,20,3,41.91a71.64,71.64,0,0,1-3,9,62.1,62.1,0,0,1-5,9.48c.94,1.21,8.31,11.18,5,23.94-1.88,7.25-6.92,12.39-12.64,16.88,6,5.5,6.46,16.3,3,23.23a17,17,0,0,1-6.49,7.23c-6.05,3.54-13.66,2.14-20.49.57-3.65,7.58-9,13.86-17.74,15.32-8.14,1.44-14.74-1.31-21.11-6a1.82,1.82,0,0,0-.75-.37,1.65,1.65,0,0,0-.78.18c-7.58,3.14-15.85,5.13-23.79,2-7.28-2.9-12-10.67-14.81-17.65-3.47-8.57-5.3-17.85-9.2-26.21-1.29-2.77-3-5.38-4.49-8.08-6.06-11.32-11.3-23.08-16.36-34.88q-3.85-9-7.54-18.1c-12-29.47-18-44.2-22.95-62.86a355,355,0,0,1-8.84-44.79,352.87,352.87,0,0,1-8.83,44.79c-4.95,18.66-10.95,33.39-22.95,62.86-2.47,6.06-5,12.09-7.55,18.1-5.05,11.8-10.3,23.56-16.35,34.88-1.45,2.7-3.2,5.31-4.49,8.08-3.91,8.36-5.74,17.64-9.2,26.21-2.83,7-7.54,14.75-14.82,17.65-7.94,3.16-16.21,1.17-23.78-2a1.69,1.69,0,0,0-.79-.18,1.82,1.82,0,0,0-.75.37c-6.36,4.68-13,7.43-21.11,6-8.78-1.46-14.08-7.74-17.74-15.32-6.83,1.57-14.44,3-20.49-.57a17,17,0,0,1-6.48-7.23c-3.43-6.93-2.93-17.73,3-23.23-5.71-4.49-10.75-9.63-12.64-16.88-3.31-12.76,4.06-22.73,5-23.94a62.1,62.1,0,0,1-5-9.48,72.56,72.56,0,0,1-3-9c-5.53-21.9,3-41.91,3-41.91,7.53-17.67,21-26.44,29.48-32a92.79,92.79,0,0,1,29.94-12.64c-13.54-8.62-25.1-11.7-33.21-12.91-11.68-1.74-21-.54-31.72-7.36a40.17,40.17,0,0,1-10.29-9.61c-4.81-6.28-7.25-12.63-10.25-20.45a142,142,0,0,1-8.48-36.06c-1.13-10.85,4.46-33.08-6.06-40.17C79.74,132.94,66.17,132,66,125.23c-.07-3.3,5.41-3.55,7-8,3-8.37-12.61-18.69-27.44-36.91A150.78,150.78,0,0,1,29.1,55.38C7.43,36.94-3.8,18.92,1.16,9,5.5.3,21,.06,35.42,0,48.29,0,94,1.15,157.15,38.58c13.15,7.8,24.13,14.39,37.26,26C220,87.07,232.56,110,243.16,128.58c14.45,25.37,35.73,61.17,66.18,107.68,30.45-46.51,51.73-82.31,66.18-107.68,10.6-18.61,23.16-41.51,48.76-64.05C437.4,53,448.38,46.38,461.53,38.58,524.65,1.15,570.39,0,583.26,0c14.38.06,29.93.3,34.26,9C622.49,18.92,611.26,36.94,589.58,55.38Z" fill="none"/></g></g></svg>