<svg xmlns="http://www.w3.org/2000/svg" viewBox="0 0 618.69 454.75"><g id="Layer_2" data-name="Layer 2"><g id="Layer_1-2" data-name="Layer 1"><path d="M617.52,9C613.19.3,597.64.06,583.26,0c-12.87,0-58.61,1.15-121.73,38.58-13.15,7.8-24.13,14.39-37.25,26-25.6,22.54-38.16,45.44-48.76,64.05-14.45,25.37-35.73,61.17-66.18,107.68-30.45-46.51-51.73-82.31-66.18-107.68C232.56,110,220,87.07,194.41,64.53,181.28,53,170.3,46.38,157.15,38.58,94,1.15,48.29,0,35.42,0,21,.06,5.5.3,1.16,9c-5,9.94,6.27,28,27.94,46.4A150.78,150.78,0,0,0,45.57,80.33C60.4,98.55,76,108.87,73,117.24c-1.58,4.44-7.06,4.69-7,8,.15,6.81,13.72,7.71,17.78,10.44,10.52,7.09,4.93,29.32,6.06,40.17a142,142,0,0,0,8.48,36.06c3,7.82,5.44,14.17,10.25,20.45A40.17,40.17,0,0,0,118.88,242c10.72,6.82,20,5.62,31.72,7.36,8.11,1.21,19.67,4.29,33.21,12.91a92.79,92.79,0,0,0-29.94,12.64c-8.47,5.52-22,14.29-29.48,32,0,0-8.52,20-3,41.91a72.56,72.56,0,0,0,3,9,62.1,62.1,0,0,0,5,9.48c-.93,1.21-8.3,11.18-5,23.94,1.89,7.25,6.93,12.39,12.64,16.88-5.95,5.5-6.45,16.3-3,23.23a17,17,0,0,0,6.48,7.23c6,3.54,13.66,2.14,20.49.57,3.66,7.58,9,13.86,17.74,15.32,8.14,1.44,14.75-1.31,21.11-6a1.82,1.82,0,0,1,.75-.37,1.69,1.69,0,0,1,.79.18c7.57,3.14,15.84,5.13,23.78,2,7.28-2.9,12-10.67,14.82-17.65,3.46-8.57,5.29-17.85,9.2-26.21,1.29-2.77,3-5.38,4.49-8.08,6-11.32,11.3-23.08,16.35-34.88,2.58-6,5.08-12,7.55-18.1,12-29.47,18-44.2,22.95-62.86a352.87,352.87,0,0,0,8.83-44.79,355,355,0,0,0,8.84,44.79c4.95,18.66,10.95,33.39,22.95,62.86q3.69,9.09,7.54,18.1c5.06,11.8,10.3,23.56,16.36,34.88,1.44,2.7,3.2,5.31,4.49,8.08,3.9,8.36,5.73,17.64,9.2,26.21,2.82,7,7.53,14.75,14.81,17.65,7.94,3.16,16.21,1.17,23.79-2a1.65,1.65,0,0,1,.78-.18,1.82,1.82,0,0,1,.75.37c6.37,4.68,13,7.43,21.11,6,8.78-1.46,14.09-7.74,17.74-15.32,6.83,1.57,14.44,3,20.49-.57a17,17,0,0,0,6.49-7.23c3.43-6.93,2.92-17.73-3-23.23,5.72-4.49,10.76-9.63,12.64-16.88,3.32-12.76-4.05-22.73-5-23.94a62.1,62.1,0,0,0,5-9.48,71.64,71.64,0,0,0,3-9c5.53-21.9-3-41.91-3-41.91-7.52-17.67-21-26.44-29.48-32a92.75,92.75,0,0,0-29.93-12.64c13.54-8.62,25.09-11.7,33.2-12.91,11.68-1.74,21-.54,31.72-7.36a39.85,39.85,0,0,0,10.29-9.61c4.82-6.28,7.25-12.63,10.25-20.45a142,142,0,0,0,8.49-36.06c1.12-10.85-4.47-33.08,6-40.17,4.06-2.73,17.64-3.63,17.78-10.44.07-3.3-5.41-3.55-7-8-3-8.37,12.6-18.69,27.44-36.91a151.25,151.25,0,0,0,16.46-24.95C611.26,36.94,622.49,18.92,617.52,9Z" fill="#2b3a45"/></g></g></svg>