<svg xmlns="http://www.w3.org/2000/svg" viewBox="0 0 561.11 425.37"><g id="Layer_2" data-name="Layer 2"><g id="Layer_1-2" data-name="Layer 1"><path d="M4.48,20.11C.29,15.69-1.9,8.22,2.14,3.66,5.2.2,10.41-.1,15,0,38.19.63,60.43,6.72,82.31,13.9c11.08,3.63,21.72,9.28,32.24,14.43a23.42,23.42,0,0,1,3.62,2.05,1.91,1.91,0,0,1,.88,1.18A1.39,1.39,0,0,1,118,32.93a3.91,3.91,0,0,1-1.89-.1c-11-2.34-21.07-4.64-32.21-5.78a169.42,169.42,0,0,0-35.95.2C33.16,28.89,16.22,32.49,4.48,20.11Z" fill="#fff"/><path d="M96.79,172.77c1.06-3,6.69-8,3.15-11.19-5.39-4.91-10.1-11.79-11.92-16.33-2.2-5.49-2.55-11.12-.14-16.42,2.1-4.62,9.27-8.5,8.65-14.45a5.45,5.45,0,0,0-3.1-4.19A145.34,145.34,0,0,1,60.64,87.46c-16.17-14.91-41.16-43-2.51-47.35A156,156,0,0,1,168.67,70.68c34.4,26.15,50.19,68.64,73.8,103.68,5.05,7.48,10.31,14.84,14.86,22.63,2.85,4.89,6.56,10.4,6.45,16.26-.18,9.32-13.21,11.14-20.28,11.48-24.82,1.19-50.68,2-75.36-1.26-16.77-2.21-33.26-6.17-48.75-13.07-9.6-4.27-19.08-12-22.78-22A23.48,23.48,0,0,1,96.79,172.77Z" fill="#fff"/><path d="M106.37,370.56a6.19,6.19,0,1,1,6.17,5.74A6,6,0,0,1,106.37,370.56Z" fill="#fff"/><path d="M124.8,411.1a10.27,10.27,0,1,1,9.92-10.26A10.09,10.09,0,0,1,124.8,411.1Z" fill="#fff"/><path d="M149.51,425.37c-4.32,0-7.83-3.19-7.83-7.13s3.51-7.14,7.83-7.14,7.83,3.2,7.83,7.14S153.84,425.37,149.51,425.37Z" fill="#fff"/><path d="M144.86,380.13c-9.17.51-20.13-4.47-22.8-12.18-2.49-7.18,2.49-15.95,17.66-30.71-8.1,2.31-18.61,4.65-26.9,1.68-7.14-2.57-8.23-10.87-9.37-17.28a51.83,51.83,0,0,1,4-28.6c14.25-30.48,56-35.47,84.47-44.26C213,242.3,235.34,237,254,232.66a9.69,9.69,0,0,1,6.45,1.26c2,1,3.52,3.11,3.26,5.3a4.11,4.11,0,0,1-.18.86,11.25,11.25,0,0,1-1.29,2.51c-5.13,8.16-11.11,15-17.3,22.45-16.09,19.23-32.53,38.4-48,58.19C165.38,363.8,160,379.3,144.86,380.13Z" fill="#fff"/><ellipse cx="185.18" cy="405.19" rx="15.31" ry="14.62" fill="#fff"/><path d="M264.46,260.15c-1,10.79-7,22.22-10.91,32.27a298.39,298.39,0,0,1-19.05,39.85c-7.33,12.82-14.57,25.91-24.15,37.22-.77.9-1.55,1.79-2.35,2.67-6.73,7.41-20.79,17.82-30.95,10.08-5.74-4.37-.22-11.53,3.07-16.78,16.87-26.92,37.25-51.68,56.5-76.95,8-10.47,15.82-21,24.16-31.15,1.17-1.43,2.27-1.9,3.1-1.68C265,256,264.66,258.06,264.46,260.15Z" fill="#fff"/><path d="M353.1,372.16q-1.19-1.32-2.34-2.67c-9.58-11.31-16.82-24.4-24.15-37.22a298.39,298.39,0,0,1-19.05-39.85c-3.95-10.05-9.89-21.48-10.91-32.27-.2-2.09-.51-4.18.57-4.47.84-.22,1.94.25,3.11,1.68,8.33,10.18,16.17,20.68,24.16,31.15,19.25,25.27,39.63,50,56.5,76.95,3.29,5.25,8.81,12.41,3.07,16.78C373.9,390,359.83,379.57,353.1,372.16Z" fill="#fff"/><ellipse cx="375.93" cy="405.19" rx="15.31" ry="14.62" fill="#fff"/><path d="M411.6,425.37c-4.33,0-7.83-3.19-7.83-7.13s3.5-7.14,7.83-7.14,7.83,3.2,7.83,7.14S415.92,425.37,411.6,425.37Z" fill="#fff"/><path d="M436.31,411.1a10.27,10.27,0,1,1,9.91-10.26A10.09,10.09,0,0,1,436.31,411.1Z" fill="#fff"/><path d="M448.56,376.3a5.75,5.75,0,1,1,6.17-5.74A6,6,0,0,1,448.56,376.3Z" fill="#fff"/><path d="M457.66,321.64c-1.14,6.41-2.23,14.71-9.37,17.28-8.29,3-18.8.63-26.9-1.68C436.55,352,441.53,360.77,439.05,368c-2.67,7.71-13.63,12.69-22.81,12.18-15.12-.83-20.52-16.33-52.15-56.9-15.43-19.79-31.87-39-48-58.19-6.2-7.4-12.17-14.29-17.3-22.45a11.25,11.25,0,0,1-1.29-2.51,4.88,4.88,0,0,1-.19-.86c-.25-2.19,1.31-4.28,3.27-5.3a9.68,9.68,0,0,1,6.44-1.26c18.71,4.34,41.06,9.64,62.09,16.12,28.48,8.79,70.22,13.78,84.47,44.26A51.83,51.83,0,0,1,457.66,321.64Z" fill="#fff"/><path d="M500.88,87.46a142.5,142.5,0,0,1-32.2,22.73,5.46,5.46,0,0,0-3,4.19c-.61,6,6.43,9.83,8.49,14.45,2.37,5.3,2,10.93-.13,16.42-1.79,4.54-6.41,11.42-11.7,16.33-3.48,3.23,2,8.2,3.09,11.19a24,24,0,0,1,.17,15.59c-3.63,10.06-12.94,17.77-22.36,22-15.22,6.9-31.41,10.86-47.89,13.07-24.22,3.27-49.62,2.45-74,1.26-6.95-.34-19.74-2.16-19.92-11.48-.11-5.86,3.54-11.37,6.34-16.26,4.47-7.79,9.63-15.15,14.58-22.63,23.19-35,38.7-77.53,72.48-103.68,30.45-23.58,70.23-35,108.55-30.57C541.3,44.48,516.76,72.55,500.88,87.46Z" fill="#fff"/><path d="M556.62,20.11C544.89,32.49,528,28.89,513.2,27.25a169.42,169.42,0,0,0-36-.2C466.11,28.19,456,30.49,445,32.83a3.91,3.91,0,0,1-1.89.1,1.39,1.39,0,0,1-1.09-1.37,1.91,1.91,0,0,1,.88-1.18,23.8,23.8,0,0,1,3.61-2.05c10.52-5.15,21.17-10.8,32.24-14.43C500.67,6.72,522.92.63,546.09,0,550.7-.1,555.91.2,559,3.66,563,8.22,560.82,15.69,556.62,20.11Z" fill="#fff"/></g></g></svg>